<svg width="31" height="31" viewBox="0 0 31 31" fill="none" xmlns="http://www.w3.org/2000/svg">
<path d="M26.614 3.39062H4.35499C3.81969 3.39062 3.38721 3.82354 3.38721 4.35938V26.6406C3.38721 27.1765 3.81969 27.6094 4.35499 27.6094H26.614C27.1493 27.6094 27.5818 27.1765 27.5818 26.6406V4.35938C27.5818 3.82354 27.1493 3.39062 26.614 3.39062ZM25.4043 25.4297H5.56472V5.57031H25.4043V25.4297ZM9.21811 15.8633H10.7514C10.8633 15.8633 10.9571 15.7725 10.9571 15.6574V13.2688C10.9571 12.6725 11.438 12.1911 12.0307 12.1911H18.2518V13.8077C18.2518 13.9803 18.4483 14.0741 18.5814 13.9682L21.881 11.3737C21.9868 11.292 21.9868 11.1315 21.881 11.0498L18.5814 8.45537C18.4483 8.34941 18.2518 8.44629 18.2518 8.61582V10.2324H12.0277C10.3613 10.2324 9.01245 11.5887 9.01245 13.2628V15.6514C9.01245 15.7725 9.10318 15.8633 9.21811 15.8633ZM9.09108 19.9472L12.3906 22.5416C12.5237 22.6476 12.7203 22.5507 12.7203 22.3812V20.7646H18.9413C20.6077 20.7646 21.9566 19.4083 21.9566 17.7342V15.3456C21.9566 15.2336 21.8658 15.1397 21.7509 15.1397H20.2176C20.1057 15.1397 20.0119 15.2306 20.0119 15.3456V17.7342C20.0119 18.3306 19.5311 18.8119 18.9383 18.8119H12.7203V17.1953C12.7203 17.0228 12.5237 16.9289 12.3906 17.0349L9.09108 19.6293C8.98523 19.705 8.98523 19.8654 9.09108 19.9472Z" fill="#595959"/>
</svg>
