<svg width="33" height="31" viewBox="0 0 33 31" fill="none" xmlns="http://www.w3.org/2000/svg">
<path d="M28.0723 3.39062H5.19089C4.64062 3.39062 4.19604 3.82354 4.19604 4.35938V26.6406C4.19604 27.1765 4.64062 27.6094 5.19089 27.6094H28.0723C28.6226 27.6094 29.0671 27.1765 29.0671 26.6406V4.35938C29.0671 3.82354 28.6226 3.39062 28.0723 3.39062ZM26.8287 25.4297H6.43444V5.57031H26.8287V25.4297ZM10.19 15.8633H11.7662C11.8812 15.8633 11.9776 15.7725 11.9776 15.6574V13.2688C11.9776 12.6725 12.4719 12.1911 13.0812 12.1911H19.4762V13.8077C19.4762 13.9803 19.6783 14.0741 19.8151 13.9682L23.2069 11.3737C23.3157 11.292 23.3157 11.1315 23.2069 11.0498L19.8151 8.45537C19.6783 8.34941 19.4762 8.44629 19.4762 8.61582V10.2324H13.0781C11.3651 10.2324 9.97857 11.5887 9.97857 13.2628V15.6514C9.97857 15.7725 10.0718 15.8633 10.19 15.8633ZM10.0594 19.9472L13.4512 22.5416C13.588 22.6476 13.7901 22.5507 13.7901 22.3812V20.7646H20.185C21.898 20.7646 23.2846 19.4083 23.2846 17.7342V15.3456C23.2846 15.2336 23.1913 15.1397 23.0732 15.1397H21.497C21.382 15.1397 21.2856 15.2306 21.2856 15.3456V17.7342C21.2856 18.3306 20.7913 18.8119 20.1819 18.8119H13.7901V17.1953C13.7901 17.0228 13.588 16.9289 13.4512 17.0349L10.0594 19.6293C9.95059 19.705 9.95059 19.8654 10.0594 19.9472Z" fill="#C04423"/>
</svg>
