<svg width="25" height="25" viewBox="0 0 25 25" fill="none" xmlns="http://www.w3.org/2000/svg">
<path d="M23.614 0.390625H1.35499C0.819686 0.390625 0.387207 0.823535 0.387207 1.35938V23.6406C0.387207 24.1765 0.819686 24.6094 1.35499 24.6094H23.614C24.1493 24.6094 24.5818 24.1765 24.5818 23.6406V1.35938C24.5818 0.823535 24.1493 0.390625 23.614 0.390625ZM22.4043 22.4297H2.56472V2.57031H22.4043V22.4297ZM6.21811 12.8633H7.75144C7.86334 12.8633 7.95709 12.7725 7.95709 12.6574V10.2688C7.95709 9.67246 8.43796 9.19111 9.03073 9.19111H15.2518V10.8077C15.2518 10.9803 15.4483 11.0741 15.5814 10.9682L18.881 8.37373C18.9868 8.29199 18.9868 8.13154 18.881 8.0498L15.5814 5.45537C15.4483 5.34941 15.2518 5.44629 15.2518 5.61582V7.23242H9.02771C7.3613 7.23242 6.01245 8.58867 6.01245 10.2628V12.6514C6.01245 12.7725 6.10318 12.8633 6.21811 12.8633ZM6.09108 16.9472L9.39062 19.5416C9.52369 19.6476 9.72027 19.5507 9.72027 19.3812V17.7646H15.9413C17.6077 17.7646 18.9566 16.4083 18.9566 14.7342V12.3456C18.9566 12.2336 18.8658 12.1397 18.7509 12.1397H17.2176C17.1057 12.1397 17.0119 12.2306 17.0119 12.3456V14.7342C17.0119 15.3306 16.5311 15.8119 15.9383 15.8119H9.72027V14.1953C9.72027 14.0228 9.52369 13.9289 9.39062 14.0349L6.09108 16.6293C5.98523 16.705 5.98523 16.8654 6.09108 16.9472Z" fill="#595959"/>
</svg>
