<svg width="36" height="35" viewBox="0 0 36 35" fill="none" xmlns="http://www.w3.org/2000/svg">
<path d="M30.311 10.5893C29.8289 9.54672 28.8411 8.91041 27.7745 8.81023L24.6554 2.06532C24.4769 1.67925 23.6943 0.795393 22.5904 1.30589C22.2763 1.45116 22.0129 1.70042 21.8521 2.02328L19.4884 6.7598C18.3006 9.13755 16.3185 11.0615 13.9068 12.1768L5.43544 16.0942C3.87573 16.8155 3.1962 18.6641 3.91746 20.2238L5.87619 24.4595C6.59745 26.0193 8.4461 26.6988 10.0058 25.9775L11.4927 25.2899C11.6452 25.7807 11.8279 26.2671 12.0494 26.7463C12.8609 28.501 14.0362 29.9702 15.4407 31.1197C15.8879 31.4854 16.5177 31.5353 17.0419 31.2929L20.3193 29.7774C21.4686 29.2459 21.5499 27.6102 20.4304 27.0181C19.2677 26.4032 18.2899 25.4179 17.6966 24.1349C17.4699 23.6447 17.3235 23.1404 17.2383 22.633L18.4772 22.0601C20.8889 20.9448 23.6385 20.6807 26.2191 21.3158L31.3588 22.5825C31.7016 22.667 32.063 22.6325 32.3836 22.4846C33.4831 21.9761 33.3307 20.8266 33.1426 20.4198L30.0235 13.6749C30.6382 12.7967 30.7932 11.6319 30.311 10.5893ZM28.9608 18.7878L26.9631 18.2955C23.6991 17.4912 20.2211 17.826 17.1714 19.2363L15.2127 15.0006C18.2624 13.5903 20.77 11.1571 22.2711 8.14925L23.1899 6.30833L28.9608 18.7878Z" fill="#595959"/>
</svg>
