<svg width="34" height="24" viewBox="0 0 34 24" fill="none" xmlns="http://www.w3.org/2000/svg">
<path d="M32 0.333252H2.00004C1.55801 0.333252 1.13409 0.508847 0.821529 0.821408C0.508969 1.13397 0.333374 1.55789 0.333374 1.99992V8.66659H1.82171C3.48171 8.66659 5.02171 9.80159 5.28837 11.4399C5.36961 11.9183 5.34548 12.4087 5.21765 12.8768C5.08982 13.3449 4.86139 13.7795 4.54828 14.1502C4.23517 14.5209 3.84494 14.8188 3.40482 15.0231C2.9647 15.2275 2.48529 15.3333 2.00004 15.3333H0.333374V21.9999C0.333374 22.4419 0.508969 22.8659 0.821529 23.1784C1.13409 23.491 1.55801 23.6666 2.00004 23.6666H32C32.4421 23.6666 32.866 23.491 33.1786 23.1784C33.4911 22.8659 33.6667 22.4419 33.6667 21.9999V15.3333H32C31.5148 15.3333 31.0354 15.2275 30.5953 15.0231C30.1551 14.8188 29.7649 14.5209 29.4518 14.1502C29.1387 13.7795 28.9103 13.3449 28.7824 12.8768C28.6546 12.4087 28.6305 11.9183 28.7117 11.4399C28.9784 9.80159 30.5184 8.66659 32.1784 8.66659H33.6667V1.99992C33.6667 1.55789 33.4911 1.13397 33.1786 0.821408C32.866 0.508847 32.4421 0.333252 32 0.333252ZM15.3334 20.3333H12V16.9999H15.3334V20.3333ZM15.3334 13.6666H12V10.3333H15.3334V13.6666ZM15.3334 6.99992H12V3.66659H15.3334V6.99992Z" fill="#595959"/>
</svg>
