<svg width="89" height="96" viewBox="0 0 89 96" fill="none" xmlns="http://www.w3.org/2000/svg">
<path d="M0.518 64.114C0.518 63.162 0.737333 62.308 1.176 61.552C1.624 60.796 2.226 60.208 2.982 59.788C3.74733 59.3587 4.58267 59.144 5.488 59.144C6.524 59.144 7.44333 59.4007 8.246 59.914C9.058 60.418 9.646 61.1367 10.01 62.07H8.092C7.84 61.5567 7.49 61.174 7.042 60.922C6.594 60.67 6.076 60.544 5.488 60.544C4.844 60.544 4.27 60.6887 3.766 60.978C3.262 61.2673 2.86533 61.6827 2.576 62.224C2.296 62.7653 2.156 63.3953 2.156 64.114C2.156 64.8327 2.296 65.4627 2.576 66.004C2.86533 66.5453 3.262 66.9653 3.766 67.264C4.27 67.5533 4.844 67.698 5.488 67.698C6.076 67.698 6.594 67.572 7.042 67.32C7.49 67.068 7.84 66.6853 8.092 66.172H10.01C9.646 67.1053 9.058 67.824 8.246 68.328C7.44333 68.832 6.524 69.084 5.488 69.084C4.57333 69.084 3.738 68.874 2.982 68.454C2.226 68.0247 1.624 67.432 1.176 66.676C0.737333 65.92 0.518 65.066 0.518 64.114ZM11.3461 65.108C11.3461 64.3333 11.5048 63.6473 11.8221 63.05C12.1488 62.4527 12.5875 61.9907 13.1381 61.664C13.6981 61.328 14.3141 61.16 14.9861 61.16C15.5928 61.16 16.1201 61.2813 16.5681 61.524C17.0255 61.7573 17.3895 62.0513 17.6601 62.406V61.286H19.2701V69H17.6601V67.852C17.3895 68.216 17.0208 68.5193 16.5541 68.762C16.0875 69.0047 15.5555 69.126 14.9581 69.126C14.2955 69.126 13.6888 68.958 13.1381 68.622C12.5875 68.2767 12.1488 67.8007 11.8221 67.194C11.5048 66.578 11.3461 65.8827 11.3461 65.108ZM17.6601 65.136C17.6601 64.604 17.5481 64.142 17.3241 63.75C17.1095 63.358 16.8248 63.0593 16.4701 62.854C16.1155 62.6487 15.7328 62.546 15.3221 62.546C14.9115 62.546 14.5288 62.6487 14.1741 62.854C13.8195 63.05 13.5301 63.344 13.3061 63.736C13.0915 64.1187 12.9841 64.576 12.9841 65.108C12.9841 65.64 13.0915 66.1067 13.3061 66.508C13.5301 66.9093 13.8195 67.2173 14.1741 67.432C14.5381 67.6373 14.9208 67.74 15.3221 67.74C15.7328 67.74 16.1155 67.6373 16.4701 67.432C16.8248 67.2267 17.1095 66.928 17.3241 66.536C17.5481 66.1347 17.6601 65.668 17.6601 65.136ZM30.7044 61.16C31.3111 61.16 31.8524 61.286 32.3284 61.538C32.8137 61.79 33.1917 62.1633 33.4624 62.658C33.7424 63.1527 33.8824 63.75 33.8824 64.45V69H32.3004V64.688C32.3004 63.9973 32.1277 63.47 31.7824 63.106C31.4371 62.7327 30.9657 62.546 30.3684 62.546C29.7711 62.546 29.2951 62.7327 28.9404 63.106C28.5951 63.47 28.4224 63.9973 28.4224 64.688V69H26.8404V64.688C26.8404 63.9973 26.6677 63.47 26.3224 63.106C25.9771 62.7327 25.5057 62.546 24.9084 62.546C24.3111 62.546 23.8351 62.7327 23.4804 63.106C23.1351 63.47 22.9624 63.9973 22.9624 64.688V69H21.3664V61.286H22.9624V62.168C23.2237 61.8507 23.5551 61.6033 23.9564 61.426C24.3577 61.2487 24.7871 61.16 25.2444 61.16C25.8604 61.16 26.4111 61.2907 26.8964 61.552C27.3817 61.8133 27.7551 62.1913 28.0164 62.686C28.2497 62.2193 28.6137 61.8507 29.1084 61.58C29.6031 61.3 30.1351 61.16 30.7044 61.16ZM37.5093 62.42C37.7799 62.0653 38.1486 61.7667 38.6153 61.524C39.0819 61.2813 39.6093 61.16 40.1973 61.16C40.8693 61.16 41.4806 61.328 42.0313 61.664C42.5913 61.9907 43.0299 62.4527 43.3473 63.05C43.6646 63.6473 43.8233 64.3333 43.8233 65.108C43.8233 65.8827 43.6646 66.578 43.3473 67.194C43.0299 67.8007 42.5913 68.2767 42.0313 68.622C41.4806 68.958 40.8693 69.126 40.1973 69.126C39.6093 69.126 39.0866 69.0093 38.6293 68.776C38.1719 68.5333 37.7986 68.2347 37.5093 67.88V72.668H35.9133V61.286H37.5093V62.42ZM42.1993 65.108C42.1993 64.576 42.0873 64.1187 41.8633 63.736C41.6486 63.344 41.3593 63.05 40.9953 62.854C40.6406 62.6487 40.2579 62.546 39.8473 62.546C39.4459 62.546 39.0633 62.6487 38.6993 62.854C38.3446 63.0593 38.0553 63.358 37.8313 63.75C37.6166 64.142 37.5093 64.604 37.5093 65.136C37.5093 65.668 37.6166 66.1347 37.8313 66.536C38.0553 66.928 38.3446 67.2267 38.6993 67.432C39.0633 67.6373 39.4459 67.74 39.8473 67.74C40.2579 67.74 40.6406 67.6373 40.9953 67.432C41.3593 67.2173 41.6486 66.9093 41.8633 66.508C42.0873 66.1067 42.1993 65.64 42.1993 65.108ZM44.8696 65.108C44.8696 64.3333 45.0282 63.6473 45.3456 63.05C45.6722 62.4527 46.1109 61.9907 46.6616 61.664C47.2216 61.328 47.8376 61.16 48.5096 61.16C49.1162 61.16 49.6436 61.2813 50.0916 61.524C50.5489 61.7573 50.9129 62.0513 51.1836 62.406V61.286H52.7936V69H51.1836V67.852C50.9129 68.216 50.5442 68.5193 50.0776 68.762C49.6109 69.0047 49.0789 69.126 48.4816 69.126C47.8189 69.126 47.2122 68.958 46.6616 68.622C46.1109 68.2767 45.6722 67.8007 45.3456 67.194C45.0282 66.578 44.8696 65.8827 44.8696 65.108ZM51.1836 65.136C51.1836 64.604 51.0716 64.142 50.8476 63.75C50.6329 63.358 50.3482 63.0593 49.9936 62.854C49.6389 62.6487 49.2562 62.546 48.8456 62.546C48.4349 62.546 48.0522 62.6487 47.6976 62.854C47.3429 63.05 47.0536 63.344 46.8296 63.736C46.6149 64.1187 46.5076 64.576 46.5076 65.108C46.5076 65.64 46.6149 66.1067 46.8296 66.508C47.0536 66.9093 47.3429 67.2173 47.6976 67.432C48.0616 67.6373 48.4442 67.74 48.8456 67.74C49.2562 67.74 49.6389 67.6373 49.9936 67.432C50.3482 67.2267 50.6329 66.928 50.8476 66.536C51.0716 66.1347 51.1836 65.668 51.1836 65.136ZM55.7018 60.264C55.4125 60.264 55.1698 60.166 54.9738 59.97C54.7778 59.774 54.6798 59.5313 54.6798 59.242C54.6798 58.9527 54.7778 58.71 54.9738 58.514C55.1698 58.318 55.4125 58.22 55.7018 58.22C55.9818 58.22 56.2198 58.318 56.4158 58.514C56.6118 58.71 56.7098 58.9527 56.7098 59.242C56.7098 59.5313 56.6118 59.774 56.4158 59.97C56.2198 60.166 55.9818 60.264 55.7018 60.264ZM56.4858 61.286V69H54.8898V61.286H56.4858ZM61.6893 61.16C62.2866 61.16 62.8139 61.2813 63.2713 61.524C63.7379 61.7573 64.1019 62.0513 64.3633 62.406V61.286H65.9733V69.126C65.9733 69.8353 65.8239 70.4653 65.5253 71.016C65.2266 71.576 64.7926 72.0147 64.2233 72.332C63.6633 72.6493 62.9913 72.808 62.2073 72.808C61.1619 72.808 60.2939 72.5607 59.6033 72.066C58.9126 71.5807 58.5206 70.918 58.4273 70.078H60.0093C60.1306 70.4793 60.3873 70.8013 60.7793 71.044C61.1806 71.296 61.6566 71.422 62.2073 71.422C62.8513 71.422 63.3693 71.226 63.7613 70.834C64.1626 70.442 64.3633 69.8727 64.3633 69.126V67.838C64.0926 68.202 63.7239 68.51 63.2573 68.762C62.7999 69.0047 62.2773 69.126 61.6893 69.126C61.0173 69.126 60.4013 68.958 59.8413 68.622C59.2906 68.2767 58.8519 67.8007 58.5253 67.194C58.2079 66.578 58.0493 65.8827 58.0493 65.108C58.0493 64.3333 58.2079 63.6473 58.5253 63.05C58.8519 62.4527 59.2906 61.9907 59.8413 61.664C60.4013 61.328 61.0173 61.16 61.6893 61.16ZM64.3633 65.136C64.3633 64.604 64.2513 64.142 64.0273 63.75C63.8126 63.358 63.5279 63.0593 63.1733 62.854C62.8186 62.6487 62.4359 62.546 62.0253 62.546C61.6146 62.546 61.2319 62.6487 60.8773 62.854C60.5226 63.05 60.2333 63.344 60.0093 63.736C59.7946 64.1187 59.6873 64.576 59.6873 65.108C59.6873 65.64 59.7946 66.1067 60.0093 66.508C60.2333 66.9093 60.5226 67.2173 60.8773 67.432C61.2413 67.6373 61.6239 67.74 62.0253 67.74C62.4359 67.74 62.8186 67.6373 63.1733 67.432C63.5279 67.2267 63.8126 66.928 64.0273 66.536C64.2513 66.1347 64.3633 65.668 64.3633 65.136ZM71.9615 61.16C72.5682 61.16 73.1095 61.286 73.5855 61.538C74.0709 61.79 74.4489 62.1633 74.7195 62.658C74.9902 63.1527 75.1255 63.75 75.1255 64.45V69H73.5435V64.688C73.5435 63.9973 73.3709 63.47 73.0255 63.106C72.6802 62.7327 72.2089 62.546 71.6115 62.546C71.0142 62.546 70.5382 62.7327 70.1835 63.106C69.8382 63.47 69.6655 63.9973 69.6655 64.688V69H68.0695V61.286H69.6655V62.168C69.9269 61.8507 70.2582 61.6033 70.6595 61.426C71.0702 61.2487 71.5042 61.16 71.9615 61.16ZM79.9613 69.126C79.3547 69.126 78.8087 69.0187 78.3233 68.804C77.8473 68.58 77.4693 68.2813 77.1893 67.908C76.9093 67.5253 76.76 67.1007 76.7413 66.634H78.3933C78.4213 66.9607 78.5753 67.236 78.8553 67.46C79.1447 67.6747 79.504 67.782 79.9333 67.782C80.3813 67.782 80.7267 67.698 80.9693 67.53C81.2213 67.3527 81.3473 67.1287 81.3473 66.858C81.3473 66.5687 81.2073 66.354 80.9273 66.214C80.6567 66.074 80.2227 65.92 79.6253 65.752C79.0467 65.5933 78.5753 65.4393 78.2113 65.29C77.8473 65.1407 77.53 64.912 77.2593 64.604C76.998 64.296 76.8673 63.89 76.8673 63.386C76.8673 62.9753 76.9887 62.602 77.2313 62.266C77.474 61.9207 77.8193 61.65 78.2673 61.454C78.7247 61.258 79.2473 61.16 79.8353 61.16C80.7127 61.16 81.4173 61.384 81.9493 61.832C82.4907 62.2707 82.78 62.8727 82.8173 63.638H81.2213C81.1933 63.2927 81.0533 63.0173 80.8013 62.812C80.5493 62.6067 80.2087 62.504 79.7793 62.504C79.3593 62.504 79.0373 62.5833 78.8133 62.742C78.5893 62.9007 78.4773 63.1107 78.4773 63.372C78.4773 63.5773 78.552 63.75 78.7013 63.89C78.8507 64.03 79.0327 64.142 79.2473 64.226C79.462 64.3007 79.7793 64.3987 80.1993 64.52C80.7593 64.6693 81.2167 64.8233 81.5713 64.982C81.9353 65.1313 82.248 65.3553 82.5093 65.654C82.7707 65.9527 82.906 66.3493 82.9153 66.844C82.9153 67.2827 82.794 67.6747 82.5513 68.02C82.3087 68.3653 81.9633 68.636 81.5153 68.832C81.0767 69.028 80.5587 69.126 79.9613 69.126ZM5.488 90.098C4.58267 90.098 3.74733 89.888 2.982 89.468C2.226 89.0387 1.624 88.446 1.176 87.69C0.737333 86.9247 0.518 86.066 0.518 85.114C0.518 84.162 0.737333 83.308 1.176 82.552C1.624 81.796 2.226 81.208 2.982 80.788C3.74733 80.3587 4.58267 80.144 5.488 80.144C6.40267 80.144 7.238 80.3587 7.994 80.788C8.75933 81.208 9.36133 81.796 9.8 82.552C10.2387 83.308 10.458 84.162 10.458 85.114C10.458 86.066 10.2387 86.9247 9.8 87.69C9.36133 88.446 8.75933 89.0387 7.994 89.468C7.238 89.888 6.40267 90.098 5.488 90.098ZM5.488 88.712C6.132 88.712 6.706 88.5673 7.21 88.278C7.714 87.9793 8.106 87.5593 8.386 87.018C8.67533 86.4673 8.82 85.8327 8.82 85.114C8.82 84.3953 8.67533 83.7653 8.386 83.224C8.106 82.6827 7.714 82.2673 7.21 81.978C6.706 81.6887 6.132 81.544 5.488 81.544C4.844 81.544 4.27 81.6887 3.766 81.978C3.262 82.2673 2.86533 82.6827 2.576 83.224C2.296 83.7653 2.156 84.3953 2.156 85.114C2.156 85.8327 2.296 86.4673 2.576 87.018C2.86533 87.5593 3.262 87.9793 3.766 88.278C4.27 88.5673 4.844 88.712 5.488 88.712ZM15.9205 82.16C16.5272 82.16 17.0685 82.286 17.5445 82.538C18.0298 82.79 18.4078 83.1633 18.6785 83.658C18.9492 84.1527 19.0845 84.75 19.0845 85.45V90H17.5025V85.688C17.5025 84.9973 17.3298 84.47 16.9845 84.106C16.6392 83.7327 16.1678 83.546 15.5705 83.546C14.9732 83.546 14.4972 83.7327 14.1425 84.106C13.7972 84.47 13.6245 84.9973 13.6245 85.688V90H12.0285V82.286H13.6245V83.168C13.8858 82.8507 14.2172 82.6033 14.6185 82.426C15.0292 82.2487 15.4632 82.16 15.9205 82.16ZM24.2283 82.16C24.8256 82.16 25.353 82.2813 25.8103 82.524C26.277 82.7573 26.641 83.0513 26.9023 83.406V82.286H28.5123V90.126C28.5123 90.8353 28.363 91.4653 28.0643 92.016C27.7656 92.576 27.3316 93.0147 26.7623 93.332C26.2023 93.6493 25.5303 93.808 24.7463 93.808C23.701 93.808 22.833 93.5607 22.1423 93.066C21.4516 92.5807 21.0596 91.918 20.9663 91.078H22.5483C22.6696 91.4793 22.9263 91.8013 23.3183 92.044C23.7196 92.296 24.1956 92.422 24.7463 92.422C25.3903 92.422 25.9083 92.226 26.3003 91.834C26.7016 91.442 26.9023 90.8727 26.9023 90.126V88.838C26.6316 89.202 26.263 89.51 25.7963 89.762C25.339 90.0047 24.8163 90.126 24.2283 90.126C23.5563 90.126 22.9403 89.958 22.3803 89.622C21.8296 89.2767 21.391 88.8007 21.0643 88.194C20.747 87.578 20.5883 86.8827 20.5883 86.108C20.5883 85.3333 20.747 84.6473 21.0643 84.05C21.391 83.4527 21.8296 82.9907 22.3803 82.664C22.9403 82.328 23.5563 82.16 24.2283 82.16ZM26.9023 86.136C26.9023 85.604 26.7903 85.142 26.5663 84.75C26.3516 84.358 26.067 84.0593 25.7123 83.854C25.3576 83.6487 24.975 83.546 24.5643 83.546C24.1536 83.546 23.771 83.6487 23.4163 83.854C23.0616 84.05 22.7723 84.344 22.5483 84.736C22.3336 85.1187 22.2263 85.576 22.2263 86.108C22.2263 86.64 22.3336 87.1067 22.5483 87.508C22.7723 87.9093 23.0616 88.2173 23.4163 88.432C23.7803 88.6373 24.163 88.74 24.5643 88.74C24.975 88.74 25.3576 88.6373 25.7123 88.432C26.067 88.2267 26.3516 87.928 26.5663 87.536C26.7903 87.1347 26.9023 86.668 26.9023 86.136ZM33.9546 90.126C33.2266 90.126 32.5686 89.9627 31.9806 89.636C31.3926 89.3 30.9306 88.8333 30.5946 88.236C30.2586 87.6293 30.0906 86.9293 30.0906 86.136C30.0906 85.352 30.2633 84.6567 30.6086 84.05C30.9539 83.4433 31.4253 82.9767 32.0226 82.65C32.6199 82.3233 33.2873 82.16 34.0246 82.16C34.7619 82.16 35.4293 82.3233 36.0266 82.65C36.6239 82.9767 37.0953 83.4433 37.4406 84.05C37.7859 84.6567 37.9586 85.352 37.9586 86.136C37.9586 86.92 37.7813 87.6153 37.4266 88.222C37.0719 88.8287 36.5866 89.3 35.9706 89.636C35.3639 89.9627 34.6919 90.126 33.9546 90.126ZM33.9546 88.74C34.3653 88.74 34.7479 88.642 35.1026 88.446C35.4666 88.25 35.7606 87.956 35.9846 87.564C36.2086 87.172 36.3206 86.696 36.3206 86.136C36.3206 85.576 36.2133 85.1047 35.9986 84.722C35.7839 84.33 35.4993 84.036 35.1446 83.84C34.7899 83.644 34.4073 83.546 33.9966 83.546C33.5859 83.546 33.2033 83.644 32.8486 83.84C32.5033 84.036 32.2279 84.33 32.0226 84.722C31.8173 85.1047 31.7146 85.576 31.7146 86.136C31.7146 86.9667 31.9246 87.6107 32.3446 88.068C32.7739 88.516 33.3106 88.74 33.9546 88.74ZM40.3483 81.264C40.059 81.264 39.8163 81.166 39.6203 80.97C39.4243 80.774 39.3263 80.5313 39.3263 80.242C39.3263 79.9527 39.4243 79.71 39.6203 79.514C39.8163 79.318 40.059 79.22 40.3483 79.22C40.6283 79.22 40.8663 79.318 41.0623 79.514C41.2583 79.71 41.3563 79.9527 41.3563 80.242C41.3563 80.5313 41.2583 80.774 41.0623 80.97C40.8663 81.166 40.6283 81.264 40.3483 81.264ZM41.1323 82.286V90H39.5363V82.286H41.1323ZM47.1197 82.16C47.7264 82.16 48.2677 82.286 48.7437 82.538C49.2291 82.79 49.6071 83.1633 49.8777 83.658C50.1484 84.1527 50.2837 84.75 50.2837 85.45V90H48.7017V85.688C48.7017 84.9973 48.5291 84.47 48.1837 84.106C47.8384 83.7327 47.3671 83.546 46.7697 83.546C46.1724 83.546 45.6964 83.7327 45.3417 84.106C44.9964 84.47 44.8237 84.9973 44.8237 85.688V90H43.2277V82.286H44.8237V83.168C45.0851 82.8507 45.4164 82.6033 45.8177 82.426C46.2284 82.2487 46.6624 82.16 47.1197 82.16ZM55.4275 82.16C56.0249 82.16 56.5522 82.2813 57.0095 82.524C57.4762 82.7573 57.8402 83.0513 58.1015 83.406V82.286H59.7115V90.126C59.7115 90.8353 59.5622 91.4653 59.2635 92.016C58.9649 92.576 58.5309 93.0147 57.9615 93.332C57.4015 93.6493 56.7295 93.808 55.9455 93.808C54.9002 93.808 54.0322 93.5607 53.3415 93.066C52.6509 92.5807 52.2589 91.918 52.1655 91.078H53.7475C53.8689 91.4793 54.1255 91.8013 54.5175 92.044C54.9189 92.296 55.3949 92.422 55.9455 92.422C56.5895 92.422 57.1075 92.226 57.4995 91.834C57.9009 91.442 58.1015 90.8727 58.1015 90.126V88.838C57.8309 89.202 57.4622 89.51 56.9955 89.762C56.5382 90.0047 56.0155 90.126 55.4275 90.126C54.7555 90.126 54.1395 89.958 53.5795 89.622C53.0289 89.2767 52.5902 88.8007 52.2635 88.194C51.9462 87.578 51.7875 86.8827 51.7875 86.108C51.7875 85.3333 51.9462 84.6473 52.2635 84.05C52.5902 83.4527 53.0289 82.9907 53.5795 82.664C54.1395 82.328 54.7555 82.16 55.4275 82.16ZM58.1015 86.136C58.1015 85.604 57.9895 85.142 57.7655 84.75C57.5509 84.358 57.2662 84.0593 56.9115 83.854C56.5569 83.6487 56.1742 83.546 55.7635 83.546C55.3529 83.546 54.9702 83.6487 54.6155 83.854C54.2609 84.05 53.9715 84.344 53.7475 84.736C53.5329 85.1187 53.4255 85.576 53.4255 86.108C53.4255 86.64 53.5329 87.1067 53.7475 87.508C53.9715 87.9093 54.2609 88.2173 54.6155 88.432C54.9795 88.6373 55.3622 88.74 55.7635 88.74C56.1742 88.74 56.5569 88.6373 56.9115 88.432C57.2662 88.2267 57.5509 87.928 57.7655 87.536C57.9895 87.1347 58.1015 86.668 58.1015 86.136Z" fill="#595959"/>
<path d="M65.0492 31.352V29.288L73.1132 17.72H76.4252V28.976H78.6572V31.352H76.4252V35H73.7372V31.352H65.0492ZM73.8572 20.504L68.1932 28.976H73.8572V20.504Z" fill="#233A6C"/>
<ellipse cx="32.4766" cy="23.5" rx="23.4766" ry="23.5" fill="#B8FABB" fill-opacity="0.55"/>
<path d="M19.1524 31.6556C19.753 32.2568 20.7233 32.2568 21.324 31.6556L28.3932 24.5793C28.5356 24.4364 28.7049 24.323 28.8912 24.2457C29.0775 24.1683 29.2772 24.1285 29.4789 24.1285C29.6807 24.1285 29.8804 24.1683 30.0667 24.2457C30.253 24.323 30.4223 24.4364 30.5647 24.5793L32.3667 26.3831C33.233 27.2492 34.4074 27.7357 35.6318 27.7357C36.8562 27.7357 38.0305 27.2492 38.8968 26.3831L45.3346 19.9543L47.5524 22.1743C47.66 22.28 47.7962 22.3517 47.9442 22.3805C48.0921 22.4094 48.2453 22.3942 48.3847 22.3367C48.5241 22.2793 48.6435 22.1821 48.7283 22.0573C48.8131 21.9326 48.8594 21.7856 48.8615 21.6348V15.021C48.8657 14.92 48.8492 14.8191 48.813 14.7247C48.7768 14.6303 48.7216 14.5443 48.6509 14.4721C48.5801 14.3998 48.4954 14.3429 48.4018 14.3047C48.3082 14.2665 48.2078 14.248 48.1068 14.2502H41.4997C40.8066 14.2502 40.4678 15.0827 40.9606 15.5606L43.1784 17.7806L36.7561 24.2093C36.6136 24.3523 36.4443 24.4656 36.258 24.543C36.0717 24.6204 35.872 24.6602 35.6703 24.6602C35.4686 24.6602 35.2688 24.6204 35.0825 24.543C34.8962 24.4656 34.727 24.3523 34.5845 24.2093L32.7825 22.4056C31.9162 21.5395 30.7419 21.053 29.5175 21.053C28.293 21.053 27.1187 21.5395 26.2524 22.4056L19.1524 29.4818C18.5671 30.0831 18.5671 31.0698 19.1524 31.6556Z" fill="#76CC86"/>
</svg>
