<svg width="430" height="332" viewBox="0 0 430 332" fill="none" xmlns="http://www.w3.org/2000/svg">
<g opacity="0.7" filter="url(#filter0_bi)">
<path d="M0 0H430V332H0V0Z" fill="#F7F7F7"/>
</g>
<path d="M26.7177 87.152V86.396H28.7577V95H27.9057V87.152H26.7177ZM30.4616 94.34C31.9336 93.236 33.0696 92.248 33.8696 91.376C34.6776 90.496 35.0816 89.636 35.0816 88.796C35.0816 88.244 34.9416 87.804 34.6616 87.476C34.3896 87.14 33.9416 86.972 33.3176 86.972C32.7096 86.972 32.2376 87.164 31.9016 87.548C31.5736 87.924 31.3896 88.428 31.3496 89.06H30.5336C30.5816 88.172 30.8536 87.484 31.3496 86.996C31.8536 86.5 32.5096 86.252 33.3176 86.252C34.0936 86.252 34.7216 86.472 35.2016 86.912C35.6816 87.344 35.9216 87.96 35.9216 88.76C35.9216 89.728 35.5176 90.668 34.7096 91.58C33.9096 92.484 32.9216 93.368 31.7456 94.232H36.1856V94.94H30.4616V94.34ZM37.2328 88.196C37.2328 87.684 37.3888 87.272 37.7008 86.96C38.0208 86.64 38.4248 86.48 38.9128 86.48C39.4088 86.48 39.8128 86.64 40.1248 86.96C40.4448 87.272 40.6048 87.684 40.6048 88.196C40.6048 88.716 40.4448 89.136 40.1248 89.456C39.8128 89.768 39.4088 89.924 38.9128 89.924C38.4248 89.924 38.0208 89.768 37.7008 89.456C37.3888 89.136 37.2328 88.716 37.2328 88.196ZM43.9528 86.6L39.0328 95H38.1808L43.1128 86.6H43.9528ZM38.9128 87.02C38.6088 87.02 38.3648 87.124 38.1808 87.332C38.0048 87.532 37.9168 87.82 37.9168 88.196C37.9168 88.572 38.0048 88.864 38.1808 89.072C38.3648 89.28 38.6088 89.384 38.9128 89.384C39.2168 89.384 39.4608 89.28 39.6448 89.072C39.8288 88.864 39.9208 88.572 39.9208 88.196C39.9208 87.828 39.8288 87.54 39.6448 87.332C39.4608 87.124 39.2168 87.02 38.9128 87.02ZM41.5528 93.404C41.5528 92.884 41.7088 92.468 42.0208 92.156C42.3408 91.836 42.7448 91.676 43.2328 91.676C43.7208 91.676 44.1208 91.836 44.4328 92.156C44.7528 92.468 44.9128 92.884 44.9128 93.404C44.9128 93.924 44.7528 94.344 44.4328 94.664C44.1208 94.976 43.7208 95.132 43.2328 95.132C42.7448 95.132 42.3408 94.976 42.0208 94.664C41.7088 94.344 41.5528 93.924 41.5528 93.404ZM43.2328 92.228C42.9288 92.228 42.6848 92.332 42.5008 92.54C42.3168 92.748 42.2248 93.036 42.2248 93.404C42.2248 93.772 42.3168 94.06 42.5008 94.268C42.6848 94.476 42.9288 94.58 43.2328 94.58C43.5368 94.58 43.7768 94.48 43.9528 94.28C44.1368 94.072 44.2288 93.78 44.2288 93.404C44.2288 93.028 44.1368 92.74 43.9528 92.54C43.7768 92.332 43.5368 92.228 43.2328 92.228ZM57.4768 88.328C58.2448 88.328 58.8688 88.572 59.3488 89.06C59.8368 89.54 60.0808 90.24 60.0808 91.16V95H59.2528V91.256C59.2528 90.544 59.0808 90 58.7368 89.624C58.3928 89.248 57.9248 89.06 57.3328 89.06C56.7168 89.06 56.2248 89.264 55.8568 89.672C55.4888 90.08 55.3048 90.672 55.3048 91.448V95H54.4768V91.256C54.4768 90.544 54.3048 90 53.9608 89.624C53.6168 89.248 53.1448 89.06 52.5448 89.06C51.9288 89.06 51.4368 89.264 51.0688 89.672C50.7008 90.08 50.5168 90.672 50.5168 91.448V95H49.6768V88.448H50.5168V89.576C50.7248 89.168 51.0208 88.86 51.4048 88.652C51.7888 88.436 52.2168 88.328 52.6888 88.328C53.2568 88.328 53.7528 88.464 54.1768 88.736C54.6088 89.008 54.9208 89.408 55.1128 89.936C55.2888 89.416 55.5888 89.02 56.0128 88.748C56.4448 88.468 56.9328 88.328 57.4768 88.328ZM64.8143 95.096C64.1983 95.096 63.6423 94.96 63.1463 94.688C62.6583 94.408 62.2703 94.016 61.9823 93.512C61.7023 93 61.5623 92.404 61.5623 91.724C61.5623 91.044 61.7063 90.452 61.9943 89.948C62.2823 89.436 62.6743 89.044 63.1703 88.772C63.6663 88.492 64.2223 88.352 64.8383 88.352C65.4543 88.352 66.0103 88.492 66.5063 88.772C67.0103 89.044 67.4023 89.436 67.6823 89.948C67.9703 90.452 68.1143 91.044 68.1143 91.724C68.1143 92.396 67.9703 92.988 67.6823 93.5C67.3943 94.012 66.9983 94.408 66.4943 94.688C65.9903 94.96 65.4303 95.096 64.8143 95.096ZM64.8143 94.364C65.2463 94.364 65.6463 94.268 66.0143 94.076C66.3823 93.876 66.6783 93.58 66.9023 93.188C67.1343 92.788 67.2503 92.3 67.2503 91.724C67.2503 91.148 67.1383 90.664 66.9143 90.272C66.6903 89.872 66.3943 89.576 66.0263 89.384C65.6583 89.184 65.2583 89.084 64.8263 89.084C64.3943 89.084 63.9943 89.184 63.6263 89.384C63.2583 89.576 62.9623 89.872 62.7383 90.272C62.5223 90.664 62.4143 91.148 62.4143 91.724C62.4143 92.3 62.5223 92.788 62.7383 93.188C62.9623 93.58 63.2543 93.876 63.6143 94.076C63.9823 94.268 64.3823 94.364 64.8143 94.364ZM70.4855 89.612C70.6695 89.204 70.9495 88.888 71.3255 88.664C71.7095 88.44 72.1775 88.328 72.7295 88.328V89.204H72.5015C71.8935 89.204 71.4055 89.368 71.0375 89.696C70.6695 90.024 70.4855 90.572 70.4855 91.34V95H69.6455V88.448H70.4855V89.612ZM79.9212 91.388C79.9212 91.676 79.9132 91.896 79.8972 92.048H74.4612C74.4852 92.544 74.6052 92.968 74.8212 93.32C75.0372 93.672 75.3212 93.94 75.6732 94.124C76.0252 94.3 76.4092 94.388 76.8252 94.388C77.3692 94.388 77.8252 94.256 78.1932 93.992C78.5692 93.728 78.8172 93.372 78.9372 92.924H79.8252C79.6652 93.564 79.3212 94.088 78.7932 94.496C78.2732 94.896 77.6172 95.096 76.8252 95.096C76.2092 95.096 75.6572 94.96 75.1692 94.688C74.6812 94.408 74.2972 94.016 74.0172 93.512C73.7452 93 73.6092 92.404 73.6092 91.724C73.6092 91.044 73.7452 90.448 74.0172 89.936C74.2892 89.424 74.6692 89.032 75.1572 88.76C75.6452 88.488 76.2012 88.352 76.8252 88.352C77.4492 88.352 77.9932 88.488 78.4572 88.76C78.9292 89.032 79.2892 89.4 79.5372 89.864C79.7932 90.32 79.9212 90.828 79.9212 91.388ZM79.0692 91.364C79.0772 90.876 78.9772 90.46 78.7692 90.116C78.5692 89.772 78.2932 89.512 77.9412 89.336C77.5892 89.16 77.2052 89.072 76.7892 89.072C76.1652 89.072 75.6332 89.272 75.1932 89.672C74.7532 90.072 74.5092 90.636 74.4612 91.364H79.0692ZM85.843 89.156V93.224C85.843 93.624 85.919 93.9 86.071 94.052C86.223 94.204 86.491 94.28 86.875 94.28H87.643V95H86.743C86.151 95 85.711 94.864 85.423 94.592C85.135 94.312 84.991 93.856 84.991 93.224V89.156H84.079V88.448H84.991V86.804H85.843V88.448H87.643V89.156H85.843ZM92.1484 88.328C92.6444 88.328 93.0884 88.432 93.4804 88.64C93.8804 88.848 94.1924 89.168 94.4164 89.6C94.6484 90.024 94.7644 90.544 94.7644 91.16V95H93.9364V91.256C93.9364 90.544 93.7564 90 93.3964 89.624C93.0444 89.248 92.5604 89.06 91.9444 89.06C91.3124 89.06 90.8084 89.26 90.4324 89.66C90.0564 90.06 89.8684 90.648 89.8684 91.424V95H89.0284V86.12H89.8684V89.564C90.0764 89.172 90.3804 88.868 90.7804 88.652C91.1884 88.436 91.6444 88.328 92.1484 88.328ZM96.2381 91.712C96.2381 91.04 96.3701 90.452 96.6341 89.948C96.9061 89.436 97.2781 89.044 97.7501 88.772C98.2301 88.492 98.7701 88.352 99.3701 88.352C99.9941 88.352 100.53 88.496 100.978 88.784C101.434 89.072 101.762 89.44 101.962 89.888V88.448H102.802V95H101.962V93.548C101.754 93.996 101.422 94.368 100.966 94.664C100.518 94.952 99.9821 95.096 99.3581 95.096C98.7661 95.096 98.2301 94.956 97.7501 94.676C97.2781 94.396 96.9061 94 96.6341 93.488C96.3701 92.976 96.2381 92.384 96.2381 91.712ZM101.962 91.724C101.962 91.196 101.854 90.732 101.638 90.332C101.422 89.932 101.126 89.624 100.75 89.408C100.382 89.192 99.9741 89.084 99.5261 89.084C99.0621 89.084 98.6461 89.188 98.2781 89.396C97.9101 89.604 97.6181 89.908 97.4021 90.308C97.1941 90.7 97.0901 91.168 97.0901 91.712C97.0901 92.248 97.1941 92.72 97.4021 93.128C97.6181 93.528 97.9101 93.836 98.2781 94.052C98.6461 94.26 99.0621 94.364 99.5261 94.364C99.9741 94.364 100.382 94.256 100.75 94.04C101.126 93.824 101.422 93.516 101.638 93.116C101.854 92.716 101.962 92.252 101.962 91.724ZM107.792 88.328C108.576 88.328 109.216 88.572 109.712 89.06C110.208 89.54 110.456 90.24 110.456 91.16V95H109.628V91.256C109.628 90.544 109.448 90 109.088 89.624C108.736 89.248 108.252 89.06 107.636 89.06C107.004 89.06 106.5 89.26 106.124 89.66C105.748 90.06 105.56 90.648 105.56 91.424V95H104.72V88.448H105.56V89.564C105.768 89.164 106.068 88.86 106.46 88.652C106.852 88.436 107.296 88.328 107.792 88.328ZM116.446 86.12V95H115.606V86.12H116.446ZM117.965 91.712C117.965 91.04 118.097 90.452 118.361 89.948C118.633 89.436 119.005 89.044 119.477 88.772C119.957 88.492 120.497 88.352 121.097 88.352C121.721 88.352 122.257 88.496 122.705 88.784C123.161 89.072 123.489 89.44 123.689 89.888V88.448H124.529V95H123.689V93.548C123.481 93.996 123.149 94.368 122.693 94.664C122.245 94.952 121.709 95.096 121.085 95.096C120.493 95.096 119.957 94.956 119.477 94.676C119.005 94.396 118.633 94 118.361 93.488C118.097 92.976 117.965 92.384 117.965 91.712ZM123.689 91.724C123.689 91.196 123.581 90.732 123.365 90.332C123.149 89.932 122.853 89.624 122.477 89.408C122.109 89.192 121.701 89.084 121.253 89.084C120.789 89.084 120.373 89.188 120.005 89.396C119.637 89.604 119.345 89.908 119.129 90.308C118.921 90.7 118.817 91.168 118.817 91.712C118.817 92.248 118.921 92.72 119.129 93.128C119.345 93.528 119.637 93.836 120.005 94.052C120.373 94.26 120.789 94.364 121.253 94.364C121.701 94.364 122.109 94.256 122.477 94.04C122.853 93.824 123.149 93.516 123.365 93.116C123.581 92.716 123.689 92.252 123.689 91.724ZM128.702 95.096C127.95 95.096 127.334 94.924 126.854 94.58C126.382 94.228 126.118 93.752 126.062 93.152H126.926C126.966 93.52 127.138 93.82 127.442 94.052C127.754 94.276 128.17 94.388 128.69 94.388C129.146 94.388 129.502 94.28 129.758 94.064C130.022 93.848 130.154 93.58 130.154 93.26C130.154 93.036 130.082 92.852 129.938 92.708C129.794 92.564 129.61 92.452 129.386 92.372C129.17 92.284 128.874 92.192 128.498 92.096C128.01 91.968 127.614 91.84 127.31 91.712C127.006 91.584 126.746 91.396 126.53 91.148C126.322 90.892 126.218 90.552 126.218 90.128C126.218 89.808 126.314 89.512 126.506 89.24C126.698 88.968 126.97 88.752 127.322 88.592C127.674 88.432 128.074 88.352 128.522 88.352C129.226 88.352 129.794 88.532 130.226 88.892C130.658 89.244 130.89 89.732 130.922 90.356H130.082C130.058 89.972 129.906 89.664 129.626 89.432C129.354 89.192 128.978 89.072 128.498 89.072C128.074 89.072 127.73 89.172 127.466 89.372C127.202 89.572 127.07 89.82 127.07 90.116C127.07 90.372 127.146 90.584 127.298 90.752C127.458 90.912 127.654 91.04 127.886 91.136C128.118 91.224 128.43 91.324 128.822 91.436C129.294 91.564 129.67 91.688 129.95 91.808C130.23 91.928 130.47 92.104 130.67 92.336C130.87 92.568 130.974 92.876 130.982 93.26C130.982 93.612 130.886 93.928 130.694 94.208C130.502 94.48 130.234 94.696 129.89 94.856C129.546 95.016 129.15 95.096 128.702 95.096ZM133.656 89.156V93.224C133.656 93.624 133.732 93.9 133.884 94.052C134.036 94.204 134.304 94.28 134.688 94.28H135.456V95H134.556C133.964 95 133.524 94.864 133.236 94.592C132.948 94.312 132.804 93.856 132.804 93.224V89.156H131.892V88.448H132.804V86.804H133.656V88.448H135.456V89.156H133.656ZM148.774 88.448L146.722 95H145.882L144.07 89.504L142.258 95H141.406L139.354 88.448H140.206L141.838 94.148L143.674 88.448H144.514L146.326 94.16L147.946 88.448H148.774ZM155.847 91.388C155.847 91.676 155.839 91.896 155.823 92.048H150.387C150.411 92.544 150.531 92.968 150.747 93.32C150.963 93.672 151.247 93.94 151.599 94.124C151.951 94.3 152.335 94.388 152.751 94.388C153.295 94.388 153.751 94.256 154.119 93.992C154.495 93.728 154.743 93.372 154.863 92.924H155.751C155.591 93.564 155.247 94.088 154.719 94.496C154.199 94.896 153.543 95.096 152.751 95.096C152.135 95.096 151.583 94.96 151.095 94.688C150.607 94.408 150.223 94.016 149.943 93.512C149.671 93 149.535 92.404 149.535 91.724C149.535 91.044 149.671 90.448 149.943 89.936C150.215 89.424 150.595 89.032 151.083 88.76C151.571 88.488 152.127 88.352 152.751 88.352C153.375 88.352 153.919 88.488 154.383 88.76C154.855 89.032 155.215 89.4 155.463 89.864C155.719 90.32 155.847 90.828 155.847 91.388ZM154.995 91.364C155.003 90.876 154.903 90.46 154.695 90.116C154.495 89.772 154.219 89.512 153.867 89.336C153.515 89.16 153.131 89.072 152.715 89.072C152.091 89.072 151.559 89.272 151.119 89.672C150.679 90.072 150.435 90.636 150.387 91.364H154.995ZM163.312 91.388C163.312 91.676 163.304 91.896 163.288 92.048H157.852C157.876 92.544 157.996 92.968 158.212 93.32C158.428 93.672 158.712 93.94 159.064 94.124C159.416 94.3 159.8 94.388 160.216 94.388C160.76 94.388 161.216 94.256 161.584 93.992C161.96 93.728 162.208 93.372 162.328 92.924H163.216C163.056 93.564 162.712 94.088 162.184 94.496C161.664 94.896 161.008 95.096 160.216 95.096C159.6 95.096 159.048 94.96 158.56 94.688C158.072 94.408 157.688 94.016 157.408 93.512C157.136 93 157 92.404 157 91.724C157 91.044 157.136 90.448 157.408 89.936C157.68 89.424 158.06 89.032 158.548 88.76C159.036 88.488 159.592 88.352 160.216 88.352C160.84 88.352 161.384 88.488 161.848 88.76C162.32 89.032 162.68 89.4 162.928 89.864C163.184 90.32 163.312 90.828 163.312 91.388ZM162.46 91.364C162.468 90.876 162.368 90.46 162.16 90.116C161.96 89.772 161.684 89.512 161.332 89.336C160.98 89.16 160.596 89.072 160.18 89.072C159.556 89.072 159.024 89.272 158.584 89.672C158.144 90.072 157.9 90.636 157.852 91.364H162.46ZM168.389 95L165.689 92.06V95H164.849V86.12H165.689V91.376L168.329 88.448H169.505L166.397 91.712L169.529 95H168.389Z" fill="#595959"/>
<path d="M62.336 66.27V67.572H59.746V76H58.15V67.572H55.546V66.27H62.336ZM67.2983 76.126C66.5703 76.126 65.9123 75.9627 65.3243 75.636C64.7363 75.3 64.2743 74.8333 63.9383 74.236C63.6023 73.6293 63.4343 72.9293 63.4343 72.136C63.4343 71.352 63.607 70.6567 63.9523 70.05C64.2977 69.4433 64.769 68.9767 65.3663 68.65C65.9637 68.3233 66.631 68.16 67.3683 68.16C68.1057 68.16 68.773 68.3233 69.3703 68.65C69.9677 68.9767 70.439 69.4433 70.7843 70.05C71.1297 70.6567 71.3023 71.352 71.3023 72.136C71.3023 72.92 71.125 73.6153 70.7703 74.222C70.4157 74.8287 69.9303 75.3 69.3143 75.636C68.7077 75.9627 68.0357 76.126 67.2983 76.126ZM67.2983 74.74C67.709 74.74 68.0917 74.642 68.4463 74.446C68.8103 74.25 69.1043 73.956 69.3283 73.564C69.5523 73.172 69.6643 72.696 69.6643 72.136C69.6643 71.576 69.557 71.1047 69.3423 70.722C69.1277 70.33 68.843 70.036 68.4883 69.84C68.1337 69.644 67.751 69.546 67.3403 69.546C66.9297 69.546 66.547 69.644 66.1923 69.84C65.847 70.036 65.5717 70.33 65.3663 70.722C65.161 71.1047 65.0583 71.576 65.0583 72.136C65.0583 72.9667 65.2683 73.6107 65.6883 74.068C66.1177 74.516 66.6543 74.74 67.2983 74.74ZM75.9321 72.15L79.4881 76H77.3321L74.4761 72.682V76H72.8801V65.64H74.4761V71.66L77.2761 68.286H79.4881L75.9321 72.15ZM87.702 71.954C87.702 72.2433 87.6834 72.5047 87.646 72.738H81.752C81.7987 73.354 82.0274 73.8487 82.438 74.222C82.8487 74.5953 83.3527 74.782 83.95 74.782C84.8087 74.782 85.4154 74.4227 85.77 73.704H87.492C87.2587 74.4133 86.834 74.9967 86.218 75.454C85.6114 75.902 84.8554 76.126 83.95 76.126C83.2127 76.126 82.55 75.9627 81.962 75.636C81.3834 75.3 80.926 74.8333 80.59 74.236C80.2634 73.6293 80.1 72.9293 80.1 72.136C80.1 71.3427 80.2587 70.6473 80.576 70.05C80.9027 69.4433 81.3554 68.9767 81.934 68.65C82.522 68.3233 83.194 68.16 83.95 68.16C84.678 68.16 85.3267 68.3187 85.896 68.636C86.4654 68.9533 86.9087 69.4013 87.226 69.98C87.5434 70.5493 87.702 71.2073 87.702 71.954ZM86.036 71.45C86.0267 70.862 85.8167 70.3907 85.406 70.036C84.9954 69.6813 84.4867 69.504 83.88 69.504C83.3294 69.504 82.858 69.6813 82.466 70.036C82.074 70.3813 81.8407 70.8527 81.766 71.45H86.036ZM93.1647 68.16C93.7713 68.16 94.3127 68.286 94.7887 68.538C95.274 68.79 95.652 69.1633 95.9227 69.658C96.1933 70.1527 96.3287 70.75 96.3287 71.45V76H94.7467V71.688C94.7467 70.9973 94.574 70.47 94.2287 70.106C93.8833 69.7327 93.412 69.546 92.8147 69.546C92.2173 69.546 91.7413 69.7327 91.3867 70.106C91.0413 70.47 90.8687 70.9973 90.8687 71.688V76H89.2727V68.286H90.8687V69.168C91.13 68.8507 91.4613 68.6033 91.8627 68.426C92.2733 68.2487 92.7073 68.16 93.1647 68.16ZM101.164 76.126C100.558 76.126 100.012 76.0187 99.5265 75.804C99.0505 75.58 98.6725 75.2813 98.3925 74.908C98.1125 74.5253 97.9631 74.1007 97.9445 73.634H99.5965C99.6245 73.9607 99.7785 74.236 100.058 74.46C100.348 74.6747 100.707 74.782 101.136 74.782C101.584 74.782 101.93 74.698 102.172 74.53C102.424 74.3527 102.55 74.1287 102.55 73.858C102.55 73.5687 102.41 73.354 102.13 73.214C101.86 73.074 101.426 72.92 100.828 72.752C100.25 72.5933 99.7785 72.4393 99.4145 72.29C99.0505 72.1407 98.7331 71.912 98.4625 71.604C98.2011 71.296 98.0705 70.89 98.0705 70.386C98.0705 69.9753 98.1918 69.602 98.4345 69.266C98.6771 68.9207 99.0225 68.65 99.4705 68.454C99.9278 68.258 100.45 68.16 101.038 68.16C101.916 68.16 102.62 68.384 103.152 68.832C103.694 69.2707 103.983 69.8727 104.02 70.638H102.424C102.396 70.2927 102.256 70.0173 102.004 69.812C101.752 69.6067 101.412 69.504 100.982 69.504C100.562 69.504 100.24 69.5833 100.016 69.742C99.7925 69.9007 99.6805 70.1107 99.6805 70.372C99.6805 70.5773 99.7551 70.75 99.9045 70.89C100.054 71.03 100.236 71.142 100.45 71.226C100.665 71.3007 100.982 71.3987 101.402 71.52C101.962 71.6693 102.42 71.8233 102.774 71.982C103.138 72.1313 103.451 72.3553 103.712 72.654C103.974 72.9527 104.109 73.3493 104.118 73.844C104.118 74.2827 103.997 74.6747 103.754 75.02C103.512 75.3653 103.166 75.636 102.718 75.832C102.28 76.028 101.762 76.126 101.164 76.126ZM111.062 66.27V72.472C111.062 73.2093 111.253 73.7647 111.636 74.138C112.028 74.5113 112.569 74.698 113.26 74.698C113.96 74.698 114.501 74.5113 114.884 74.138C115.276 73.7647 115.472 73.2093 115.472 72.472V66.27H117.068V72.444C117.068 73.2373 116.895 73.9093 116.55 74.46C116.204 75.0107 115.742 75.4213 115.164 75.692C114.585 75.9627 113.946 76.098 113.246 76.098C112.546 76.098 111.906 75.9627 111.328 75.692C110.758 75.4213 110.306 75.0107 109.97 74.46C109.634 73.9093 109.466 73.2373 109.466 72.444V66.27H111.062ZM121.946 76.126C121.339 76.126 120.793 76.0187 120.308 75.804C119.832 75.58 119.454 75.2813 119.174 74.908C118.894 74.5253 118.744 74.1007 118.726 73.634H120.378C120.406 73.9607 120.56 74.236 120.84 74.46C121.129 74.6747 121.488 74.782 121.918 74.782C122.366 74.782 122.711 74.698 122.954 74.53C123.206 74.3527 123.332 74.1287 123.332 73.858C123.332 73.5687 123.192 73.354 122.912 73.214C122.641 73.074 122.207 72.92 121.61 72.752C121.031 72.5933 120.56 72.4393 120.196 72.29C119.832 72.1407 119.514 71.912 119.244 71.604C118.982 71.296 118.852 70.89 118.852 70.386C118.852 69.9753 118.973 69.602 119.216 69.266C119.458 68.9207 119.804 68.65 120.252 68.454C120.709 68.258 121.232 68.16 121.82 68.16C122.697 68.16 123.402 68.384 123.934 68.832C124.475 69.2707 124.764 69.8727 124.802 70.638H123.206C123.178 70.2927 123.038 70.0173 122.786 69.812C122.534 69.6067 122.193 69.504 121.764 69.504C121.344 69.504 121.022 69.5833 120.798 69.742C120.574 69.9007 120.462 70.1107 120.462 70.372C120.462 70.5773 120.536 70.75 120.686 70.89C120.835 71.03 121.017 71.142 121.232 71.226C121.446 71.3007 121.764 71.3987 122.184 71.52C122.744 71.6693 123.201 71.8233 123.556 71.982C123.92 72.1313 124.232 72.3553 124.494 72.654C124.755 72.9527 124.89 73.3493 124.9 73.844C124.9 74.2827 124.778 74.6747 124.536 75.02C124.293 75.3653 123.948 75.636 123.5 75.832C123.061 76.028 122.543 76.126 121.946 76.126ZM133.694 71.954C133.694 72.2433 133.676 72.5047 133.638 72.738H127.744C127.791 73.354 128.02 73.8487 128.43 74.222C128.841 74.5953 129.345 74.782 129.942 74.782C130.801 74.782 131.408 74.4227 131.762 73.704H133.484C133.251 74.4133 132.826 74.9967 132.21 75.454C131.604 75.902 130.848 76.126 129.942 76.126C129.205 76.126 128.542 75.9627 127.954 75.636C127.376 75.3 126.918 74.8333 126.582 74.236C126.256 73.6293 126.092 72.9293 126.092 72.136C126.092 71.3427 126.251 70.6473 126.568 70.05C126.895 69.4433 127.348 68.9767 127.926 68.65C128.514 68.3233 129.186 68.16 129.942 68.16C130.67 68.16 131.319 68.3187 131.888 68.636C132.458 68.9533 132.901 69.4013 133.218 69.98C133.536 70.5493 133.694 71.2073 133.694 71.954ZM132.028 71.45C132.019 70.862 131.809 70.3907 131.398 70.036C130.988 69.6813 130.479 69.504 129.872 69.504C129.322 69.504 128.85 69.6813 128.458 70.036C128.066 70.3813 127.833 70.8527 127.758 71.45H132.028ZM134.733 72.108C134.733 71.3333 134.892 70.6473 135.209 70.05C135.536 69.4527 135.974 68.9907 136.525 68.664C137.085 68.328 137.706 68.16 138.387 68.16C138.891 68.16 139.386 68.272 139.871 68.496C140.366 68.7107 140.758 69 141.047 69.364V65.64H142.657V76H141.047V74.838C140.786 75.2113 140.422 75.5193 139.955 75.762C139.498 76.0047 138.97 76.126 138.373 76.126C137.701 76.126 137.085 75.958 136.525 75.622C135.974 75.2767 135.536 74.8007 135.209 74.194C134.892 73.578 134.733 72.8827 134.733 72.108ZM141.047 72.136C141.047 71.604 140.935 71.142 140.711 70.75C140.496 70.358 140.212 70.0593 139.857 69.854C139.502 69.6487 139.12 69.546 138.709 69.546C138.298 69.546 137.916 69.6487 137.561 69.854C137.206 70.05 136.917 70.344 136.693 70.736C136.478 71.1187 136.371 71.576 136.371 72.108C136.371 72.64 136.478 73.1067 136.693 73.508C136.917 73.9093 137.206 74.2173 137.561 74.432C137.925 74.6373 138.308 74.74 138.709 74.74C139.12 74.74 139.502 74.6373 139.857 74.432C140.212 74.2267 140.496 73.928 140.711 73.536C140.935 73.1347 141.047 72.668 141.047 72.136Z" fill="#595959"/>
<path d="M94.392 38.824C94.488 37.336 95.056 36.176 96.096 35.344C97.152 34.512 98.496 34.096 100.128 34.096C101.248 34.096 102.216 34.296 103.032 34.696C103.848 35.096 104.464 35.64 104.88 36.328C105.296 37.016 105.504 37.792 105.504 38.656C105.504 39.648 105.24 40.496 104.712 41.2C104.184 41.904 103.552 42.376 102.816 42.616V42.712C103.76 43 104.496 43.528 105.024 44.296C105.552 45.048 105.816 46.016 105.816 47.2C105.816 48.144 105.6 48.984 105.168 49.72C104.736 50.456 104.096 51.04 103.248 51.472C102.4 51.888 101.384 52.096 100.2 52.096C98.472 52.096 97.048 51.656 95.928 50.776C94.824 49.88 94.232 48.6 94.152 46.936H96.792C96.856 47.784 97.184 48.48 97.776 49.024C98.368 49.552 99.168 49.816 100.176 49.816C101.152 49.816 101.904 49.552 102.432 49.024C102.96 48.48 103.224 47.784 103.224 46.936C103.224 45.816 102.864 45.024 102.144 44.56C101.44 44.08 100.352 43.84 98.88 43.84H98.256V41.584H98.904C100.2 41.568 101.184 41.352 101.856 40.936C102.544 40.52 102.888 39.864 102.888 38.968C102.888 38.2 102.64 37.592 102.144 37.144C101.648 36.68 100.944 36.448 100.032 36.448C99.136 36.448 98.44 36.68 97.944 37.144C97.448 37.592 97.152 38.152 97.056 38.824H94.392ZM119.97 36.856H111.93V41.632C112.266 41.184 112.762 40.808 113.418 40.504C114.09 40.2 114.802 40.048 115.554 40.048C116.898 40.048 117.986 40.336 118.818 40.912C119.666 41.488 120.266 42.216 120.618 43.096C120.986 43.976 121.17 44.904 121.17 45.88C121.17 47.064 120.938 48.12 120.474 49.048C120.026 49.96 119.346 50.68 118.434 51.208C117.538 51.736 116.434 52 115.122 52C113.378 52 111.978 51.568 110.922 50.704C109.866 49.84 109.234 48.696 109.026 47.272H111.69C111.866 48.024 112.258 48.624 112.866 49.072C113.474 49.504 114.234 49.72 115.146 49.72C116.282 49.72 117.13 49.376 117.69 48.688C118.266 48 118.554 47.088 118.554 45.952C118.554 44.8 118.266 43.92 117.69 43.312C117.114 42.688 116.266 42.376 115.146 42.376C114.362 42.376 113.698 42.576 113.154 42.976C112.626 43.36 112.242 43.888 112.002 44.56H109.41V34.456H119.97V36.856ZM135.298 36.856H127.258V41.632C127.594 41.184 128.09 40.808 128.746 40.504C129.418 40.2 130.13 40.048 130.882 40.048C132.226 40.048 133.314 40.336 134.146 40.912C134.994 41.488 135.594 42.216 135.946 43.096C136.314 43.976 136.498 44.904 136.498 45.88C136.498 47.064 136.266 48.12 135.802 49.048C135.354 49.96 134.674 50.68 133.762 51.208C132.866 51.736 131.762 52 130.45 52C128.706 52 127.306 51.568 126.25 50.704C125.194 49.84 124.562 48.696 124.354 47.272H127.018C127.194 48.024 127.586 48.624 128.194 49.072C128.802 49.504 129.562 49.72 130.474 49.72C131.61 49.72 132.458 49.376 133.018 48.688C133.594 48 133.882 47.088 133.882 45.952C133.882 44.8 133.594 43.92 133.018 43.312C132.442 42.688 131.594 42.376 130.474 42.376C129.69 42.376 129.026 42.576 128.482 42.976C127.954 43.36 127.57 43.888 127.33 44.56H124.738V34.456H135.298V36.856ZM139.346 43.024C139.346 40.256 139.81 38.096 140.738 36.544C141.682 34.976 143.298 34.192 145.586 34.192C147.874 34.192 149.482 34.976 150.41 36.544C151.354 38.096 151.826 40.256 151.826 43.024C151.826 45.824 151.354 48.016 150.41 49.6C149.482 51.168 147.874 51.952 145.586 51.952C143.298 51.952 141.682 51.168 140.738 49.6C139.81 48.016 139.346 45.824 139.346 43.024ZM149.138 43.024C149.138 41.728 149.05 40.632 148.874 39.736C148.714 38.84 148.378 38.112 147.866 37.552C147.354 36.976 146.594 36.688 145.586 36.688C144.578 36.688 143.818 36.976 143.306 37.552C142.794 38.112 142.45 38.84 142.274 39.736C142.114 40.632 142.034 41.728 142.034 43.024C142.034 44.368 142.114 45.496 142.274 46.408C142.434 47.32 142.77 48.056 143.282 48.616C143.81 49.176 144.578 49.456 145.586 49.456C146.594 49.456 147.354 49.176 147.866 48.616C148.394 48.056 148.738 47.32 148.898 46.408C149.058 45.496 149.138 44.368 149.138 43.024Z" fill="#233A6C"/>
<circle cx="61.5" cy="40.5" r="23.5" fill="#FEFFB5"/>
<line x1="70" y1="301.625" x2="377" y2="301.625" stroke="#595959" stroke-opacity="0.5" stroke-width="0.75063"/>
<line x1="71" y1="266.625" x2="378" y2="266.625" stroke="#595959" stroke-opacity="0.5" stroke-width="0.75063"/>
<line x1="72" y1="231.625" x2="378" y2="231.625" stroke="#595959" stroke-opacity="0.5" stroke-width="0.75063"/>
<line x1="72" y1="196.625" x2="379" y2="196.625" stroke="#595959" stroke-opacity="0.5" stroke-width="0.75063"/>
<line x1="72" y1="161.625" x2="379" y2="161.625" stroke="#595959" stroke-opacity="0.5" stroke-width="0.75063"/>
<line x1="70" y1="126.625" x2="377" y2="126.625" stroke="#595959" stroke-opacity="0.5" stroke-width="0.75063"/>
<path d="M46.7417 269H45.4419V262.721L43.5244 263.376V262.275L46.5752 261.153H46.7417V269ZM54.5566 265.708C54.5566 266.832 54.3454 267.681 53.9229 268.253C53.5039 268.823 52.8647 269.107 52.0054 269.107C51.1603 269.107 50.5229 268.83 50.0933 268.275C49.6672 267.716 49.4487 266.891 49.438 265.799V264.445C49.438 263.321 49.6475 262.478 50.0664 261.916C50.4889 261.353 51.1317 261.072 51.9946 261.072C52.8504 261.072 53.4878 261.346 53.9067 261.894C54.3293 262.442 54.5459 263.262 54.5566 264.354V265.708ZM53.2515 264.247C53.2515 263.513 53.1512 262.975 52.9507 262.635C52.7502 262.292 52.4315 262.12 51.9946 262.12C51.5685 262.12 51.2552 262.283 51.0547 262.608C50.8542 262.931 50.7485 263.436 50.7378 264.123V265.896C50.7378 266.626 50.8398 267.17 51.0439 267.528C51.248 267.886 51.5685 268.065 52.0054 268.065C52.4243 268.065 52.734 267.901 52.9346 267.571C53.1351 267.238 53.2407 266.719 53.2515 266.014V264.247ZM60.8086 265.708C60.8086 266.832 60.5973 267.681 60.1748 268.253C59.7559 268.823 59.1167 269.107 58.2573 269.107C57.4123 269.107 56.7749 268.83 56.3452 268.275C55.9191 267.716 55.7007 266.891 55.6899 265.799V264.445C55.6899 263.321 55.8994 262.478 56.3184 261.916C56.7409 261.353 57.3836 261.072 58.2466 261.072C59.1024 261.072 59.7397 261.346 60.1587 261.894C60.5812 262.442 60.7979 263.262 60.8086 264.354V265.708ZM59.5034 264.247C59.5034 263.513 59.4032 262.975 59.2026 262.635C59.0021 262.292 58.6834 262.12 58.2466 262.12C57.8205 262.12 57.5072 262.283 57.3066 262.608C57.1061 262.931 57.0005 263.436 56.9897 264.123V265.896C56.9897 266.626 57.0918 267.17 57.2959 267.528C57.5 267.886 57.8205 268.065 58.2573 268.065C58.6763 268.065 58.986 267.901 59.1865 267.571C59.387 267.238 59.4927 266.719 59.5034 266.014V264.247Z" fill="#6C6C6C"/>
<path d="M53.5566 300.708C53.5566 301.832 53.3454 302.681 52.9229 303.253C52.5039 303.823 51.8647 304.107 51.0054 304.107C50.1603 304.107 49.5229 303.83 49.0933 303.275C48.6672 302.716 48.4487 301.891 48.438 300.799V299.445C48.438 298.321 48.6475 297.478 49.0664 296.916C49.4889 296.353 50.1317 296.072 50.9946 296.072C51.8504 296.072 52.4878 296.346 52.9067 296.894C53.3293 297.442 53.5459 298.262 53.5566 299.354V300.708ZM52.2515 299.247C52.2515 298.513 52.1512 297.975 51.9507 297.635C51.7502 297.292 51.4315 297.12 50.9946 297.12C50.5685 297.12 50.2552 297.283 50.0547 297.608C49.8542 297.931 49.7485 298.436 49.7378 299.123V300.896C49.7378 301.626 49.8398 302.17 50.0439 302.528C50.248 302.886 50.5685 303.065 51.0054 303.065C51.4243 303.065 51.734 302.901 51.9346 302.571C52.1351 302.238 52.2407 301.719 52.2515 301.014V299.247Z" fill="#6C6C6C"/>
<path d="M47.4658 234H42.2075V233.103L44.8125 230.262C45.1885 229.843 45.4552 229.494 45.6128 229.214C45.7739 228.931 45.8545 228.649 45.8545 228.366C45.8545 227.993 45.7489 227.693 45.5376 227.463C45.3299 227.234 45.0488 227.12 44.6943 227.12C44.2718 227.12 43.9442 227.249 43.7114 227.506C43.4787 227.764 43.3623 228.117 43.3623 228.564H42.0571C42.0571 228.088 42.1646 227.66 42.3794 227.281C42.5978 226.898 42.9076 226.6 43.3086 226.389C43.7132 226.178 44.1787 226.072 44.7051 226.072C45.4642 226.072 46.0622 226.264 46.499 226.647C46.9395 227.027 47.1597 227.553 47.1597 228.226C47.1597 228.616 47.0487 229.026 46.8267 229.456C46.6082 229.882 46.2484 230.367 45.7471 230.912L43.835 232.958H47.4658V234ZM53.5566 230.708C53.5566 231.832 53.3454 232.681 52.9229 233.253C52.5039 233.823 51.8647 234.107 51.0054 234.107C50.1603 234.107 49.5229 233.83 49.0933 233.275C48.6672 232.716 48.4487 231.891 48.438 230.799V229.445C48.438 228.321 48.6475 227.478 49.0664 226.916C49.4889 226.353 50.1317 226.072 50.9946 226.072C51.8504 226.072 52.4878 226.346 52.9067 226.894C53.3293 227.442 53.5459 228.262 53.5566 229.354V230.708ZM52.2515 229.247C52.2515 228.513 52.1512 227.975 51.9507 227.635C51.7502 227.292 51.4315 227.12 50.9946 227.12C50.5685 227.12 50.2552 227.283 50.0547 227.608C49.8542 227.931 49.7485 228.436 49.7378 229.123V230.896C49.7378 231.626 49.8398 232.17 50.0439 232.528C50.248 232.886 50.5685 233.065 51.0054 233.065C51.4243 233.065 51.734 232.901 51.9346 232.571C52.1351 232.238 52.2407 231.719 52.2515 231.014V229.247ZM59.8086 230.708C59.8086 231.832 59.5973 232.681 59.1748 233.253C58.7559 233.823 58.1167 234.107 57.2573 234.107C56.4123 234.107 55.7749 233.83 55.3452 233.275C54.9191 232.716 54.7007 231.891 54.6899 230.799V229.445C54.6899 228.321 54.8994 227.478 55.3184 226.916C55.7409 226.353 56.3836 226.072 57.2466 226.072C58.1024 226.072 58.7397 226.346 59.1587 226.894C59.5812 227.442 59.7979 228.262 59.8086 229.354V230.708ZM58.5034 229.247C58.5034 228.513 58.4032 227.975 58.2026 227.635C58.0021 227.292 57.6834 227.12 57.2466 227.12C56.8205 227.12 56.5072 227.283 56.3066 227.608C56.1061 227.931 56.0005 228.436 55.9897 229.123V230.896C55.9897 231.626 56.0918 232.17 56.2959 232.528C56.5 232.886 56.8205 233.065 57.2573 233.065C57.6763 233.065 57.986 232.901 58.1865 232.571C58.387 232.238 58.4927 231.719 58.5034 231.014V229.247Z" fill="#6C6C6C"/>
<path d="M43.2168 194.494H44.0117C44.4128 194.49 44.7297 194.386 44.9624 194.182C45.1987 193.978 45.3169 193.683 45.3169 193.296C45.3169 192.924 45.2184 192.635 45.0215 192.431C44.8281 192.223 44.5309 192.12 44.1299 192.12C43.779 192.12 43.4907 192.222 43.2651 192.426C43.0396 192.626 42.9268 192.889 42.9268 193.215H41.6216C41.6216 192.814 41.7272 192.449 41.9385 192.12C42.1533 191.79 42.4505 191.534 42.8301 191.352C43.2132 191.165 43.6411 191.072 44.1138 191.072C44.8944 191.072 45.5067 191.269 45.9507 191.663C46.3983 192.053 46.6221 192.598 46.6221 193.296C46.6221 193.647 46.5093 193.978 46.2837 194.29C46.0617 194.597 45.7734 194.83 45.4189 194.988C45.8486 195.135 46.1745 195.366 46.3965 195.681C46.6221 195.996 46.7349 196.372 46.7349 196.809C46.7349 197.51 46.4932 198.069 46.0098 198.484C45.5299 198.9 44.8979 199.107 44.1138 199.107C43.3618 199.107 42.7459 198.907 42.2661 198.506C41.7863 198.105 41.5464 197.571 41.5464 196.905H42.8516C42.8516 197.249 42.9661 197.528 43.1953 197.743C43.4281 197.958 43.7396 198.065 44.1299 198.065C44.5345 198.065 44.8532 197.958 45.0859 197.743C45.3187 197.528 45.4351 197.217 45.4351 196.809C45.4351 196.397 45.3133 196.08 45.0698 195.858C44.8263 195.636 44.4647 195.525 43.9849 195.525H43.2168V194.494ZM53.0566 195.708C53.0566 196.832 52.8454 197.681 52.4229 198.253C52.0039 198.823 51.3647 199.107 50.5054 199.107C49.6603 199.107 49.0229 198.83 48.5933 198.275C48.1672 197.716 47.9487 196.891 47.938 195.799V194.445C47.938 193.321 48.1475 192.478 48.5664 191.916C48.9889 191.353 49.6317 191.072 50.4946 191.072C51.3504 191.072 51.9878 191.346 52.4067 191.894C52.8293 192.442 53.0459 193.262 53.0566 194.354V195.708ZM51.7515 194.247C51.7515 193.513 51.6512 192.975 51.4507 192.635C51.2502 192.292 50.9315 192.12 50.4946 192.12C50.0685 192.12 49.7552 192.283 49.5547 192.608C49.3542 192.931 49.2485 193.436 49.2378 194.123V195.896C49.2378 196.626 49.3398 197.17 49.5439 197.528C49.748 197.886 50.0685 198.065 50.5054 198.065C50.9243 198.065 51.234 197.901 51.4346 197.571C51.6351 197.238 51.7407 196.719 51.7515 196.014V194.247ZM59.3086 195.708C59.3086 196.832 59.0973 197.681 58.6748 198.253C58.2559 198.823 57.6167 199.107 56.7573 199.107C55.9123 199.107 55.2749 198.83 54.8452 198.275C54.4191 197.716 54.2007 196.891 54.1899 195.799V194.445C54.1899 193.321 54.3994 192.478 54.8184 191.916C55.2409 191.353 55.8836 191.072 56.7466 191.072C57.6024 191.072 58.2397 191.346 58.6587 191.894C59.0812 192.442 59.2979 193.262 59.3086 194.354V195.708ZM58.0034 194.247C58.0034 193.513 57.9032 192.975 57.7026 192.635C57.5021 192.292 57.1834 192.12 56.7466 192.12C56.3205 192.12 56.0072 192.283 55.8066 192.608C55.6061 192.931 55.5005 193.436 55.4897 194.123V195.896C55.4897 196.626 55.5918 197.17 55.7959 197.528C56 197.886 56.3205 198.065 56.7573 198.065C57.1763 198.065 57.486 197.901 57.6865 197.571C57.887 197.238 57.9927 196.719 58.0034 196.014V194.247Z" fill="#6C6C6C"/>
<path d="M46.1226 161.212H47.0947V162.26H46.1226V164H44.8174V162.26H41.439L41.4014 161.465L44.7744 156.18H46.1226V161.212ZM42.771 161.212H44.8174V157.947L44.7207 158.119L42.771 161.212ZM53.0566 160.708C53.0566 161.832 52.8454 162.681 52.4229 163.253C52.0039 163.823 51.3647 164.107 50.5054 164.107C49.6603 164.107 49.0229 163.83 48.5933 163.275C48.1672 162.716 47.9487 161.891 47.938 160.799V159.445C47.938 158.321 48.1475 157.478 48.5664 156.916C48.9889 156.353 49.6317 156.072 50.4946 156.072C51.3504 156.072 51.9878 156.346 52.4067 156.894C52.8293 157.442 53.0459 158.262 53.0566 159.354V160.708ZM51.7515 159.247C51.7515 158.513 51.6512 157.975 51.4507 157.635C51.2502 157.292 50.9315 157.12 50.4946 157.12C50.0685 157.12 49.7552 157.283 49.5547 157.608C49.3542 157.931 49.2485 158.436 49.2378 159.123V160.896C49.2378 161.626 49.3398 162.17 49.5439 162.528C49.748 162.886 50.0685 163.065 50.5054 163.065C50.9243 163.065 51.234 162.901 51.4346 162.571C51.6351 162.238 51.7407 161.719 51.7515 161.014V159.247ZM59.3086 160.708C59.3086 161.832 59.0973 162.681 58.6748 163.253C58.2559 163.823 57.6167 164.107 56.7573 164.107C55.9123 164.107 55.2749 163.83 54.8452 163.275C54.4191 162.716 54.2007 161.891 54.1899 160.799V159.445C54.1899 158.321 54.3994 157.478 54.8184 156.916C55.2409 156.353 55.8836 156.072 56.7466 156.072C57.6024 156.072 58.2397 156.346 58.6587 156.894C59.0812 157.442 59.2979 158.262 59.3086 159.354V160.708ZM58.0034 159.247C58.0034 158.513 57.9032 157.975 57.7026 157.635C57.5021 157.292 57.1834 157.12 56.7466 157.12C56.3205 157.12 56.0072 157.283 55.8066 157.608C55.6061 157.931 55.5005 158.436 55.4897 159.123V160.896C55.4897 161.626 55.5918 162.17 55.7959 162.528C56 162.886 56.3205 163.065 56.7573 163.065C57.1763 163.065 57.486 162.901 57.6865 162.571C57.887 162.238 57.9927 161.719 58.0034 161.014V159.247Z" fill="#6C6C6C"/>
<path d="M42.7185 125.122L43.1428 121.18H47.343V122.308H44.2277L44.0129 124.177C44.3745 123.969 44.7828 123.865 45.2375 123.865C45.9823 123.865 46.5606 124.103 46.9724 124.58C47.3877 125.056 47.5954 125.697 47.5954 126.502C47.5954 127.297 47.3662 127.931 46.9079 128.404C46.4496 128.873 45.8212 129.107 45.0227 129.107C44.3065 129.107 43.7121 128.905 43.2395 128.5C42.7704 128.092 42.5162 127.555 42.4768 126.889H43.739C43.7891 127.269 43.9252 127.561 44.1472 127.765C44.3692 127.965 44.6592 128.065 45.0173 128.065C45.4183 128.065 45.7299 127.922 45.9519 127.636C46.1774 127.349 46.2902 126.959 46.2902 126.465C46.2902 125.989 46.1667 125.613 45.9196 125.337C45.6726 125.058 45.3324 124.918 44.8991 124.918C44.6628 124.918 44.4623 124.95 44.2976 125.015C44.1329 125.076 43.9538 125.197 43.7605 125.38L42.7185 125.122ZM48.9704 125.122L49.3947 121.18H53.5949V122.308H50.4797L50.2648 124.177C50.6265 123.969 51.0347 123.865 51.4895 123.865C52.2342 123.865 52.8125 124.103 53.2243 124.58C53.6397 125.056 53.8474 125.697 53.8474 126.502C53.8474 127.297 53.6182 127.931 53.1599 128.404C52.7015 128.873 52.0731 129.107 51.2746 129.107C50.5585 129.107 49.9641 128.905 49.4914 128.5C49.0223 128.092 48.7681 127.555 48.7287 126.889H49.9909C50.0411 127.269 50.1771 127.561 50.3991 127.765C50.6211 127.965 50.9112 128.065 51.2692 128.065C51.6703 128.065 51.9818 127.922 52.2038 127.636C52.4294 127.349 52.5422 126.959 52.5422 126.465C52.5422 125.989 52.4187 125.613 52.1716 125.337C51.9245 125.058 51.5843 124.918 51.1511 124.918C50.9148 124.918 50.7142 124.95 50.5495 125.015C50.3848 125.076 50.2058 125.197 50.0124 125.38L48.9704 125.122ZM59.9704 125.708C59.9704 126.832 59.7592 127.681 59.3366 128.253C58.9177 128.823 58.2785 129.107 57.4191 129.107C56.5741 129.107 55.9367 128.83 55.507 128.275C55.0809 127.716 54.8625 126.891 54.8518 125.799V124.445C54.8518 123.321 55.0612 122.478 55.4802 121.916C55.9027 121.353 56.5454 121.072 57.4084 121.072C58.2642 121.072 58.9016 121.346 59.3205 121.894C59.743 122.442 59.9597 123.262 59.9704 124.354V125.708ZM58.6652 124.247C58.6652 123.513 58.565 122.975 58.3645 122.635C58.1639 122.292 57.8453 122.12 57.4084 122.12C56.9823 122.12 56.669 122.283 56.4685 122.608C56.2679 122.931 56.1623 123.436 56.1516 124.123V125.896C56.1516 126.626 56.2536 127.17 56.4577 127.528C56.6618 127.886 56.9823 128.065 57.4191 128.065C57.8381 128.065 58.1478 127.901 58.3483 127.571C58.5489 127.238 58.6545 126.719 58.6652 126.014V124.247Z" fill="#6C6C6C"/>
<rect x="126" y="168" width="28" height="134" fill="#233A6C"/>
<rect x="84" y="279" width="27" height="23" fill="#233A6C" fill-opacity="0.9"/>
<rect x="168.848" y="237" width="27.3397" height="64.7981" fill="#233A6C" fill-opacity="0.9"/>
<rect x="211.271" y="223" width="27.3397" height="78.7982" fill="#233A6C" fill-opacity="0.9"/>
<rect x="253.694" y="243" width="27.3397" height="58.7973" fill="#233A6C" fill-opacity="0.9"/>
<rect x="296.118" y="188" width="27.3397" height="113.797" fill="#233A6C" fill-opacity="0.9"/>
<rect x="338.542" y="213" width="27.3397" height="88.7982" fill="#233A6C" fill-opacity="0.9"/>
<path d="M242.03 48.896H244.85V50H240.662V41.66H242.03V48.896ZM245.538 46.664C245.538 46 245.674 45.412 245.946 44.9C246.226 44.388 246.602 43.992 247.074 43.712C247.554 43.424 248.082 43.28 248.658 43.28C249.178 43.28 249.63 43.384 250.014 43.592C250.406 43.792 250.718 44.044 250.95 44.348V43.388H252.33V50H250.95V49.016C250.718 49.328 250.402 49.588 250.002 49.796C249.602 50.004 249.146 50.108 248.634 50.108C248.066 50.108 247.546 49.964 247.074 49.676C246.602 49.38 246.226 48.972 245.946 48.452C245.674 47.924 245.538 47.328 245.538 46.664ZM250.95 46.688C250.95 46.232 250.854 45.836 250.662 45.5C250.478 45.164 250.234 44.908 249.93 44.732C249.626 44.556 249.298 44.468 248.946 44.468C248.594 44.468 248.266 44.556 247.962 44.732C247.658 44.9 247.41 45.152 247.218 45.488C247.034 45.816 246.942 46.208 246.942 46.664C246.942 47.12 247.034 47.52 247.218 47.864C247.41 48.208 247.658 48.472 247.962 48.656C248.274 48.832 248.602 48.92 248.946 48.92C249.298 48.92 249.626 48.832 249.93 48.656C250.234 48.48 250.478 48.224 250.662 47.888C250.854 47.544 250.95 47.144 250.95 46.688ZM256.527 50.108C256.007 50.108 255.539 50.016 255.123 49.832C254.715 49.64 254.391 49.384 254.151 49.064C253.911 48.736 253.783 48.372 253.767 47.972H255.183C255.207 48.252 255.339 48.488 255.579 48.68C255.827 48.864 256.135 48.956 256.503 48.956C256.887 48.956 257.183 48.884 257.391 48.74C257.607 48.588 257.715 48.396 257.715 48.164C257.715 47.916 257.595 47.732 257.355 47.612C257.123 47.492 256.751 47.36 256.239 47.216C255.743 47.08 255.339 46.948 255.027 46.82C254.715 46.692 254.443 46.496 254.211 46.232C253.987 45.968 253.875 45.62 253.875 45.188C253.875 44.836 253.979 44.516 254.187 44.228C254.395 43.932 254.691 43.7 255.075 43.532C255.467 43.364 255.915 43.28 256.419 43.28C257.171 43.28 257.775 43.472 258.231 43.856C258.695 44.232 258.943 44.748 258.975 45.404H257.607C257.583 45.108 257.463 44.872 257.247 44.696C257.031 44.52 256.739 44.432 256.371 44.432C256.011 44.432 255.735 44.5 255.543 44.636C255.351 44.772 255.255 44.952 255.255 45.176C255.255 45.352 255.319 45.5 255.447 45.62C255.575 45.74 255.731 45.836 255.915 45.908C256.099 45.972 256.371 46.056 256.731 46.16C257.211 46.288 257.603 46.42 257.907 46.556C258.219 46.684 258.487 46.876 258.711 47.132C258.935 47.388 259.051 47.728 259.059 48.152C259.059 48.528 258.955 48.864 258.747 49.16C258.539 49.456 258.243 49.688 257.859 49.856C257.483 50.024 257.039 50.108 256.527 50.108ZM262.133 44.504V48.164C262.133 48.412 262.189 48.592 262.301 48.704C262.421 48.808 262.621 48.86 262.901 48.86H263.741V50H262.661C262.045 50 261.573 49.856 261.245 49.568C260.917 49.28 260.753 48.812 260.753 48.164V44.504H259.973V43.388H260.753V41.744H262.133V43.388H263.741V44.504H262.133ZM276.999 43.388L274.947 50H273.507L272.175 45.116L270.843 50H269.403L267.339 43.388H268.731L270.111 48.704L271.515 43.388H272.943L274.287 48.68L275.655 43.388H276.999ZM284.081 46.532C284.081 46.78 284.065 47.004 284.033 47.204H278.981C279.021 47.732 279.217 48.156 279.569 48.476C279.921 48.796 280.353 48.956 280.865 48.956C281.601 48.956 282.121 48.648 282.425 48.032H283.901C283.701 48.64 283.337 49.14 282.809 49.532C282.289 49.916 281.641 50.108 280.865 50.108C280.233 50.108 279.665 49.968 279.161 49.688C278.665 49.4 278.273 49 277.985 48.488C277.705 47.968 277.565 47.368 277.565 46.688C277.565 46.008 277.701 45.412 277.973 44.9C278.253 44.38 278.641 43.98 279.137 43.7C279.641 43.42 280.217 43.28 280.865 43.28C281.489 43.28 282.045 43.416 282.533 43.688C283.021 43.96 283.401 44.344 283.673 44.84C283.945 45.328 284.081 45.892 284.081 46.532ZM282.653 46.1C282.645 45.596 282.465 45.192 282.113 44.888C281.761 44.584 281.325 44.432 280.805 44.432C280.333 44.432 279.929 44.584 279.593 44.888C279.257 45.184 279.057 45.588 278.993 46.1H282.653ZM291.487 46.532C291.487 46.78 291.471 47.004 291.439 47.204H286.387C286.427 47.732 286.623 48.156 286.975 48.476C287.327 48.796 287.759 48.956 288.271 48.956C289.007 48.956 289.527 48.648 289.831 48.032H291.307C291.107 48.64 290.743 49.14 290.215 49.532C289.695 49.916 289.047 50.108 288.271 50.108C287.639 50.108 287.071 49.968 286.567 49.688C286.071 49.4 285.679 49 285.391 48.488C285.111 47.968 284.971 47.368 284.971 46.688C284.971 46.008 285.107 45.412 285.379 44.9C285.659 44.38 286.047 43.98 286.543 43.7C287.047 43.42 287.623 43.28 288.271 43.28C288.895 43.28 289.451 43.416 289.939 43.688C290.427 43.96 290.807 44.344 291.079 44.84C291.351 45.328 291.487 45.892 291.487 46.532ZM290.059 46.1C290.051 45.596 289.871 45.192 289.519 44.888C289.167 44.584 288.731 44.432 288.211 44.432C287.739 44.432 287.335 44.584 286.999 44.888C286.663 45.184 286.463 45.588 286.399 46.1H290.059ZM295.45 46.7L298.498 50H296.65L294.202 47.156V50H292.834V41.12H294.202V46.28L296.602 43.388H298.498L295.45 46.7ZM305.619 52.232C304.835 51.48 304.231 50.524 303.807 49.364C303.391 48.204 303.183 46.96 303.183 45.632C303.183 44.272 303.407 42.988 303.855 41.78C304.311 40.572 304.979 39.576 305.859 38.792H307.275V38.924C306.355 39.772 305.663 40.788 305.199 41.972C304.735 43.156 304.503 44.376 304.503 45.632C304.503 46.84 304.719 48.008 305.151 49.136C305.583 50.264 306.211 51.252 307.035 52.1V52.232H305.619ZM313.866 42.308L310.53 50H309.15L312.522 42.452H308.082V41.288H313.866V42.308ZM317.878 46.664C317.878 46 318.014 45.412 318.286 44.9C318.566 44.388 318.942 43.992 319.414 43.712C319.894 43.424 320.426 43.28 321.01 43.28C321.442 43.28 321.866 43.376 322.282 43.568C322.706 43.752 323.042 44 323.29 44.312V41.12H324.67V50H323.29V49.004C323.066 49.324 322.754 49.588 322.354 49.796C321.962 50.004 321.51 50.108 320.998 50.108C320.422 50.108 319.894 49.964 319.414 49.676C318.942 49.38 318.566 48.972 318.286 48.452C318.014 47.924 317.878 47.328 317.878 46.664ZM323.29 46.688C323.29 46.232 323.194 45.836 323.002 45.5C322.818 45.164 322.574 44.908 322.27 44.732C321.966 44.556 321.638 44.468 321.286 44.468C320.934 44.468 320.606 44.556 320.302 44.732C319.998 44.9 319.75 45.152 319.558 45.488C319.374 45.816 319.282 46.208 319.282 46.664C319.282 47.12 319.374 47.52 319.558 47.864C319.75 48.208 319.998 48.472 320.302 48.656C320.614 48.832 320.942 48.92 321.286 48.92C321.638 48.92 321.966 48.832 322.27 48.656C322.574 48.48 322.818 48.224 323.002 47.888C323.194 47.544 323.29 47.144 323.29 46.688ZM326.01 46.664C326.01 46 326.146 45.412 326.418 44.9C326.698 44.388 327.074 43.992 327.546 43.712C328.026 43.424 328.554 43.28 329.13 43.28C329.65 43.28 330.102 43.384 330.486 43.592C330.878 43.792 331.19 44.044 331.422 44.348V43.388H332.802V50H331.422V49.016C331.19 49.328 330.874 49.588 330.474 49.796C330.074 50.004 329.618 50.108 329.106 50.108C328.538 50.108 328.018 49.964 327.546 49.676C327.074 49.38 326.698 48.972 326.418 48.452C326.146 47.924 326.01 47.328 326.01 46.664ZM331.422 46.688C331.422 46.232 331.326 45.836 331.134 45.5C330.95 45.164 330.706 44.908 330.402 44.732C330.098 44.556 329.77 44.468 329.418 44.468C329.066 44.468 328.738 44.556 328.434 44.732C328.13 44.9 327.882 45.152 327.69 45.488C327.506 45.816 327.414 46.208 327.414 46.664C327.414 47.12 327.506 47.52 327.69 47.864C327.882 48.208 328.13 48.472 328.434 48.656C328.746 48.832 329.074 48.92 329.418 48.92C329.77 48.92 330.098 48.832 330.402 48.656C330.706 48.48 330.95 48.224 331.134 47.888C331.326 47.544 331.422 47.144 331.422 46.688ZM340.551 43.388L336.495 53.108H335.079L336.423 49.892L333.819 43.388H335.343L337.203 48.428L339.135 43.388H340.551ZM343.984 50.108C343.464 50.108 342.996 50.016 342.58 49.832C342.172 49.64 341.848 49.384 341.608 49.064C341.368 48.736 341.24 48.372 341.224 47.972H342.64C342.664 48.252 342.796 48.488 343.036 48.68C343.284 48.864 343.592 48.956 343.96 48.956C344.344 48.956 344.64 48.884 344.848 48.74C345.064 48.588 345.172 48.396 345.172 48.164C345.172 47.916 345.052 47.732 344.812 47.612C344.58 47.492 344.208 47.36 343.696 47.216C343.2 47.08 342.796 46.948 342.484 46.82C342.172 46.692 341.9 46.496 341.668 46.232C341.444 45.968 341.332 45.62 341.332 45.188C341.332 44.836 341.436 44.516 341.644 44.228C341.852 43.932 342.148 43.7 342.532 43.532C342.924 43.364 343.372 43.28 343.876 43.28C344.628 43.28 345.232 43.472 345.688 43.856C346.152 44.232 346.4 44.748 346.432 45.404H345.064C345.04 45.108 344.92 44.872 344.704 44.696C344.488 44.52 344.196 44.432 343.828 44.432C343.468 44.432 343.192 44.5 343 44.636C342.808 44.772 342.712 44.952 342.712 45.176C342.712 45.352 342.776 45.5 342.904 45.62C343.032 45.74 343.188 45.836 343.372 45.908C343.556 45.972 343.828 46.056 344.188 46.16C344.668 46.288 345.06 46.42 345.364 46.556C345.676 46.684 345.944 46.876 346.168 47.132C346.392 47.388 346.508 47.728 346.516 48.152C346.516 48.528 346.412 48.864 346.204 49.16C345.996 49.456 345.7 49.688 345.316 49.856C344.94 50.024 344.496 50.108 343.984 50.108ZM347.658 52.232V52.1C348.482 51.252 349.11 50.264 349.542 49.136C349.974 48.008 350.19 46.84 350.19 45.632C350.19 44.376 349.958 43.156 349.494 41.972C349.03 40.788 348.338 39.772 347.418 38.924V38.792H348.834C349.714 39.576 350.378 40.572 350.826 41.78C351.282 42.988 351.51 44.272 351.51 45.632C351.51 46.96 351.298 48.204 350.874 49.364C350.458 50.524 349.858 51.48 349.074 52.232H347.658Z" fill="#595959"/>
<rect x="235.5" y="32.5" width="143" height="28" stroke="#595959"/>
<path d="M360 44L366 50L372 44" stroke="#595959" stroke-width="1.5" stroke-linecap="round" stroke-linejoin="round"/>
<defs>
<filter id="filter0_bi" x="-4" y="-4" width="438" height="340" filterUnits="userSpaceOnUse" color-interpolation-filters="sRGB">
<feFlood flood-opacity="0" result="BackgroundImageFix"/>
<feGaussianBlur in="BackgroundImage" stdDeviation="2"/>
<feComposite in2="SourceAlpha" operator="in" result="effect1_backgroundBlur"/>
<feBlend mode="normal" in="SourceGraphic" in2="effect1_backgroundBlur" result="shape"/>
<feColorMatrix in="SourceAlpha" type="matrix" values="0 0 0 0 0 0 0 0 0 0 0 0 0 0 0 0 0 0 127 0" result="hardAlpha"/>
<feOffset dy="4"/>
<feGaussianBlur stdDeviation="2"/>
<feComposite in2="hardAlpha" operator="arithmetic" k2="-1" k3="1"/>
<feColorMatrix type="matrix" values="0 0 0 0 0 0 0 0 0 0 0 0 0 0 0 0 0 0 0.25 0"/>
<feBlend mode="normal" in2="shape" result="effect2_innerShadow"/>
</filter>
</defs>
</svg>
