<svg width="158" height="93" viewBox="0 0 158 93" fill="none" xmlns="http://www.w3.org/2000/svg">
<path d="M1.43023 64.114C1.43023 63.162 1.64956 62.308 2.08823 61.552C2.53623 60.796 3.13823 60.208 3.89423 59.788C4.65957 59.3587 5.4949 59.144 6.40023 59.144C7.43623 59.144 8.35557 59.4007 9.15823 59.914C9.97023 60.418 10.5582 61.1367 10.9222 62.07H9.00423C8.75223 61.5567 8.40223 61.174 7.95423 60.922C7.50623 60.67 6.98823 60.544 6.40023 60.544C5.75623 60.544 5.18223 60.6887 4.67823 60.978C4.17423 61.2673 3.77756 61.6827 3.48823 62.224C3.20823 62.7653 3.06823 63.3953 3.06823 64.114C3.06823 64.8327 3.20823 65.4627 3.48823 66.004C3.77756 66.5453 4.17423 66.9653 4.67823 67.264C5.18223 67.5533 5.75623 67.698 6.40023 67.698C6.98823 67.698 7.50623 67.572 7.95423 67.32C8.40223 67.068 8.75223 66.6853 9.00423 66.172H10.9222C10.5582 67.1053 9.97023 67.824 9.15823 68.328C8.35557 68.832 7.43623 69.084 6.40023 69.084C5.48556 69.084 4.65023 68.874 3.89423 68.454C3.13823 68.0247 2.53623 67.432 2.08823 66.676C1.64956 65.92 1.43023 65.066 1.43023 64.114ZM16.7804 61.16C17.3684 61.16 17.891 61.286 18.3484 61.538C18.815 61.79 19.179 62.1633 19.4404 62.658C19.711 63.1527 19.8464 63.75 19.8464 64.45V69H18.2644V64.688C18.2644 63.9973 18.0917 63.47 17.7464 63.106C17.401 62.7327 16.9297 62.546 16.3324 62.546C15.735 62.546 15.259 62.7327 14.9044 63.106C14.559 63.47 14.3864 63.9973 14.3864 64.688V69H12.7904V58.64H14.3864V62.182C14.657 61.8553 14.9977 61.6033 15.4084 61.426C15.8284 61.2487 16.2857 61.16 16.7804 61.16ZM21.3502 65.108C21.3502 64.3333 21.5088 63.6473 21.8262 63.05C22.1528 62.4527 22.5915 61.9907 23.1422 61.664C23.7022 61.328 24.3182 61.16 24.9902 61.16C25.5968 61.16 26.1242 61.2813 26.5722 61.524C27.0295 61.7573 27.3935 62.0513 27.6642 62.406V61.286H29.2742V69H27.6642V67.852C27.3935 68.216 27.0248 68.5193 26.5582 68.762C26.0915 69.0047 25.5595 69.126 24.9622 69.126C24.2995 69.126 23.6928 68.958 23.1422 68.622C22.5915 68.2767 22.1528 67.8007 21.8262 67.194C21.5088 66.578 21.3502 65.8827 21.3502 65.108ZM27.6642 65.136C27.6642 64.604 27.5522 64.142 27.3282 63.75C27.1135 63.358 26.8288 63.0593 26.4742 62.854C26.1195 62.6487 25.7368 62.546 25.3262 62.546C24.9155 62.546 24.5328 62.6487 24.1782 62.854C23.8235 63.05 23.5342 63.344 23.3102 63.736C23.0955 64.1187 22.9882 64.576 22.9882 65.108C22.9882 65.64 23.0955 66.1067 23.3102 66.508C23.5342 66.9093 23.8235 67.2173 24.1782 67.432C24.5422 67.6373 24.9248 67.74 25.3262 67.74C25.7368 67.74 26.1195 67.6373 26.4742 67.432C26.8288 67.2267 27.1135 66.928 27.3282 66.536C27.5522 66.1347 27.6642 65.668 27.6642 65.136ZM33.2324 62.588V66.858C33.2324 67.1473 33.2978 67.3573 33.4284 67.488C33.5684 67.6093 33.8018 67.67 34.1284 67.67H35.1084V69H33.8484C33.1298 69 32.5791 68.832 32.1964 68.496C31.8138 68.16 31.6224 67.614 31.6224 66.858V62.588H30.7124V61.286H31.6224V59.368H33.2324V61.286H35.1084V62.588H33.2324ZM39.3794 69.126C38.7728 69.126 38.2268 69.0187 37.7414 68.804C37.2654 68.58 36.8874 68.2813 36.6074 67.908C36.3274 67.5253 36.1781 67.1007 36.1594 66.634H37.8114C37.8394 66.9607 37.9934 67.236 38.2734 67.46C38.5628 67.6747 38.9221 67.782 39.3514 67.782C39.7994 67.782 40.1448 67.698 40.3874 67.53C40.6394 67.3527 40.7654 67.1287 40.7654 66.858C40.7654 66.5687 40.6254 66.354 40.3454 66.214C40.0748 66.074 39.6408 65.92 39.0434 65.752C38.4648 65.5933 37.9934 65.4393 37.6294 65.29C37.2654 65.1407 36.9481 64.912 36.6774 64.604C36.4161 64.296 36.2854 63.89 36.2854 63.386C36.2854 62.9753 36.4068 62.602 36.6494 62.266C36.8921 61.9207 37.2374 61.65 37.6854 61.454C38.1428 61.258 38.6654 61.16 39.2534 61.16C40.1308 61.16 40.8354 61.384 41.3674 61.832C41.9088 62.2707 42.1981 62.8727 42.2354 63.638H40.6394C40.6114 63.2927 40.4714 63.0173 40.2194 62.812C39.9674 62.6067 39.6268 62.504 39.1974 62.504C38.7774 62.504 38.4554 62.5833 38.2314 62.742C38.0074 62.9007 37.8954 63.1107 37.8954 63.372C37.8954 63.5773 37.9701 63.75 38.1194 63.89C38.2688 64.03 38.4508 64.142 38.6654 64.226C38.8801 64.3007 39.1974 64.3987 39.6174 64.52C40.1774 64.6693 40.6348 64.8233 40.9894 64.982C41.3534 65.1313 41.6661 65.3553 41.9274 65.654C42.1888 65.9527 42.3241 66.3493 42.3334 66.844C42.3334 67.2827 42.2121 67.6747 41.9694 68.02C41.7268 68.3653 41.3814 68.636 40.9334 68.832C40.4948 69.028 39.9768 69.126 39.3794 69.126ZM58.0547 61.286L55.6607 69H53.9807L52.4267 63.302L50.8727 69H49.1927L46.7847 61.286H48.4087L50.0187 67.488L51.6567 61.286H53.3227L54.8907 67.46L56.4867 61.286H58.0547ZM60.0594 60.264C59.7701 60.264 59.5274 60.166 59.3314 59.97C59.1354 59.774 59.0374 59.5313 59.0374 59.242C59.0374 58.9527 59.1354 58.71 59.3314 58.514C59.5274 58.318 59.7701 58.22 60.0594 58.22C60.3394 58.22 60.5774 58.318 60.7734 58.514C60.9694 58.71 61.0674 58.9527 61.0674 59.242C61.0674 59.5313 60.9694 59.774 60.7734 59.97C60.5774 60.166 60.3394 60.264 60.0594 60.264ZM60.8434 61.286V69H59.2474V61.286H60.8434ZM64.8008 62.588V66.858C64.8008 67.1473 64.8661 67.3573 64.9968 67.488C65.1368 67.6093 65.3701 67.67 65.6968 67.67H66.6768V69H65.4168C64.6981 69 64.1475 68.832 63.7648 68.496C63.3821 68.16 63.1908 67.614 63.1908 66.858V62.588H62.2808V61.286H63.1908V59.368H64.8008V61.286H66.6768V62.588H64.8008ZM72.1378 61.16C72.7258 61.16 73.2484 61.286 73.7058 61.538C74.1724 61.79 74.5364 62.1633 74.7978 62.658C75.0684 63.1527 75.2038 63.75 75.2038 64.45V69H73.6218V64.688C73.6218 63.9973 73.4491 63.47 73.1038 63.106C72.7584 62.7327 72.2871 62.546 71.6898 62.546C71.0924 62.546 70.6164 62.7327 70.2618 63.106C69.9164 63.47 69.7438 63.9973 69.7438 64.688V69H68.1478V58.64H69.7438V62.182C70.0144 61.8553 70.3551 61.6033 70.7658 61.426C71.1858 61.2487 71.6431 61.16 72.1378 61.16ZM82.4723 59.27V69H80.8763V59.27H82.4723ZM88.4597 61.16C89.0664 61.16 89.6077 61.286 90.0837 61.538C90.569 61.79 90.947 62.1633 91.2177 62.658C91.4884 63.1527 91.6237 63.75 91.6237 64.45V69H90.0417V64.688C90.0417 63.9973 89.869 63.47 89.5237 63.106C89.1784 62.7327 88.707 62.546 88.1097 62.546C87.5124 62.546 87.0364 62.7327 86.6817 63.106C86.3364 63.47 86.1637 63.9973 86.1637 64.688V69H84.5677V61.286H86.1637V62.168C86.425 61.8507 86.7564 61.6033 87.1577 61.426C87.5684 61.2487 88.0024 61.16 88.4597 61.16ZM96.8935 62.588H95.4655V69H93.8555V62.588H92.9455V61.286H93.8555V60.74C93.8555 59.8533 94.0888 59.2093 94.5555 58.808C95.0315 58.3973 95.7735 58.192 96.7815 58.192V59.522C96.2962 59.522 95.9555 59.6153 95.7595 59.802C95.5635 59.9793 95.4655 60.292 95.4655 60.74V61.286H96.8935V62.588ZM99.9039 58.64V69H98.3079V58.64H99.9039ZM108.985 61.286V69H107.389V68.09C107.137 68.4073 106.806 68.6593 106.395 68.846C105.994 69.0233 105.565 69.112 105.107 69.112C104.501 69.112 103.955 68.986 103.469 68.734C102.993 68.482 102.615 68.1087 102.335 67.614C102.065 67.1193 101.929 66.522 101.929 65.822V61.286H103.511V65.584C103.511 66.2747 103.684 66.8067 104.029 67.18C104.375 67.544 104.846 67.726 105.443 67.726C106.041 67.726 106.512 67.544 106.857 67.18C107.212 66.8067 107.389 66.2747 107.389 65.584V61.286H108.985ZM118.161 64.954C118.161 65.2433 118.142 65.5047 118.105 65.738H112.211C112.258 66.354 112.486 66.8487 112.897 67.222C113.308 67.5953 113.812 67.782 114.409 67.782C115.268 67.782 115.874 67.4227 116.229 66.704H117.951C117.718 67.4133 117.293 67.9967 116.677 68.454C116.07 68.902 115.314 69.126 114.409 69.126C113.672 69.126 113.009 68.9627 112.421 68.636C111.842 68.3 111.385 67.8333 111.049 67.236C110.722 66.6293 110.559 65.9293 110.559 65.136C110.559 64.3427 110.718 63.6473 111.035 63.05C111.362 62.4433 111.814 61.9767 112.393 61.65C112.981 61.3233 113.653 61.16 114.409 61.16C115.137 61.16 115.786 61.3187 116.355 61.636C116.924 61.9533 117.368 62.4013 117.685 62.98C118.002 63.5493 118.161 64.2073 118.161 64.954ZM116.495 64.45C116.486 63.862 116.276 63.3907 115.865 63.036C115.454 62.6813 114.946 62.504 114.339 62.504C113.788 62.504 113.317 62.6813 112.925 63.036C112.533 63.3813 112.3 63.8527 112.225 64.45H116.495ZM123.624 61.16C124.23 61.16 124.772 61.286 125.248 61.538C125.733 61.79 126.111 62.1633 126.382 62.658C126.652 63.1527 126.788 63.75 126.788 64.45V69H125.206V64.688C125.206 63.9973 125.033 63.47 124.688 63.106C124.342 62.7327 123.871 62.546 123.274 62.546C122.676 62.546 122.2 62.7327 121.846 63.106C121.5 63.47 121.328 63.9973 121.328 64.688V69H119.732V61.286H121.328V62.168C121.589 61.8507 121.92 61.6033 122.322 61.426C122.732 61.2487 123.166 61.16 123.624 61.16ZM128.292 65.136C128.292 64.3427 128.45 63.6473 128.768 63.05C129.094 62.4433 129.542 61.9767 130.112 61.65C130.681 61.3233 131.334 61.16 132.072 61.16C133.005 61.16 133.775 61.384 134.382 61.832C134.998 62.2707 135.413 62.9007 135.628 63.722H133.906C133.766 63.3393 133.542 63.0407 133.234 62.826C132.926 62.6113 132.538 62.504 132.072 62.504C131.418 62.504 130.896 62.7373 130.504 63.204C130.121 63.6613 129.93 64.3053 129.93 65.136C129.93 65.9667 130.121 66.6153 130.504 67.082C130.896 67.5487 131.418 67.782 132.072 67.782C132.996 67.782 133.607 67.376 133.906 66.564H135.628C135.404 67.348 134.984 67.9733 134.368 68.44C133.752 68.8973 132.986 69.126 132.072 69.126C131.334 69.126 130.681 68.9627 130.112 68.636C129.542 68.3 129.094 67.8333 128.768 67.236C128.45 66.6293 128.292 65.9293 128.292 65.136ZM144.288 64.954C144.288 65.2433 144.269 65.5047 144.232 65.738H138.338C138.385 66.354 138.613 66.8487 139.024 67.222C139.435 67.5953 139.939 67.782 140.536 67.782C141.395 67.782 142.001 67.4227 142.356 66.704H144.078C143.845 67.4133 143.42 67.9967 142.804 68.454C142.197 68.902 141.441 69.126 140.536 69.126C139.799 69.126 139.136 68.9627 138.548 68.636C137.969 68.3 137.512 67.8333 137.176 67.236C136.849 66.6293 136.686 65.9293 136.686 65.136C136.686 64.3427 136.845 63.6473 137.162 63.05C137.489 62.4433 137.941 61.9767 138.52 61.65C139.108 61.3233 139.78 61.16 140.536 61.16C141.264 61.16 141.913 61.3187 142.482 61.636C143.051 61.9533 143.495 62.4013 143.812 62.98C144.129 63.5493 144.288 64.2073 144.288 64.954ZM142.622 64.45C142.613 63.862 142.403 63.3907 141.992 63.036C141.581 62.6813 141.073 62.504 140.466 62.504C139.915 62.504 139.444 62.6813 139.052 63.036C138.66 63.3813 138.427 63.8527 138.352 64.45H142.622ZM147.455 62.406C147.688 62.014 147.996 61.7107 148.379 61.496C148.771 61.272 149.233 61.16 149.765 61.16V62.812H149.359C148.733 62.812 148.257 62.9707 147.931 63.288C147.613 63.6053 147.455 64.156 147.455 64.94V69H145.859V61.286H147.455V62.406ZM154.032 69.126C153.425 69.126 152.879 69.0187 152.394 68.804C151.918 68.58 151.54 68.2813 151.26 67.908C150.98 67.5253 150.83 67.1007 150.812 66.634H152.464C152.492 66.9607 152.646 67.236 152.926 67.46C153.215 67.6747 153.574 67.782 154.004 67.782C154.452 67.782 154.797 67.698 155.04 67.53C155.292 67.3527 155.418 67.1287 155.418 66.858C155.418 66.5687 155.278 66.354 154.998 66.214C154.727 66.074 154.293 65.92 153.696 65.752C153.117 65.5933 152.646 65.4393 152.282 65.29C151.918 65.1407 151.6 64.912 151.33 64.604C151.068 64.296 150.938 63.89 150.938 63.386C150.938 62.9753 151.059 62.602 151.302 62.266C151.544 61.9207 151.89 61.65 152.338 61.454C152.795 61.258 153.318 61.16 153.906 61.16C154.783 61.16 155.488 61.384 156.02 61.832C156.561 62.2707 156.85 62.8727 156.888 63.638H155.292C155.264 63.2927 155.124 63.0173 154.872 62.812C154.62 62.6067 154.279 62.504 153.85 62.504C153.43 62.504 153.108 62.5833 152.884 62.742C152.66 62.9007 152.548 63.1107 152.548 63.372C152.548 63.5773 152.622 63.75 152.772 63.89C152.921 64.03 153.103 64.142 153.318 64.226C153.532 64.3007 153.85 64.3987 154.27 64.52C154.83 64.6693 155.287 64.8233 155.642 64.982C156.006 65.1313 156.318 65.3553 156.58 65.654C156.841 65.9527 156.976 66.3493 156.986 66.844C156.986 67.2827 156.864 67.6747 156.622 68.02C156.379 68.3653 156.034 68.636 155.586 68.832C155.147 69.028 154.629 69.126 154.032 69.126Z" fill="#595959"/>
<path d="M31.2633 80.212C31.0953 80.212 30.9513 80.152 30.8313 80.032C30.7113 79.912 30.6513 79.764 30.6513 79.588C30.6513 79.412 30.7113 79.268 30.8313 79.156C30.9513 79.036 31.0953 78.976 31.2633 78.976C31.4313 78.976 31.5753 79.036 31.6953 79.156C31.8153 79.268 31.8753 79.412 31.8753 79.588C31.8753 79.764 31.8153 79.912 31.6953 80.032C31.5753 80.152 31.4313 80.212 31.2633 80.212ZM31.6833 81.448V88H30.8433V81.448H31.6833ZM36.6575 81.328C37.4415 81.328 38.0815 81.572 38.5775 82.06C39.0735 82.54 39.3215 83.24 39.3215 84.16V88H38.4935V84.256C38.4935 83.544 38.3135 83 37.9535 82.624C37.6015 82.248 37.1175 82.06 36.5015 82.06C35.8695 82.06 35.3655 82.26 34.9895 82.66C34.6135 83.06 34.4255 83.648 34.4255 84.424V88H33.5855V81.448H34.4255V82.564C34.6335 82.164 34.9335 81.86 35.3255 81.652C35.7175 81.436 36.1615 81.328 36.6575 81.328ZM45.5642 82.156V86.224C45.5642 86.624 45.6402 86.9 45.7922 87.052C45.9442 87.204 46.2122 87.28 46.5962 87.28H47.3642V88H46.4642C45.8722 88 45.4322 87.864 45.1442 87.592C44.8562 87.312 44.7122 86.856 44.7122 86.224V82.156H43.8002V81.448H44.7122V79.804H45.5642V81.448H47.3642V82.156H45.5642ZM51.8696 81.328C52.3656 81.328 52.8096 81.432 53.2016 81.64C53.6016 81.848 53.9136 82.168 54.1376 82.6C54.3696 83.024 54.4856 83.544 54.4856 84.16V88H53.6576V84.256C53.6576 83.544 53.4776 83 53.1176 82.624C52.7656 82.248 52.2816 82.06 51.6656 82.06C51.0336 82.06 50.5296 82.26 50.1536 82.66C49.7776 83.06 49.5896 83.648 49.5896 84.424V88H48.7496V79.12H49.5896V82.564C49.7976 82.172 50.1016 81.868 50.5016 81.652C50.9096 81.436 51.3656 81.328 51.8696 81.328ZM62.2713 84.388C62.2713 84.676 62.2633 84.896 62.2473 85.048H56.8113C56.8353 85.544 56.9553 85.968 57.1713 86.32C57.3873 86.672 57.6713 86.94 58.0233 87.124C58.3753 87.3 58.7593 87.388 59.1753 87.388C59.7193 87.388 60.1753 87.256 60.5433 86.992C60.9193 86.728 61.1673 86.372 61.2873 85.924H62.1753C62.0153 86.564 61.6713 87.088 61.1433 87.496C60.6233 87.896 59.9673 88.096 59.1753 88.096C58.5593 88.096 58.0073 87.96 57.5193 87.688C57.0313 87.408 56.6473 87.016 56.3673 86.512C56.0953 86 55.9593 85.404 55.9593 84.724C55.9593 84.044 56.0953 83.448 56.3673 82.936C56.6393 82.424 57.0193 82.032 57.5073 81.76C57.9953 81.488 58.5513 81.352 59.1753 81.352C59.7993 81.352 60.3433 81.488 60.8073 81.76C61.2793 82.032 61.6393 82.4 61.8873 82.864C62.1433 83.32 62.2713 83.828 62.2713 84.388ZM61.4193 84.364C61.4273 83.876 61.3273 83.46 61.1193 83.116C60.9193 82.772 60.6433 82.512 60.2913 82.336C59.9393 82.16 59.5553 82.072 59.1393 82.072C58.5153 82.072 57.9833 82.272 57.5433 82.672C57.1033 83.072 56.8593 83.636 56.8113 84.364H61.4193ZM67.9411 79.12V88H67.1011V79.12H67.9411ZM69.4593 84.712C69.4593 84.04 69.5913 83.452 69.8553 82.948C70.1273 82.436 70.4993 82.044 70.9713 81.772C71.4513 81.492 71.9913 81.352 72.5913 81.352C73.2153 81.352 73.7513 81.496 74.1993 81.784C74.6553 82.072 74.9833 82.44 75.1833 82.888V81.448H76.0233V88H75.1833V86.548C74.9753 86.996 74.6433 87.368 74.1873 87.664C73.7393 87.952 73.2033 88.096 72.5793 88.096C71.9873 88.096 71.4513 87.956 70.9713 87.676C70.4993 87.396 70.1273 87 69.8553 86.488C69.5913 85.976 69.4593 85.384 69.4593 84.712ZM75.1833 84.724C75.1833 84.196 75.0753 83.732 74.8593 83.332C74.6433 82.932 74.3473 82.624 73.9713 82.408C73.6033 82.192 73.1953 82.084 72.7473 82.084C72.2833 82.084 71.8673 82.188 71.4993 82.396C71.1313 82.604 70.8393 82.908 70.6233 83.308C70.4153 83.7 70.3113 84.168 70.3113 84.712C70.3113 85.248 70.4153 85.72 70.6233 86.128C70.8393 86.528 71.1313 86.836 71.4993 87.052C71.8673 87.26 72.2833 87.364 72.7473 87.364C73.1953 87.364 73.6033 87.256 73.9713 87.04C74.3473 86.824 74.6433 86.516 74.8593 86.116C75.0753 85.716 75.1833 85.252 75.1833 84.724ZM80.197 88.096C79.445 88.096 78.829 87.924 78.349 87.58C77.877 87.228 77.613 86.752 77.557 86.152H78.421C78.461 86.52 78.633 86.82 78.937 87.052C79.249 87.276 79.665 87.388 80.185 87.388C80.641 87.388 80.997 87.28 81.253 87.064C81.517 86.848 81.649 86.58 81.649 86.26C81.649 86.036 81.577 85.852 81.433 85.708C81.289 85.564 81.105 85.452 80.881 85.372C80.665 85.284 80.369 85.192 79.993 85.096C79.505 84.968 79.109 84.84 78.805 84.712C78.501 84.584 78.241 84.396 78.025 84.148C77.817 83.892 77.713 83.552 77.713 83.128C77.713 82.808 77.809 82.512 78.001 82.24C78.193 81.968 78.465 81.752 78.817 81.592C79.169 81.432 79.569 81.352 80.017 81.352C80.721 81.352 81.289 81.532 81.721 81.892C82.153 82.244 82.385 82.732 82.417 83.356H81.577C81.553 82.972 81.401 82.664 81.121 82.432C80.849 82.192 80.473 82.072 79.993 82.072C79.569 82.072 79.225 82.172 78.961 82.372C78.697 82.572 78.565 82.82 78.565 83.116C78.565 83.372 78.641 83.584 78.793 83.752C78.953 83.912 79.149 84.04 79.381 84.136C79.613 84.224 79.925 84.324 80.317 84.436C80.789 84.564 81.165 84.688 81.445 84.808C81.725 84.928 81.965 85.104 82.165 85.336C82.365 85.568 82.469 85.876 82.477 86.26C82.477 86.612 82.381 86.928 82.189 87.208C81.997 87.48 81.729 87.696 81.385 87.856C81.041 88.016 80.645 88.096 80.197 88.096ZM85.1501 82.156V86.224C85.1501 86.624 85.2261 86.9 85.3781 87.052C85.5301 87.204 85.7981 87.28 86.1821 87.28H86.9501V88H86.0501C85.4581 88 85.0181 87.864 84.7301 87.592C84.4421 87.312 84.2981 86.856 84.2981 86.224V82.156H83.3861V81.448H84.2981V79.804H85.1501V81.448H86.9501V82.156H85.1501ZM91.0405 80.152V79.396H93.0805V88H92.2285V80.152H91.0405ZM94.7844 87.34C96.2564 86.236 97.3924 85.248 98.1924 84.376C99.0004 83.496 99.4044 82.636 99.4044 81.796C99.4044 81.244 99.2644 80.804 98.9844 80.476C98.7124 80.14 98.2644 79.972 97.6404 79.972C97.0324 79.972 96.5604 80.164 96.2244 80.548C95.8964 80.924 95.7124 81.428 95.6724 82.06H94.8564C94.9044 81.172 95.1764 80.484 95.6724 79.996C96.1764 79.5 96.8324 79.252 97.6404 79.252C98.4164 79.252 99.0444 79.472 99.5244 79.912C100.004 80.344 100.244 80.96 100.244 81.76C100.244 82.728 99.8404 83.668 99.0324 84.58C98.2324 85.484 97.2444 86.368 96.0684 87.232H100.508V87.94H94.7844V87.34ZM113.489 79.72V88H112.649V81.388L109.697 88H109.085L106.133 81.412V88H105.293V79.72H106.181L109.385 86.896L112.589 79.72H113.489ZM118.262 88.096C117.646 88.096 117.09 87.96 116.594 87.688C116.106 87.408 115.718 87.016 115.43 86.512C115.15 86 115.01 85.404 115.01 84.724C115.01 84.044 115.154 83.452 115.442 82.948C115.73 82.436 116.122 82.044 116.618 81.772C117.114 81.492 117.67 81.352 118.286 81.352C118.902 81.352 119.458 81.492 119.954 81.772C120.458 82.044 120.85 82.436 121.13 82.948C121.418 83.452 121.562 84.044 121.562 84.724C121.562 85.396 121.418 85.988 121.13 86.5C120.842 87.012 120.446 87.408 119.942 87.688C119.438 87.96 118.878 88.096 118.262 88.096ZM118.262 87.364C118.694 87.364 119.094 87.268 119.462 87.076C119.83 86.876 120.126 86.58 120.35 86.188C120.582 85.788 120.698 85.3 120.698 84.724C120.698 84.148 120.586 83.664 120.362 83.272C120.138 82.872 119.842 82.576 119.474 82.384C119.106 82.184 118.706 82.084 118.274 82.084C117.842 82.084 117.442 82.184 117.074 82.384C116.706 82.576 116.41 82.872 116.186 83.272C115.97 83.664 115.862 84.148 115.862 84.724C115.862 85.3 115.97 85.788 116.186 86.188C116.41 86.58 116.702 86.876 117.062 87.076C117.43 87.268 117.83 87.364 118.262 87.364ZM126.165 81.328C126.949 81.328 127.589 81.572 128.085 82.06C128.581 82.54 128.829 83.24 128.829 84.16V88H128.001V84.256C128.001 83.544 127.821 83 127.461 82.624C127.109 82.248 126.625 82.06 126.009 82.06C125.377 82.06 124.873 82.26 124.497 82.66C124.121 83.06 123.933 83.648 123.933 84.424V88H123.093V81.448H123.933V82.564C124.141 82.164 124.441 81.86 124.833 81.652C125.225 81.436 125.669 81.328 126.165 81.328ZM131.779 82.156V86.224C131.779 86.624 131.855 86.9 132.007 87.052C132.159 87.204 132.427 87.28 132.811 87.28H133.579V88H132.679C132.087 88 131.647 87.864 131.359 87.592C131.071 87.312 130.927 86.856 130.927 86.224V82.156H130.015V81.448H130.927V79.804H131.779V81.448H133.579V82.156H131.779ZM138.084 81.328C138.58 81.328 139.024 81.432 139.416 81.64C139.816 81.848 140.128 82.168 140.352 82.6C140.584 83.024 140.7 83.544 140.7 84.16V88H139.872V84.256C139.872 83.544 139.692 83 139.332 82.624C138.98 82.248 138.496 82.06 137.88 82.06C137.248 82.06 136.744 82.26 136.368 82.66C135.992 83.06 135.804 83.648 135.804 84.424V88H134.964V79.12H135.804V82.564C136.012 82.172 136.316 81.868 136.716 81.652C137.124 81.436 137.58 81.328 138.084 81.328ZM144.814 88.096C144.062 88.096 143.446 87.924 142.966 87.58C142.494 87.228 142.23 86.752 142.174 86.152H143.038C143.078 86.52 143.25 86.82 143.554 87.052C143.866 87.276 144.282 87.388 144.802 87.388C145.258 87.388 145.614 87.28 145.87 87.064C146.134 86.848 146.266 86.58 146.266 86.26C146.266 86.036 146.194 85.852 146.05 85.708C145.906 85.564 145.722 85.452 145.498 85.372C145.282 85.284 144.986 85.192 144.61 85.096C144.122 84.968 143.726 84.84 143.422 84.712C143.118 84.584 142.858 84.396 142.642 84.148C142.434 83.892 142.33 83.552 142.33 83.128C142.33 82.808 142.426 82.512 142.618 82.24C142.81 81.968 143.082 81.752 143.434 81.592C143.786 81.432 144.186 81.352 144.634 81.352C145.338 81.352 145.906 81.532 146.338 81.892C146.77 82.244 147.002 82.732 147.034 83.356H146.194C146.17 82.972 146.018 82.664 145.738 82.432C145.466 82.192 145.09 82.072 144.61 82.072C144.186 82.072 143.842 82.172 143.578 82.372C143.314 82.572 143.182 82.82 143.182 83.116C143.182 83.372 143.258 83.584 143.41 83.752C143.57 83.912 143.766 84.04 143.998 84.136C144.23 84.224 144.542 84.324 144.934 84.436C145.406 84.564 145.782 84.688 146.062 84.808C146.342 84.928 146.582 85.104 146.782 85.336C146.982 85.568 147.086 85.876 147.094 86.26C147.094 86.612 146.998 86.928 146.806 87.208C146.614 87.48 146.346 87.696 146.002 87.856C145.658 88.016 145.262 88.096 144.814 88.096Z" fill="#595959"/>
<ellipse cx="53.3599" cy="23.5" rx="23.4766" ry="23.5" fill="#D8E7FE"/>
<path d="M81.9365 31.352V29.288L90.0005 17.72H93.3125V28.976H95.5445V31.352H93.3125V35H90.6245V31.352H81.9365ZM90.7445 20.504L85.0805 28.976H90.7445V20.504ZM100.764 25.856C99.0996 25.024 98.2676 23.712 98.2676 21.92C98.2676 21.056 98.4836 20.264 98.9156 19.544C99.3476 18.824 99.9956 18.256 100.86 17.84C101.724 17.408 102.78 17.192 104.028 17.192C105.26 17.192 106.308 17.408 107.172 17.84C108.052 18.256 108.708 18.824 109.14 19.544C109.572 20.264 109.788 21.056 109.788 21.92C109.788 22.816 109.556 23.608 109.092 24.296C108.644 24.968 108.044 25.488 107.292 25.856C108.204 26.192 108.924 26.744 109.452 27.512C109.98 28.264 110.244 29.152 110.244 30.176C110.244 31.216 109.98 32.136 109.452 32.936C108.924 33.736 108.188 34.352 107.244 34.784C106.3 35.216 105.228 35.432 104.028 35.432C102.828 35.432 101.756 35.216 100.812 34.784C99.8836 34.352 99.1556 33.736 98.6276 32.936C98.0996 32.136 97.8356 31.216 97.8356 30.176C97.8356 29.136 98.0996 28.24 98.6276 27.488C99.1556 26.736 99.8676 26.192 100.764 25.856ZM107.172 22.256C107.172 21.36 106.892 20.672 106.332 20.192C105.772 19.712 105.004 19.472 104.028 19.472C103.068 19.472 102.308 19.712 101.748 20.192C101.188 20.672 100.908 21.368 100.908 22.28C100.908 23.08 101.196 23.736 101.772 24.248C102.364 24.744 103.116 24.992 104.028 24.992C104.94 24.992 105.692 24.736 106.284 24.224C106.876 23.712 107.172 23.056 107.172 22.256ZM104.028 27.056C102.972 27.056 102.108 27.32 101.436 27.848C100.78 28.36 100.452 29.104 100.452 30.08C100.452 30.992 100.772 31.736 101.412 32.312C102.052 32.872 102.924 33.152 104.028 33.152C105.116 33.152 105.972 32.864 106.596 32.288C107.236 31.712 107.556 30.976 107.556 30.08C107.556 29.12 107.228 28.376 106.572 27.848C105.932 27.32 105.084 27.056 104.028 27.056Z" fill="#233A6C"/>
</svg>
