<svg width="133" height="94" viewBox="0 0 133 94" fill="none" xmlns="http://www.w3.org/2000/svg">
<path d="M67.3633 35L63.5233 28.328H61.4353V35H58.6993V18.32H64.4593C65.7393 18.32 66.8193 18.544 67.6993 18.992C68.5953 19.44 69.2593 20.04 69.6913 20.792C70.1393 21.544 70.3633 22.384 70.3633 23.312C70.3633 24.4 70.0433 25.392 69.4033 26.288C68.7793 27.168 67.8113 27.768 66.4993 28.088L70.6273 35H67.3633ZM61.4353 26.144H64.4593C65.4833 26.144 66.2513 25.888 66.7633 25.376C67.2913 24.864 67.5553 24.176 67.5553 23.312C67.5553 22.448 67.2993 21.776 66.7873 21.296C66.2753 20.8 65.4993 20.552 64.4593 20.552H61.4353V26.144ZM78.6634 35.216C77.6234 35.216 76.6874 35.032 75.8554 34.664C75.0394 34.28 74.3914 33.768 73.9114 33.128C73.4314 32.472 73.1754 31.744 73.1434 30.944H75.9754C76.0234 31.504 76.2874 31.976 76.7674 32.36C77.2634 32.728 77.8794 32.912 78.6154 32.912C79.3834 32.912 79.9754 32.768 80.3914 32.48C80.8234 32.176 81.0394 31.792 81.0394 31.328C81.0394 30.832 80.7994 30.464 80.3194 30.224C79.8554 29.984 79.1114 29.72 78.0874 29.432C77.0954 29.16 76.2874 28.896 75.6634 28.64C75.0394 28.384 74.4954 27.992 74.0314 27.464C73.5834 26.936 73.3594 26.24 73.3594 25.376C73.3594 24.672 73.5674 24.032 73.9834 23.456C74.3994 22.864 74.9914 22.4 75.7594 22.064C76.5434 21.728 77.4394 21.56 78.4474 21.56C79.9514 21.56 81.1594 21.944 82.0714 22.712C82.9994 23.464 83.4954 24.496 83.5594 25.808H80.8234C80.7754 25.216 80.5354 24.744 80.1034 24.392C79.6714 24.04 79.0874 23.864 78.3514 23.864C77.6314 23.864 77.0794 24 76.6954 24.272C76.3114 24.544 76.1194 24.904 76.1194 25.352C76.1194 25.704 76.2474 26 76.5034 26.24C76.7594 26.48 77.0714 26.672 77.4394 26.816C77.8074 26.944 78.3514 27.112 79.0714 27.32C80.0314 27.576 80.8154 27.84 81.4234 28.112C82.0474 28.368 82.5834 28.752 83.0314 29.264C83.4794 29.776 83.7114 30.456 83.7274 31.304C83.7274 32.056 83.5194 32.728 83.1034 33.32C82.6874 33.912 82.0954 34.376 81.3274 34.712C80.5754 35.048 79.6874 35.216 78.6634 35.216ZM89.7317 30.248C89.8917 31.048 90.2357 31.656 90.7637 32.072C91.2917 32.488 92.0037 32.696 92.8997 32.696C94.0357 32.696 94.8677 32.248 95.3957 31.352C95.9237 30.456 96.1877 28.928 96.1877 26.768C95.8037 27.312 95.2597 27.736 94.5557 28.04C93.8677 28.328 93.1157 28.472 92.2997 28.472C91.2597 28.472 90.3157 28.264 89.4677 27.848C88.6197 27.416 87.9477 26.784 87.4517 25.952C86.9717 25.104 86.7317 24.08 86.7317 22.88C86.7317 21.12 87.2437 19.72 88.2677 18.68C89.3077 17.624 90.7317 17.096 92.5397 17.096C94.7157 17.096 96.2597 17.824 97.1717 19.28C98.0997 20.72 98.5637 22.936 98.5637 25.928C98.5637 27.992 98.3877 29.68 98.0357 30.992C97.6997 32.304 97.1077 33.296 96.2597 33.968C95.4117 34.64 94.2357 34.976 92.7317 34.976C91.0197 34.976 89.6997 34.528 88.7717 33.632C87.8437 32.736 87.3237 31.608 87.2117 30.248H89.7317ZM92.7797 26.168C93.7397 26.168 94.4917 25.872 95.0357 25.28C95.5957 24.672 95.8757 23.872 95.8757 22.88C95.8757 21.776 95.5797 20.92 94.9877 20.312C94.4117 19.688 93.6197 19.376 92.6117 19.376C91.6037 19.376 90.8037 19.696 90.2117 20.336C89.6357 20.96 89.3477 21.784 89.3477 22.808C89.3477 23.784 89.6277 24.592 90.1877 25.232C90.7637 25.856 91.6277 26.168 92.7797 26.168ZM101.558 26.024C101.558 23.256 102.022 21.096 102.95 19.544C103.894 17.976 105.51 17.192 107.798 17.192C110.086 17.192 111.694 17.976 112.622 19.544C113.566 21.096 114.038 23.256 114.038 26.024C114.038 28.824 113.566 31.016 112.622 32.6C111.694 34.168 110.086 34.952 107.798 34.952C105.51 34.952 103.894 34.168 102.95 32.6C102.022 31.016 101.558 28.824 101.558 26.024ZM111.35 26.024C111.35 24.728 111.262 23.632 111.086 22.736C110.926 21.84 110.59 21.112 110.078 20.552C109.566 19.976 108.806 19.688 107.798 19.688C106.79 19.688 106.03 19.976 105.518 20.552C105.006 21.112 104.662 21.84 104.486 22.736C104.326 23.632 104.246 24.728 104.246 26.024C104.246 27.368 104.326 28.496 104.486 29.408C104.646 30.32 104.982 31.056 105.494 31.616C106.022 32.176 106.79 32.456 107.798 32.456C108.806 32.456 109.566 32.176 110.078 31.616C110.606 31.056 110.95 30.32 111.11 29.408C111.27 28.496 111.35 27.368 111.35 26.024ZM116.933 26.024C116.933 23.256 117.397 21.096 118.325 19.544C119.269 17.976 120.885 17.192 123.173 17.192C125.461 17.192 127.069 17.976 127.997 19.544C128.941 21.096 129.413 23.256 129.413 26.024C129.413 28.824 128.941 31.016 127.997 32.6C127.069 34.168 125.461 34.952 123.173 34.952C120.885 34.952 119.269 34.168 118.325 32.6C117.397 31.016 116.933 28.824 116.933 26.024ZM126.725 26.024C126.725 24.728 126.637 23.632 126.461 22.736C126.301 21.84 125.965 21.112 125.453 20.552C124.941 19.976 124.181 19.688 123.173 19.688C122.165 19.688 121.405 19.976 120.893 20.552C120.381 21.112 120.037 21.84 119.861 22.736C119.701 23.632 119.621 24.728 119.621 26.024C119.621 27.368 119.701 28.496 119.861 29.408C120.021 30.32 120.357 31.056 120.869 31.616C121.397 32.176 122.165 32.456 123.173 32.456C124.181 32.456 124.941 32.176 125.453 31.616C125.981 31.056 126.325 30.32 126.485 29.408C126.645 28.496 126.725 27.368 126.725 26.024Z" fill="#233A6C"/>
<path d="M23.7648 67.012H19.6908L18.9908 69H17.3248L20.8108 59.256H22.6588L26.1448 69H24.4648L23.7648 67.012ZM23.3168 65.71L21.7348 61.188L20.1388 65.71H23.3168ZM32.7145 69L30.4745 65.108H29.2565V69H27.6605V59.27H31.0205C31.7672 59.27 32.3972 59.4007 32.9105 59.662C33.4332 59.9233 33.8205 60.2733 34.0725 60.712C34.3339 61.1507 34.4645 61.6407 34.4645 62.182C34.4645 62.8167 34.2779 63.3953 33.9045 63.918C33.5405 64.4313 32.9759 64.7813 32.2105 64.968L34.6185 69H32.7145ZM29.2565 63.834H31.0205C31.6179 63.834 32.0659 63.6847 32.3645 63.386C32.6725 63.0873 32.8265 62.686 32.8265 62.182C32.8265 61.678 32.6772 61.286 32.3785 61.006C32.0799 60.7167 31.6272 60.572 31.0205 60.572H29.2565V63.834ZM43.3102 62.168C43.3102 62.6627 43.1936 63.1293 42.9602 63.568C42.7269 64.0067 42.3536 64.366 41.8402 64.646C41.3269 64.9167 40.6689 65.052 39.8662 65.052H38.1022V69H36.5062V59.27H39.8662C40.6129 59.27 41.2429 59.4007 41.7562 59.662C42.2789 59.914 42.6662 60.2593 42.9182 60.698C43.1796 61.1367 43.3102 61.6267 43.3102 62.168ZM39.8662 63.75C40.4729 63.75 40.9256 63.6147 41.2242 63.344C41.5229 63.064 41.6722 62.672 41.6722 62.168C41.6722 61.104 41.0702 60.572 39.8662 60.572H38.1022V63.75H39.8662ZM48.0104 59.27C49.0464 59.27 49.9517 59.4707 50.7264 59.872C51.5104 60.264 52.1124 60.8333 52.5324 61.58C52.9617 62.3173 53.1764 63.1807 53.1764 64.17C53.1764 65.1593 52.9617 66.018 52.5324 66.746C52.1124 67.474 51.5104 68.034 50.7264 68.426C49.9517 68.8087 49.0464 69 48.0104 69H44.8324V59.27H48.0104ZM48.0104 67.698C49.1491 67.698 50.0217 67.39 50.6284 66.774C51.2351 66.158 51.5384 65.29 51.5384 64.17C51.5384 63.0407 51.2351 62.1587 50.6284 61.524C50.0217 60.8893 49.1491 60.572 48.0104 60.572H46.4284V67.698H48.0104ZM60.6242 67.012H56.5502L55.8502 69H54.1842L57.6702 59.256H59.5182L63.0042 69H61.3242L60.6242 67.012ZM60.1762 65.71L58.5942 61.188L56.9982 65.71H60.1762ZM66.1019 59.27V65.472C66.1019 66.2093 66.2932 66.7647 66.6759 67.138C67.0679 67.5113 67.6092 67.698 68.2999 67.698C68.9999 67.698 69.5412 67.5113 69.9239 67.138C70.3159 66.7647 70.5119 66.2093 70.5119 65.472V59.27H72.1079V65.444C72.1079 66.2373 71.9352 66.9093 71.5899 67.46C71.2446 68.0107 70.7826 68.4213 70.2039 68.692C69.6252 68.9627 68.9859 69.098 68.2859 69.098C67.5859 69.098 66.9466 68.9627 66.3679 68.692C65.7986 68.4213 65.3459 68.0107 65.0099 67.46C64.6739 66.9093 64.5059 66.2373 64.5059 65.444V59.27H66.1019Z" fill="#595959"/>
<ellipse cx="27.6316" cy="23.5" rx="24.133" ry="23.5" fill="#FFE2E1"/>
<path d="M2.19799 81.212C2.02999 81.212 1.88599 81.152 1.76599 81.032C1.64599 80.912 1.58599 80.764 1.58599 80.588C1.58599 80.412 1.64599 80.268 1.76599 80.156C1.88599 80.036 2.02999 79.976 2.19799 79.976C2.36599 79.976 2.50999 80.036 2.62999 80.156C2.74999 80.268 2.80999 80.412 2.80999 80.588C2.80999 80.764 2.74999 80.912 2.62999 81.032C2.50999 81.152 2.36599 81.212 2.19799 81.212ZM2.61799 82.448V89H1.77799V82.448H2.61799ZM7.59218 82.328C8.37618 82.328 9.01618 82.572 9.51218 83.06C10.0082 83.54 10.2562 84.24 10.2562 85.16V89H9.42818V85.256C9.42818 84.544 9.24818 84 8.88818 83.624C8.53618 83.248 8.05218 83.06 7.43618 83.06C6.80418 83.06 6.30018 83.26 5.92418 83.66C5.54818 84.06 5.36018 84.648 5.36018 85.424V89H4.52018V82.448H5.36018V83.564C5.56818 83.164 5.86818 82.86 6.26018 82.652C6.65218 82.436 7.09618 82.328 7.59218 82.328ZM16.4989 83.156V87.224C16.4989 87.624 16.5749 87.9 16.7269 88.052C16.8789 88.204 17.1469 88.28 17.5309 88.28H18.2989V89H17.3989C16.8069 89 16.3669 88.864 16.0789 88.592C15.7909 88.312 15.6469 87.856 15.6469 87.224V83.156H14.7349V82.448H15.6469V80.804H16.4989V82.448H18.2989V83.156H16.4989ZM22.8042 82.328C23.3002 82.328 23.7442 82.432 24.1362 82.64C24.5362 82.848 24.8482 83.168 25.0722 83.6C25.3042 84.024 25.4202 84.544 25.4202 85.16V89H24.5922V85.256C24.5922 84.544 24.4122 84 24.0522 83.624C23.7002 83.248 23.2162 83.06 22.6002 83.06C21.9682 83.06 21.4642 83.26 21.0882 83.66C20.7122 84.06 20.5242 84.648 20.5242 85.424V89H19.6842V80.12H20.5242V83.564C20.7322 83.172 21.0362 82.868 21.4362 82.652C21.8442 82.436 22.3002 82.328 22.8042 82.328ZM33.206 85.388C33.206 85.676 33.198 85.896 33.182 86.048H27.746C27.77 86.544 27.89 86.968 28.106 87.32C28.322 87.672 28.606 87.94 28.958 88.124C29.31 88.3 29.694 88.388 30.11 88.388C30.654 88.388 31.11 88.256 31.478 87.992C31.854 87.728 32.102 87.372 32.222 86.924H33.11C32.95 87.564 32.606 88.088 32.078 88.496C31.558 88.896 30.902 89.096 30.11 89.096C29.494 89.096 28.942 88.96 28.454 88.688C27.966 88.408 27.582 88.016 27.302 87.512C27.03 87 26.894 86.404 26.894 85.724C26.894 85.044 27.03 84.448 27.302 83.936C27.574 83.424 27.954 83.032 28.442 82.76C28.93 82.488 29.486 82.352 30.11 82.352C30.734 82.352 31.278 82.488 31.742 82.76C32.214 83.032 32.574 83.4 32.822 83.864C33.078 84.32 33.206 84.828 33.206 85.388ZM32.354 85.364C32.362 84.876 32.262 84.46 32.054 84.116C31.854 83.772 31.578 83.512 31.226 83.336C30.874 83.16 30.49 83.072 30.074 83.072C29.45 83.072 28.918 83.272 28.478 83.672C28.038 84.072 27.794 84.636 27.746 85.364H32.354ZM38.8758 80.12V89H38.0358V80.12H38.8758ZM40.394 85.712C40.394 85.04 40.526 84.452 40.79 83.948C41.062 83.436 41.434 83.044 41.906 82.772C42.386 82.492 42.926 82.352 43.526 82.352C44.15 82.352 44.686 82.496 45.134 82.784C45.59 83.072 45.918 83.44 46.118 83.888V82.448H46.958V89H46.118V87.548C45.91 87.996 45.578 88.368 45.122 88.664C44.674 88.952 44.138 89.096 43.514 89.096C42.922 89.096 42.386 88.956 41.906 88.676C41.434 88.396 41.062 88 40.79 87.488C40.526 86.976 40.394 86.384 40.394 85.712ZM46.118 85.724C46.118 85.196 46.01 84.732 45.794 84.332C45.578 83.932 45.282 83.624 44.906 83.408C44.538 83.192 44.13 83.084 43.682 83.084C43.218 83.084 42.802 83.188 42.434 83.396C42.066 83.604 41.774 83.908 41.558 84.308C41.35 84.7 41.246 85.168 41.246 85.712C41.246 86.248 41.35 86.72 41.558 87.128C41.774 87.528 42.066 87.836 42.434 88.052C42.802 88.26 43.218 88.364 43.682 88.364C44.13 88.364 44.538 88.256 44.906 88.04C45.282 87.824 45.578 87.516 45.794 87.116C46.01 86.716 46.118 86.252 46.118 85.724ZM51.1316 89.096C50.3796 89.096 49.7636 88.924 49.2836 88.58C48.8116 88.228 48.5476 87.752 48.4916 87.152H49.3556C49.3956 87.52 49.5676 87.82 49.8716 88.052C50.1836 88.276 50.5996 88.388 51.1196 88.388C51.5756 88.388 51.9316 88.28 52.1876 88.064C52.4516 87.848 52.5836 87.58 52.5836 87.26C52.5836 87.036 52.5116 86.852 52.3676 86.708C52.2236 86.564 52.0396 86.452 51.8156 86.372C51.5996 86.284 51.3036 86.192 50.9276 86.096C50.4396 85.968 50.0436 85.84 49.7396 85.712C49.4356 85.584 49.1756 85.396 48.9596 85.148C48.7516 84.892 48.6476 84.552 48.6476 84.128C48.6476 83.808 48.7436 83.512 48.9356 83.24C49.1276 82.968 49.3996 82.752 49.7516 82.592C50.1036 82.432 50.5036 82.352 50.9516 82.352C51.6556 82.352 52.2236 82.532 52.6556 82.892C53.0876 83.244 53.3196 83.732 53.3516 84.356H52.5116C52.4876 83.972 52.3356 83.664 52.0556 83.432C51.7836 83.192 51.4076 83.072 50.9276 83.072C50.5036 83.072 50.1596 83.172 49.8956 83.372C49.6316 83.572 49.4996 83.82 49.4996 84.116C49.4996 84.372 49.5756 84.584 49.7276 84.752C49.8876 84.912 50.0836 85.04 50.3156 85.136C50.5476 85.224 50.8596 85.324 51.2516 85.436C51.7236 85.564 52.0996 85.688 52.3796 85.808C52.6596 85.928 52.8996 86.104 53.0996 86.336C53.2996 86.568 53.4036 86.876 53.4116 87.26C53.4116 87.612 53.3156 87.928 53.1236 88.208C52.9316 88.48 52.6636 88.696 52.3196 88.856C51.9756 89.016 51.5796 89.096 51.1316 89.096ZM56.0848 83.156V87.224C56.0848 87.624 56.1608 87.9 56.3128 88.052C56.4648 88.204 56.7328 88.28 57.1168 88.28H57.8848V89H56.9848C56.3928 89 55.9528 88.864 55.6648 88.592C55.3768 88.312 55.2328 87.856 55.2328 87.224V83.156H54.3208V82.448H55.2328V80.804H56.0848V82.448H57.8848V83.156H56.0848ZM61.9751 81.152V80.396H64.0151V89H63.1631V81.152H61.9751ZM71.844 80.612C72.772 80.612 73.568 80.78 74.232 81.116C74.896 81.452 75.404 81.936 75.756 82.568C76.108 83.2 76.284 83.952 76.284 84.824C76.284 85.688 76.108 86.436 75.756 87.068C75.404 87.692 74.896 88.172 74.232 88.508C73.568 88.836 72.772 89 71.844 89H69.36V80.612H71.844ZM71.844 88.304C73.012 88.304 73.9 88 74.508 87.392C75.124 86.776 75.432 85.92 75.432 84.824C75.432 83.72 75.124 82.86 74.508 82.244C73.9 81.62 73.012 81.308 71.844 81.308H70.2V88.304H71.844ZM77.4487 85.712C77.4487 85.04 77.5807 84.452 77.8447 83.948C78.1167 83.436 78.4887 83.044 78.9607 82.772C79.4407 82.492 79.9807 82.352 80.5807 82.352C81.2047 82.352 81.7407 82.496 82.1887 82.784C82.6447 83.072 82.9727 83.44 83.1727 83.888V82.448H84.0127V89H83.1727V87.548C82.9647 87.996 82.6327 88.368 82.1767 88.664C81.7287 88.952 81.1927 89.096 80.5687 89.096C79.9767 89.096 79.4407 88.956 78.9607 88.676C78.4887 88.396 78.1167 88 77.8447 87.488C77.5807 86.976 77.4487 86.384 77.4487 85.712ZM83.1727 85.724C83.1727 85.196 83.0647 84.732 82.8487 84.332C82.6327 83.932 82.3367 83.624 81.9607 83.408C81.5927 83.192 81.1847 83.084 80.7367 83.084C80.2727 83.084 79.8567 83.188 79.4887 83.396C79.1207 83.604 78.8287 83.908 78.6127 84.308C78.4047 84.7 78.3007 85.168 78.3007 85.712C78.3007 86.248 78.4047 86.72 78.6127 87.128C78.8287 87.528 79.1207 87.836 79.4887 88.052C79.8567 88.26 80.2727 88.364 80.7367 88.364C81.1847 88.364 81.5927 88.256 81.9607 88.04C82.3367 87.824 82.6327 87.516 82.8487 87.116C83.0647 86.716 83.1727 86.252 83.1727 85.724ZM91.3303 82.448L87.4423 92.084H86.5663L87.8383 88.964L85.1503 82.448H86.0743L88.3063 88.04L90.4663 82.448H91.3303Z" fill="#595959"/>
</svg>
