<svg width="430" height="332" viewBox="0 0 430 332" fill="none" xmlns="http://www.w3.org/2000/svg">
<path d="M97.8823 309.986C97.8823 309.642 97.7606 309.377 97.5171 309.191C97.2772 309.005 96.8421 308.817 96.2119 308.627C95.5817 308.437 95.0804 308.226 94.708 307.993C93.9954 307.546 93.6392 306.962 93.6392 306.242C93.6392 305.612 93.8952 305.093 94.4072 304.685C94.9229 304.276 95.5907 304.072 96.4106 304.072C96.9549 304.072 97.4401 304.173 97.8662 304.373C98.2923 304.574 98.6271 304.86 98.8706 305.232C99.1141 305.601 99.2358 306.011 99.2358 306.462H97.8823C97.8823 306.054 97.7534 305.736 97.4956 305.506C97.2414 305.274 96.8761 305.157 96.3999 305.157C95.9559 305.157 95.6104 305.252 95.3633 305.442C95.1198 305.632 94.998 305.897 94.998 306.237C94.998 306.523 95.1305 306.763 95.3955 306.957C95.6605 307.146 96.0973 307.333 96.7061 307.515C97.3148 307.694 97.8035 307.9 98.1724 308.133C98.5412 308.362 98.8115 308.627 98.9834 308.928C99.1553 309.225 99.2412 309.574 99.2412 309.975C99.2412 310.627 98.9906 311.146 98.4893 311.533C97.9915 311.916 97.3148 312.107 96.459 312.107C95.8932 312.107 95.3722 312.004 94.896 311.796C94.4233 311.585 94.0545 311.295 93.7896 310.926C93.5282 310.557 93.3975 310.127 93.3975 309.637H94.7563C94.7563 310.081 94.9032 310.424 95.1968 310.668C95.4904 310.911 95.9111 311.033 96.459 311.033C96.9316 311.033 97.2861 310.938 97.5225 310.749C97.7624 310.555 97.8823 310.301 97.8823 309.986ZM137.806 304.18L140.062 310.174L142.312 304.18H144.068V312H142.715V309.422L142.849 305.974L140.54 312H139.567L137.263 305.979L137.397 309.422V312H136.044V304.18H137.806ZM186.618 305.275H184.18V312H182.832V305.275H180.415V304.18H186.618V305.275ZM229.071 310.066L230.274 304.18H231.623L229.818 312H228.518L227.03 306.291L225.51 312H224.205L222.4 304.18H223.749L224.962 310.056L226.456 304.18H227.594L229.071 310.066ZM270.815 305.275H268.377V312H267.029V305.275H264.612V304.18H270.815V305.275ZM314.38 308.686H311.233V312H309.874V304.18H314.842V305.275H311.233V307.601H314.38V308.686ZM355.62 309.986C355.62 309.642 355.498 309.377 355.254 309.191C355.014 309.005 354.579 308.817 353.949 308.627C353.319 308.437 352.818 308.226 352.445 307.993C351.733 307.546 351.376 306.962 351.376 306.242C351.376 305.612 351.632 305.093 352.145 304.685C352.66 304.276 353.328 304.072 354.148 304.072C354.692 304.072 355.177 304.173 355.604 304.373C356.03 304.574 356.364 304.86 356.608 305.232C356.851 305.601 356.973 306.011 356.973 306.462H355.62C355.62 306.054 355.491 305.736 355.233 305.506C354.979 305.274 354.613 305.157 354.137 305.157C353.693 305.157 353.348 305.252 353.101 305.442C352.857 305.632 352.735 305.897 352.735 306.237C352.735 306.523 352.868 306.763 353.133 306.957C353.398 307.146 353.835 307.333 354.443 307.515C355.052 307.694 355.541 307.9 355.91 308.133C356.278 308.362 356.549 308.627 356.721 308.928C356.893 309.225 356.979 309.574 356.979 309.975C356.979 310.627 356.728 311.146 356.227 311.533C355.729 311.916 355.052 312.107 354.196 312.107C353.631 312.107 353.11 312.004 352.633 311.796C352.161 311.585 351.792 311.295 351.527 310.926C351.265 310.557 351.135 310.127 351.135 309.637H352.494C352.494 310.081 352.64 310.424 352.934 310.668C353.228 310.911 353.648 311.033 354.196 311.033C354.669 311.033 355.023 310.938 355.26 310.749C355.5 310.555 355.62 310.301 355.62 309.986Z" fill="#595959"/>
<g opacity="0.7" filter="url(#filter0_bi)">
<path d="M0 0H430V332H0V0Z" fill="#F7F7F7"/>
</g>
<path d="M25.0124 94.34C26.4844 93.236 27.6204 92.248 28.4204 91.376C29.2284 90.496 29.6324 89.636 29.6324 88.796C29.6324 88.244 29.4924 87.804 29.2124 87.476C28.9404 87.14 28.4924 86.972 27.8684 86.972C27.2604 86.972 26.7884 87.164 26.4524 87.548C26.1244 87.924 25.9404 88.428 25.9004 89.06H25.0844C25.1324 88.172 25.4044 87.484 25.9004 86.996C26.4044 86.5 27.0604 86.252 27.8684 86.252C28.6444 86.252 29.2724 86.472 29.7524 86.912C30.2324 87.344 30.4724 87.96 30.4724 88.76C30.4724 89.728 30.0684 90.668 29.2604 91.58C28.4604 92.484 27.4724 93.368 26.2964 94.232H30.7364V94.94H25.0124V94.34ZM32.0476 90.62C32.0476 89.244 32.2596 88.176 32.6836 87.416C33.1076 86.656 33.8676 86.276 34.9636 86.276C36.0596 86.276 36.8196 86.656 37.2436 87.416C37.6676 88.176 37.8796 89.244 37.8796 90.62C37.8796 92.02 37.6676 93.104 37.2436 93.872C36.8196 94.64 36.0596 95.024 34.9636 95.024C33.8596 95.024 33.0956 94.64 32.6716 93.872C32.2556 93.104 32.0476 92.02 32.0476 90.62ZM37.0516 90.62C37.0516 89.876 36.9996 89.248 36.8956 88.736C36.7916 88.224 36.5876 87.812 36.2836 87.5C35.9796 87.188 35.5396 87.032 34.9636 87.032C34.3876 87.032 33.9476 87.188 33.6436 87.5C33.3396 87.812 33.1356 88.224 33.0316 88.736C32.9276 89.248 32.8756 89.876 32.8756 90.62C32.8756 91.388 32.9276 92.032 33.0316 92.552C33.1356 93.064 33.3396 93.476 33.6436 93.788C33.9476 94.1 34.3876 94.256 34.9636 94.256C35.5396 94.256 35.9796 94.1 36.2836 93.788C36.5876 93.476 36.7916 93.064 36.8956 92.552C36.9996 92.032 37.0516 91.388 37.0516 90.62ZM39.1781 88.196C39.1781 87.684 39.3341 87.272 39.6461 86.96C39.9661 86.64 40.3701 86.48 40.8581 86.48C41.3541 86.48 41.7581 86.64 42.0701 86.96C42.3901 87.272 42.5501 87.684 42.5501 88.196C42.5501 88.716 42.3901 89.136 42.0701 89.456C41.7581 89.768 41.3541 89.924 40.8581 89.924C40.3701 89.924 39.9661 89.768 39.6461 89.456C39.3341 89.136 39.1781 88.716 39.1781 88.196ZM45.8981 86.6L40.9781 95H40.1261L45.0581 86.6H45.8981ZM40.8581 87.02C40.5541 87.02 40.3101 87.124 40.1261 87.332C39.9501 87.532 39.8621 87.82 39.8621 88.196C39.8621 88.572 39.9501 88.864 40.1261 89.072C40.3101 89.28 40.5541 89.384 40.8581 89.384C41.1621 89.384 41.4061 89.28 41.5901 89.072C41.7741 88.864 41.8661 88.572 41.8661 88.196C41.8661 87.828 41.7741 87.54 41.5901 87.332C41.4061 87.124 41.1621 87.02 40.8581 87.02ZM43.4981 93.404C43.4981 92.884 43.6541 92.468 43.9661 92.156C44.2861 91.836 44.6901 91.676 45.1781 91.676C45.6661 91.676 46.0661 91.836 46.3781 92.156C46.6981 92.468 46.8581 92.884 46.8581 93.404C46.8581 93.924 46.6981 94.344 46.3781 94.664C46.0661 94.976 45.6661 95.132 45.1781 95.132C44.6901 95.132 44.2861 94.976 43.9661 94.664C43.6541 94.344 43.4981 93.924 43.4981 93.404ZM45.1781 92.228C44.8741 92.228 44.6301 92.332 44.4461 92.54C44.2621 92.748 44.1701 93.036 44.1701 93.404C44.1701 93.772 44.2621 94.06 44.4461 94.268C44.6301 94.476 44.8741 94.58 45.1781 94.58C45.4821 94.58 45.7221 94.48 45.8981 94.28C46.0821 94.072 46.1741 93.78 46.1741 93.404C46.1741 93.028 46.0821 92.74 45.8981 92.54C45.7221 92.332 45.4821 92.228 45.1781 92.228ZM59.4221 88.328C60.1901 88.328 60.8141 88.572 61.2941 89.06C61.7821 89.54 62.0261 90.24 62.0261 91.16V95H61.1981V91.256C61.1981 90.544 61.0261 90 60.6821 89.624C60.3381 89.248 59.8701 89.06 59.2781 89.06C58.6621 89.06 58.1701 89.264 57.8021 89.672C57.4341 90.08 57.2501 90.672 57.2501 91.448V95H56.4221V91.256C56.4221 90.544 56.2501 90 55.9061 89.624C55.5621 89.248 55.0901 89.06 54.4901 89.06C53.8741 89.06 53.3821 89.264 53.0141 89.672C52.6461 90.08 52.4621 90.672 52.4621 91.448V95H51.6221V88.448H52.4621V89.576C52.6701 89.168 52.9661 88.86 53.3501 88.652C53.7341 88.436 54.1621 88.328 54.6341 88.328C55.2021 88.328 55.6981 88.464 56.1221 88.736C56.5541 89.008 56.8661 89.408 57.0581 89.936C57.2341 89.416 57.5341 89.02 57.9581 88.748C58.3901 88.468 58.8781 88.328 59.4221 88.328ZM66.7596 95.096C66.1436 95.096 65.5876 94.96 65.0916 94.688C64.6036 94.408 64.2156 94.016 63.9276 93.512C63.6476 93 63.5076 92.404 63.5076 91.724C63.5076 91.044 63.6516 90.452 63.9396 89.948C64.2276 89.436 64.6196 89.044 65.1156 88.772C65.6116 88.492 66.1676 88.352 66.7836 88.352C67.3996 88.352 67.9556 88.492 68.4516 88.772C68.9556 89.044 69.3476 89.436 69.6276 89.948C69.9156 90.452 70.0596 91.044 70.0596 91.724C70.0596 92.396 69.9156 92.988 69.6276 93.5C69.3396 94.012 68.9436 94.408 68.4396 94.688C67.9356 94.96 67.3756 95.096 66.7596 95.096ZM66.7596 94.364C67.1916 94.364 67.5916 94.268 67.9596 94.076C68.3276 93.876 68.6236 93.58 68.8476 93.188C69.0796 92.788 69.1956 92.3 69.1956 91.724C69.1956 91.148 69.0836 90.664 68.8596 90.272C68.6356 89.872 68.3396 89.576 67.9716 89.384C67.6036 89.184 67.2036 89.084 66.7716 89.084C66.3396 89.084 65.9396 89.184 65.5716 89.384C65.2036 89.576 64.9076 89.872 64.6836 90.272C64.4676 90.664 64.3596 91.148 64.3596 91.724C64.3596 92.3 64.4676 92.788 64.6836 93.188C64.9076 93.58 65.1996 93.876 65.5596 94.076C65.9276 94.268 66.3276 94.364 66.7596 94.364ZM72.4309 89.612C72.6149 89.204 72.8949 88.888 73.2709 88.664C73.6549 88.44 74.1229 88.328 74.6749 88.328V89.204H74.4469C73.8389 89.204 73.3509 89.368 72.9829 89.696C72.6149 90.024 72.4309 90.572 72.4309 91.34V95H71.5909V88.448H72.4309V89.612ZM81.8665 91.388C81.8665 91.676 81.8585 91.896 81.8425 92.048H76.4065C76.4305 92.544 76.5505 92.968 76.7665 93.32C76.9825 93.672 77.2665 93.94 77.6185 94.124C77.9705 94.3 78.3545 94.388 78.7705 94.388C79.3145 94.388 79.7705 94.256 80.1385 93.992C80.5145 93.728 80.7625 93.372 80.8825 92.924H81.7705C81.6105 93.564 81.2665 94.088 80.7385 94.496C80.2185 94.896 79.5625 95.096 78.7705 95.096C78.1545 95.096 77.6025 94.96 77.1145 94.688C76.6265 94.408 76.2425 94.016 75.9625 93.512C75.6905 93 75.5545 92.404 75.5545 91.724C75.5545 91.044 75.6905 90.448 75.9625 89.936C76.2345 89.424 76.6145 89.032 77.1025 88.76C77.5905 88.488 78.1465 88.352 78.7705 88.352C79.3945 88.352 79.9385 88.488 80.4025 88.76C80.8745 89.032 81.2345 89.4 81.4825 89.864C81.7385 90.32 81.8665 90.828 81.8665 91.388ZM81.0145 91.364C81.0225 90.876 80.9225 90.46 80.7145 90.116C80.5145 89.772 80.2385 89.512 79.8865 89.336C79.5345 89.16 79.1505 89.072 78.7345 89.072C78.1105 89.072 77.5785 89.272 77.1385 89.672C76.6985 90.072 76.4545 90.636 76.4065 91.364H81.0145ZM87.7883 89.156V93.224C87.7883 93.624 87.8643 93.9 88.0163 94.052C88.1683 94.204 88.4363 94.28 88.8203 94.28H89.5883V95H88.6883C88.0963 95 87.6563 94.864 87.3683 94.592C87.0803 94.312 86.9363 93.856 86.9363 93.224V89.156H86.0243V88.448H86.9363V86.804H87.7883V88.448H89.5883V89.156H87.7883ZM94.0937 88.328C94.5897 88.328 95.0337 88.432 95.4257 88.64C95.8257 88.848 96.1377 89.168 96.3617 89.6C96.5937 90.024 96.7097 90.544 96.7097 91.16V95H95.8817V91.256C95.8817 90.544 95.7017 90 95.3417 89.624C94.9897 89.248 94.5057 89.06 93.8897 89.06C93.2577 89.06 92.7537 89.26 92.3777 89.66C92.0017 90.06 91.8137 90.648 91.8137 91.424V95H90.9737V86.12H91.8137V89.564C92.0217 89.172 92.3257 88.868 92.7257 88.652C93.1337 88.436 93.5897 88.328 94.0937 88.328ZM98.1834 91.712C98.1834 91.04 98.3154 90.452 98.5794 89.948C98.8514 89.436 99.2234 89.044 99.6954 88.772C100.175 88.492 100.715 88.352 101.315 88.352C101.939 88.352 102.475 88.496 102.923 88.784C103.379 89.072 103.707 89.44 103.907 89.888V88.448H104.747V95H103.907V93.548C103.699 93.996 103.367 94.368 102.911 94.664C102.463 94.952 101.927 95.096 101.303 95.096C100.711 95.096 100.175 94.956 99.6954 94.676C99.2234 94.396 98.8514 94 98.5794 93.488C98.3154 92.976 98.1834 92.384 98.1834 91.712ZM103.907 91.724C103.907 91.196 103.799 90.732 103.583 90.332C103.367 89.932 103.071 89.624 102.695 89.408C102.327 89.192 101.919 89.084 101.471 89.084C101.007 89.084 100.591 89.188 100.223 89.396C99.8554 89.604 99.5634 89.908 99.3474 90.308C99.1394 90.7 99.0354 91.168 99.0354 91.712C99.0354 92.248 99.1394 92.72 99.3474 93.128C99.5634 93.528 99.8554 93.836 100.223 94.052C100.591 94.26 101.007 94.364 101.471 94.364C101.919 94.364 102.327 94.256 102.695 94.04C103.071 93.824 103.367 93.516 103.583 93.116C103.799 92.716 103.907 92.252 103.907 91.724ZM109.737 88.328C110.521 88.328 111.161 88.572 111.657 89.06C112.153 89.54 112.401 90.24 112.401 91.16V95H111.573V91.256C111.573 90.544 111.393 90 111.033 89.624C110.681 89.248 110.197 89.06 109.581 89.06C108.949 89.06 108.445 89.26 108.069 89.66C107.693 90.06 107.505 90.648 107.505 91.424V95H106.665V88.448H107.505V89.564C107.713 89.164 108.013 88.86 108.405 88.652C108.797 88.436 109.241 88.328 109.737 88.328ZM118.392 86.12V95H117.552V86.12H118.392ZM119.91 91.712C119.91 91.04 120.042 90.452 120.306 89.948C120.578 89.436 120.95 89.044 121.422 88.772C121.902 88.492 122.442 88.352 123.042 88.352C123.666 88.352 124.202 88.496 124.65 88.784C125.106 89.072 125.434 89.44 125.634 89.888V88.448H126.474V95H125.634V93.548C125.426 93.996 125.094 94.368 124.638 94.664C124.19 94.952 123.654 95.096 123.03 95.096C122.438 95.096 121.902 94.956 121.422 94.676C120.95 94.396 120.578 94 120.306 93.488C120.042 92.976 119.91 92.384 119.91 91.712ZM125.634 91.724C125.634 91.196 125.526 90.732 125.31 90.332C125.094 89.932 124.798 89.624 124.422 89.408C124.054 89.192 123.646 89.084 123.198 89.084C122.734 89.084 122.318 89.188 121.95 89.396C121.582 89.604 121.29 89.908 121.074 90.308C120.866 90.7 120.762 91.168 120.762 91.712C120.762 92.248 120.866 92.72 121.074 93.128C121.29 93.528 121.582 93.836 121.95 94.052C122.318 94.26 122.734 94.364 123.198 94.364C123.646 94.364 124.054 94.256 124.422 94.04C124.798 93.824 125.094 93.516 125.31 93.116C125.526 92.716 125.634 92.252 125.634 91.724ZM130.648 95.096C129.896 95.096 129.28 94.924 128.8 94.58C128.328 94.228 128.064 93.752 128.008 93.152H128.872C128.912 93.52 129.084 93.82 129.388 94.052C129.7 94.276 130.116 94.388 130.636 94.388C131.092 94.388 131.448 94.28 131.704 94.064C131.968 93.848 132.1 93.58 132.1 93.26C132.1 93.036 132.028 92.852 131.884 92.708C131.74 92.564 131.556 92.452 131.332 92.372C131.116 92.284 130.82 92.192 130.444 92.096C129.956 91.968 129.56 91.84 129.256 91.712C128.952 91.584 128.692 91.396 128.476 91.148C128.268 90.892 128.164 90.552 128.164 90.128C128.164 89.808 128.26 89.512 128.452 89.24C128.644 88.968 128.916 88.752 129.268 88.592C129.62 88.432 130.02 88.352 130.468 88.352C131.172 88.352 131.74 88.532 132.172 88.892C132.604 89.244 132.836 89.732 132.868 90.356H132.028C132.004 89.972 131.852 89.664 131.572 89.432C131.3 89.192 130.924 89.072 130.444 89.072C130.02 89.072 129.676 89.172 129.412 89.372C129.148 89.572 129.016 89.82 129.016 90.116C129.016 90.372 129.092 90.584 129.244 90.752C129.404 90.912 129.6 91.04 129.832 91.136C130.064 91.224 130.376 91.324 130.768 91.436C131.24 91.564 131.616 91.688 131.896 91.808C132.176 91.928 132.416 92.104 132.616 92.336C132.816 92.568 132.92 92.876 132.928 93.26C132.928 93.612 132.832 93.928 132.64 94.208C132.448 94.48 132.18 94.696 131.836 94.856C131.492 95.016 131.096 95.096 130.648 95.096ZM135.601 89.156V93.224C135.601 93.624 135.677 93.9 135.829 94.052C135.981 94.204 136.249 94.28 136.633 94.28H137.401V95H136.501C135.909 95 135.469 94.864 135.181 94.592C134.893 94.312 134.749 93.856 134.749 93.224V89.156H133.837V88.448H134.749V86.804H135.601V88.448H137.401V89.156H135.601ZM150.719 88.448L148.667 95H147.827L146.015 89.504L144.203 95H143.351L141.299 88.448H142.151L143.783 94.148L145.619 88.448H146.459L148.271 94.16L149.891 88.448H150.719ZM157.792 91.388C157.792 91.676 157.784 91.896 157.768 92.048H152.332C152.356 92.544 152.476 92.968 152.692 93.32C152.908 93.672 153.192 93.94 153.544 94.124C153.896 94.3 154.28 94.388 154.696 94.388C155.24 94.388 155.696 94.256 156.064 93.992C156.44 93.728 156.688 93.372 156.808 92.924H157.696C157.536 93.564 157.192 94.088 156.664 94.496C156.144 94.896 155.488 95.096 154.696 95.096C154.08 95.096 153.528 94.96 153.04 94.688C152.552 94.408 152.168 94.016 151.888 93.512C151.616 93 151.48 92.404 151.48 91.724C151.48 91.044 151.616 90.448 151.888 89.936C152.16 89.424 152.54 89.032 153.028 88.76C153.516 88.488 154.072 88.352 154.696 88.352C155.32 88.352 155.864 88.488 156.328 88.76C156.8 89.032 157.16 89.4 157.408 89.864C157.664 90.32 157.792 90.828 157.792 91.388ZM156.94 91.364C156.948 90.876 156.848 90.46 156.64 90.116C156.44 89.772 156.164 89.512 155.812 89.336C155.46 89.16 155.076 89.072 154.66 89.072C154.036 89.072 153.504 89.272 153.064 89.672C152.624 90.072 152.38 90.636 152.332 91.364H156.94ZM165.257 91.388C165.257 91.676 165.249 91.896 165.233 92.048H159.797C159.821 92.544 159.941 92.968 160.157 93.32C160.373 93.672 160.657 93.94 161.009 94.124C161.361 94.3 161.745 94.388 162.161 94.388C162.705 94.388 163.161 94.256 163.529 93.992C163.905 93.728 164.153 93.372 164.273 92.924H165.161C165.001 93.564 164.657 94.088 164.129 94.496C163.609 94.896 162.953 95.096 162.161 95.096C161.545 95.096 160.993 94.96 160.505 94.688C160.017 94.408 159.633 94.016 159.353 93.512C159.081 93 158.945 92.404 158.945 91.724C158.945 91.044 159.081 90.448 159.353 89.936C159.625 89.424 160.005 89.032 160.493 88.76C160.981 88.488 161.537 88.352 162.161 88.352C162.785 88.352 163.329 88.488 163.793 88.76C164.265 89.032 164.625 89.4 164.873 89.864C165.129 90.32 165.257 90.828 165.257 91.388ZM164.405 91.364C164.413 90.876 164.313 90.46 164.105 90.116C163.905 89.772 163.629 89.512 163.277 89.336C162.925 89.16 162.541 89.072 162.125 89.072C161.501 89.072 160.969 89.272 160.529 89.672C160.089 90.072 159.845 90.636 159.797 91.364H164.405ZM170.334 95L167.634 92.06V95H166.794V86.12H167.634V91.376L170.274 88.448H171.45L168.342 91.712L171.474 95H170.334Z" fill="#595959"/>
<path d="M45.518 71.114C45.518 70.162 45.7373 69.308 46.176 68.552C46.624 67.796 47.226 67.208 47.982 66.788C48.7473 66.3587 49.5827 66.144 50.488 66.144C51.524 66.144 52.4433 66.4007 53.246 66.914C54.058 67.418 54.646 68.1367 55.01 69.07H53.092C52.84 68.5567 52.49 68.174 52.042 67.922C51.594 67.67 51.076 67.544 50.488 67.544C49.844 67.544 49.27 67.6887 48.766 67.978C48.262 68.2673 47.8653 68.6827 47.576 69.224C47.296 69.7653 47.156 70.3953 47.156 71.114C47.156 71.8327 47.296 72.4627 47.576 73.004C47.8653 73.5453 48.262 73.9653 48.766 74.264C49.27 74.5533 49.844 74.698 50.488 74.698C51.076 74.698 51.594 74.572 52.042 74.32C52.49 74.068 52.84 73.6853 53.092 73.172H55.01C54.646 74.1053 54.058 74.824 53.246 75.328C52.4433 75.832 51.524 76.084 50.488 76.084C49.5733 76.084 48.738 75.874 47.982 75.454C47.226 75.0247 46.624 74.432 46.176 73.676C45.7373 72.92 45.518 72.066 45.518 71.114ZM60.2241 76.126C59.4961 76.126 58.8381 75.9627 58.2501 75.636C57.6621 75.3 57.2001 74.8333 56.8641 74.236C56.5281 73.6293 56.3601 72.9293 56.3601 72.136C56.3601 71.352 56.5328 70.6567 56.8781 70.05C57.2235 69.4433 57.6948 68.9767 58.2921 68.65C58.8895 68.3233 59.5568 68.16 60.2941 68.16C61.0315 68.16 61.6988 68.3233 62.2961 68.65C62.8935 68.9767 63.3648 69.4433 63.7101 70.05C64.0555 70.6567 64.2281 71.352 64.2281 72.136C64.2281 72.92 64.0508 73.6153 63.6961 74.222C63.3415 74.8287 62.8561 75.3 62.2401 75.636C61.6335 75.9627 60.9615 76.126 60.2241 76.126ZM60.2241 74.74C60.6348 74.74 61.0175 74.642 61.3721 74.446C61.7361 74.25 62.0301 73.956 62.2541 73.564C62.4781 73.172 62.5901 72.696 62.5901 72.136C62.5901 71.576 62.4828 71.1047 62.2681 70.722C62.0535 70.33 61.7688 70.036 61.4141 69.84C61.0595 69.644 60.6768 69.546 60.2661 69.546C59.8555 69.546 59.4728 69.644 59.1181 69.84C58.7728 70.036 58.4975 70.33 58.2921 70.722C58.0868 71.1047 57.9841 71.576 57.9841 72.136C57.9841 72.9667 58.1941 73.6107 58.6141 74.068C59.0435 74.516 59.5801 74.74 60.2241 74.74ZM68.6059 76.126C67.9992 76.126 67.4532 76.0187 66.9679 75.804C66.4919 75.58 66.1139 75.2813 65.8339 74.908C65.5539 74.5253 65.4045 74.1007 65.3859 73.634H67.0379C67.0659 73.9607 67.2199 74.236 67.4999 74.46C67.7892 74.6747 68.1485 74.782 68.5779 74.782C69.0259 74.782 69.3712 74.698 69.6139 74.53C69.8659 74.3527 69.9919 74.1287 69.9919 73.858C69.9919 73.5687 69.8519 73.354 69.5719 73.214C69.3012 73.074 68.8672 72.92 68.2699 72.752C67.6912 72.5933 67.2199 72.4393 66.8559 72.29C66.4919 72.1407 66.1745 71.912 65.9039 71.604C65.6425 71.296 65.5119 70.89 65.5119 70.386C65.5119 69.9753 65.6332 69.602 65.8759 69.266C66.1185 68.9207 66.4639 68.65 66.9119 68.454C67.3692 68.258 67.8919 68.16 68.4799 68.16C69.3572 68.16 70.0619 68.384 70.5939 68.832C71.1352 69.2707 71.4245 69.8727 71.4619 70.638H69.8659C69.8379 70.2927 69.6979 70.0173 69.4459 69.812C69.1939 69.6067 68.8532 69.504 68.4239 69.504C68.0039 69.504 67.6819 69.5833 67.4579 69.742C67.2339 69.9007 67.1219 70.1107 67.1219 70.372C67.1219 70.5773 67.1965 70.75 67.3459 70.89C67.4952 71.03 67.6772 71.142 67.8919 71.226C68.1065 71.3007 68.4239 71.3987 68.8439 71.52C69.4039 71.6693 69.8612 71.8233 70.2159 71.982C70.5799 72.1313 70.8925 72.3553 71.1539 72.654C71.4152 72.9527 71.5505 73.3493 71.5599 73.844C71.5599 74.2827 71.4385 74.6747 71.1959 75.02C70.9532 75.3653 70.6079 75.636 70.1599 75.832C69.7212 76.028 69.2032 76.126 68.6059 76.126ZM75.1464 69.588V73.858C75.1464 74.1473 75.2117 74.3573 75.3424 74.488C75.4824 74.6093 75.7157 74.67 76.0424 74.67H77.0224V76H75.7624C75.0437 76 74.493 75.832 74.1104 75.496C73.7277 75.16 73.5364 74.614 73.5364 73.858V69.588H72.6264V68.286H73.5364V66.368H75.1464V68.286H77.0224V69.588H75.1464ZM83.7261 69.42C83.9967 69.0653 84.3654 68.7667 84.8321 68.524C85.2987 68.2813 85.8261 68.16 86.4141 68.16C87.0861 68.16 87.6974 68.328 88.2481 68.664C88.8081 68.9907 89.2467 69.4527 89.5641 70.05C89.8814 70.6473 90.0401 71.3333 90.0401 72.108C90.0401 72.8827 89.8814 73.578 89.5641 74.194C89.2467 74.8007 88.8081 75.2767 88.2481 75.622C87.6974 75.958 87.0861 76.126 86.4141 76.126C85.8261 76.126 85.3034 76.0093 84.8461 75.776C84.3887 75.5333 84.0154 75.2347 83.7261 74.88V79.668H82.1301V68.286H83.7261V69.42ZM88.4161 72.108C88.4161 71.576 88.3041 71.1187 88.0801 70.736C87.8654 70.344 87.5761 70.05 87.2121 69.854C86.8574 69.6487 86.4747 69.546 86.0641 69.546C85.6627 69.546 85.2801 69.6487 84.9161 69.854C84.5614 70.0593 84.2721 70.358 84.0481 70.75C83.8334 71.142 83.7261 71.604 83.7261 72.136C83.7261 72.668 83.8334 73.1347 84.0481 73.536C84.2721 73.928 84.5614 74.2267 84.9161 74.432C85.2801 74.6373 85.6627 74.74 86.0641 74.74C86.4747 74.74 86.8574 74.6373 87.2121 74.432C87.5761 74.2173 87.8654 73.9093 88.0801 73.508C88.3041 73.1067 88.4161 72.64 88.4161 72.108ZM98.6884 71.954C98.6884 72.2433 98.6697 72.5047 98.6324 72.738H92.7384C92.785 73.354 93.0137 73.8487 93.4244 74.222C93.835 74.5953 94.339 74.782 94.9364 74.782C95.795 74.782 96.4017 74.4227 96.7564 73.704H98.4784C98.245 74.4133 97.8204 74.9967 97.2044 75.454C96.5977 75.902 95.8417 76.126 94.9364 76.126C94.199 76.126 93.5364 75.9627 92.9484 75.636C92.3697 75.3 91.9124 74.8333 91.5764 74.236C91.2497 73.6293 91.0864 72.9293 91.0864 72.136C91.0864 71.3427 91.245 70.6473 91.5624 70.05C91.889 69.4433 92.3417 68.9767 92.9204 68.65C93.5084 68.3233 94.1804 68.16 94.9364 68.16C95.6644 68.16 96.313 68.3187 96.8824 68.636C97.4517 68.9533 97.895 69.4013 98.2124 69.98C98.5297 70.5493 98.6884 71.2073 98.6884 71.954ZM97.0224 71.45C97.013 70.862 96.803 70.3907 96.3924 70.036C95.9817 69.6813 95.473 69.504 94.8664 69.504C94.3157 69.504 93.8444 69.6813 93.4524 70.036C93.0604 70.3813 92.827 70.8527 92.7524 71.45H97.0224ZM101.855 69.406C102.088 69.014 102.396 68.7107 102.779 68.496C103.171 68.272 103.633 68.16 104.165 68.16V69.812H103.759C103.134 69.812 102.658 69.9707 102.331 70.288C102.014 70.6053 101.855 71.156 101.855 71.94V76H100.259V68.286H101.855V69.406ZM108.737 71.114C108.737 70.162 108.956 69.308 109.395 68.552C109.843 67.796 110.445 67.208 111.201 66.788C111.966 66.3587 112.801 66.144 113.707 66.144C114.743 66.144 115.662 66.4007 116.465 66.914C117.277 67.418 117.865 68.1367 118.229 69.07H116.311C116.059 68.5567 115.709 68.174 115.261 67.922C114.813 67.67 114.295 67.544 113.707 67.544C113.063 67.544 112.489 67.6887 111.985 67.978C111.481 68.2673 111.084 68.6827 110.795 69.224C110.515 69.7653 110.375 70.3953 110.375 71.114C110.375 71.8327 110.515 72.4627 110.795 73.004C111.084 73.5453 111.481 73.9653 111.985 74.264C112.489 74.5533 113.063 74.698 113.707 74.698C114.295 74.698 114.813 74.572 115.261 74.32C115.709 74.068 116.059 73.6853 116.311 73.172H118.229C117.865 74.1053 117.277 74.824 116.465 75.328C115.662 75.832 114.743 76.084 113.707 76.084C112.792 76.084 111.957 75.874 111.201 75.454C110.445 75.0247 109.843 74.432 109.395 73.676C108.956 72.92 108.737 72.066 108.737 71.114ZM121.693 65.64V76H120.097V65.64H121.693ZM124.6 67.264C124.311 67.264 124.068 67.166 123.872 66.97C123.676 66.774 123.578 66.5313 123.578 66.242C123.578 65.9527 123.676 65.71 123.872 65.514C124.068 65.318 124.311 65.22 124.6 65.22C124.88 65.22 125.118 65.318 125.314 65.514C125.51 65.71 125.608 65.9527 125.608 66.242C125.608 66.5313 125.51 66.774 125.314 66.97C125.118 67.166 124.88 67.264 124.6 67.264ZM125.384 68.286V76H123.788V68.286H125.384ZM126.948 72.136C126.948 71.3427 127.106 70.6473 127.424 70.05C127.75 69.4433 128.198 68.9767 128.768 68.65C129.337 68.3233 129.99 68.16 130.728 68.16C131.661 68.16 132.431 68.384 133.038 68.832C133.654 69.2707 134.069 69.9007 134.284 70.722H132.562C132.422 70.3393 132.198 70.0407 131.89 69.826C131.582 69.6113 131.194 69.504 130.728 69.504C130.074 69.504 129.552 69.7373 129.16 70.204C128.777 70.6613 128.586 71.3053 128.586 72.136C128.586 72.9667 128.777 73.6153 129.16 74.082C129.552 74.5487 130.074 74.782 130.728 74.782C131.652 74.782 132.263 74.376 132.562 73.564H134.284C134.06 74.348 133.64 74.9733 133.024 75.44C132.408 75.8973 131.642 76.126 130.728 76.126C129.99 76.126 129.337 75.9627 128.768 75.636C128.198 75.3 127.75 74.8333 127.424 74.236C127.106 73.6293 126.948 72.9293 126.948 72.136ZM138.926 72.15L142.482 76H140.326L137.47 72.682V76H135.874V65.64H137.47V71.66L140.27 68.286H142.482L138.926 72.15Z" fill="#595959"/>
<path d="M103.464 52L99.624 45.328H97.536V52H94.8V35.32H100.56C101.84 35.32 102.92 35.544 103.8 35.992C104.696 36.44 105.36 37.04 105.792 37.792C106.24 38.544 106.464 39.384 106.464 40.312C106.464 41.4 106.144 42.392 105.504 43.288C104.88 44.168 103.912 44.768 102.6 45.088L106.728 52H103.464ZM97.536 43.144H100.56C101.584 43.144 102.352 42.888 102.864 42.376C103.392 41.864 103.656 41.176 103.656 40.312C103.656 39.448 103.4 38.776 102.888 38.296C102.376 37.8 101.6 37.552 100.56 37.552H97.536V43.144ZM114.764 52.216C113.724 52.216 112.788 52.032 111.956 51.664C111.14 51.28 110.492 50.768 110.012 50.128C109.532 49.472 109.276 48.744 109.244 47.944H112.076C112.124 48.504 112.388 48.976 112.868 49.36C113.364 49.728 113.98 49.912 114.716 49.912C115.484 49.912 116.076 49.768 116.492 49.48C116.924 49.176 117.14 48.792 117.14 48.328C117.14 47.832 116.9 47.464 116.42 47.224C115.956 46.984 115.212 46.72 114.188 46.432C113.196 46.16 112.388 45.896 111.764 45.64C111.14 45.384 110.596 44.992 110.132 44.464C109.684 43.936 109.46 43.24 109.46 42.376C109.46 41.672 109.668 41.032 110.084 40.456C110.5 39.864 111.092 39.4 111.86 39.064C112.644 38.728 113.54 38.56 114.548 38.56C116.052 38.56 117.26 38.944 118.172 39.712C119.1 40.464 119.596 41.496 119.66 42.808H116.924C116.876 42.216 116.636 41.744 116.204 41.392C115.772 41.04 115.188 40.864 114.452 40.864C113.732 40.864 113.18 41 112.796 41.272C112.412 41.544 112.22 41.904 112.22 42.352C112.22 42.704 112.348 43 112.604 43.24C112.86 43.48 113.172 43.672 113.54 43.816C113.908 43.944 114.452 44.112 115.172 44.32C116.132 44.576 116.916 44.84 117.524 45.112C118.148 45.368 118.684 45.752 119.132 46.264C119.58 46.776 119.812 47.456 119.828 48.304C119.828 49.056 119.62 49.728 119.204 50.32C118.788 50.912 118.196 51.376 117.428 51.712C116.676 52.048 115.788 52.216 114.764 52.216ZM133.704 36.856H125.664V41.632C126 41.184 126.496 40.808 127.152 40.504C127.824 40.2 128.536 40.048 129.288 40.048C130.632 40.048 131.72 40.336 132.552 40.912C133.4 41.488 134 42.216 134.352 43.096C134.72 43.976 134.904 44.904 134.904 45.88C134.904 47.064 134.672 48.12 134.208 49.048C133.76 49.96 133.08 50.68 132.168 51.208C131.272 51.736 130.168 52 128.856 52C127.112 52 125.712 51.568 124.656 50.704C123.6 49.84 122.968 48.696 122.76 47.272H125.424C125.6 48.024 125.992 48.624 126.6 49.072C127.208 49.504 127.968 49.72 128.88 49.72C130.016 49.72 130.864 49.376 131.424 48.688C132 48 132.288 47.088 132.288 45.952C132.288 44.8 132 43.92 131.424 43.312C130.848 42.688 130 42.376 128.88 42.376C128.096 42.376 127.432 42.576 126.888 42.976C126.36 43.36 125.976 43.888 125.736 44.56H123.144V34.456H133.704V36.856ZM149.033 36.856H140.993V41.632C141.329 41.184 141.825 40.808 142.48 40.504C143.153 40.2 143.865 40.048 144.617 40.048C145.961 40.048 147.049 40.336 147.881 40.912C148.729 41.488 149.329 42.216 149.681 43.096C150.049 43.976 150.233 44.904 150.233 45.88C150.233 47.064 150.001 48.12 149.536 49.048C149.089 49.96 148.409 50.68 147.497 51.208C146.601 51.736 145.497 52 144.185 52C142.441 52 141.041 51.568 139.985 50.704C138.929 49.84 138.297 48.696 138.089 47.272H140.753C140.929 48.024 141.321 48.624 141.929 49.072C142.537 49.504 143.297 49.72 144.209 49.72C145.345 49.72 146.193 49.376 146.753 48.688C147.329 48 147.617 47.088 147.617 45.952C147.617 44.8 147.329 43.92 146.753 43.312C146.177 42.688 145.329 42.376 144.209 42.376C143.425 42.376 142.761 42.576 142.217 42.976C141.689 43.36 141.305 43.888 141.065 44.56H138.473V34.456H149.033V36.856ZM153.081 43.024C153.081 40.256 153.545 38.096 154.473 36.544C155.417 34.976 157.033 34.192 159.321 34.192C161.609 34.192 163.217 34.976 164.145 36.544C165.089 38.096 165.561 40.256 165.561 43.024C165.561 45.824 165.089 48.016 164.145 49.6C163.217 51.168 161.609 51.952 159.321 51.952C157.033 51.952 155.417 51.168 154.473 49.6C153.545 48.016 153.081 45.824 153.081 43.024ZM162.873 43.024C162.873 41.728 162.785 40.632 162.609 39.736C162.449 38.84 162.113 38.112 161.601 37.552C161.089 36.976 160.329 36.688 159.321 36.688C158.313 36.688 157.553 36.976 157.041 37.552C156.529 38.112 156.185 38.84 156.009 39.736C155.849 40.632 155.769 41.728 155.769 43.024C155.769 44.368 155.849 45.496 156.009 46.408C156.169 47.32 156.505 48.056 157.017 48.616C157.545 49.176 158.313 49.456 159.321 49.456C160.329 49.456 161.089 49.176 161.601 48.616C162.129 48.056 162.473 47.32 162.633 46.408C162.793 45.496 162.873 44.368 162.873 43.024Z" fill="#233A6C"/>
<circle cx="61.5" cy="40.5" r="23.5" fill="#FFD3F8"/>
<line x1="70" y1="301.625" x2="377" y2="301.625" stroke="#595959" stroke-opacity="0.5" stroke-width="0.75063"/>
<line x1="71" y1="266.625" x2="378" y2="266.625" stroke="#595959" stroke-opacity="0.5" stroke-width="0.75063"/>
<line x1="72" y1="231.625" x2="378" y2="231.625" stroke="#595959" stroke-opacity="0.5" stroke-width="0.75063"/>
<line x1="72" y1="196.625" x2="379" y2="196.625" stroke="#595959" stroke-opacity="0.5" stroke-width="0.75063"/>
<line x1="72" y1="161.625" x2="379" y2="161.625" stroke="#595959" stroke-opacity="0.5" stroke-width="0.75063"/>
<line x1="70" y1="126.625" x2="377" y2="126.625" stroke="#595959" stroke-opacity="0.5" stroke-width="0.75063"/>
<path d="M46.7417 269H45.4419V262.721L43.5244 263.376V262.275L46.5752 261.153H46.7417V269ZM54.5566 265.708C54.5566 266.832 54.3454 267.681 53.9229 268.253C53.5039 268.823 52.8647 269.107 52.0054 269.107C51.1603 269.107 50.5229 268.83 50.0933 268.275C49.6672 267.716 49.4487 266.891 49.438 265.799V264.445C49.438 263.321 49.6475 262.478 50.0664 261.916C50.4889 261.353 51.1317 261.072 51.9946 261.072C52.8504 261.072 53.4878 261.346 53.9067 261.894C54.3293 262.442 54.5459 263.262 54.5566 264.354V265.708ZM53.2515 264.247C53.2515 263.513 53.1512 262.975 52.9507 262.635C52.7502 262.292 52.4315 262.12 51.9946 262.12C51.5685 262.12 51.2552 262.283 51.0547 262.608C50.8542 262.931 50.7485 263.436 50.7378 264.123V265.896C50.7378 266.626 50.8398 267.17 51.0439 267.528C51.248 267.886 51.5685 268.065 52.0054 268.065C52.4243 268.065 52.734 267.901 52.9346 267.571C53.1351 267.238 53.2407 266.719 53.2515 266.014V264.247ZM60.8086 265.708C60.8086 266.832 60.5973 267.681 60.1748 268.253C59.7559 268.823 59.1167 269.107 58.2573 269.107C57.4123 269.107 56.7749 268.83 56.3452 268.275C55.9191 267.716 55.7007 266.891 55.6899 265.799V264.445C55.6899 263.321 55.8994 262.478 56.3184 261.916C56.7409 261.353 57.3836 261.072 58.2466 261.072C59.1024 261.072 59.7397 261.346 60.1587 261.894C60.5812 262.442 60.7979 263.262 60.8086 264.354V265.708ZM59.5034 264.247C59.5034 263.513 59.4032 262.975 59.2026 262.635C59.0021 262.292 58.6834 262.12 58.2466 262.12C57.8205 262.12 57.5072 262.283 57.3066 262.608C57.1061 262.931 57.0005 263.436 56.9897 264.123V265.896C56.9897 266.626 57.0918 267.17 57.2959 267.528C57.5 267.886 57.8205 268.065 58.2573 268.065C58.6763 268.065 58.986 267.901 59.1865 267.571C59.387 267.238 59.4927 266.719 59.5034 266.014V264.247Z" fill="#6C6C6C"/>
<path d="M53.5566 300.708C53.5566 301.832 53.3454 302.681 52.9229 303.253C52.5039 303.823 51.8647 304.107 51.0054 304.107C50.1603 304.107 49.5229 303.83 49.0933 303.275C48.6672 302.716 48.4487 301.891 48.438 300.799V299.445C48.438 298.321 48.6475 297.478 49.0664 296.916C49.4889 296.353 50.1317 296.072 50.9946 296.072C51.8504 296.072 52.4878 296.346 52.9067 296.894C53.3293 297.442 53.5459 298.262 53.5566 299.354V300.708ZM52.2515 299.247C52.2515 298.513 52.1512 297.975 51.9507 297.635C51.7502 297.292 51.4315 297.12 50.9946 297.12C50.5685 297.12 50.2552 297.283 50.0547 297.608C49.8542 297.931 49.7485 298.436 49.7378 299.123V300.896C49.7378 301.626 49.8398 302.17 50.0439 302.528C50.248 302.886 50.5685 303.065 51.0054 303.065C51.4243 303.065 51.734 302.901 51.9346 302.571C52.1351 302.238 52.2407 301.719 52.2515 301.014V299.247Z" fill="#6C6C6C"/>
<path d="M47.4658 234H42.2075V233.103L44.8125 230.262C45.1885 229.843 45.4552 229.494 45.6128 229.214C45.7739 228.931 45.8545 228.649 45.8545 228.366C45.8545 227.993 45.7489 227.693 45.5376 227.463C45.3299 227.234 45.0488 227.12 44.6943 227.12C44.2718 227.12 43.9442 227.249 43.7114 227.506C43.4787 227.764 43.3623 228.117 43.3623 228.564H42.0571C42.0571 228.088 42.1646 227.66 42.3794 227.281C42.5978 226.898 42.9076 226.6 43.3086 226.389C43.7132 226.178 44.1787 226.072 44.7051 226.072C45.4642 226.072 46.0622 226.264 46.499 226.647C46.9395 227.027 47.1597 227.553 47.1597 228.226C47.1597 228.616 47.0487 229.026 46.8267 229.456C46.6082 229.882 46.2484 230.367 45.7471 230.912L43.835 232.958H47.4658V234ZM53.5566 230.708C53.5566 231.832 53.3454 232.681 52.9229 233.253C52.5039 233.823 51.8647 234.107 51.0054 234.107C50.1603 234.107 49.5229 233.83 49.0933 233.275C48.6672 232.716 48.4487 231.891 48.438 230.799V229.445C48.438 228.321 48.6475 227.478 49.0664 226.916C49.4889 226.353 50.1317 226.072 50.9946 226.072C51.8504 226.072 52.4878 226.346 52.9067 226.894C53.3293 227.442 53.5459 228.262 53.5566 229.354V230.708ZM52.2515 229.247C52.2515 228.513 52.1512 227.975 51.9507 227.635C51.7502 227.292 51.4315 227.12 50.9946 227.12C50.5685 227.12 50.2552 227.283 50.0547 227.608C49.8542 227.931 49.7485 228.436 49.7378 229.123V230.896C49.7378 231.626 49.8398 232.17 50.0439 232.528C50.248 232.886 50.5685 233.065 51.0054 233.065C51.4243 233.065 51.734 232.901 51.9346 232.571C52.1351 232.238 52.2407 231.719 52.2515 231.014V229.247ZM59.8086 230.708C59.8086 231.832 59.5973 232.681 59.1748 233.253C58.7559 233.823 58.1167 234.107 57.2573 234.107C56.4123 234.107 55.7749 233.83 55.3452 233.275C54.9191 232.716 54.7007 231.891 54.6899 230.799V229.445C54.6899 228.321 54.8994 227.478 55.3184 226.916C55.7409 226.353 56.3836 226.072 57.2466 226.072C58.1024 226.072 58.7397 226.346 59.1587 226.894C59.5812 227.442 59.7979 228.262 59.8086 229.354V230.708ZM58.5034 229.247C58.5034 228.513 58.4032 227.975 58.2026 227.635C58.0021 227.292 57.6834 227.12 57.2466 227.12C56.8205 227.12 56.5072 227.283 56.3066 227.608C56.1061 227.931 56.0005 228.436 55.9897 229.123V230.896C55.9897 231.626 56.0918 232.17 56.2959 232.528C56.5 232.886 56.8205 233.065 57.2573 233.065C57.6763 233.065 57.986 232.901 58.1865 232.571C58.387 232.238 58.4927 231.719 58.5034 231.014V229.247Z" fill="#6C6C6C"/>
<path d="M43.2168 194.494H44.0117C44.4128 194.49 44.7297 194.386 44.9624 194.182C45.1987 193.978 45.3169 193.683 45.3169 193.296C45.3169 192.924 45.2184 192.635 45.0215 192.431C44.8281 192.223 44.5309 192.12 44.1299 192.12C43.779 192.12 43.4907 192.222 43.2651 192.426C43.0396 192.626 42.9268 192.889 42.9268 193.215H41.6216C41.6216 192.814 41.7272 192.449 41.9385 192.12C42.1533 191.79 42.4505 191.534 42.8301 191.352C43.2132 191.165 43.6411 191.072 44.1138 191.072C44.8944 191.072 45.5067 191.269 45.9507 191.663C46.3983 192.053 46.6221 192.598 46.6221 193.296C46.6221 193.647 46.5093 193.978 46.2837 194.29C46.0617 194.597 45.7734 194.83 45.4189 194.988C45.8486 195.135 46.1745 195.366 46.3965 195.681C46.6221 195.996 46.7349 196.372 46.7349 196.809C46.7349 197.51 46.4932 198.069 46.0098 198.484C45.5299 198.9 44.8979 199.107 44.1138 199.107C43.3618 199.107 42.7459 198.907 42.2661 198.506C41.7863 198.105 41.5464 197.571 41.5464 196.905H42.8516C42.8516 197.249 42.9661 197.528 43.1953 197.743C43.4281 197.958 43.7396 198.065 44.1299 198.065C44.5345 198.065 44.8532 197.958 45.0859 197.743C45.3187 197.528 45.4351 197.217 45.4351 196.809C45.4351 196.397 45.3133 196.08 45.0698 195.858C44.8263 195.636 44.4647 195.525 43.9849 195.525H43.2168V194.494ZM53.0566 195.708C53.0566 196.832 52.8454 197.681 52.4229 198.253C52.0039 198.823 51.3647 199.107 50.5054 199.107C49.6603 199.107 49.0229 198.83 48.5933 198.275C48.1672 197.716 47.9487 196.891 47.938 195.799V194.445C47.938 193.321 48.1475 192.478 48.5664 191.916C48.9889 191.353 49.6317 191.072 50.4946 191.072C51.3504 191.072 51.9878 191.346 52.4067 191.894C52.8293 192.442 53.0459 193.262 53.0566 194.354V195.708ZM51.7515 194.247C51.7515 193.513 51.6512 192.975 51.4507 192.635C51.2502 192.292 50.9315 192.12 50.4946 192.12C50.0685 192.12 49.7552 192.283 49.5547 192.608C49.3542 192.931 49.2485 193.436 49.2378 194.123V195.896C49.2378 196.626 49.3398 197.17 49.5439 197.528C49.748 197.886 50.0685 198.065 50.5054 198.065C50.9243 198.065 51.234 197.901 51.4346 197.571C51.6351 197.238 51.7407 196.719 51.7515 196.014V194.247ZM59.3086 195.708C59.3086 196.832 59.0973 197.681 58.6748 198.253C58.2559 198.823 57.6167 199.107 56.7573 199.107C55.9123 199.107 55.2749 198.83 54.8452 198.275C54.4191 197.716 54.2007 196.891 54.1899 195.799V194.445C54.1899 193.321 54.3994 192.478 54.8184 191.916C55.2409 191.353 55.8836 191.072 56.7466 191.072C57.6024 191.072 58.2397 191.346 58.6587 191.894C59.0812 192.442 59.2979 193.262 59.3086 194.354V195.708ZM58.0034 194.247C58.0034 193.513 57.9032 192.975 57.7026 192.635C57.5021 192.292 57.1834 192.12 56.7466 192.12C56.3205 192.12 56.0072 192.283 55.8066 192.608C55.6061 192.931 55.5005 193.436 55.4897 194.123V195.896C55.4897 196.626 55.5918 197.17 55.7959 197.528C56 197.886 56.3205 198.065 56.7573 198.065C57.1763 198.065 57.486 197.901 57.6865 197.571C57.887 197.238 57.9927 196.719 58.0034 196.014V194.247Z" fill="#6C6C6C"/>
<path d="M46.1226 161.212H47.0947V162.26H46.1226V164H44.8174V162.26H41.439L41.4014 161.465L44.7744 156.18H46.1226V161.212ZM42.771 161.212H44.8174V157.947L44.7207 158.119L42.771 161.212ZM53.0566 160.708C53.0566 161.832 52.8454 162.681 52.4229 163.253C52.0039 163.823 51.3647 164.107 50.5054 164.107C49.6603 164.107 49.0229 163.83 48.5933 163.275C48.1672 162.716 47.9487 161.891 47.938 160.799V159.445C47.938 158.321 48.1475 157.478 48.5664 156.916C48.9889 156.353 49.6317 156.072 50.4946 156.072C51.3504 156.072 51.9878 156.346 52.4067 156.894C52.8293 157.442 53.0459 158.262 53.0566 159.354V160.708ZM51.7515 159.247C51.7515 158.513 51.6512 157.975 51.4507 157.635C51.2502 157.292 50.9315 157.12 50.4946 157.12C50.0685 157.12 49.7552 157.283 49.5547 157.608C49.3542 157.931 49.2485 158.436 49.2378 159.123V160.896C49.2378 161.626 49.3398 162.17 49.5439 162.528C49.748 162.886 50.0685 163.065 50.5054 163.065C50.9243 163.065 51.234 162.901 51.4346 162.571C51.6351 162.238 51.7407 161.719 51.7515 161.014V159.247ZM59.3086 160.708C59.3086 161.832 59.0973 162.681 58.6748 163.253C58.2559 163.823 57.6167 164.107 56.7573 164.107C55.9123 164.107 55.2749 163.83 54.8452 163.275C54.4191 162.716 54.2007 161.891 54.1899 160.799V159.445C54.1899 158.321 54.3994 157.478 54.8184 156.916C55.2409 156.353 55.8836 156.072 56.7466 156.072C57.6024 156.072 58.2397 156.346 58.6587 156.894C59.0812 157.442 59.2979 158.262 59.3086 159.354V160.708ZM58.0034 159.247C58.0034 158.513 57.9032 157.975 57.7026 157.635C57.5021 157.292 57.1834 157.12 56.7466 157.12C56.3205 157.12 56.0072 157.283 55.8066 157.608C55.6061 157.931 55.5005 158.436 55.4897 159.123V160.896C55.4897 161.626 55.5918 162.17 55.7959 162.528C56 162.886 56.3205 163.065 56.7573 163.065C57.1763 163.065 57.486 162.901 57.6865 162.571C57.887 162.238 57.9927 161.719 58.0034 161.014V159.247Z" fill="#6C6C6C"/>
<path d="M42.7185 125.122L43.1428 121.18H47.343V122.308H44.2277L44.0129 124.177C44.3745 123.969 44.7828 123.865 45.2375 123.865C45.9823 123.865 46.5606 124.103 46.9724 124.58C47.3877 125.056 47.5954 125.697 47.5954 126.502C47.5954 127.297 47.3662 127.931 46.9079 128.404C46.4496 128.873 45.8212 129.107 45.0227 129.107C44.3065 129.107 43.7121 128.905 43.2395 128.5C42.7704 128.092 42.5162 127.555 42.4768 126.889H43.739C43.7891 127.269 43.9252 127.561 44.1472 127.765C44.3692 127.965 44.6592 128.065 45.0173 128.065C45.4183 128.065 45.7299 127.922 45.9519 127.636C46.1774 127.349 46.2902 126.959 46.2902 126.465C46.2902 125.989 46.1667 125.613 45.9196 125.337C45.6726 125.058 45.3324 124.918 44.8991 124.918C44.6628 124.918 44.4623 124.95 44.2976 125.015C44.1329 125.076 43.9538 125.197 43.7605 125.38L42.7185 125.122ZM48.9704 125.122L49.3947 121.18H53.5949V122.308H50.4797L50.2648 124.177C50.6265 123.969 51.0347 123.865 51.4895 123.865C52.2342 123.865 52.8125 124.103 53.2243 124.58C53.6397 125.056 53.8474 125.697 53.8474 126.502C53.8474 127.297 53.6182 127.931 53.1599 128.404C52.7015 128.873 52.0731 129.107 51.2746 129.107C50.5585 129.107 49.9641 128.905 49.4914 128.5C49.0223 128.092 48.7681 127.555 48.7287 126.889H49.9909C50.0411 127.269 50.1771 127.561 50.3991 127.765C50.6211 127.965 50.9112 128.065 51.2692 128.065C51.6703 128.065 51.9818 127.922 52.2038 127.636C52.4294 127.349 52.5422 126.959 52.5422 126.465C52.5422 125.989 52.4187 125.613 52.1716 125.337C51.9245 125.058 51.5843 124.918 51.1511 124.918C50.9148 124.918 50.7142 124.95 50.5495 125.015C50.3848 125.076 50.2058 125.197 50.0124 125.38L48.9704 125.122ZM59.9704 125.708C59.9704 126.832 59.7592 127.681 59.3366 128.253C58.9177 128.823 58.2785 129.107 57.4191 129.107C56.5741 129.107 55.9367 128.83 55.507 128.275C55.0809 127.716 54.8625 126.891 54.8518 125.799V124.445C54.8518 123.321 55.0612 122.478 55.4802 121.916C55.9027 121.353 56.5454 121.072 57.4084 121.072C58.2642 121.072 58.9016 121.346 59.3205 121.894C59.743 122.442 59.9597 123.262 59.9704 124.354V125.708ZM58.6652 124.247C58.6652 123.513 58.565 122.975 58.3645 122.635C58.1639 122.292 57.8453 122.12 57.4084 122.12C56.9823 122.12 56.669 122.283 56.4685 122.608C56.2679 122.931 56.1623 123.436 56.1516 124.123V125.896C56.1516 126.626 56.2536 127.17 56.4577 127.528C56.6618 127.886 56.9823 128.065 57.4191 128.065C57.8381 128.065 58.1478 127.901 58.3483 127.571C58.5489 127.238 58.6545 126.719 58.6652 126.014V124.247Z" fill="#6C6C6C"/>
<rect x="126" y="293" width="28" height="9" fill="#D412B5"/>
<rect x="84" y="279" width="27" height="23" fill="#233A6C" fill-opacity="0.9"/>
<rect x="168.848" y="237" width="27.3397" height="64.7981" fill="#233A6C" fill-opacity="0.9"/>
<rect x="211.271" y="223" width="27.3397" height="78.7982" fill="#233A6C" fill-opacity="0.9"/>
<rect x="253.694" y="243" width="27.3397" height="58.7973" fill="#233A6C" fill-opacity="0.9"/>
<rect x="296.118" y="188" width="27.3397" height="113.797" fill="#233A6C" fill-opacity="0.9"/>
<rect x="338.542" y="213" width="27.3397" height="88.7982" fill="#233A6C" fill-opacity="0.9"/>
<path d="M242.03 48.896H244.85V50H240.662V41.66H242.03V48.896ZM245.538 46.664C245.538 46 245.674 45.412 245.946 44.9C246.226 44.388 246.602 43.992 247.074 43.712C247.554 43.424 248.082 43.28 248.658 43.28C249.178 43.28 249.63 43.384 250.014 43.592C250.406 43.792 250.718 44.044 250.95 44.348V43.388H252.33V50H250.95V49.016C250.718 49.328 250.402 49.588 250.002 49.796C249.602 50.004 249.146 50.108 248.634 50.108C248.066 50.108 247.546 49.964 247.074 49.676C246.602 49.38 246.226 48.972 245.946 48.452C245.674 47.924 245.538 47.328 245.538 46.664ZM250.95 46.688C250.95 46.232 250.854 45.836 250.662 45.5C250.478 45.164 250.234 44.908 249.93 44.732C249.626 44.556 249.298 44.468 248.946 44.468C248.594 44.468 248.266 44.556 247.962 44.732C247.658 44.9 247.41 45.152 247.218 45.488C247.034 45.816 246.942 46.208 246.942 46.664C246.942 47.12 247.034 47.52 247.218 47.864C247.41 48.208 247.658 48.472 247.962 48.656C248.274 48.832 248.602 48.92 248.946 48.92C249.298 48.92 249.626 48.832 249.93 48.656C250.234 48.48 250.478 48.224 250.662 47.888C250.854 47.544 250.95 47.144 250.95 46.688ZM256.527 50.108C256.007 50.108 255.539 50.016 255.123 49.832C254.715 49.64 254.391 49.384 254.151 49.064C253.911 48.736 253.783 48.372 253.767 47.972H255.183C255.207 48.252 255.339 48.488 255.579 48.68C255.827 48.864 256.135 48.956 256.503 48.956C256.887 48.956 257.183 48.884 257.391 48.74C257.607 48.588 257.715 48.396 257.715 48.164C257.715 47.916 257.595 47.732 257.355 47.612C257.123 47.492 256.751 47.36 256.239 47.216C255.743 47.08 255.339 46.948 255.027 46.82C254.715 46.692 254.443 46.496 254.211 46.232C253.987 45.968 253.875 45.62 253.875 45.188C253.875 44.836 253.979 44.516 254.187 44.228C254.395 43.932 254.691 43.7 255.075 43.532C255.467 43.364 255.915 43.28 256.419 43.28C257.171 43.28 257.775 43.472 258.231 43.856C258.695 44.232 258.943 44.748 258.975 45.404H257.607C257.583 45.108 257.463 44.872 257.247 44.696C257.031 44.52 256.739 44.432 256.371 44.432C256.011 44.432 255.735 44.5 255.543 44.636C255.351 44.772 255.255 44.952 255.255 45.176C255.255 45.352 255.319 45.5 255.447 45.62C255.575 45.74 255.731 45.836 255.915 45.908C256.099 45.972 256.371 46.056 256.731 46.16C257.211 46.288 257.603 46.42 257.907 46.556C258.219 46.684 258.487 46.876 258.711 47.132C258.935 47.388 259.051 47.728 259.059 48.152C259.059 48.528 258.955 48.864 258.747 49.16C258.539 49.456 258.243 49.688 257.859 49.856C257.483 50.024 257.039 50.108 256.527 50.108ZM262.133 44.504V48.164C262.133 48.412 262.189 48.592 262.301 48.704C262.421 48.808 262.621 48.86 262.901 48.86H263.741V50H262.661C262.045 50 261.573 49.856 261.245 49.568C260.917 49.28 260.753 48.812 260.753 48.164V44.504H259.973V43.388H260.753V41.744H262.133V43.388H263.741V44.504H262.133ZM276.999 43.388L274.947 50H273.507L272.175 45.116L270.843 50H269.403L267.339 43.388H268.731L270.111 48.704L271.515 43.388H272.943L274.287 48.68L275.655 43.388H276.999ZM284.081 46.532C284.081 46.78 284.065 47.004 284.033 47.204H278.981C279.021 47.732 279.217 48.156 279.569 48.476C279.921 48.796 280.353 48.956 280.865 48.956C281.601 48.956 282.121 48.648 282.425 48.032H283.901C283.701 48.64 283.337 49.14 282.809 49.532C282.289 49.916 281.641 50.108 280.865 50.108C280.233 50.108 279.665 49.968 279.161 49.688C278.665 49.4 278.273 49 277.985 48.488C277.705 47.968 277.565 47.368 277.565 46.688C277.565 46.008 277.701 45.412 277.973 44.9C278.253 44.38 278.641 43.98 279.137 43.7C279.641 43.42 280.217 43.28 280.865 43.28C281.489 43.28 282.045 43.416 282.533 43.688C283.021 43.96 283.401 44.344 283.673 44.84C283.945 45.328 284.081 45.892 284.081 46.532ZM282.653 46.1C282.645 45.596 282.465 45.192 282.113 44.888C281.761 44.584 281.325 44.432 280.805 44.432C280.333 44.432 279.929 44.584 279.593 44.888C279.257 45.184 279.057 45.588 278.993 46.1H282.653ZM291.487 46.532C291.487 46.78 291.471 47.004 291.439 47.204H286.387C286.427 47.732 286.623 48.156 286.975 48.476C287.327 48.796 287.759 48.956 288.271 48.956C289.007 48.956 289.527 48.648 289.831 48.032H291.307C291.107 48.64 290.743 49.14 290.215 49.532C289.695 49.916 289.047 50.108 288.271 50.108C287.639 50.108 287.071 49.968 286.567 49.688C286.071 49.4 285.679 49 285.391 48.488C285.111 47.968 284.971 47.368 284.971 46.688C284.971 46.008 285.107 45.412 285.379 44.9C285.659 44.38 286.047 43.98 286.543 43.7C287.047 43.42 287.623 43.28 288.271 43.28C288.895 43.28 289.451 43.416 289.939 43.688C290.427 43.96 290.807 44.344 291.079 44.84C291.351 45.328 291.487 45.892 291.487 46.532ZM290.059 46.1C290.051 45.596 289.871 45.192 289.519 44.888C289.167 44.584 288.731 44.432 288.211 44.432C287.739 44.432 287.335 44.584 286.999 44.888C286.663 45.184 286.463 45.588 286.399 46.1H290.059ZM295.45 46.7L298.498 50H296.65L294.202 47.156V50H292.834V41.12H294.202V46.28L296.602 43.388H298.498L295.45 46.7ZM305.619 52.232C304.835 51.48 304.231 50.524 303.807 49.364C303.391 48.204 303.183 46.96 303.183 45.632C303.183 44.272 303.407 42.988 303.855 41.78C304.311 40.572 304.979 39.576 305.859 38.792H307.275V38.924C306.355 39.772 305.663 40.788 305.199 41.972C304.735 43.156 304.503 44.376 304.503 45.632C304.503 46.84 304.719 48.008 305.151 49.136C305.583 50.264 306.211 51.252 307.035 52.1V52.232H305.619ZM313.866 42.308L310.53 50H309.15L312.522 42.452H308.082V41.288H313.866V42.308ZM317.878 46.664C317.878 46 318.014 45.412 318.286 44.9C318.566 44.388 318.942 43.992 319.414 43.712C319.894 43.424 320.426 43.28 321.01 43.28C321.442 43.28 321.866 43.376 322.282 43.568C322.706 43.752 323.042 44 323.29 44.312V41.12H324.67V50H323.29V49.004C323.066 49.324 322.754 49.588 322.354 49.796C321.962 50.004 321.51 50.108 320.998 50.108C320.422 50.108 319.894 49.964 319.414 49.676C318.942 49.38 318.566 48.972 318.286 48.452C318.014 47.924 317.878 47.328 317.878 46.664ZM323.29 46.688C323.29 46.232 323.194 45.836 323.002 45.5C322.818 45.164 322.574 44.908 322.27 44.732C321.966 44.556 321.638 44.468 321.286 44.468C320.934 44.468 320.606 44.556 320.302 44.732C319.998 44.9 319.75 45.152 319.558 45.488C319.374 45.816 319.282 46.208 319.282 46.664C319.282 47.12 319.374 47.52 319.558 47.864C319.75 48.208 319.998 48.472 320.302 48.656C320.614 48.832 320.942 48.92 321.286 48.92C321.638 48.92 321.966 48.832 322.27 48.656C322.574 48.48 322.818 48.224 323.002 47.888C323.194 47.544 323.29 47.144 323.29 46.688ZM326.01 46.664C326.01 46 326.146 45.412 326.418 44.9C326.698 44.388 327.074 43.992 327.546 43.712C328.026 43.424 328.554 43.28 329.13 43.28C329.65 43.28 330.102 43.384 330.486 43.592C330.878 43.792 331.19 44.044 331.422 44.348V43.388H332.802V50H331.422V49.016C331.19 49.328 330.874 49.588 330.474 49.796C330.074 50.004 329.618 50.108 329.106 50.108C328.538 50.108 328.018 49.964 327.546 49.676C327.074 49.38 326.698 48.972 326.418 48.452C326.146 47.924 326.01 47.328 326.01 46.664ZM331.422 46.688C331.422 46.232 331.326 45.836 331.134 45.5C330.95 45.164 330.706 44.908 330.402 44.732C330.098 44.556 329.77 44.468 329.418 44.468C329.066 44.468 328.738 44.556 328.434 44.732C328.13 44.9 327.882 45.152 327.69 45.488C327.506 45.816 327.414 46.208 327.414 46.664C327.414 47.12 327.506 47.52 327.69 47.864C327.882 48.208 328.13 48.472 328.434 48.656C328.746 48.832 329.074 48.92 329.418 48.92C329.77 48.92 330.098 48.832 330.402 48.656C330.706 48.48 330.95 48.224 331.134 47.888C331.326 47.544 331.422 47.144 331.422 46.688ZM340.551 43.388L336.495 53.108H335.079L336.423 49.892L333.819 43.388H335.343L337.203 48.428L339.135 43.388H340.551ZM343.984 50.108C343.464 50.108 342.996 50.016 342.58 49.832C342.172 49.64 341.848 49.384 341.608 49.064C341.368 48.736 341.24 48.372 341.224 47.972H342.64C342.664 48.252 342.796 48.488 343.036 48.68C343.284 48.864 343.592 48.956 343.96 48.956C344.344 48.956 344.64 48.884 344.848 48.74C345.064 48.588 345.172 48.396 345.172 48.164C345.172 47.916 345.052 47.732 344.812 47.612C344.58 47.492 344.208 47.36 343.696 47.216C343.2 47.08 342.796 46.948 342.484 46.82C342.172 46.692 341.9 46.496 341.668 46.232C341.444 45.968 341.332 45.62 341.332 45.188C341.332 44.836 341.436 44.516 341.644 44.228C341.852 43.932 342.148 43.7 342.532 43.532C342.924 43.364 343.372 43.28 343.876 43.28C344.628 43.28 345.232 43.472 345.688 43.856C346.152 44.232 346.4 44.748 346.432 45.404H345.064C345.04 45.108 344.92 44.872 344.704 44.696C344.488 44.52 344.196 44.432 343.828 44.432C343.468 44.432 343.192 44.5 343 44.636C342.808 44.772 342.712 44.952 342.712 45.176C342.712 45.352 342.776 45.5 342.904 45.62C343.032 45.74 343.188 45.836 343.372 45.908C343.556 45.972 343.828 46.056 344.188 46.16C344.668 46.288 345.06 46.42 345.364 46.556C345.676 46.684 345.944 46.876 346.168 47.132C346.392 47.388 346.508 47.728 346.516 48.152C346.516 48.528 346.412 48.864 346.204 49.16C345.996 49.456 345.7 49.688 345.316 49.856C344.94 50.024 344.496 50.108 343.984 50.108ZM347.658 52.232V52.1C348.482 51.252 349.11 50.264 349.542 49.136C349.974 48.008 350.19 46.84 350.19 45.632C350.19 44.376 349.958 43.156 349.494 41.972C349.03 40.788 348.338 39.772 347.418 38.924V38.792H348.834C349.714 39.576 350.378 40.572 350.826 41.78C351.282 42.988 351.51 44.272 351.51 45.632C351.51 46.96 351.298 48.204 350.874 49.364C350.458 50.524 349.858 51.48 349.074 52.232H347.658Z" fill="#595959"/>
<rect x="235.5" y="32.5" width="143" height="28" stroke="#595959"/>
<path d="M360 44L366 50L372 44" stroke="#595959" stroke-width="1.5" stroke-linecap="round" stroke-linejoin="round"/>
<path d="M51.5337 49.4009C51.607 49.8959 51.3137 50.6109 50.7331 51.222C50.5559 51.4053 50.3725 51.5642 50.1831 51.6864" fill="white"/>
<path d="M48.9792 51.0142C48.9304 51.3686 48.7592 51.6925 48.4904 51.9247L48.9792 51.0142Z" fill="white"/>
<path d="M60.0453 32.7652C60.6009 32.2096 60.6009 31.3088 60.0453 30.7532C59.4897 30.1977 58.5889 30.1977 58.0333 30.7533C57.4777 31.3089 57.4777 32.2097 58.0333 32.7652C58.5889 33.3208 59.4897 33.3208 60.0453 32.7652Z" fill="#CC3174"/>
<path d="M70.8304 43.2823C71.386 42.7267 71.3859 41.8259 70.8304 41.2703C70.2748 40.7148 69.374 40.7148 68.8184 41.2704C68.2628 41.826 68.2628 42.7268 68.8184 43.2823C69.374 43.8379 70.2748 43.8379 70.8304 43.2823Z" fill="#CC3174"/>
<path d="M53.8676 38.9424C54.4232 38.3869 54.4232 37.4861 53.8676 36.9305C53.312 36.3749 52.4112 36.3749 51.8556 36.9305C51.3001 37.4861 51.3001 38.3869 51.8557 38.9425C52.4113 39.4981 53.312 39.498 53.8676 38.9424Z" fill="#CC3174"/>
<path d="M64.416 49.4913C64.9716 48.9357 64.9716 48.0349 64.416 47.4793C63.8604 46.9237 62.9596 46.9238 62.404 47.4794C61.8485 48.035 61.8485 48.9357 62.4041 49.4913C62.9597 50.0469 63.8604 50.0469 64.416 49.4913Z" fill="#CC3174"/>
<path d="M46.5433 51.6979C46.7658 51.9203 47.0646 52.015 47.3525 51.9832C47.3525 51.9832 52.7926 52.015 55.8848 49.0487C55.9239 49.0145 55.9606 48.9778 55.9972 48.9411C56.2636 48.6748 56.4749 48.3586 56.619 48.0105C56.7632 47.6625 56.8374 47.2895 56.8374 46.9129C56.8374 46.5362 56.7632 46.1632 56.619 45.8152C56.4749 45.4671 56.2636 45.1509 55.9972 44.8846C55.7309 44.6182 55.4147 44.4069 55.0667 44.2628C54.7186 44.1186 54.3456 44.0444 53.969 44.0444C53.5923 44.0444 53.2193 44.1186 52.8713 44.2628C52.5232 44.4069 52.207 44.6182 51.9407 44.8846L46.5427 50.2825C46.3551 50.4702 46.2497 50.7248 46.2497 50.9902C46.2497 51.2556 46.3551 51.5101 46.5427 51.6979H46.5433Z" stroke="#CC3174" stroke-width="2" stroke-miterlimit="10" stroke-linecap="round"/>
<path d="M48.5332 51.9184L48.5276 51.9121" stroke="#CC3174" stroke-width="2" stroke-miterlimit="10" stroke-linecap="round"/>
<path d="M51.5337 49.4009C51.607 49.8959 51.3137 50.6109 50.7331 51.222C50.5559 51.4053 50.3725 51.5642 50.1831 51.6864" stroke="#CC3174" stroke-width="2" stroke-miterlimit="10" stroke-linecap="round"/>
<path d="M48.9792 51.0146C48.9304 51.3691 48.7592 51.693 48.4904 51.9252" stroke="#CC3174" stroke-width="2" stroke-miterlimit="10" stroke-linecap="round"/>
<path d="M63.0892 49.6077L51.7146 38.2331C51.6 38.1185 51.5356 37.9631 51.5356 37.801C51.5356 37.639 51.6 37.4836 51.7146 37.369L58.5853 30.4983C58.6999 30.3837 58.8553 30.3193 59.0173 30.3193C59.1794 30.3193 59.3348 30.3837 59.4494 30.4983L70.824 41.8729C70.9386 41.9875 71.0029 42.1429 71.0029 42.3049C71.0029 42.467 70.9386 42.6224 70.824 42.737L63.9533 49.6077C63.8387 49.7223 63.6833 49.7866 63.5212 49.7866C63.3592 49.7866 63.2038 49.7223 63.0892 49.6077V49.6077Z" stroke="#CC3174" stroke-width="2" stroke-miterlimit="10" stroke-linecap="round" stroke-linejoin="round"/>
<path d="M66.982 38.5062L59.8118 45.6764C59.7868 45.7009 59.7582 45.7213 59.7268 45.7369C59.6612 45.7671 59.5877 45.7763 59.5166 45.7632C59.4455 45.75 59.3802 45.7153 59.3296 45.6636L55.5267 41.86C55.4749 41.8095 55.4401 41.7442 55.427 41.6731C55.4138 41.6019 55.423 41.5285 55.4533 41.4628C55.4688 41.4315 55.489 41.4029 55.5132 41.3779L62.6834 34.2077C62.7086 34.1834 62.7375 34.1632 62.769 34.1478C62.8346 34.1176 62.9081 34.1084 62.9792 34.1216C63.0503 34.1347 63.1156 34.1695 63.1662 34.2211L66.9685 38.0241C67.0203 38.0746 67.0551 38.1399 67.0682 38.211C67.0814 38.2822 67.0721 38.3556 67.0418 38.4213C67.0265 38.4528 67.0063 38.4817 66.982 38.5069V38.5062Z" stroke="#CC3174" stroke-width="2" stroke-miterlimit="10" stroke-linecap="round" stroke-linejoin="round"/>
<path d="M72.947 25.2934C73.1695 25.5165 73.2642 25.8153 73.2324 26.1031C73.2324 26.1031 73.2636 31.5432 70.2972 34.6355C70.2636 34.6746 70.227 34.7112 70.1903 34.7479C69.6524 35.2858 68.9229 35.5881 68.1622 35.5881C67.4015 35.5882 66.672 35.2861 66.1341 34.7482C65.5961 34.2104 65.2939 33.4808 65.2938 32.7201C65.2938 31.9595 65.5959 31.2299 66.1337 30.692L71.5317 25.294C71.7194 25.1064 71.9739 25.001 72.2394 25.001C72.5048 25.001 72.7593 25.1064 72.947 25.294V25.2934Z" stroke="#CC3174" stroke-width="2" stroke-miterlimit="10" stroke-linecap="round"/>
<path d="M73.1677 27.2846L73.1615 27.2783" stroke="#CC3174" stroke-width="2" stroke-miterlimit="10" stroke-linecap="round"/>
<path d="M70.6498 30.2851C71.1448 30.3585 71.8598 30.0651 72.471 29.4846C72.6543 29.3073 72.8132 29.124 72.9354 28.9346" stroke="#CC3174" stroke-width="2" stroke-miterlimit="10" stroke-linecap="round"/>
<path d="M72.2632 27.7306C72.6176 27.6817 72.9415 27.5106 73.1737 27.2417" stroke="#CC3174" stroke-width="2" stroke-miterlimit="10" stroke-linecap="round"/>
<defs>
<filter id="filter0_bi" x="-4" y="-4" width="438" height="340" filterUnits="userSpaceOnUse" color-interpolation-filters="sRGB">
<feFlood flood-opacity="0" result="BackgroundImageFix"/>
<feGaussianBlur in="BackgroundImage" stdDeviation="2"/>
<feComposite in2="SourceAlpha" operator="in" result="effect1_backgroundBlur"/>
<feBlend mode="normal" in="SourceGraphic" in2="effect1_backgroundBlur" result="shape"/>
<feColorMatrix in="SourceAlpha" type="matrix" values="0 0 0 0 0 0 0 0 0 0 0 0 0 0 0 0 0 0 127 0" result="hardAlpha"/>
<feOffset dy="4"/>
<feGaussianBlur stdDeviation="2"/>
<feComposite in2="hardAlpha" operator="arithmetic" k2="-1" k3="1"/>
<feColorMatrix type="matrix" values="0 0 0 0 0 0 0 0 0 0 0 0 0 0 0 0 0 0 0.25 0"/>
<feBlend mode="normal" in2="shape" result="effect2_innerShadow"/>
</filter>
</defs>
</svg>
