<svg width="430" height="332" viewBox="0 0 430 332" fill="none" xmlns="http://www.w3.org/2000/svg">
<g opacity="0.7" filter="url(#filter0_bi)">
<rect width="430" height="332" fill="#F7F7F7"/>
</g>
<line x1="81" y1="301.625" x2="388" y2="301.625" stroke="#595959" stroke-opacity="0.5" stroke-width="0.75063"/>
<line x1="82" y1="266.625" x2="389" y2="266.625" stroke="#595959" stroke-opacity="0.5" stroke-width="0.75063"/>
<line x1="83" y1="231.625" x2="389" y2="231.625" stroke="#595959" stroke-opacity="0.5" stroke-width="0.75063"/>
<line x1="83" y1="196.625" x2="390" y2="196.625" stroke="#595959" stroke-opacity="0.5" stroke-width="0.75063"/>
<line x1="83" y1="161.625" x2="390" y2="161.625" stroke="#595959" stroke-opacity="0.5" stroke-width="0.75063"/>
<line x1="81" y1="126.625" x2="388" y2="126.625" stroke="#595959" stroke-opacity="0.5" stroke-width="0.75063"/>
<path d="M57.7417 269H56.4419V262.721L54.5244 263.376V262.275L57.5752 261.153H57.7417V269ZM65.5566 265.708C65.5566 266.832 65.3454 267.681 64.9229 268.253C64.5039 268.823 63.8647 269.107 63.0054 269.107C62.1603 269.107 61.5229 268.83 61.0933 268.275C60.6672 267.716 60.4487 266.891 60.438 265.799V264.445C60.438 263.321 60.6475 262.478 61.0664 261.916C61.4889 261.353 62.1317 261.072 62.9946 261.072C63.8504 261.072 64.4878 261.346 64.9067 261.894C65.3293 262.442 65.5459 263.262 65.5566 264.354V265.708ZM64.2515 264.247C64.2515 263.513 64.1512 262.975 63.9507 262.635C63.7502 262.292 63.4315 262.12 62.9946 262.12C62.5685 262.12 62.2552 262.283 62.0547 262.608C61.8542 262.931 61.7485 263.436 61.7378 264.123V265.896C61.7378 266.626 61.8398 267.17 62.0439 267.528C62.248 267.886 62.5685 268.065 63.0054 268.065C63.4243 268.065 63.734 267.901 63.9346 267.571C64.1351 267.238 64.2407 266.719 64.2515 266.014V264.247ZM71.8086 265.708C71.8086 266.832 71.5973 267.681 71.1748 268.253C70.7559 268.823 70.1167 269.107 69.2573 269.107C68.4123 269.107 67.7749 268.83 67.3452 268.275C66.9191 267.716 66.7007 266.891 66.6899 265.799V264.445C66.6899 263.321 66.8994 262.478 67.3184 261.916C67.7409 261.353 68.3836 261.072 69.2466 261.072C70.1024 261.072 70.7397 261.346 71.1587 261.894C71.5812 262.442 71.7979 263.262 71.8086 264.354V265.708ZM70.5034 264.247C70.5034 263.513 70.4032 262.975 70.2026 262.635C70.0021 262.292 69.6834 262.12 69.2466 262.12C68.8205 262.12 68.5072 262.283 68.3066 262.608C68.1061 262.931 68.0005 263.436 67.9897 264.123V265.896C67.9897 266.626 68.0918 267.17 68.2959 267.528C68.5 267.886 68.8205 268.065 69.2573 268.065C69.6763 268.065 69.986 267.901 70.1865 267.571C70.387 267.238 70.4927 266.719 70.5034 266.014V264.247Z" fill="#6C6C6C"/>
<path d="M64.5566 300.708C64.5566 301.832 64.3454 302.681 63.9229 303.253C63.5039 303.823 62.8647 304.107 62.0054 304.107C61.1603 304.107 60.5229 303.83 60.0933 303.275C59.6672 302.716 59.4487 301.891 59.438 300.799V299.445C59.438 298.321 59.6475 297.478 60.0664 296.916C60.4889 296.353 61.1317 296.072 61.9946 296.072C62.8504 296.072 63.4878 296.346 63.9067 296.894C64.3293 297.442 64.5459 298.262 64.5566 299.354V300.708ZM63.2515 299.247C63.2515 298.513 63.1512 297.975 62.9507 297.635C62.7502 297.292 62.4315 297.12 61.9946 297.12C61.5685 297.12 61.2552 297.283 61.0547 297.608C60.8542 297.931 60.7485 298.436 60.7378 299.123V300.896C60.7378 301.626 60.8398 302.17 61.0439 302.528C61.248 302.886 61.5685 303.065 62.0054 303.065C62.4243 303.065 62.734 302.901 62.9346 302.571C63.1351 302.238 63.2407 301.719 63.2515 301.014V299.247Z" fill="#6C6C6C"/>
<path d="M58.4658 234H53.2075V233.103L55.8125 230.262C56.1885 229.843 56.4552 229.494 56.6128 229.214C56.7739 228.931 56.8545 228.649 56.8545 228.366C56.8545 227.993 56.7489 227.693 56.5376 227.463C56.3299 227.234 56.0488 227.12 55.6943 227.12C55.2718 227.12 54.9442 227.249 54.7114 227.506C54.4787 227.764 54.3623 228.117 54.3623 228.564H53.0571C53.0571 228.088 53.1646 227.66 53.3794 227.281C53.5978 226.898 53.9076 226.6 54.3086 226.389C54.7132 226.178 55.1787 226.072 55.7051 226.072C56.4642 226.072 57.0622 226.264 57.499 226.647C57.9395 227.027 58.1597 227.553 58.1597 228.226C58.1597 228.616 58.0487 229.026 57.8267 229.456C57.6082 229.882 57.2484 230.367 56.7471 230.912L54.835 232.958H58.4658V234ZM64.5566 230.708C64.5566 231.832 64.3454 232.681 63.9229 233.253C63.5039 233.823 62.8647 234.107 62.0054 234.107C61.1603 234.107 60.5229 233.83 60.0933 233.275C59.6672 232.716 59.4487 231.891 59.438 230.799V229.445C59.438 228.321 59.6475 227.478 60.0664 226.916C60.4889 226.353 61.1317 226.072 61.9946 226.072C62.8504 226.072 63.4878 226.346 63.9067 226.894C64.3293 227.442 64.5459 228.262 64.5566 229.354V230.708ZM63.2515 229.247C63.2515 228.513 63.1512 227.975 62.9507 227.635C62.7502 227.292 62.4315 227.12 61.9946 227.12C61.5685 227.12 61.2552 227.283 61.0547 227.608C60.8542 227.931 60.7485 228.436 60.7378 229.123V230.896C60.7378 231.626 60.8398 232.17 61.0439 232.528C61.248 232.886 61.5685 233.065 62.0054 233.065C62.4243 233.065 62.734 232.901 62.9346 232.571C63.1351 232.238 63.2407 231.719 63.2515 231.014V229.247ZM70.8086 230.708C70.8086 231.832 70.5973 232.681 70.1748 233.253C69.7559 233.823 69.1167 234.107 68.2573 234.107C67.4123 234.107 66.7749 233.83 66.3452 233.275C65.9191 232.716 65.7007 231.891 65.6899 230.799V229.445C65.6899 228.321 65.8994 227.478 66.3184 226.916C66.7409 226.353 67.3836 226.072 68.2466 226.072C69.1024 226.072 69.7397 226.346 70.1587 226.894C70.5812 227.442 70.7979 228.262 70.8086 229.354V230.708ZM69.5034 229.247C69.5034 228.513 69.4032 227.975 69.2026 227.635C69.0021 227.292 68.6834 227.12 68.2466 227.12C67.8205 227.12 67.5072 227.283 67.3066 227.608C67.1061 227.931 67.0005 228.436 66.9897 229.123V230.896C66.9897 231.626 67.0918 232.17 67.2959 232.528C67.5 232.886 67.8205 233.065 68.2573 233.065C68.6763 233.065 68.986 232.901 69.1865 232.571C69.387 232.238 69.4927 231.719 69.5034 231.014V229.247Z" fill="#6C6C6C"/>
<path d="M54.2168 194.494H55.0117C55.4128 194.49 55.7297 194.386 55.9624 194.182C56.1987 193.978 56.3169 193.683 56.3169 193.296C56.3169 192.924 56.2184 192.635 56.0215 192.431C55.8281 192.223 55.5309 192.12 55.1299 192.12C54.779 192.12 54.4907 192.222 54.2651 192.426C54.0396 192.626 53.9268 192.889 53.9268 193.215H52.6216C52.6216 192.814 52.7272 192.449 52.9385 192.12C53.1533 191.79 53.4505 191.534 53.8301 191.352C54.2132 191.165 54.6411 191.072 55.1138 191.072C55.8944 191.072 56.5067 191.269 56.9507 191.663C57.3983 192.053 57.6221 192.598 57.6221 193.296C57.6221 193.647 57.5093 193.978 57.2837 194.29C57.0617 194.597 56.7734 194.83 56.4189 194.988C56.8486 195.135 57.1745 195.366 57.3965 195.681C57.6221 195.996 57.7349 196.372 57.7349 196.809C57.7349 197.51 57.4932 198.069 57.0098 198.484C56.5299 198.9 55.8979 199.107 55.1138 199.107C54.3618 199.107 53.7459 198.907 53.2661 198.506C52.7863 198.105 52.5464 197.571 52.5464 196.905H53.8516C53.8516 197.249 53.9661 197.528 54.1953 197.743C54.4281 197.958 54.7396 198.065 55.1299 198.065C55.5345 198.065 55.8532 197.958 56.0859 197.743C56.3187 197.528 56.4351 197.217 56.4351 196.809C56.4351 196.397 56.3133 196.08 56.0698 195.858C55.8263 195.636 55.4647 195.525 54.9849 195.525H54.2168V194.494ZM64.0566 195.708C64.0566 196.832 63.8454 197.681 63.4229 198.253C63.0039 198.823 62.3647 199.107 61.5054 199.107C60.6603 199.107 60.0229 198.83 59.5933 198.275C59.1672 197.716 58.9487 196.891 58.938 195.799V194.445C58.938 193.321 59.1475 192.478 59.5664 191.916C59.9889 191.353 60.6317 191.072 61.4946 191.072C62.3504 191.072 62.9878 191.346 63.4067 191.894C63.8293 192.442 64.0459 193.262 64.0566 194.354V195.708ZM62.7515 194.247C62.7515 193.513 62.6512 192.975 62.4507 192.635C62.2502 192.292 61.9315 192.12 61.4946 192.12C61.0685 192.12 60.7552 192.283 60.5547 192.608C60.3542 192.931 60.2485 193.436 60.2378 194.123V195.896C60.2378 196.626 60.3398 197.17 60.5439 197.528C60.748 197.886 61.0685 198.065 61.5054 198.065C61.9243 198.065 62.234 197.901 62.4346 197.571C62.6351 197.238 62.7407 196.719 62.7515 196.014V194.247ZM70.3086 195.708C70.3086 196.832 70.0973 197.681 69.6748 198.253C69.2559 198.823 68.6167 199.107 67.7573 199.107C66.9123 199.107 66.2749 198.83 65.8452 198.275C65.4191 197.716 65.2007 196.891 65.1899 195.799V194.445C65.1899 193.321 65.3994 192.478 65.8184 191.916C66.2409 191.353 66.8836 191.072 67.7466 191.072C68.6024 191.072 69.2397 191.346 69.6587 191.894C70.0812 192.442 70.2979 193.262 70.3086 194.354V195.708ZM69.0034 194.247C69.0034 193.513 68.9032 192.975 68.7026 192.635C68.5021 192.292 68.1834 192.12 67.7466 192.12C67.3205 192.12 67.0072 192.283 66.8066 192.608C66.6061 192.931 66.5005 193.436 66.4897 194.123V195.896C66.4897 196.626 66.5918 197.17 66.7959 197.528C67 197.886 67.3205 198.065 67.7573 198.065C68.1763 198.065 68.486 197.901 68.6865 197.571C68.887 197.238 68.9927 196.719 69.0034 196.014V194.247Z" fill="#6C6C6C"/>
<path d="M57.1226 161.212H58.0947V162.26H57.1226V164H55.8174V162.26H52.439L52.4014 161.465L55.7744 156.18H57.1226V161.212ZM53.771 161.212H55.8174V157.947L55.7207 158.119L53.771 161.212ZM64.0566 160.708C64.0566 161.832 63.8454 162.681 63.4229 163.253C63.0039 163.823 62.3647 164.107 61.5054 164.107C60.6603 164.107 60.0229 163.83 59.5933 163.275C59.1672 162.716 58.9487 161.891 58.938 160.799V159.445C58.938 158.321 59.1475 157.478 59.5664 156.916C59.9889 156.353 60.6317 156.072 61.4946 156.072C62.3504 156.072 62.9878 156.346 63.4067 156.894C63.8293 157.442 64.0459 158.262 64.0566 159.354V160.708ZM62.7515 159.247C62.7515 158.513 62.6512 157.975 62.4507 157.635C62.2502 157.292 61.9315 157.12 61.4946 157.12C61.0685 157.12 60.7552 157.283 60.5547 157.608C60.3542 157.931 60.2485 158.436 60.2378 159.123V160.896C60.2378 161.626 60.3398 162.17 60.5439 162.528C60.748 162.886 61.0685 163.065 61.5054 163.065C61.9243 163.065 62.234 162.901 62.4346 162.571C62.6351 162.238 62.7407 161.719 62.7515 161.014V159.247ZM70.3086 160.708C70.3086 161.832 70.0973 162.681 69.6748 163.253C69.2559 163.823 68.6167 164.107 67.7573 164.107C66.9123 164.107 66.2749 163.83 65.8452 163.275C65.4191 162.716 65.2007 161.891 65.1899 160.799V159.445C65.1899 158.321 65.3994 157.478 65.8184 156.916C66.2409 156.353 66.8836 156.072 67.7466 156.072C68.6024 156.072 69.2397 156.346 69.6587 156.894C70.0812 157.442 70.2979 158.262 70.3086 159.354V160.708ZM69.0034 159.247C69.0034 158.513 68.9032 157.975 68.7026 157.635C68.5021 157.292 68.1834 157.12 67.7466 157.12C67.3205 157.12 67.0072 157.283 66.8066 157.608C66.6061 157.931 66.5005 158.436 66.4897 159.123V160.896C66.4897 161.626 66.5918 162.17 66.7959 162.528C67 162.886 67.3205 163.065 67.7573 163.065C68.1763 163.065 68.486 162.901 68.6865 162.571C68.887 162.238 68.9927 161.719 69.0034 161.014V159.247Z" fill="#6C6C6C"/>
<path d="M53.7185 125.122L54.1428 121.18H58.343V122.308H55.2277L55.0129 124.177C55.3745 123.969 55.7828 123.865 56.2375 123.865C56.9823 123.865 57.5606 124.103 57.9724 124.58C58.3877 125.056 58.5954 125.697 58.5954 126.502C58.5954 127.297 58.3662 127.931 57.9079 128.404C57.4496 128.873 56.8212 129.107 56.0227 129.107C55.3065 129.107 54.7121 128.905 54.2395 128.5C53.7704 128.092 53.5162 127.555 53.4768 126.889H54.739C54.7891 127.269 54.9252 127.561 55.1472 127.765C55.3692 127.965 55.6592 128.065 56.0173 128.065C56.4183 128.065 56.7299 127.922 56.9519 127.636C57.1774 127.349 57.2902 126.959 57.2902 126.465C57.2902 125.989 57.1667 125.613 56.9196 125.337C56.6726 125.058 56.3324 124.918 55.8991 124.918C55.6628 124.918 55.4623 124.95 55.2976 125.015C55.1329 125.076 54.9538 125.197 54.7605 125.38L53.7185 125.122ZM59.9704 125.122L60.3947 121.18H64.5949V122.308H61.4797L61.2648 124.177C61.6265 123.969 62.0347 123.865 62.4895 123.865C63.2342 123.865 63.8125 124.103 64.2243 124.58C64.6397 125.056 64.8474 125.697 64.8474 126.502C64.8474 127.297 64.6182 127.931 64.1599 128.404C63.7015 128.873 63.0731 129.107 62.2746 129.107C61.5585 129.107 60.9641 128.905 60.4914 128.5C60.0223 128.092 59.7681 127.555 59.7287 126.889H60.9909C61.0411 127.269 61.1771 127.561 61.3991 127.765C61.6211 127.965 61.9112 128.065 62.2692 128.065C62.6703 128.065 62.9818 127.922 63.2038 127.636C63.4294 127.349 63.5422 126.959 63.5422 126.465C63.5422 125.989 63.4187 125.613 63.1716 125.337C62.9245 125.058 62.5843 124.918 62.1511 124.918C61.9148 124.918 61.7142 124.95 61.5495 125.015C61.3848 125.076 61.2058 125.197 61.0124 125.38L59.9704 125.122ZM70.9704 125.708C70.9704 126.832 70.7592 127.681 70.3366 128.253C69.9177 128.823 69.2785 129.107 68.4191 129.107C67.5741 129.107 66.9367 128.83 66.507 128.275C66.0809 127.716 65.8625 126.891 65.8518 125.799V124.445C65.8518 123.321 66.0612 122.478 66.4802 121.916C66.9027 121.353 67.5454 121.072 68.4084 121.072C69.2642 121.072 69.9016 121.346 70.3205 121.894C70.743 122.442 70.9597 123.262 70.9704 124.354V125.708ZM69.6652 124.247C69.6652 123.513 69.565 122.975 69.3645 122.635C69.1639 122.292 68.8453 122.12 68.4084 122.12C67.9823 122.12 67.669 122.283 67.4685 122.608C67.2679 122.931 67.1623 123.436 67.1516 124.123V125.896C67.1516 126.626 67.2536 127.17 67.4577 127.528C67.6618 127.886 67.9823 128.065 68.4191 128.065C68.8381 128.065 69.1478 127.901 69.3483 127.571C69.5489 127.238 69.6545 126.719 69.6652 126.014V124.247Z" fill="#6C6C6C"/>
<rect x="137" y="293" width="28" height="9" fill="#D412B5"/>
<rect x="95" y="279" width="27" height="23" fill="#233A6C" fill-opacity="0.9"/>
<rect x="179.848" y="237" width="27.3397" height="64.7981" fill="#233A6C" fill-opacity="0.9"/>
<rect x="222.271" y="223" width="27.3397" height="78.7982" fill="#233A6C" fill-opacity="0.9"/>
<rect x="264.694" y="243" width="27.3397" height="58.7973" fill="#233A6C" fill-opacity="0.9"/>
<rect x="307.118" y="188" width="27.3397" height="113.797" fill="#233A6C" fill-opacity="0.9"/>
<rect x="349.542" y="213" width="27.3397" height="88.7982" fill="#233A6C" fill-opacity="0.9"/>
<circle cx="72.5" cy="38.5" r="23.5" fill="#F5BBFE"/>
<path d="M106.002 40.856C104.338 40.024 103.506 38.712 103.506 36.92C103.506 36.056 103.722 35.264 104.154 34.544C104.586 33.824 105.234 33.256 106.098 32.84C106.962 32.408 108.018 32.192 109.266 32.192C110.498 32.192 111.546 32.408 112.41 32.84C113.29 33.256 113.946 33.824 114.378 34.544C114.81 35.264 115.026 36.056 115.026 36.92C115.026 37.816 114.794 38.608 114.33 39.296C113.882 39.968 113.282 40.488 112.53 40.856C113.442 41.192 114.162 41.744 114.69 42.512C115.218 43.264 115.482 44.152 115.482 45.176C115.482 46.216 115.218 47.136 114.69 47.936C114.162 48.736 113.426 49.352 112.482 49.784C111.538 50.216 110.466 50.432 109.266 50.432C108.066 50.432 106.994 50.216 106.05 49.784C105.122 49.352 104.394 48.736 103.866 47.936C103.338 47.136 103.074 46.216 103.074 45.176C103.074 44.136 103.338 43.24 103.866 42.488C104.394 41.736 105.106 41.192 106.002 40.856ZM112.41 37.256C112.41 36.36 112.13 35.672 111.57 35.192C111.01 34.712 110.242 34.472 109.266 34.472C108.306 34.472 107.546 34.712 106.986 35.192C106.426 35.672 106.146 36.368 106.146 37.28C106.146 38.08 106.434 38.736 107.01 39.248C107.602 39.744 108.354 39.992 109.266 39.992C110.178 39.992 110.93 39.736 111.522 39.224C112.114 38.712 112.41 38.056 112.41 37.256ZM109.266 42.056C108.21 42.056 107.346 42.32 106.674 42.848C106.018 43.36 105.69 44.104 105.69 45.08C105.69 45.992 106.01 46.736 106.65 47.312C107.29 47.872 108.162 48.152 109.266 48.152C110.354 48.152 111.21 47.864 111.834 47.288C112.474 46.712 112.794 45.976 112.794 45.08C112.794 44.12 112.466 43.376 111.81 42.848C111.17 42.32 110.322 42.056 109.266 42.056ZM118.355 41.024C118.355 38.256 118.819 36.096 119.747 34.544C120.691 32.976 122.307 32.192 124.595 32.192C126.883 32.192 128.491 32.976 129.419 34.544C130.363 36.096 130.835 38.256 130.835 41.024C130.835 43.824 130.363 46.016 129.419 47.6C128.491 49.168 126.883 49.952 124.595 49.952C122.307 49.952 120.691 49.168 119.747 47.6C118.819 46.016 118.355 43.824 118.355 41.024ZM128.147 41.024C128.147 39.728 128.059 38.632 127.883 37.736C127.723 36.84 127.387 36.112 126.875 35.552C126.363 34.976 125.603 34.688 124.595 34.688C123.587 34.688 122.827 34.976 122.315 35.552C121.803 36.112 121.459 36.84 121.283 37.736C121.123 38.632 121.043 39.728 121.043 41.024C121.043 42.368 121.123 43.496 121.283 44.408C121.443 45.32 121.779 46.056 122.291 46.616C122.819 47.176 123.587 47.456 124.595 47.456C125.603 47.456 126.363 47.176 126.875 46.616C127.403 46.056 127.747 45.32 127.907 44.408C128.067 43.496 128.147 42.368 128.147 41.024ZM136.682 40.856C135.018 40.024 134.186 38.712 134.186 36.92C134.186 36.056 134.402 35.264 134.834 34.544C135.266 33.824 135.914 33.256 136.778 32.84C137.642 32.408 138.698 32.192 139.946 32.192C141.178 32.192 142.226 32.408 143.09 32.84C143.97 33.256 144.626 33.824 145.058 34.544C145.49 35.264 145.706 36.056 145.706 36.92C145.706 37.816 145.474 38.608 145.01 39.296C144.562 39.968 143.962 40.488 143.21 40.856C144.122 41.192 144.842 41.744 145.37 42.512C145.898 43.264 146.162 44.152 146.162 45.176C146.162 46.216 145.898 47.136 145.37 47.936C144.842 48.736 144.106 49.352 143.162 49.784C142.218 50.216 141.146 50.432 139.946 50.432C138.746 50.432 137.674 50.216 136.73 49.784C135.802 49.352 135.074 48.736 134.546 47.936C134.018 47.136 133.754 46.216 133.754 45.176C133.754 44.136 134.018 43.24 134.546 42.488C135.074 41.736 135.786 41.192 136.682 40.856ZM143.09 37.256C143.09 36.36 142.81 35.672 142.25 35.192C141.69 34.712 140.922 34.472 139.946 34.472C138.986 34.472 138.226 34.712 137.666 35.192C137.106 35.672 136.826 36.368 136.826 37.28C136.826 38.08 137.114 38.736 137.69 39.248C138.282 39.744 139.034 39.992 139.946 39.992C140.858 39.992 141.61 39.736 142.202 39.224C142.794 38.712 143.09 38.056 143.09 37.256ZM139.946 42.056C138.89 42.056 138.026 42.32 137.354 42.848C136.698 43.36 136.37 44.104 136.37 45.08C136.37 45.992 136.69 46.736 137.33 47.312C137.97 47.872 138.842 48.152 139.946 48.152C141.034 48.152 141.89 47.864 142.514 47.288C143.154 46.712 143.474 45.976 143.474 45.08C143.474 44.12 143.146 43.376 142.49 42.848C141.85 42.32 141.002 42.056 139.946 42.056ZM152.443 45.248C152.603 46.048 152.947 46.656 153.475 47.072C154.003 47.488 154.715 47.696 155.611 47.696C156.747 47.696 157.579 47.248 158.107 46.352C158.635 45.456 158.899 43.928 158.899 41.768C158.515 42.312 157.971 42.736 157.267 43.04C156.579 43.328 155.827 43.472 155.011 43.472C153.971 43.472 153.027 43.264 152.179 42.848C151.331 42.416 150.659 41.784 150.163 40.952C149.683 40.104 149.443 39.08 149.443 37.88C149.443 36.12 149.955 34.72 150.979 33.68C152.019 32.624 153.443 32.096 155.251 32.096C157.427 32.096 158.971 32.824 159.883 34.28C160.811 35.72 161.275 37.936 161.275 40.928C161.275 42.992 161.099 44.68 160.747 45.992C160.411 47.304 159.819 48.296 158.971 48.968C158.123 49.64 156.947 49.976 155.443 49.976C153.731 49.976 152.411 49.528 151.483 48.632C150.555 47.736 150.035 46.608 149.923 45.248H152.443ZM155.491 41.168C156.451 41.168 157.203 40.872 157.747 40.28C158.307 39.672 158.587 38.872 158.587 37.88C158.587 36.776 158.291 35.92 157.699 35.312C157.123 34.688 156.331 34.376 155.323 34.376C154.315 34.376 153.515 34.696 152.923 35.336C152.347 35.96 152.059 36.784 152.059 37.808C152.059 38.784 152.339 39.592 152.899 40.232C153.475 40.856 154.339 41.168 155.491 41.168Z" fill="#233A6C"/>
<path d="M61.1284 71.114C61.1284 70.162 61.3477 69.308 61.7864 68.552C62.2344 67.796 62.8364 67.208 63.5924 66.788C64.3577 66.3587 65.193 66.144 66.0984 66.144C67.1344 66.144 68.0537 66.4007 68.8564 66.914C69.6684 67.418 70.2564 68.1367 70.6204 69.07H68.7024C68.4504 68.5567 68.1004 68.174 67.6524 67.922C67.2044 67.67 66.6864 67.544 66.0984 67.544C65.4544 67.544 64.8804 67.6887 64.3764 67.978C63.8724 68.2673 63.4757 68.6827 63.1864 69.224C62.9064 69.7653 62.7664 70.3953 62.7664 71.114C62.7664 71.8327 62.9064 72.4627 63.1864 73.004C63.4757 73.5453 63.8724 73.9653 64.3764 74.264C64.8804 74.5533 65.4544 74.698 66.0984 74.698C66.6864 74.698 67.2044 74.572 67.6524 74.32C68.1004 74.068 68.4504 73.6853 68.7024 73.172H70.6204C70.2564 74.1053 69.6684 74.824 68.8564 75.328C68.0537 75.832 67.1344 76.084 66.0984 76.084C65.1837 76.084 64.3484 75.874 63.5924 75.454C62.8364 75.0247 62.2344 74.432 61.7864 73.676C61.3477 72.92 61.1284 72.066 61.1284 71.114ZM75.8345 76.126C75.1065 76.126 74.4485 75.9627 73.8605 75.636C73.2725 75.3 72.8105 74.8333 72.4745 74.236C72.1385 73.6293 71.9705 72.9293 71.9705 72.136C71.9705 71.352 72.1431 70.6567 72.4885 70.05C72.8338 69.4433 73.3051 68.9767 73.9025 68.65C74.4998 68.3233 75.1671 68.16 75.9045 68.16C76.6418 68.16 77.3091 68.3233 77.9065 68.65C78.5038 68.9767 78.9751 69.4433 79.3205 70.05C79.6658 70.6567 79.8385 71.352 79.8385 72.136C79.8385 72.92 79.6611 73.6153 79.3065 74.222C78.9518 74.8287 78.4665 75.3 77.8505 75.636C77.2438 75.9627 76.5718 76.126 75.8345 76.126ZM75.8345 74.74C76.2451 74.74 76.6278 74.642 76.9825 74.446C77.3465 74.25 77.6405 73.956 77.8645 73.564C78.0885 73.172 78.2005 72.696 78.2005 72.136C78.2005 71.576 78.0931 71.1047 77.8785 70.722C77.6638 70.33 77.3791 70.036 77.0245 69.84C76.6698 69.644 76.2871 69.546 75.8765 69.546C75.4658 69.546 75.0831 69.644 74.7285 69.84C74.3831 70.036 74.1078 70.33 73.9025 70.722C73.6971 71.1047 73.5945 71.576 73.5945 72.136C73.5945 72.9667 73.8045 73.6107 74.2245 74.068C74.6538 74.516 75.1905 74.74 75.8345 74.74ZM84.2162 76.126C83.6095 76.126 83.0635 76.0187 82.5782 75.804C82.1022 75.58 81.7242 75.2813 81.4442 74.908C81.1642 74.5253 81.0149 74.1007 80.9962 73.634H82.6482C82.6762 73.9607 82.8302 74.236 83.1102 74.46C83.3995 74.6747 83.7589 74.782 84.1882 74.782C84.6362 74.782 84.9815 74.698 85.2242 74.53C85.4762 74.3527 85.6022 74.1287 85.6022 73.858C85.6022 73.5687 85.4622 73.354 85.1822 73.214C84.9115 73.074 84.4775 72.92 83.8802 72.752C83.3015 72.5933 82.8302 72.4393 82.4662 72.29C82.1022 72.1407 81.7849 71.912 81.5142 71.604C81.2529 71.296 81.1222 70.89 81.1222 70.386C81.1222 69.9753 81.2435 69.602 81.4862 69.266C81.7289 68.9207 82.0742 68.65 82.5222 68.454C82.9795 68.258 83.5022 68.16 84.0902 68.16C84.9675 68.16 85.6722 68.384 86.2042 68.832C86.7455 69.2707 87.0349 69.8727 87.0722 70.638H85.4762C85.4482 70.2927 85.3082 70.0173 85.0562 69.812C84.8042 69.6067 84.4635 69.504 84.0342 69.504C83.6142 69.504 83.2922 69.5833 83.0682 69.742C82.8442 69.9007 82.7322 70.1107 82.7322 70.372C82.7322 70.5773 82.8069 70.75 82.9562 70.89C83.1055 71.03 83.2875 71.142 83.5022 71.226C83.7169 71.3007 84.0342 71.3987 84.4542 71.52C85.0142 71.6693 85.4715 71.8233 85.8262 71.982C86.1902 72.1313 86.5029 72.3553 86.7642 72.654C87.0255 72.9527 87.1609 73.3493 87.1702 73.844C87.1702 74.2827 87.0489 74.6747 86.8062 75.02C86.5635 75.3653 86.2182 75.636 85.7702 75.832C85.3315 76.028 84.8135 76.126 84.2162 76.126ZM90.7567 69.588V73.858C90.7567 74.1473 90.8221 74.3573 90.9527 74.488C91.0927 74.6093 91.3261 74.67 91.6527 74.67H92.6327V76H91.3727C90.6541 76 90.1034 75.832 89.7207 75.496C89.3381 75.16 89.1467 74.614 89.1467 73.858V69.588H88.2367V68.286H89.1467V66.368H90.7567V68.286H92.6327V69.588H90.7567ZM99.3364 69.42C99.6071 69.0653 99.9758 68.7667 100.442 68.524C100.909 68.2813 101.436 68.16 102.024 68.16C102.696 68.16 103.308 68.328 103.858 68.664C104.418 68.9907 104.857 69.4527 105.174 70.05C105.492 70.6473 105.65 71.3333 105.65 72.108C105.65 72.8827 105.492 73.578 105.174 74.194C104.857 74.8007 104.418 75.2767 103.858 75.622C103.308 75.958 102.696 76.126 102.024 76.126C101.436 76.126 100.914 76.0093 100.456 75.776C99.9991 75.5333 99.6258 75.2347 99.3364 74.88V79.668H97.7404V68.286H99.3364V69.42ZM104.026 72.108C104.026 71.576 103.914 71.1187 103.69 70.736C103.476 70.344 103.186 70.05 102.822 69.854C102.468 69.6487 102.085 69.546 101.674 69.546C101.273 69.546 100.89 69.6487 100.526 69.854C100.172 70.0593 99.8824 70.358 99.6584 70.75C99.4438 71.142 99.3364 71.604 99.3364 72.136C99.3364 72.668 99.4438 73.1347 99.6584 73.536C99.8824 73.928 100.172 74.2267 100.526 74.432C100.89 74.6373 101.273 74.74 101.674 74.74C102.085 74.74 102.468 74.6373 102.822 74.432C103.186 74.2173 103.476 73.9093 103.69 73.508C103.914 73.1067 104.026 72.64 104.026 72.108ZM114.299 71.954C114.299 72.2433 114.28 72.5047 114.243 72.738H108.349C108.395 73.354 108.624 73.8487 109.035 74.222C109.445 74.5953 109.949 74.782 110.547 74.782C111.405 74.782 112.012 74.4227 112.367 73.704H114.089C113.855 74.4133 113.431 74.9967 112.815 75.454C112.208 75.902 111.452 76.126 110.547 76.126C109.809 76.126 109.147 75.9627 108.559 75.636C107.98 75.3 107.523 74.8333 107.187 74.236C106.86 73.6293 106.697 72.9293 106.697 72.136C106.697 71.3427 106.855 70.6473 107.173 70.05C107.499 69.4433 107.952 68.9767 108.531 68.65C109.119 68.3233 109.791 68.16 110.547 68.16C111.275 68.16 111.923 68.3187 112.493 68.636C113.062 68.9533 113.505 69.4013 113.823 69.98C114.14 70.5493 114.299 71.2073 114.299 71.954ZM112.633 71.45C112.623 70.862 112.413 70.3907 112.003 70.036C111.592 69.6813 111.083 69.504 110.477 69.504C109.926 69.504 109.455 69.6813 109.063 70.036C108.671 70.3813 108.437 70.8527 108.363 71.45H112.633ZM117.465 69.406C117.699 69.014 118.007 68.7107 118.389 68.496C118.781 68.272 119.243 68.16 119.775 68.16V69.812H119.369C118.744 69.812 118.268 69.9707 117.941 70.288C117.624 70.6053 117.465 71.156 117.465 71.94V76H115.869V68.286H117.465V69.406ZM125.691 67.264C125.402 67.264 125.159 67.166 124.963 66.97C124.767 66.774 124.669 66.5313 124.669 66.242C124.669 65.9527 124.767 65.71 124.963 65.514C125.159 65.318 125.402 65.22 125.691 65.22C125.971 65.22 126.209 65.318 126.405 65.514C126.601 65.71 126.699 65.9527 126.699 66.242C126.699 66.5313 126.601 66.774 126.405 66.97C126.209 67.166 125.971 67.264 125.691 67.264ZM126.475 68.286V76H124.879V68.286H126.475ZM137.909 68.16C138.515 68.16 139.057 68.286 139.533 68.538C140.018 68.79 140.396 69.1633 140.667 69.658C140.947 70.1527 141.087 70.75 141.087 71.45V76H139.505V71.688C139.505 70.9973 139.332 70.47 138.987 70.106C138.641 69.7327 138.17 69.546 137.573 69.546C136.975 69.546 136.499 69.7327 136.145 70.106C135.799 70.47 135.627 70.9973 135.627 71.688V76H134.045V71.688C134.045 70.9973 133.872 70.47 133.527 70.106C133.181 69.7327 132.71 69.546 132.113 69.546C131.515 69.546 131.039 69.7327 130.685 70.106C130.339 70.47 130.167 70.9973 130.167 71.688V76H128.571V68.286H130.167V69.168C130.428 68.8507 130.759 68.6033 131.161 68.426C131.562 68.2487 131.991 68.16 132.449 68.16C133.065 68.16 133.615 68.2907 134.101 68.552C134.586 68.8133 134.959 69.1913 135.221 69.686C135.454 69.2193 135.818 68.8507 136.313 68.58C136.807 68.3 137.339 68.16 137.909 68.16ZM144.713 69.42C144.984 69.0653 145.353 68.7667 145.819 68.524C146.286 68.2813 146.813 68.16 147.401 68.16C148.073 68.16 148.685 68.328 149.235 68.664C149.795 68.9907 150.234 69.4527 150.551 70.05C150.869 70.6473 151.027 71.3333 151.027 72.108C151.027 72.8827 150.869 73.578 150.551 74.194C150.234 74.8007 149.795 75.2767 149.235 75.622C148.685 75.958 148.073 76.126 147.401 76.126C146.813 76.126 146.291 76.0093 145.833 75.776C145.376 75.5333 145.003 75.2347 144.713 74.88V79.668H143.117V68.286H144.713V69.42ZM149.403 72.108C149.403 71.576 149.291 71.1187 149.067 70.736C148.853 70.344 148.563 70.05 148.199 69.854C147.845 69.6487 147.462 69.546 147.051 69.546C146.65 69.546 146.267 69.6487 145.903 69.854C145.549 70.0593 145.259 70.358 145.035 70.75C144.821 71.142 144.713 71.604 144.713 72.136C144.713 72.668 144.821 73.1347 145.035 73.536C145.259 73.928 145.549 74.2267 145.903 74.432C146.267 74.6373 146.65 74.74 147.051 74.74C147.462 74.74 147.845 74.6373 148.199 74.432C148.563 74.2173 148.853 73.9093 149.067 73.508C149.291 73.1067 149.403 72.64 149.403 72.108ZM154.202 69.406C154.435 69.014 154.743 68.7107 155.126 68.496C155.518 68.272 155.98 68.16 156.512 68.16V69.812H156.106C155.48 69.812 155.004 69.9707 154.678 70.288C154.36 70.6053 154.202 71.156 154.202 71.94V76H152.606V68.286H154.202V69.406ZM165.049 71.954C165.049 72.2433 165.03 72.5047 164.993 72.738H159.099C159.145 73.354 159.374 73.8487 159.785 74.222C160.195 74.5953 160.699 74.782 161.297 74.782C162.155 74.782 162.762 74.4227 163.117 73.704H164.839C164.605 74.4133 164.181 74.9967 163.565 75.454C162.958 75.902 162.202 76.126 161.297 76.126C160.559 76.126 159.897 75.9627 159.309 75.636C158.73 75.3 158.273 74.8333 157.937 74.236C157.61 73.6293 157.447 72.9293 157.447 72.136C157.447 71.3427 157.605 70.6473 157.923 70.05C158.249 69.4433 158.702 68.9767 159.281 68.65C159.869 68.3233 160.541 68.16 161.297 68.16C162.025 68.16 162.673 68.3187 163.243 68.636C163.812 68.9533 164.255 69.4013 164.573 69.98C164.89 70.5493 165.049 71.2073 165.049 71.954ZM163.383 71.45C163.373 70.862 163.163 70.3907 162.753 70.036C162.342 69.6813 161.833 69.504 161.227 69.504C160.676 69.504 160.205 69.6813 159.813 70.036C159.421 70.3813 159.187 70.8527 159.113 71.45H163.383ZM169.419 76.126C168.813 76.126 168.267 76.0187 167.781 75.804C167.305 75.58 166.927 75.2813 166.647 74.908C166.367 74.5253 166.218 74.1007 166.199 73.634H167.851C167.879 73.9607 168.033 74.236 168.313 74.46C168.603 74.6747 168.962 74.782 169.391 74.782C169.839 74.782 170.185 74.698 170.427 74.53C170.679 74.3527 170.805 74.1287 170.805 73.858C170.805 73.5687 170.665 73.354 170.385 73.214C170.115 73.074 169.681 72.92 169.083 72.752C168.505 72.5933 168.033 72.4393 167.669 72.29C167.305 72.1407 166.988 71.912 166.717 71.604C166.456 71.296 166.325 70.89 166.325 70.386C166.325 69.9753 166.447 69.602 166.689 69.266C166.932 68.9207 167.277 68.65 167.725 68.454C168.183 68.258 168.705 68.16 169.293 68.16C170.171 68.16 170.875 68.384 171.407 68.832C171.949 69.2707 172.238 69.8727 172.275 70.638H170.679C170.651 70.2927 170.511 70.0173 170.259 69.812C170.007 69.6067 169.667 69.504 169.237 69.504C168.817 69.504 168.495 69.5833 168.271 69.742C168.047 69.9007 167.935 70.1107 167.935 70.372C167.935 70.5773 168.01 70.75 168.159 70.89C168.309 71.03 168.491 71.142 168.705 71.226C168.92 71.3007 169.237 71.3987 169.657 71.52C170.217 71.6693 170.675 71.8233 171.029 71.982C171.393 72.1313 171.706 72.3553 171.967 72.654C172.229 72.9527 172.364 73.3493 172.373 73.844C172.373 74.2827 172.252 74.6747 172.009 75.02C171.767 75.3653 171.421 75.636 170.973 75.832C170.535 76.028 170.017 76.126 169.419 76.126ZM176.898 76.126C176.291 76.126 175.745 76.0187 175.26 75.804C174.784 75.58 174.406 75.2813 174.126 74.908C173.846 74.5253 173.697 74.1007 173.678 73.634H175.33C175.358 73.9607 175.512 74.236 175.792 74.46C176.081 74.6747 176.441 74.782 176.87 74.782C177.318 74.782 177.663 74.698 177.906 74.53C178.158 74.3527 178.284 74.1287 178.284 73.858C178.284 73.5687 178.144 73.354 177.864 73.214C177.593 73.074 177.159 72.92 176.562 72.752C175.983 72.5933 175.512 72.4393 175.148 72.29C174.784 72.1407 174.467 71.912 174.196 71.604C173.935 71.296 173.804 70.89 173.804 70.386C173.804 69.9753 173.925 69.602 174.168 69.266C174.411 68.9207 174.756 68.65 175.204 68.454C175.661 68.258 176.184 68.16 176.772 68.16C177.649 68.16 178.354 68.384 178.886 68.832C179.427 69.2707 179.717 69.8727 179.754 70.638H178.158C178.13 70.2927 177.99 70.0173 177.738 69.812C177.486 69.6067 177.145 69.504 176.716 69.504C176.296 69.504 175.974 69.5833 175.75 69.742C175.526 69.9007 175.414 70.1107 175.414 70.372C175.414 70.5773 175.489 70.75 175.638 70.89C175.787 71.03 175.969 71.142 176.184 71.226C176.399 71.3007 176.716 71.3987 177.136 71.52C177.696 71.6693 178.153 71.8233 178.508 71.982C178.872 72.1313 179.185 72.3553 179.446 72.654C179.707 72.9527 179.843 73.3493 179.852 73.844C179.852 74.2827 179.731 74.6747 179.488 75.02C179.245 75.3653 178.9 75.636 178.452 75.832C178.013 76.028 177.495 76.126 176.898 76.126ZM182.388 67.264C182.099 67.264 181.856 67.166 181.66 66.97C181.464 66.774 181.366 66.5313 181.366 66.242C181.366 65.9527 181.464 65.71 181.66 65.514C181.856 65.318 182.099 65.22 182.388 65.22C182.668 65.22 182.906 65.318 183.102 65.514C183.298 65.71 183.396 65.9527 183.396 66.242C183.396 66.5313 183.298 66.774 183.102 66.97C182.906 67.166 182.668 67.264 182.388 67.264ZM183.172 68.286V76H181.576V68.286H183.172ZM188.614 76.126C187.886 76.126 187.228 75.9627 186.64 75.636C186.052 75.3 185.59 74.8333 185.254 74.236C184.918 73.6293 184.75 72.9293 184.75 72.136C184.75 71.352 184.922 70.6567 185.268 70.05C185.613 69.4433 186.084 68.9767 186.682 68.65C187.279 68.3233 187.946 68.16 188.684 68.16C189.421 68.16 190.088 68.3233 190.686 68.65C191.283 68.9767 191.754 69.4433 192.1 70.05C192.445 70.6567 192.618 71.352 192.618 72.136C192.618 72.92 192.44 73.6153 192.086 74.222C191.731 74.8287 191.246 75.3 190.63 75.636C190.023 75.9627 189.351 76.126 188.614 76.126ZM188.614 74.74C189.024 74.74 189.407 74.642 189.762 74.446C190.126 74.25 190.42 73.956 190.644 73.564C190.868 73.172 190.98 72.696 190.98 72.136C190.98 71.576 190.872 71.1047 190.658 70.722C190.443 70.33 190.158 70.036 189.804 69.84C189.449 69.644 189.066 69.546 188.656 69.546C188.245 69.546 187.862 69.644 187.508 69.84C187.162 70.036 186.887 70.33 186.682 70.722C186.476 71.1047 186.374 71.576 186.374 72.136C186.374 72.9667 186.584 73.6107 187.004 74.068C187.433 74.516 187.97 74.74 188.614 74.74ZM198.088 68.16C198.694 68.16 199.236 68.286 199.712 68.538C200.197 68.79 200.575 69.1633 200.846 69.658C201.116 70.1527 201.252 70.75 201.252 71.45V76H199.67V71.688C199.67 70.9973 199.497 70.47 199.152 70.106C198.806 69.7327 198.335 69.546 197.738 69.546C197.14 69.546 196.664 69.7327 196.31 70.106C195.964 70.47 195.792 70.9973 195.792 71.688V76H194.196V68.286H195.792V69.168C196.053 68.8507 196.384 68.6033 196.786 68.426C197.196 68.2487 197.63 68.16 198.088 68.16Z" fill="#595959"/>
<path d="M49.612 92.34C51.084 91.236 52.22 90.248 53.02 89.376C53.828 88.496 54.232 87.636 54.232 86.796C54.232 86.244 54.092 85.804 53.812 85.476C53.54 85.14 53.092 84.972 52.468 84.972C51.86 84.972 51.388 85.164 51.052 85.548C50.724 85.924 50.54 86.428 50.5 87.06H49.684C49.732 86.172 50.004 85.484 50.5 84.996C51.004 84.5 51.66 84.252 52.468 84.252C53.244 84.252 53.872 84.472 54.352 84.912C54.832 85.344 55.072 85.96 55.072 86.76C55.072 87.728 54.668 88.668 53.86 89.58C53.06 90.484 52.072 91.368 50.896 92.232H55.336V92.94H49.612V92.34ZM56.3832 86.196C56.3832 85.684 56.5392 85.272 56.8512 84.96C57.1712 84.64 57.5752 84.48 58.0632 84.48C58.5592 84.48 58.9632 84.64 59.2752 84.96C59.5952 85.272 59.7552 85.684 59.7552 86.196C59.7552 86.716 59.5952 87.136 59.2752 87.456C58.9632 87.768 58.5592 87.924 58.0632 87.924C57.5752 87.924 57.1712 87.768 56.8512 87.456C56.5392 87.136 56.3832 86.716 56.3832 86.196ZM63.1032 84.6L58.1832 93H57.3312L62.2632 84.6H63.1032ZM58.0632 85.02C57.7592 85.02 57.5152 85.124 57.3312 85.332C57.1552 85.532 57.0672 85.82 57.0672 86.196C57.0672 86.572 57.1552 86.864 57.3312 87.072C57.5152 87.28 57.7592 87.384 58.0632 87.384C58.3672 87.384 58.6112 87.28 58.7952 87.072C58.9792 86.864 59.0712 86.572 59.0712 86.196C59.0712 85.828 58.9792 85.54 58.7952 85.332C58.6112 85.124 58.3672 85.02 58.0632 85.02ZM60.7032 91.404C60.7032 90.884 60.8592 90.468 61.1712 90.156C61.4912 89.836 61.8952 89.676 62.3832 89.676C62.8712 89.676 63.2712 89.836 63.5832 90.156C63.9032 90.468 64.0632 90.884 64.0632 91.404C64.0632 91.924 63.9032 92.344 63.5832 92.664C63.2712 92.976 62.8712 93.132 62.3832 93.132C61.8952 93.132 61.4912 92.976 61.1712 92.664C60.8592 92.344 60.7032 91.924 60.7032 91.404ZM62.3832 90.228C62.0792 90.228 61.8352 90.332 61.6512 90.54C61.4672 90.748 61.3752 91.036 61.3752 91.404C61.3752 91.772 61.4672 92.06 61.6512 92.268C61.8352 92.476 62.0792 92.58 62.3832 92.58C62.6872 92.58 62.9272 92.48 63.1032 92.28C63.2872 92.072 63.3792 91.78 63.3792 91.404C63.3792 91.028 63.2872 90.74 63.1032 90.54C62.9272 90.332 62.6872 90.228 62.3832 90.228ZM76.6272 86.328C77.3952 86.328 78.0192 86.572 78.4992 87.06C78.9872 87.54 79.2312 88.24 79.2312 89.16V93H78.4032V89.256C78.4032 88.544 78.2312 88 77.8872 87.624C77.5432 87.248 77.0752 87.06 76.4832 87.06C75.8672 87.06 75.3752 87.264 75.0072 87.672C74.6392 88.08 74.4552 88.672 74.4552 89.448V93H73.6272V89.256C73.6272 88.544 73.4552 88 73.1112 87.624C72.7672 87.248 72.2952 87.06 71.6952 87.06C71.0792 87.06 70.5872 87.264 70.2192 87.672C69.8512 88.08 69.6672 88.672 69.6672 89.448V93H68.8272V86.448H69.6672V87.576C69.8752 87.168 70.1712 86.86 70.5552 86.652C70.9392 86.436 71.3672 86.328 71.8392 86.328C72.4072 86.328 72.9032 86.464 73.3272 86.736C73.7592 87.008 74.0712 87.408 74.2632 87.936C74.4392 87.416 74.7392 87.02 75.1632 86.748C75.5952 86.468 76.0832 86.328 76.6272 86.328ZM83.9647 93.096C83.3487 93.096 82.7927 92.96 82.2967 92.688C81.8087 92.408 81.4207 92.016 81.1327 91.512C80.8527 91 80.7127 90.404 80.7127 89.724C80.7127 89.044 80.8567 88.452 81.1447 87.948C81.4327 87.436 81.8247 87.044 82.3207 86.772C82.8167 86.492 83.3727 86.352 83.9887 86.352C84.6047 86.352 85.1607 86.492 85.6567 86.772C86.1607 87.044 86.5527 87.436 86.8327 87.948C87.1207 88.452 87.2647 89.044 87.2647 89.724C87.2647 90.396 87.1207 90.988 86.8327 91.5C86.5447 92.012 86.1487 92.408 85.6447 92.688C85.1407 92.96 84.5807 93.096 83.9647 93.096ZM83.9647 92.364C84.3967 92.364 84.7967 92.268 85.1647 92.076C85.5327 91.876 85.8287 91.58 86.0527 91.188C86.2847 90.788 86.4007 90.3 86.4007 89.724C86.4007 89.148 86.2887 88.664 86.0647 88.272C85.8407 87.872 85.5447 87.576 85.1767 87.384C84.8087 87.184 84.4087 87.084 83.9767 87.084C83.5447 87.084 83.1447 87.184 82.7767 87.384C82.4087 87.576 82.1127 87.872 81.8887 88.272C81.6727 88.664 81.5647 89.148 81.5647 89.724C81.5647 90.3 81.6727 90.788 81.8887 91.188C82.1127 91.58 82.4047 91.876 82.7647 92.076C83.1327 92.268 83.5327 92.364 83.9647 92.364ZM89.6359 87.612C89.8199 87.204 90.0999 86.888 90.4759 86.664C90.8599 86.44 91.3279 86.328 91.8799 86.328V87.204H91.6519C91.0439 87.204 90.5559 87.368 90.1879 87.696C89.8199 88.024 89.6359 88.572 89.6359 89.34V93H88.7959V86.448H89.6359V87.612ZM99.0716 89.388C99.0716 89.676 99.0636 89.896 99.0476 90.048H93.6116C93.6356 90.544 93.7556 90.968 93.9716 91.32C94.1876 91.672 94.4716 91.94 94.8236 92.124C95.1756 92.3 95.5596 92.388 95.9756 92.388C96.5196 92.388 96.9756 92.256 97.3436 91.992C97.7196 91.728 97.9676 91.372 98.0876 90.924H98.9756C98.8156 91.564 98.4716 92.088 97.9436 92.496C97.4236 92.896 96.7676 93.096 95.9756 93.096C95.3596 93.096 94.8076 92.96 94.3196 92.688C93.8316 92.408 93.4476 92.016 93.1676 91.512C92.8956 91 92.7596 90.404 92.7596 89.724C92.7596 89.044 92.8956 88.448 93.1676 87.936C93.4396 87.424 93.8196 87.032 94.3076 86.76C94.7956 86.488 95.3516 86.352 95.9756 86.352C96.5996 86.352 97.1436 86.488 97.6076 86.76C98.0796 87.032 98.4396 87.4 98.6876 87.864C98.9436 88.32 99.0716 88.828 99.0716 89.388ZM98.2196 89.364C98.2276 88.876 98.1276 88.46 97.9196 88.116C97.7196 87.772 97.4436 87.512 97.0916 87.336C96.7396 87.16 96.3556 87.072 95.9396 87.072C95.3156 87.072 94.7836 87.272 94.3436 87.672C93.9036 88.072 93.6596 88.636 93.6116 89.364H98.2196ZM104.993 87.156V91.224C104.993 91.624 105.069 91.9 105.221 92.052C105.373 92.204 105.641 92.28 106.025 92.28H106.793V93H105.893C105.301 93 104.861 92.864 104.573 92.592C104.285 92.312 104.141 91.856 104.141 91.224V87.156H103.229V86.448H104.141V84.804H104.993V86.448H106.793V87.156H104.993ZM111.299 86.328C111.795 86.328 112.239 86.432 112.631 86.64C113.031 86.848 113.343 87.168 113.567 87.6C113.799 88.024 113.915 88.544 113.915 89.16V93H113.087V89.256C113.087 88.544 112.907 88 112.547 87.624C112.195 87.248 111.711 87.06 111.095 87.06C110.463 87.06 109.959 87.26 109.583 87.66C109.207 88.06 109.019 88.648 109.019 89.424V93H108.179V84.12H109.019V87.564C109.227 87.172 109.531 86.868 109.931 86.652C110.339 86.436 110.795 86.328 111.299 86.328ZM115.389 89.712C115.389 89.04 115.521 88.452 115.785 87.948C116.057 87.436 116.429 87.044 116.901 86.772C117.381 86.492 117.921 86.352 118.521 86.352C119.145 86.352 119.681 86.496 120.129 86.784C120.585 87.072 120.913 87.44 121.113 87.888V86.448H121.953V93H121.113V91.548C120.905 91.996 120.573 92.368 120.117 92.664C119.669 92.952 119.133 93.096 118.509 93.096C117.917 93.096 117.381 92.956 116.901 92.676C116.429 92.396 116.057 92 115.785 91.488C115.521 90.976 115.389 90.384 115.389 89.712ZM121.113 89.724C121.113 89.196 121.005 88.732 120.789 88.332C120.573 87.932 120.277 87.624 119.901 87.408C119.533 87.192 119.125 87.084 118.677 87.084C118.213 87.084 117.797 87.188 117.429 87.396C117.061 87.604 116.769 87.908 116.553 88.308C116.345 88.7 116.241 89.168 116.241 89.712C116.241 90.248 116.345 90.72 116.553 91.128C116.769 91.528 117.061 91.836 117.429 92.052C117.797 92.26 118.213 92.364 118.677 92.364C119.125 92.364 119.533 92.256 119.901 92.04C120.277 91.824 120.573 91.516 120.789 91.116C121.005 90.716 121.113 90.252 121.113 89.724ZM126.942 86.328C127.726 86.328 128.366 86.572 128.862 87.06C129.358 87.54 129.606 88.24 129.606 89.16V93H128.778V89.256C128.778 88.544 128.598 88 128.238 87.624C127.886 87.248 127.402 87.06 126.786 87.06C126.154 87.06 125.65 87.26 125.274 87.66C124.898 88.06 124.71 88.648 124.71 89.424V93H123.87V86.448H124.71V87.564C124.918 87.164 125.218 86.86 125.61 86.652C126.002 86.436 126.446 86.328 126.942 86.328ZM135.597 84.12V93H134.757V84.12H135.597ZM137.115 89.712C137.115 89.04 137.247 88.452 137.511 87.948C137.783 87.436 138.155 87.044 138.627 86.772C139.107 86.492 139.647 86.352 140.247 86.352C140.871 86.352 141.407 86.496 141.855 86.784C142.311 87.072 142.639 87.44 142.839 87.888V86.448H143.679V93H142.839V91.548C142.631 91.996 142.299 92.368 141.843 92.664C141.395 92.952 140.859 93.096 140.235 93.096C139.643 93.096 139.107 92.956 138.627 92.676C138.155 92.396 137.783 92 137.511 91.488C137.247 90.976 137.115 90.384 137.115 89.712ZM142.839 89.724C142.839 89.196 142.731 88.732 142.515 88.332C142.299 87.932 142.003 87.624 141.627 87.408C141.259 87.192 140.851 87.084 140.403 87.084C139.939 87.084 139.523 87.188 139.155 87.396C138.787 87.604 138.495 87.908 138.279 88.308C138.071 88.7 137.967 89.168 137.967 89.712C137.967 90.248 138.071 90.72 138.279 91.128C138.495 91.528 138.787 91.836 139.155 92.052C139.523 92.26 139.939 92.364 140.403 92.364C140.851 92.364 141.259 92.256 141.627 92.04C142.003 91.824 142.299 91.516 142.515 91.116C142.731 90.716 142.839 90.252 142.839 89.724ZM147.853 93.096C147.101 93.096 146.485 92.924 146.005 92.58C145.533 92.228 145.269 91.752 145.213 91.152H146.077C146.117 91.52 146.289 91.82 146.593 92.052C146.905 92.276 147.321 92.388 147.841 92.388C148.297 92.388 148.653 92.28 148.909 92.064C149.173 91.848 149.305 91.58 149.305 91.26C149.305 91.036 149.233 90.852 149.089 90.708C148.945 90.564 148.761 90.452 148.537 90.372C148.321 90.284 148.025 90.192 147.649 90.096C147.161 89.968 146.765 89.84 146.461 89.712C146.157 89.584 145.897 89.396 145.681 89.148C145.473 88.892 145.369 88.552 145.369 88.128C145.369 87.808 145.465 87.512 145.657 87.24C145.849 86.968 146.121 86.752 146.473 86.592C146.825 86.432 147.225 86.352 147.673 86.352C148.377 86.352 148.945 86.532 149.377 86.892C149.809 87.244 150.041 87.732 150.073 88.356H149.233C149.209 87.972 149.057 87.664 148.777 87.432C148.505 87.192 148.129 87.072 147.649 87.072C147.225 87.072 146.881 87.172 146.617 87.372C146.353 87.572 146.221 87.82 146.221 88.116C146.221 88.372 146.297 88.584 146.449 88.752C146.609 88.912 146.805 89.04 147.037 89.136C147.269 89.224 147.581 89.324 147.973 89.436C148.445 89.564 148.821 89.688 149.101 89.808C149.381 89.928 149.621 90.104 149.821 90.336C150.021 90.568 150.125 90.876 150.133 91.26C150.133 91.612 150.037 91.928 149.845 92.208C149.653 92.48 149.385 92.696 149.041 92.856C148.697 93.016 148.301 93.096 147.853 93.096ZM152.806 87.156V91.224C152.806 91.624 152.882 91.9 153.034 92.052C153.186 92.204 153.454 92.28 153.838 92.28H154.606V93H153.706C153.114 93 152.674 92.864 152.386 92.592C152.098 92.312 151.954 91.856 151.954 91.224V87.156H151.042V86.448H151.954V84.804H152.806V86.448H154.606V87.156H152.806ZM167.924 86.448L165.872 93H165.032L163.22 87.504L161.408 93H160.556L158.504 86.448H159.356L160.988 92.148L162.824 86.448H163.664L165.476 92.16L167.096 86.448H167.924ZM174.997 89.388C174.997 89.676 174.989 89.896 174.973 90.048H169.537C169.561 90.544 169.681 90.968 169.897 91.32C170.113 91.672 170.397 91.94 170.749 92.124C171.101 92.3 171.485 92.388 171.901 92.388C172.445 92.388 172.901 92.256 173.269 91.992C173.645 91.728 173.893 91.372 174.013 90.924H174.901C174.741 91.564 174.397 92.088 173.869 92.496C173.349 92.896 172.693 93.096 171.901 93.096C171.285 93.096 170.733 92.96 170.245 92.688C169.757 92.408 169.373 92.016 169.093 91.512C168.821 91 168.685 90.404 168.685 89.724C168.685 89.044 168.821 88.448 169.093 87.936C169.365 87.424 169.745 87.032 170.233 86.76C170.721 86.488 171.277 86.352 171.901 86.352C172.525 86.352 173.069 86.488 173.533 86.76C174.005 87.032 174.365 87.4 174.613 87.864C174.869 88.32 174.997 88.828 174.997 89.388ZM174.145 89.364C174.153 88.876 174.053 88.46 173.845 88.116C173.645 87.772 173.369 87.512 173.017 87.336C172.665 87.16 172.281 87.072 171.865 87.072C171.241 87.072 170.709 87.272 170.269 87.672C169.829 88.072 169.585 88.636 169.537 89.364H174.145ZM182.462 89.388C182.462 89.676 182.454 89.896 182.438 90.048H177.002C177.026 90.544 177.146 90.968 177.362 91.32C177.578 91.672 177.862 91.94 178.214 92.124C178.566 92.3 178.95 92.388 179.366 92.388C179.91 92.388 180.366 92.256 180.734 91.992C181.11 91.728 181.358 91.372 181.478 90.924H182.366C182.206 91.564 181.862 92.088 181.334 92.496C180.814 92.896 180.158 93.096 179.366 93.096C178.75 93.096 178.198 92.96 177.71 92.688C177.222 92.408 176.838 92.016 176.558 91.512C176.286 91 176.15 90.404 176.15 89.724C176.15 89.044 176.286 88.448 176.558 87.936C176.83 87.424 177.21 87.032 177.698 86.76C178.186 86.488 178.742 86.352 179.366 86.352C179.99 86.352 180.534 86.488 180.998 86.76C181.47 87.032 181.83 87.4 182.078 87.864C182.334 88.32 182.462 88.828 182.462 89.388ZM181.61 89.364C181.618 88.876 181.518 88.46 181.31 88.116C181.11 87.772 180.834 87.512 180.482 87.336C180.13 87.16 179.746 87.072 179.33 87.072C178.706 87.072 178.174 87.272 177.734 87.672C177.294 88.072 177.05 88.636 177.002 89.364H181.61ZM187.539 93L184.839 90.06V93H183.999V84.12H184.839V89.376L187.479 86.448H188.655L185.547 89.712L188.679 93H187.539Z" fill="#595959"/>
<path d="M270.03 48.896H272.85V50H268.662V41.66H270.03V48.896ZM273.538 46.664C273.538 46 273.674 45.412 273.946 44.9C274.226 44.388 274.602 43.992 275.074 43.712C275.554 43.424 276.082 43.28 276.658 43.28C277.178 43.28 277.63 43.384 278.014 43.592C278.406 43.792 278.718 44.044 278.95 44.348V43.388H280.33V50H278.95V49.016C278.718 49.328 278.402 49.588 278.002 49.796C277.602 50.004 277.146 50.108 276.634 50.108C276.066 50.108 275.546 49.964 275.074 49.676C274.602 49.38 274.226 48.972 273.946 48.452C273.674 47.924 273.538 47.328 273.538 46.664ZM278.95 46.688C278.95 46.232 278.854 45.836 278.662 45.5C278.478 45.164 278.234 44.908 277.93 44.732C277.626 44.556 277.298 44.468 276.946 44.468C276.594 44.468 276.266 44.556 275.962 44.732C275.658 44.9 275.41 45.152 275.218 45.488C275.034 45.816 274.942 46.208 274.942 46.664C274.942 47.12 275.034 47.52 275.218 47.864C275.41 48.208 275.658 48.472 275.962 48.656C276.274 48.832 276.602 48.92 276.946 48.92C277.298 48.92 277.626 48.832 277.93 48.656C278.234 48.48 278.478 48.224 278.662 47.888C278.854 47.544 278.95 47.144 278.95 46.688ZM284.527 50.108C284.007 50.108 283.539 50.016 283.123 49.832C282.715 49.64 282.391 49.384 282.151 49.064C281.911 48.736 281.783 48.372 281.767 47.972H283.183C283.207 48.252 283.339 48.488 283.579 48.68C283.827 48.864 284.135 48.956 284.503 48.956C284.887 48.956 285.183 48.884 285.391 48.74C285.607 48.588 285.715 48.396 285.715 48.164C285.715 47.916 285.595 47.732 285.355 47.612C285.123 47.492 284.751 47.36 284.239 47.216C283.743 47.08 283.339 46.948 283.027 46.82C282.715 46.692 282.443 46.496 282.211 46.232C281.987 45.968 281.875 45.62 281.875 45.188C281.875 44.836 281.979 44.516 282.187 44.228C282.395 43.932 282.691 43.7 283.075 43.532C283.467 43.364 283.915 43.28 284.419 43.28C285.171 43.28 285.775 43.472 286.231 43.856C286.695 44.232 286.943 44.748 286.975 45.404H285.607C285.583 45.108 285.463 44.872 285.247 44.696C285.031 44.52 284.739 44.432 284.371 44.432C284.011 44.432 283.735 44.5 283.543 44.636C283.351 44.772 283.255 44.952 283.255 45.176C283.255 45.352 283.319 45.5 283.447 45.62C283.575 45.74 283.731 45.836 283.915 45.908C284.099 45.972 284.371 46.056 284.731 46.16C285.211 46.288 285.603 46.42 285.907 46.556C286.219 46.684 286.487 46.876 286.711 47.132C286.935 47.388 287.051 47.728 287.059 48.152C287.059 48.528 286.955 48.864 286.747 49.16C286.539 49.456 286.243 49.688 285.859 49.856C285.483 50.024 285.039 50.108 284.527 50.108ZM290.133 44.504V48.164C290.133 48.412 290.189 48.592 290.301 48.704C290.421 48.808 290.621 48.86 290.901 48.86H291.741V50H290.661C290.045 50 289.573 49.856 289.245 49.568C288.917 49.28 288.753 48.812 288.753 48.164V44.504H287.973V43.388H288.753V41.744H290.133V43.388H291.741V44.504H290.133ZM304.999 43.388L302.947 50H301.507L300.175 45.116L298.843 50H297.403L295.339 43.388H296.731L298.111 48.704L299.515 43.388H300.943L302.287 48.68L303.655 43.388H304.999ZM312.081 46.532C312.081 46.78 312.065 47.004 312.033 47.204H306.981C307.021 47.732 307.217 48.156 307.569 48.476C307.921 48.796 308.353 48.956 308.865 48.956C309.601 48.956 310.121 48.648 310.425 48.032H311.901C311.701 48.64 311.337 49.14 310.809 49.532C310.289 49.916 309.641 50.108 308.865 50.108C308.233 50.108 307.665 49.968 307.161 49.688C306.665 49.4 306.273 49 305.985 48.488C305.705 47.968 305.565 47.368 305.565 46.688C305.565 46.008 305.701 45.412 305.973 44.9C306.253 44.38 306.641 43.98 307.137 43.7C307.641 43.42 308.217 43.28 308.865 43.28C309.489 43.28 310.045 43.416 310.533 43.688C311.021 43.96 311.401 44.344 311.673 44.84C311.945 45.328 312.081 45.892 312.081 46.532ZM310.653 46.1C310.645 45.596 310.465 45.192 310.113 44.888C309.761 44.584 309.325 44.432 308.805 44.432C308.333 44.432 307.929 44.584 307.593 44.888C307.257 45.184 307.057 45.588 306.993 46.1H310.653ZM319.487 46.532C319.487 46.78 319.471 47.004 319.439 47.204H314.387C314.427 47.732 314.623 48.156 314.975 48.476C315.327 48.796 315.759 48.956 316.271 48.956C317.007 48.956 317.527 48.648 317.831 48.032H319.307C319.107 48.64 318.743 49.14 318.215 49.532C317.695 49.916 317.047 50.108 316.271 50.108C315.639 50.108 315.071 49.968 314.567 49.688C314.071 49.4 313.679 49 313.391 48.488C313.111 47.968 312.971 47.368 312.971 46.688C312.971 46.008 313.107 45.412 313.379 44.9C313.659 44.38 314.047 43.98 314.543 43.7C315.047 43.42 315.623 43.28 316.271 43.28C316.895 43.28 317.451 43.416 317.939 43.688C318.427 43.96 318.807 44.344 319.079 44.84C319.351 45.328 319.487 45.892 319.487 46.532ZM318.059 46.1C318.051 45.596 317.871 45.192 317.519 44.888C317.167 44.584 316.731 44.432 316.211 44.432C315.739 44.432 315.335 44.584 314.999 44.888C314.663 45.184 314.463 45.588 314.399 46.1H318.059ZM323.45 46.7L326.498 50H324.65L322.202 47.156V50H320.834V41.12H322.202V46.28L324.602 43.388H326.498L323.45 46.7ZM333.619 52.232C332.835 51.48 332.231 50.524 331.807 49.364C331.391 48.204 331.183 46.96 331.183 45.632C331.183 44.272 331.407 42.988 331.855 41.78C332.311 40.572 332.979 39.576 333.859 38.792H335.275V38.924C334.355 39.772 333.663 40.788 333.199 41.972C332.735 43.156 332.503 44.376 332.503 45.632C332.503 46.84 332.719 48.008 333.151 49.136C333.583 50.264 334.211 51.252 335.035 52.1V52.232H333.619ZM341.866 42.308L338.53 50H337.15L340.522 42.452H336.082V41.288H341.866V42.308ZM345.878 46.664C345.878 46 346.014 45.412 346.286 44.9C346.566 44.388 346.942 43.992 347.414 43.712C347.894 43.424 348.426 43.28 349.01 43.28C349.442 43.28 349.866 43.376 350.282 43.568C350.706 43.752 351.042 44 351.29 44.312V41.12H352.67V50H351.29V49.004C351.066 49.324 350.754 49.588 350.354 49.796C349.962 50.004 349.51 50.108 348.998 50.108C348.422 50.108 347.894 49.964 347.414 49.676C346.942 49.38 346.566 48.972 346.286 48.452C346.014 47.924 345.878 47.328 345.878 46.664ZM351.29 46.688C351.29 46.232 351.194 45.836 351.002 45.5C350.818 45.164 350.574 44.908 350.27 44.732C349.966 44.556 349.638 44.468 349.286 44.468C348.934 44.468 348.606 44.556 348.302 44.732C347.998 44.9 347.75 45.152 347.558 45.488C347.374 45.816 347.282 46.208 347.282 46.664C347.282 47.12 347.374 47.52 347.558 47.864C347.75 48.208 347.998 48.472 348.302 48.656C348.614 48.832 348.942 48.92 349.286 48.92C349.638 48.92 349.966 48.832 350.27 48.656C350.574 48.48 350.818 48.224 351.002 47.888C351.194 47.544 351.29 47.144 351.29 46.688ZM354.01 46.664C354.01 46 354.146 45.412 354.418 44.9C354.698 44.388 355.074 43.992 355.546 43.712C356.026 43.424 356.554 43.28 357.13 43.28C357.65 43.28 358.102 43.384 358.486 43.592C358.878 43.792 359.19 44.044 359.422 44.348V43.388H360.802V50H359.422V49.016C359.19 49.328 358.874 49.588 358.474 49.796C358.074 50.004 357.618 50.108 357.106 50.108C356.538 50.108 356.018 49.964 355.546 49.676C355.074 49.38 354.698 48.972 354.418 48.452C354.146 47.924 354.01 47.328 354.01 46.664ZM359.422 46.688C359.422 46.232 359.326 45.836 359.134 45.5C358.95 45.164 358.706 44.908 358.402 44.732C358.098 44.556 357.77 44.468 357.418 44.468C357.066 44.468 356.738 44.556 356.434 44.732C356.13 44.9 355.882 45.152 355.69 45.488C355.506 45.816 355.414 46.208 355.414 46.664C355.414 47.12 355.506 47.52 355.69 47.864C355.882 48.208 356.13 48.472 356.434 48.656C356.746 48.832 357.074 48.92 357.418 48.92C357.77 48.92 358.098 48.832 358.402 48.656C358.706 48.48 358.95 48.224 359.134 47.888C359.326 47.544 359.422 47.144 359.422 46.688ZM368.551 43.388L364.495 53.108H363.079L364.423 49.892L361.819 43.388H363.343L365.203 48.428L367.135 43.388H368.551ZM371.984 50.108C371.464 50.108 370.996 50.016 370.58 49.832C370.172 49.64 369.848 49.384 369.608 49.064C369.368 48.736 369.24 48.372 369.224 47.972H370.64C370.664 48.252 370.796 48.488 371.036 48.68C371.284 48.864 371.592 48.956 371.96 48.956C372.344 48.956 372.64 48.884 372.848 48.74C373.064 48.588 373.172 48.396 373.172 48.164C373.172 47.916 373.052 47.732 372.812 47.612C372.58 47.492 372.208 47.36 371.696 47.216C371.2 47.08 370.796 46.948 370.484 46.82C370.172 46.692 369.9 46.496 369.668 46.232C369.444 45.968 369.332 45.62 369.332 45.188C369.332 44.836 369.436 44.516 369.644 44.228C369.852 43.932 370.148 43.7 370.532 43.532C370.924 43.364 371.372 43.28 371.876 43.28C372.628 43.28 373.232 43.472 373.688 43.856C374.152 44.232 374.4 44.748 374.432 45.404H373.064C373.04 45.108 372.92 44.872 372.704 44.696C372.488 44.52 372.196 44.432 371.828 44.432C371.468 44.432 371.192 44.5 371 44.636C370.808 44.772 370.712 44.952 370.712 45.176C370.712 45.352 370.776 45.5 370.904 45.62C371.032 45.74 371.188 45.836 371.372 45.908C371.556 45.972 371.828 46.056 372.188 46.16C372.668 46.288 373.06 46.42 373.364 46.556C373.676 46.684 373.944 46.876 374.168 47.132C374.392 47.388 374.508 47.728 374.516 48.152C374.516 48.528 374.412 48.864 374.204 49.16C373.996 49.456 373.7 49.688 373.316 49.856C372.94 50.024 372.496 50.108 371.984 50.108ZM375.658 52.232V52.1C376.482 51.252 377.11 50.264 377.542 49.136C377.974 48.008 378.19 46.84 378.19 45.632C378.19 44.376 377.958 43.156 377.494 41.972C377.03 40.788 376.338 39.772 375.418 38.924V38.792H376.834C377.714 39.576 378.378 40.572 378.826 41.78C379.282 42.988 379.51 44.272 379.51 45.632C379.51 46.96 379.298 48.204 378.874 49.364C378.458 50.524 377.858 51.48 377.074 52.232H375.658Z" fill="#595959"/>
<rect x="263.5" y="32.5" width="143" height="28" stroke="#595959"/>
<path d="M388 44L394 50L400 44" stroke="#595959" stroke-width="1.5" stroke-linecap="round" stroke-linejoin="round"/>
<path d="M71.2083 45.2502L67.9791 42.021M63.4583 50.4168H81.5416C81.8842 50.4168 82.2127 50.2807 82.455 50.0385C82.6972 49.7963 82.8333 49.4677 82.8333 49.1252V31.0418L77.0208 24.5835H63.4583C63.1157 24.5835 62.7872 24.7196 62.5449 24.9618C62.3027 25.2041 62.1666 25.5326 62.1666 25.8752V49.1252C62.1666 49.4677 62.3027 49.7963 62.5449 50.0385C62.7872 50.2807 63.1157 50.4168 63.4583 50.4168ZM67.9791 38.146H77.0208H67.9791ZM67.9791 42.021H77.0208H67.9791ZM77.0208 38.146L73.7916 34.9168L77.0208 38.146Z" stroke="#732E68" stroke-width="2" stroke-linecap="round" stroke-linejoin="round"/>
<path d="M76.375 24.5835V31.0418H82.8333" stroke="#732E68" stroke-width="2" stroke-linecap="round" stroke-linejoin="round"/>
<defs>
<filter id="filter0_bi" x="-4" y="-4" width="438" height="340" filterUnits="userSpaceOnUse" color-interpolation-filters="sRGB">
<feFlood flood-opacity="0" result="BackgroundImageFix"/>
<feGaussianBlur in="BackgroundImage" stdDeviation="2"/>
<feComposite in2="SourceAlpha" operator="in" result="effect1_backgroundBlur"/>
<feBlend mode="normal" in="SourceGraphic" in2="effect1_backgroundBlur" result="shape"/>
<feColorMatrix in="SourceAlpha" type="matrix" values="0 0 0 0 0 0 0 0 0 0 0 0 0 0 0 0 0 0 127 0" result="hardAlpha"/>
<feOffset dy="4"/>
<feGaussianBlur stdDeviation="2"/>
<feComposite in2="hardAlpha" operator="arithmetic" k2="-1" k3="1"/>
<feColorMatrix type="matrix" values="0 0 0 0 0 0 0 0 0 0 0 0 0 0 0 0 0 0 0.25 0"/>
<feBlend mode="normal" in2="shape" result="effect2_innerShadow"/>
</filter>
</defs>
</svg>
