<svg width="430" height="332" viewBox="0 0 430 332" fill="none" xmlns="http://www.w3.org/2000/svg">
<g opacity="0.7" filter="url(#filter0_bi)">
<path d="M0 0H430V332H0V0Z" fill="#F7F7F7"/>
</g>
<path d="M242.03 48.896H244.85V50H240.662V41.66H242.03V48.896ZM245.538 46.664C245.538 46 245.674 45.412 245.946 44.9C246.226 44.388 246.602 43.992 247.074 43.712C247.554 43.424 248.082 43.28 248.658 43.28C249.178 43.28 249.63 43.384 250.014 43.592C250.406 43.792 250.718 44.044 250.95 44.348V43.388H252.33V50H250.95V49.016C250.718 49.328 250.402 49.588 250.002 49.796C249.602 50.004 249.146 50.108 248.634 50.108C248.066 50.108 247.546 49.964 247.074 49.676C246.602 49.38 246.226 48.972 245.946 48.452C245.674 47.924 245.538 47.328 245.538 46.664ZM250.95 46.688C250.95 46.232 250.854 45.836 250.662 45.5C250.478 45.164 250.234 44.908 249.93 44.732C249.626 44.556 249.298 44.468 248.946 44.468C248.594 44.468 248.266 44.556 247.962 44.732C247.658 44.9 247.41 45.152 247.218 45.488C247.034 45.816 246.942 46.208 246.942 46.664C246.942 47.12 247.034 47.52 247.218 47.864C247.41 48.208 247.658 48.472 247.962 48.656C248.274 48.832 248.602 48.92 248.946 48.92C249.298 48.92 249.626 48.832 249.93 48.656C250.234 48.48 250.478 48.224 250.662 47.888C250.854 47.544 250.95 47.144 250.95 46.688ZM256.527 50.108C256.007 50.108 255.539 50.016 255.123 49.832C254.715 49.64 254.391 49.384 254.151 49.064C253.911 48.736 253.783 48.372 253.767 47.972H255.183C255.207 48.252 255.339 48.488 255.579 48.68C255.827 48.864 256.135 48.956 256.503 48.956C256.887 48.956 257.183 48.884 257.391 48.74C257.607 48.588 257.715 48.396 257.715 48.164C257.715 47.916 257.595 47.732 257.355 47.612C257.123 47.492 256.751 47.36 256.239 47.216C255.743 47.08 255.339 46.948 255.027 46.82C254.715 46.692 254.443 46.496 254.211 46.232C253.987 45.968 253.875 45.62 253.875 45.188C253.875 44.836 253.979 44.516 254.187 44.228C254.395 43.932 254.691 43.7 255.075 43.532C255.467 43.364 255.915 43.28 256.419 43.28C257.171 43.28 257.775 43.472 258.231 43.856C258.695 44.232 258.943 44.748 258.975 45.404H257.607C257.583 45.108 257.463 44.872 257.247 44.696C257.031 44.52 256.739 44.432 256.371 44.432C256.011 44.432 255.735 44.5 255.543 44.636C255.351 44.772 255.255 44.952 255.255 45.176C255.255 45.352 255.319 45.5 255.447 45.62C255.575 45.74 255.731 45.836 255.915 45.908C256.099 45.972 256.371 46.056 256.731 46.16C257.211 46.288 257.603 46.42 257.907 46.556C258.219 46.684 258.487 46.876 258.711 47.132C258.935 47.388 259.051 47.728 259.059 48.152C259.059 48.528 258.955 48.864 258.747 49.16C258.539 49.456 258.243 49.688 257.859 49.856C257.483 50.024 257.039 50.108 256.527 50.108ZM262.133 44.504V48.164C262.133 48.412 262.189 48.592 262.301 48.704C262.421 48.808 262.621 48.86 262.901 48.86H263.741V50H262.661C262.045 50 261.573 49.856 261.245 49.568C260.917 49.28 260.753 48.812 260.753 48.164V44.504H259.973V43.388H260.753V41.744H262.133V43.388H263.741V44.504H262.133ZM276.999 43.388L274.947 50H273.507L272.175 45.116L270.843 50H269.403L267.339 43.388H268.731L270.111 48.704L271.515 43.388H272.943L274.287 48.68L275.655 43.388H276.999ZM284.081 46.532C284.081 46.78 284.065 47.004 284.033 47.204H278.981C279.021 47.732 279.217 48.156 279.569 48.476C279.921 48.796 280.353 48.956 280.865 48.956C281.601 48.956 282.121 48.648 282.425 48.032H283.901C283.701 48.64 283.337 49.14 282.809 49.532C282.289 49.916 281.641 50.108 280.865 50.108C280.233 50.108 279.665 49.968 279.161 49.688C278.665 49.4 278.273 49 277.985 48.488C277.705 47.968 277.565 47.368 277.565 46.688C277.565 46.008 277.701 45.412 277.973 44.9C278.253 44.38 278.641 43.98 279.137 43.7C279.641 43.42 280.217 43.28 280.865 43.28C281.489 43.28 282.045 43.416 282.533 43.688C283.021 43.96 283.401 44.344 283.673 44.84C283.945 45.328 284.081 45.892 284.081 46.532ZM282.653 46.1C282.645 45.596 282.465 45.192 282.113 44.888C281.761 44.584 281.325 44.432 280.805 44.432C280.333 44.432 279.929 44.584 279.593 44.888C279.257 45.184 279.057 45.588 278.993 46.1H282.653ZM291.487 46.532C291.487 46.78 291.471 47.004 291.439 47.204H286.387C286.427 47.732 286.623 48.156 286.975 48.476C287.327 48.796 287.759 48.956 288.271 48.956C289.007 48.956 289.527 48.648 289.831 48.032H291.307C291.107 48.64 290.743 49.14 290.215 49.532C289.695 49.916 289.047 50.108 288.271 50.108C287.639 50.108 287.071 49.968 286.567 49.688C286.071 49.4 285.679 49 285.391 48.488C285.111 47.968 284.971 47.368 284.971 46.688C284.971 46.008 285.107 45.412 285.379 44.9C285.659 44.38 286.047 43.98 286.543 43.7C287.047 43.42 287.623 43.28 288.271 43.28C288.895 43.28 289.451 43.416 289.939 43.688C290.427 43.96 290.807 44.344 291.079 44.84C291.351 45.328 291.487 45.892 291.487 46.532ZM290.059 46.1C290.051 45.596 289.871 45.192 289.519 44.888C289.167 44.584 288.731 44.432 288.211 44.432C287.739 44.432 287.335 44.584 286.999 44.888C286.663 45.184 286.463 45.588 286.399 46.1H290.059ZM295.45 46.7L298.498 50H296.65L294.202 47.156V50H292.834V41.12H294.202V46.28L296.602 43.388H298.498L295.45 46.7ZM305.619 52.232C304.835 51.48 304.231 50.524 303.807 49.364C303.391 48.204 303.183 46.96 303.183 45.632C303.183 44.272 303.407 42.988 303.855 41.78C304.311 40.572 304.979 39.576 305.859 38.792H307.275V38.924C306.355 39.772 305.663 40.788 305.199 41.972C304.735 43.156 304.503 44.376 304.503 45.632C304.503 46.84 304.719 48.008 305.151 49.136C305.583 50.264 306.211 51.252 307.035 52.1V52.232H305.619ZM313.866 42.308L310.53 50H309.15L312.522 42.452H308.082V41.288H313.866V42.308ZM317.878 46.664C317.878 46 318.014 45.412 318.286 44.9C318.566 44.388 318.942 43.992 319.414 43.712C319.894 43.424 320.426 43.28 321.01 43.28C321.442 43.28 321.866 43.376 322.282 43.568C322.706 43.752 323.042 44 323.29 44.312V41.12H324.67V50H323.29V49.004C323.066 49.324 322.754 49.588 322.354 49.796C321.962 50.004 321.51 50.108 320.998 50.108C320.422 50.108 319.894 49.964 319.414 49.676C318.942 49.38 318.566 48.972 318.286 48.452C318.014 47.924 317.878 47.328 317.878 46.664ZM323.29 46.688C323.29 46.232 323.194 45.836 323.002 45.5C322.818 45.164 322.574 44.908 322.27 44.732C321.966 44.556 321.638 44.468 321.286 44.468C320.934 44.468 320.606 44.556 320.302 44.732C319.998 44.9 319.75 45.152 319.558 45.488C319.374 45.816 319.282 46.208 319.282 46.664C319.282 47.12 319.374 47.52 319.558 47.864C319.75 48.208 319.998 48.472 320.302 48.656C320.614 48.832 320.942 48.92 321.286 48.92C321.638 48.92 321.966 48.832 322.27 48.656C322.574 48.48 322.818 48.224 323.002 47.888C323.194 47.544 323.29 47.144 323.29 46.688ZM326.01 46.664C326.01 46 326.146 45.412 326.418 44.9C326.698 44.388 327.074 43.992 327.546 43.712C328.026 43.424 328.554 43.28 329.13 43.28C329.65 43.28 330.102 43.384 330.486 43.592C330.878 43.792 331.19 44.044 331.422 44.348V43.388H332.802V50H331.422V49.016C331.19 49.328 330.874 49.588 330.474 49.796C330.074 50.004 329.618 50.108 329.106 50.108C328.538 50.108 328.018 49.964 327.546 49.676C327.074 49.38 326.698 48.972 326.418 48.452C326.146 47.924 326.01 47.328 326.01 46.664ZM331.422 46.688C331.422 46.232 331.326 45.836 331.134 45.5C330.95 45.164 330.706 44.908 330.402 44.732C330.098 44.556 329.77 44.468 329.418 44.468C329.066 44.468 328.738 44.556 328.434 44.732C328.13 44.9 327.882 45.152 327.69 45.488C327.506 45.816 327.414 46.208 327.414 46.664C327.414 47.12 327.506 47.52 327.69 47.864C327.882 48.208 328.13 48.472 328.434 48.656C328.746 48.832 329.074 48.92 329.418 48.92C329.77 48.92 330.098 48.832 330.402 48.656C330.706 48.48 330.95 48.224 331.134 47.888C331.326 47.544 331.422 47.144 331.422 46.688ZM340.551 43.388L336.495 53.108H335.079L336.423 49.892L333.819 43.388H335.343L337.203 48.428L339.135 43.388H340.551ZM343.984 50.108C343.464 50.108 342.996 50.016 342.58 49.832C342.172 49.64 341.848 49.384 341.608 49.064C341.368 48.736 341.24 48.372 341.224 47.972H342.64C342.664 48.252 342.796 48.488 343.036 48.68C343.284 48.864 343.592 48.956 343.96 48.956C344.344 48.956 344.64 48.884 344.848 48.74C345.064 48.588 345.172 48.396 345.172 48.164C345.172 47.916 345.052 47.732 344.812 47.612C344.58 47.492 344.208 47.36 343.696 47.216C343.2 47.08 342.796 46.948 342.484 46.82C342.172 46.692 341.9 46.496 341.668 46.232C341.444 45.968 341.332 45.62 341.332 45.188C341.332 44.836 341.436 44.516 341.644 44.228C341.852 43.932 342.148 43.7 342.532 43.532C342.924 43.364 343.372 43.28 343.876 43.28C344.628 43.28 345.232 43.472 345.688 43.856C346.152 44.232 346.4 44.748 346.432 45.404H345.064C345.04 45.108 344.92 44.872 344.704 44.696C344.488 44.52 344.196 44.432 343.828 44.432C343.468 44.432 343.192 44.5 343 44.636C342.808 44.772 342.712 44.952 342.712 45.176C342.712 45.352 342.776 45.5 342.904 45.62C343.032 45.74 343.188 45.836 343.372 45.908C343.556 45.972 343.828 46.056 344.188 46.16C344.668 46.288 345.06 46.42 345.364 46.556C345.676 46.684 345.944 46.876 346.168 47.132C346.392 47.388 346.508 47.728 346.516 48.152C346.516 48.528 346.412 48.864 346.204 49.16C345.996 49.456 345.7 49.688 345.316 49.856C344.94 50.024 344.496 50.108 343.984 50.108ZM347.658 52.232V52.1C348.482 51.252 349.11 50.264 349.542 49.136C349.974 48.008 350.19 46.84 350.19 45.632C350.19 44.376 349.958 43.156 349.494 41.972C349.03 40.788 348.338 39.772 347.418 38.924V38.792H348.834C349.714 39.576 350.378 40.572 350.826 41.78C351.282 42.988 351.51 44.272 351.51 45.632C351.51 46.96 351.298 48.204 350.874 49.364C350.458 50.524 349.858 51.48 349.074 52.232H347.658Z" fill="#595959"/>
<rect x="235.5" y="32.5" width="143" height="28" stroke="#595959"/>
<path d="M360 44L366 50L372 44" stroke="#595959" stroke-width="1.5" stroke-linecap="round" stroke-linejoin="round"/>
<path d="M30.6298 87.116H26.2378V90.188C26.4378 89.908 26.7298 89.68 27.1138 89.504C27.4978 89.32 27.9138 89.228 28.3618 89.228C29.0178 89.228 29.5538 89.364 29.9698 89.636C30.3858 89.9 30.6858 90.248 30.8698 90.68C31.0538 91.104 31.1458 91.56 31.1458 92.048C31.1458 92.608 31.0378 93.116 30.8218 93.572C30.6138 94.02 30.2898 94.376 29.8498 94.64C29.4178 94.904 28.8778 95.036 28.2298 95.036C27.4058 95.036 26.7378 94.824 26.2258 94.4C25.7138 93.968 25.4018 93.388 25.2898 92.66H26.1178C26.2218 93.188 26.4618 93.596 26.8378 93.884C27.2138 94.172 27.6778 94.316 28.2298 94.316C28.9258 94.316 29.4498 94.112 29.8018 93.704C30.1618 93.288 30.3418 92.74 30.3418 92.06C30.3418 91.396 30.1618 90.88 29.8018 90.512C29.4418 90.136 28.9258 89.948 28.2538 89.948C27.7898 89.948 27.3818 90.056 27.0298 90.272C26.6778 90.488 26.4178 90.78 26.2498 91.148H25.4578V86.384H30.6298V87.116ZM32.348 88.196C32.348 87.684 32.504 87.272 32.816 86.96C33.136 86.64 33.54 86.48 34.028 86.48C34.524 86.48 34.928 86.64 35.24 86.96C35.56 87.272 35.72 87.684 35.72 88.196C35.72 88.716 35.56 89.136 35.24 89.456C34.928 89.768 34.524 89.924 34.028 89.924C33.54 89.924 33.136 89.768 32.816 89.456C32.504 89.136 32.348 88.716 32.348 88.196ZM39.068 86.6L34.148 95H33.296L38.228 86.6H39.068ZM34.028 87.02C33.724 87.02 33.48 87.124 33.296 87.332C33.12 87.532 33.032 87.82 33.032 88.196C33.032 88.572 33.12 88.864 33.296 89.072C33.48 89.28 33.724 89.384 34.028 89.384C34.332 89.384 34.576 89.28 34.76 89.072C34.944 88.864 35.036 88.572 35.036 88.196C35.036 87.828 34.944 87.54 34.76 87.332C34.576 87.124 34.332 87.02 34.028 87.02ZM36.668 93.404C36.668 92.884 36.824 92.468 37.136 92.156C37.456 91.836 37.86 91.676 38.348 91.676C38.836 91.676 39.236 91.836 39.548 92.156C39.868 92.468 40.028 92.884 40.028 93.404C40.028 93.924 39.868 94.344 39.548 94.664C39.236 94.976 38.836 95.132 38.348 95.132C37.86 95.132 37.456 94.976 37.136 94.664C36.824 94.344 36.668 93.924 36.668 93.404ZM38.348 92.228C38.044 92.228 37.8 92.332 37.616 92.54C37.432 92.748 37.34 93.036 37.34 93.404C37.34 93.772 37.432 94.06 37.616 94.268C37.8 94.476 38.044 94.58 38.348 94.58C38.652 94.58 38.892 94.48 39.068 94.28C39.252 94.072 39.344 93.78 39.344 93.404C39.344 93.028 39.252 92.74 39.068 92.54C38.892 92.332 38.652 92.228 38.348 92.228ZM49.2991 88.328C50.0671 88.328 50.6911 88.572 51.1711 89.06C51.6591 89.54 51.9031 90.24 51.9031 91.16V95H51.0751V91.256C51.0751 90.544 50.9031 90 50.5591 89.624C50.2151 89.248 49.7471 89.06 49.1551 89.06C48.5391 89.06 48.0471 89.264 47.6791 89.672C47.3111 90.08 47.1271 90.672 47.1271 91.448V95H46.2991V91.256C46.2991 90.544 46.1271 90 45.7831 89.624C45.4391 89.248 44.9671 89.06 44.3671 89.06C43.7511 89.06 43.2591 89.264 42.8911 89.672C42.5231 90.08 42.3391 90.672 42.3391 91.448V95H41.4991V88.448H42.3391V89.576C42.5471 89.168 42.8431 88.86 43.2271 88.652C43.6111 88.436 44.0391 88.328 44.5111 88.328C45.0791 88.328 45.5751 88.464 45.9991 88.736C46.4311 89.008 46.7431 89.408 46.9351 89.936C47.1111 89.416 47.4111 89.02 47.8351 88.748C48.2671 88.468 48.7551 88.328 49.2991 88.328ZM56.6366 95.096C56.0206 95.096 55.4646 94.96 54.9686 94.688C54.4806 94.408 54.0926 94.016 53.8046 93.512C53.5246 93 53.3846 92.404 53.3846 91.724C53.3846 91.044 53.5286 90.452 53.8166 89.948C54.1046 89.436 54.4966 89.044 54.9926 88.772C55.4886 88.492 56.0446 88.352 56.6606 88.352C57.2766 88.352 57.8326 88.492 58.3286 88.772C58.8326 89.044 59.2246 89.436 59.5046 89.948C59.7926 90.452 59.9366 91.044 59.9366 91.724C59.9366 92.396 59.7926 92.988 59.5046 93.5C59.2166 94.012 58.8206 94.408 58.3166 94.688C57.8126 94.96 57.2526 95.096 56.6366 95.096ZM56.6366 94.364C57.0686 94.364 57.4686 94.268 57.8366 94.076C58.2046 93.876 58.5006 93.58 58.7246 93.188C58.9566 92.788 59.0726 92.3 59.0726 91.724C59.0726 91.148 58.9606 90.664 58.7366 90.272C58.5126 89.872 58.2166 89.576 57.8486 89.384C57.4806 89.184 57.0806 89.084 56.6486 89.084C56.2166 89.084 55.8166 89.184 55.4486 89.384C55.0806 89.576 54.7846 89.872 54.5606 90.272C54.3446 90.664 54.2366 91.148 54.2366 91.724C54.2366 92.3 54.3446 92.788 54.5606 93.188C54.7846 93.58 55.0766 93.876 55.4366 94.076C55.8046 94.268 56.2046 94.364 56.6366 94.364ZM62.3078 89.612C62.4918 89.204 62.7718 88.888 63.1478 88.664C63.5318 88.44 63.9998 88.328 64.5518 88.328V89.204H64.3238C63.7158 89.204 63.2278 89.368 62.8598 89.696C62.4918 90.024 62.3078 90.572 62.3078 91.34V95H61.4678V88.448H62.3078V89.612ZM71.7435 91.388C71.7435 91.676 71.7355 91.896 71.7195 92.048H66.2835C66.3075 92.544 66.4275 92.968 66.6435 93.32C66.8595 93.672 67.1435 93.94 67.4955 94.124C67.8475 94.3 68.2315 94.388 68.6475 94.388C69.1915 94.388 69.6475 94.256 70.0155 93.992C70.3915 93.728 70.6395 93.372 70.7595 92.924H71.6475C71.4875 93.564 71.1435 94.088 70.6155 94.496C70.0955 94.896 69.4395 95.096 68.6475 95.096C68.0315 95.096 67.4795 94.96 66.9915 94.688C66.5035 94.408 66.1195 94.016 65.8395 93.512C65.5675 93 65.4315 92.404 65.4315 91.724C65.4315 91.044 65.5675 90.448 65.8395 89.936C66.1115 89.424 66.4915 89.032 66.9795 88.76C67.4675 88.488 68.0235 88.352 68.6475 88.352C69.2715 88.352 69.8155 88.488 70.2795 88.76C70.7515 89.032 71.1115 89.4 71.3595 89.864C71.6155 90.32 71.7435 90.828 71.7435 91.388ZM70.8915 91.364C70.8995 90.876 70.7995 90.46 70.5915 90.116C70.3915 89.772 70.1155 89.512 69.7635 89.336C69.4115 89.16 69.0275 89.072 68.6115 89.072C67.9875 89.072 67.4555 89.272 67.0155 89.672C66.5755 90.072 66.3315 90.636 66.2835 91.364H70.8915ZM78.8293 95.096C78.0773 95.096 77.4613 94.924 76.9813 94.58C76.5093 94.228 76.2453 93.752 76.1893 93.152H77.0533C77.0933 93.52 77.2653 93.82 77.5693 94.052C77.8813 94.276 78.2973 94.388 78.8173 94.388C79.2733 94.388 79.6293 94.28 79.8853 94.064C80.1493 93.848 80.2813 93.58 80.2813 93.26C80.2813 93.036 80.2093 92.852 80.0653 92.708C79.9213 92.564 79.7373 92.452 79.5133 92.372C79.2973 92.284 79.0013 92.192 78.6253 92.096C78.1373 91.968 77.7413 91.84 77.4373 91.712C77.1333 91.584 76.8733 91.396 76.6573 91.148C76.4493 90.892 76.3453 90.552 76.3453 90.128C76.3453 89.808 76.4413 89.512 76.6333 89.24C76.8253 88.968 77.0973 88.752 77.4493 88.592C77.8013 88.432 78.2013 88.352 78.6493 88.352C79.3533 88.352 79.9213 88.532 80.3533 88.892C80.7853 89.244 81.0173 89.732 81.0493 90.356H80.2093C80.1853 89.972 80.0333 89.664 79.7533 89.432C79.4813 89.192 79.1053 89.072 78.6253 89.072C78.2013 89.072 77.8573 89.172 77.5933 89.372C77.3293 89.572 77.1973 89.82 77.1973 90.116C77.1973 90.372 77.2733 90.584 77.4253 90.752C77.5853 90.912 77.7813 91.04 78.0133 91.136C78.2453 91.224 78.5573 91.324 78.9493 91.436C79.4213 91.564 79.7973 91.688 80.0773 91.808C80.3573 91.928 80.5973 92.104 80.7973 92.336C80.9973 92.568 81.1013 92.876 81.1093 93.26C81.1093 93.612 81.0133 93.928 80.8213 94.208C80.6293 94.48 80.3613 94.696 80.0173 94.856C79.6733 95.016 79.2773 95.096 78.8293 95.096ZM83.5185 89.888C83.7265 89.448 84.0545 89.084 84.5025 88.796C84.9585 88.5 85.4985 88.352 86.1225 88.352C86.7145 88.352 87.2465 88.492 87.7185 88.772C88.1985 89.044 88.5705 89.436 88.8345 89.948C89.1065 90.452 89.2425 91.04 89.2425 91.712C89.2425 92.384 89.1065 92.976 88.8345 93.488C88.5705 94 88.1985 94.396 87.7185 94.676C87.2465 94.956 86.7145 95.096 86.1225 95.096C85.5065 95.096 84.9705 94.952 84.5145 94.664C84.0585 94.368 83.7265 94 83.5185 93.56V98.096H82.6905V88.448H83.5185V89.888ZM88.3905 91.712C88.3905 91.168 88.2825 90.7 88.0665 90.308C87.8585 89.908 87.5705 89.604 87.2025 89.396C86.8345 89.188 86.4185 89.084 85.9545 89.084C85.5065 89.084 85.0945 89.192 84.7185 89.408C84.3505 89.624 84.0585 89.932 83.8425 90.332C83.6265 90.732 83.5185 91.196 83.5185 91.724C83.5185 92.252 83.6265 92.716 83.8425 93.116C84.0585 93.516 84.3505 93.824 84.7185 94.04C85.0945 94.256 85.5065 94.364 85.9545 94.364C86.4185 94.364 86.8345 94.26 87.2025 94.052C87.5705 93.836 87.8585 93.528 88.0665 93.128C88.2825 92.72 88.3905 92.248 88.3905 91.712ZM96.7161 91.388C96.7161 91.676 96.7081 91.896 96.6921 92.048H91.2561C91.2801 92.544 91.4001 92.968 91.6161 93.32C91.8321 93.672 92.1161 93.94 92.4681 94.124C92.8201 94.3 93.2041 94.388 93.6201 94.388C94.1641 94.388 94.6201 94.256 94.9881 93.992C95.3641 93.728 95.6121 93.372 95.7321 92.924H96.6201C96.4601 93.564 96.1161 94.088 95.5881 94.496C95.0681 94.896 94.4121 95.096 93.6201 95.096C93.0041 95.096 92.4521 94.96 91.9641 94.688C91.4761 94.408 91.0921 94.016 90.8121 93.512C90.5401 93 90.4041 92.404 90.4041 91.724C90.4041 91.044 90.5401 90.448 90.8121 89.936C91.0841 89.424 91.4641 89.032 91.9521 88.76C92.4401 88.488 92.9961 88.352 93.6201 88.352C94.2441 88.352 94.7881 88.488 95.2521 88.76C95.7241 89.032 96.0841 89.4 96.3321 89.864C96.5881 90.32 96.7161 90.828 96.7161 91.388ZM95.8641 91.364C95.8721 90.876 95.7721 90.46 95.5641 90.116C95.3641 89.772 95.0881 89.512 94.7361 89.336C94.3841 89.16 94.0001 89.072 93.5841 89.072C92.9601 89.072 92.4281 89.272 91.9881 89.672C91.5481 90.072 91.3041 90.636 91.2561 91.364H95.8641ZM101.325 88.328C102.109 88.328 102.749 88.572 103.245 89.06C103.741 89.54 103.989 90.24 103.989 91.16V95H103.161V91.256C103.161 90.544 102.981 90 102.621 89.624C102.269 89.248 101.785 89.06 101.169 89.06C100.537 89.06 100.033 89.26 99.657 89.66C99.281 90.06 99.093 90.648 99.093 91.424V95H98.253V88.448H99.093V89.564C99.301 89.164 99.601 88.86 99.993 88.652C100.385 88.436 100.829 88.328 101.325 88.328ZM105.463 91.712C105.463 91.04 105.599 90.452 105.871 89.948C106.143 89.436 106.515 89.044 106.987 88.772C107.467 88.492 108.007 88.352 108.607 88.352C109.183 88.352 109.703 88.492 110.167 88.772C110.631 89.052 110.971 89.416 111.187 89.864V86.12H112.027V95H111.187V93.536C110.987 93.992 110.659 94.368 110.203 94.664C109.747 94.952 109.211 95.096 108.595 95.096C107.995 95.096 107.455 94.956 106.975 94.676C106.503 94.396 106.131 94 105.859 93.488C105.595 92.976 105.463 92.384 105.463 91.712ZM111.187 91.724C111.187 91.196 111.079 90.732 110.863 90.332C110.647 89.932 110.351 89.624 109.975 89.408C109.607 89.192 109.199 89.084 108.751 89.084C108.287 89.084 107.871 89.188 107.503 89.396C107.135 89.604 106.843 89.908 106.627 90.308C106.419 90.7 106.315 91.168 106.315 91.712C106.315 92.248 106.419 92.72 106.627 93.128C106.843 93.528 107.135 93.836 107.503 94.052C107.871 94.26 108.287 94.364 108.751 94.364C109.199 94.364 109.607 94.256 109.975 94.04C110.351 93.824 110.647 93.516 110.863 93.116C111.079 92.716 111.187 92.252 111.187 91.724ZM114.364 87.212C114.196 87.212 114.052 87.152 113.932 87.032C113.812 86.912 113.752 86.764 113.752 86.588C113.752 86.412 113.812 86.268 113.932 86.156C114.052 86.036 114.196 85.976 114.364 85.976C114.532 85.976 114.676 86.036 114.796 86.156C114.916 86.268 114.976 86.412 114.976 86.588C114.976 86.764 114.916 86.912 114.796 87.032C114.676 87.152 114.532 87.212 114.364 87.212ZM114.784 88.448V95H113.944V88.448H114.784ZM119.759 88.328C120.543 88.328 121.183 88.572 121.679 89.06C122.175 89.54 122.423 90.24 122.423 91.16V95H121.595V91.256C121.595 90.544 121.415 90 121.055 89.624C120.703 89.248 120.219 89.06 119.603 89.06C118.971 89.06 118.467 89.26 118.091 89.66C117.715 90.06 117.527 90.648 117.527 91.424V95H116.687V88.448H117.527V89.564C117.735 89.164 118.035 88.86 118.427 88.652C118.819 88.436 119.263 88.328 119.759 88.328ZM127.028 88.352C127.644 88.352 128.18 88.496 128.636 88.784C129.092 89.072 129.42 89.436 129.62 89.876V88.448H130.46V95.168C130.46 95.768 130.328 96.3 130.064 96.764C129.808 97.228 129.448 97.584 128.984 97.832C128.52 98.088 127.992 98.216 127.4 98.216C126.56 98.216 125.86 98.016 125.3 97.616C124.748 97.216 124.404 96.672 124.268 95.984H125.096C125.24 96.44 125.512 96.804 125.912 97.076C126.32 97.348 126.816 97.484 127.4 97.484C127.824 97.484 128.204 97.392 128.54 97.208C128.876 97.032 129.14 96.768 129.332 96.416C129.524 96.064 129.62 95.648 129.62 95.168V93.548C129.412 93.996 129.08 94.368 128.624 94.664C128.176 94.952 127.644 95.096 127.028 95.096C126.428 95.096 125.888 94.956 125.408 94.676C124.936 94.396 124.564 94 124.292 93.488C124.028 92.976 123.896 92.384 123.896 91.712C123.896 91.04 124.028 90.452 124.292 89.948C124.564 89.436 124.936 89.044 125.408 88.772C125.888 88.492 126.428 88.352 127.028 88.352ZM129.62 91.724C129.62 91.196 129.512 90.732 129.296 90.332C129.08 89.932 128.784 89.624 128.408 89.408C128.04 89.192 127.632 89.084 127.184 89.084C126.72 89.084 126.304 89.188 125.936 89.396C125.568 89.604 125.276 89.908 125.06 90.308C124.852 90.7 124.748 91.168 124.748 91.712C124.748 92.248 124.852 92.72 125.06 93.128C125.276 93.528 125.568 93.836 125.936 94.052C126.304 94.26 126.72 94.364 127.184 94.364C127.632 94.364 128.04 94.256 128.408 94.04C128.784 93.824 129.08 93.516 129.296 93.116C129.512 92.716 129.62 92.252 129.62 91.724ZM136.763 89.156V93.224C136.763 93.624 136.839 93.9 136.991 94.052C137.143 94.204 137.411 94.28 137.795 94.28H138.563V95H137.663C137.071 95 136.631 94.864 136.343 94.592C136.055 94.312 135.911 93.856 135.911 93.224V89.156H134.999V88.448H135.911V86.804H136.763V88.448H138.563V89.156H136.763ZM143.068 88.328C143.564 88.328 144.008 88.432 144.4 88.64C144.8 88.848 145.112 89.168 145.336 89.6C145.568 90.024 145.684 90.544 145.684 91.16V95H144.856V91.256C144.856 90.544 144.676 90 144.316 89.624C143.964 89.248 143.48 89.06 142.864 89.06C142.232 89.06 141.728 89.26 141.352 89.66C140.976 90.06 140.788 90.648 140.788 91.424V95H139.948V86.12H140.788V89.564C140.996 89.172 141.3 88.868 141.7 88.652C142.108 88.436 142.564 88.328 143.068 88.328ZM147.158 91.712C147.158 91.04 147.29 90.452 147.554 89.948C147.826 89.436 148.198 89.044 148.67 88.772C149.15 88.492 149.69 88.352 150.29 88.352C150.914 88.352 151.45 88.496 151.898 88.784C152.354 89.072 152.682 89.44 152.882 89.888V88.448H153.722V95H152.882V93.548C152.674 93.996 152.342 94.368 151.886 94.664C151.438 94.952 150.902 95.096 150.278 95.096C149.686 95.096 149.15 94.956 148.67 94.676C148.198 94.396 147.826 94 147.554 93.488C147.29 92.976 147.158 92.384 147.158 91.712ZM152.882 91.724C152.882 91.196 152.774 90.732 152.558 90.332C152.342 89.932 152.046 89.624 151.67 89.408C151.302 89.192 150.894 89.084 150.446 89.084C149.982 89.084 149.566 89.188 149.198 89.396C148.83 89.604 148.538 89.908 148.322 90.308C148.114 90.7 148.01 91.168 148.01 91.712C148.01 92.248 148.114 92.72 148.322 93.128C148.538 93.528 148.83 93.836 149.198 94.052C149.566 94.26 149.982 94.364 150.446 94.364C150.894 94.364 151.302 94.256 151.67 94.04C152.046 93.824 152.342 93.516 152.558 93.116C152.774 92.716 152.882 92.252 152.882 91.724ZM158.712 88.328C159.496 88.328 160.136 88.572 160.632 89.06C161.128 89.54 161.376 90.24 161.376 91.16V95H160.548V91.256C160.548 90.544 160.368 90 160.008 89.624C159.656 89.248 159.172 89.06 158.556 89.06C157.924 89.06 157.42 89.26 157.044 89.66C156.668 90.06 156.48 90.648 156.48 91.424V95H155.64V88.448H156.48V89.564C156.688 89.164 156.988 88.86 157.38 88.652C157.772 88.436 158.216 88.328 158.712 88.328ZM167.366 86.12V95H166.526V86.12H167.366ZM168.885 91.712C168.885 91.04 169.017 90.452 169.281 89.948C169.553 89.436 169.925 89.044 170.397 88.772C170.877 88.492 171.417 88.352 172.017 88.352C172.641 88.352 173.177 88.496 173.625 88.784C174.081 89.072 174.409 89.44 174.609 89.888V88.448H175.449V95H174.609V93.548C174.401 93.996 174.069 94.368 173.613 94.664C173.165 94.952 172.629 95.096 172.005 95.096C171.413 95.096 170.877 94.956 170.397 94.676C169.925 94.396 169.553 94 169.281 93.488C169.017 92.976 168.885 92.384 168.885 91.712ZM174.609 91.724C174.609 91.196 174.501 90.732 174.285 90.332C174.069 89.932 173.773 89.624 173.397 89.408C173.029 89.192 172.621 89.084 172.173 89.084C171.709 89.084 171.293 89.188 170.925 89.396C170.557 89.604 170.265 89.908 170.049 90.308C169.841 90.7 169.737 91.168 169.737 91.712C169.737 92.248 169.841 92.72 170.049 93.128C170.265 93.528 170.557 93.836 170.925 94.052C171.293 94.26 171.709 94.364 172.173 94.364C172.621 94.364 173.029 94.256 173.397 94.04C173.773 93.824 174.069 93.516 174.285 93.116C174.501 92.716 174.609 92.252 174.609 91.724ZM179.622 95.096C178.87 95.096 178.254 94.924 177.774 94.58C177.302 94.228 177.038 93.752 176.982 93.152H177.846C177.886 93.52 178.058 93.82 178.362 94.052C178.674 94.276 179.09 94.388 179.61 94.388C180.066 94.388 180.422 94.28 180.678 94.064C180.942 93.848 181.074 93.58 181.074 93.26C181.074 93.036 181.002 92.852 180.858 92.708C180.714 92.564 180.53 92.452 180.306 92.372C180.09 92.284 179.794 92.192 179.418 92.096C178.93 91.968 178.534 91.84 178.23 91.712C177.926 91.584 177.666 91.396 177.45 91.148C177.242 90.892 177.138 90.552 177.138 90.128C177.138 89.808 177.234 89.512 177.426 89.24C177.618 88.968 177.89 88.752 178.242 88.592C178.594 88.432 178.994 88.352 179.442 88.352C180.146 88.352 180.714 88.532 181.146 88.892C181.578 89.244 181.81 89.732 181.842 90.356H181.002C180.978 89.972 180.826 89.664 180.546 89.432C180.274 89.192 179.898 89.072 179.418 89.072C178.994 89.072 178.65 89.172 178.386 89.372C178.122 89.572 177.99 89.82 177.99 90.116C177.99 90.372 178.066 90.584 178.218 90.752C178.378 90.912 178.574 91.04 178.806 91.136C179.038 91.224 179.35 91.324 179.742 91.436C180.214 91.564 180.59 91.688 180.87 91.808C181.15 91.928 181.39 92.104 181.59 92.336C181.79 92.568 181.894 92.876 181.902 93.26C181.902 93.612 181.806 93.928 181.614 94.208C181.422 94.48 181.154 94.696 180.81 94.856C180.466 95.016 180.07 95.096 179.622 95.096ZM184.575 89.156V93.224C184.575 93.624 184.651 93.9 184.803 94.052C184.955 94.204 185.223 94.28 185.607 94.28H186.375V95H185.475C184.883 95 184.443 94.864 184.155 94.592C183.867 94.312 183.723 93.856 183.723 93.224V89.156H182.811V88.448H183.723V86.804H184.575V88.448H186.375V89.156H184.575ZM199.694 88.448L197.642 95H196.802L194.99 89.504L193.178 95H192.326L190.274 88.448H191.126L192.758 94.148L194.594 88.448H195.434L197.246 94.16L198.866 88.448H199.694ZM206.767 91.388C206.767 91.676 206.759 91.896 206.743 92.048H201.307C201.331 92.544 201.451 92.968 201.667 93.32C201.883 93.672 202.167 93.94 202.519 94.124C202.871 94.3 203.255 94.388 203.671 94.388C204.215 94.388 204.671 94.256 205.039 93.992C205.415 93.728 205.663 93.372 205.783 92.924H206.671C206.511 93.564 206.167 94.088 205.639 94.496C205.119 94.896 204.463 95.096 203.671 95.096C203.055 95.096 202.503 94.96 202.015 94.688C201.527 94.408 201.143 94.016 200.863 93.512C200.591 93 200.455 92.404 200.455 91.724C200.455 91.044 200.591 90.448 200.863 89.936C201.135 89.424 201.515 89.032 202.003 88.76C202.491 88.488 203.047 88.352 203.671 88.352C204.295 88.352 204.839 88.488 205.303 88.76C205.775 89.032 206.135 89.4 206.383 89.864C206.639 90.32 206.767 90.828 206.767 91.388ZM205.915 91.364C205.923 90.876 205.823 90.46 205.615 90.116C205.415 89.772 205.139 89.512 204.787 89.336C204.435 89.16 204.051 89.072 203.635 89.072C203.011 89.072 202.479 89.272 202.039 89.672C201.599 90.072 201.355 90.636 201.307 91.364H205.915ZM214.232 91.388C214.232 91.676 214.224 91.896 214.208 92.048H208.772C208.796 92.544 208.916 92.968 209.132 93.32C209.348 93.672 209.632 93.94 209.984 94.124C210.336 94.3 210.72 94.388 211.136 94.388C211.68 94.388 212.136 94.256 212.504 93.992C212.88 93.728 213.128 93.372 213.248 92.924H214.136C213.976 93.564 213.632 94.088 213.104 94.496C212.584 94.896 211.928 95.096 211.136 95.096C210.52 95.096 209.968 94.96 209.48 94.688C208.992 94.408 208.608 94.016 208.328 93.512C208.056 93 207.92 92.404 207.92 91.724C207.92 91.044 208.056 90.448 208.328 89.936C208.6 89.424 208.98 89.032 209.468 88.76C209.956 88.488 210.512 88.352 211.136 88.352C211.76 88.352 212.304 88.488 212.768 88.76C213.24 89.032 213.6 89.4 213.848 89.864C214.104 90.32 214.232 90.828 214.232 91.388ZM213.38 91.364C213.388 90.876 213.288 90.46 213.08 90.116C212.88 89.772 212.604 89.512 212.252 89.336C211.9 89.16 211.516 89.072 211.1 89.072C210.476 89.072 209.944 89.272 209.504 89.672C209.064 90.072 208.82 90.636 208.772 91.364H213.38ZM219.309 95L216.609 92.06V95H215.769V86.12H216.609V91.376L219.249 88.448H220.425L217.317 91.712L220.449 95H219.309Z" fill="#595959"/>
<path d="M85.518 71.114C85.518 70.162 85.7373 69.308 86.176 68.552C86.624 67.796 87.226 67.208 87.982 66.788C88.7473 66.3587 89.5827 66.144 90.488 66.144C91.524 66.144 92.4433 66.4007 93.246 66.914C94.058 67.418 94.646 68.1367 95.01 69.07H93.092C92.84 68.5567 92.49 68.174 92.042 67.922C91.594 67.67 91.076 67.544 90.488 67.544C89.844 67.544 89.27 67.6887 88.766 67.978C88.262 68.2673 87.8653 68.6827 87.576 69.224C87.296 69.7653 87.156 70.3953 87.156 71.114C87.156 71.8327 87.296 72.4627 87.576 73.004C87.8653 73.5453 88.262 73.9653 88.766 74.264C89.27 74.5533 89.844 74.698 90.488 74.698C91.076 74.698 91.594 74.572 92.042 74.32C92.49 74.068 92.84 73.6853 93.092 73.172H95.01C94.646 74.1053 94.058 74.824 93.246 75.328C92.4433 75.832 91.524 76.084 90.488 76.084C89.5733 76.084 88.738 75.874 87.982 75.454C87.226 75.0247 86.624 74.432 86.176 73.676C85.7373 72.92 85.518 72.066 85.518 71.114ZM100.224 76.126C99.4961 76.126 98.8381 75.9627 98.2501 75.636C97.6621 75.3 97.2001 74.8333 96.8641 74.236C96.5281 73.6293 96.3601 72.9293 96.3601 72.136C96.3601 71.352 96.5328 70.6567 96.8781 70.05C97.2235 69.4433 97.6948 68.9767 98.2921 68.65C98.8895 68.3233 99.5568 68.16 100.294 68.16C101.031 68.16 101.699 68.3233 102.296 68.65C102.893 68.9767 103.365 69.4433 103.71 70.05C104.055 70.6567 104.228 71.352 104.228 72.136C104.228 72.92 104.051 73.6153 103.696 74.222C103.341 74.8287 102.856 75.3 102.24 75.636C101.633 75.9627 100.961 76.126 100.224 76.126ZM100.224 74.74C100.635 74.74 101.017 74.642 101.372 74.446C101.736 74.25 102.03 73.956 102.254 73.564C102.478 73.172 102.59 72.696 102.59 72.136C102.59 71.576 102.483 71.1047 102.268 70.722C102.053 70.33 101.769 70.036 101.414 69.84C101.059 69.644 100.677 69.546 100.266 69.546C99.8555 69.546 99.4728 69.644 99.1181 69.84C98.7728 70.036 98.4975 70.33 98.2921 70.722C98.0868 71.1047 97.9841 71.576 97.9841 72.136C97.9841 72.9667 98.1941 73.6107 98.6141 74.068C99.0435 74.516 99.5801 74.74 100.224 74.74ZM108.606 76.126C107.999 76.126 107.453 76.0187 106.968 75.804C106.492 75.58 106.114 75.2813 105.834 74.908C105.554 74.5253 105.405 74.1007 105.386 73.634H107.038C107.066 73.9607 107.22 74.236 107.5 74.46C107.789 74.6747 108.149 74.782 108.578 74.782C109.026 74.782 109.371 74.698 109.614 74.53C109.866 74.3527 109.992 74.1287 109.992 73.858C109.992 73.5687 109.852 73.354 109.572 73.214C109.301 73.074 108.867 72.92 108.27 72.752C107.691 72.5933 107.22 72.4393 106.856 72.29C106.492 72.1407 106.175 71.912 105.904 71.604C105.643 71.296 105.512 70.89 105.512 70.386C105.512 69.9753 105.633 69.602 105.876 69.266C106.119 68.9207 106.464 68.65 106.912 68.454C107.369 68.258 107.892 68.16 108.48 68.16C109.357 68.16 110.062 68.384 110.594 68.832C111.135 69.2707 111.425 69.8727 111.462 70.638H109.866C109.838 70.2927 109.698 70.0173 109.446 69.812C109.194 69.6067 108.853 69.504 108.424 69.504C108.004 69.504 107.682 69.5833 107.458 69.742C107.234 69.9007 107.122 70.1107 107.122 70.372C107.122 70.5773 107.197 70.75 107.346 70.89C107.495 71.03 107.677 71.142 107.892 71.226C108.107 71.3007 108.424 71.3987 108.844 71.52C109.404 71.6693 109.861 71.8233 110.216 71.982C110.58 72.1313 110.893 72.3553 111.154 72.654C111.415 72.9527 111.551 73.3493 111.56 73.844C111.56 74.2827 111.439 74.6747 111.196 75.02C110.953 75.3653 110.608 75.636 110.16 75.832C109.721 76.028 109.203 76.126 108.606 76.126ZM115.146 69.588V73.858C115.146 74.1473 115.212 74.3573 115.342 74.488C115.482 74.6093 115.716 74.67 116.042 74.67H117.022V76H115.762C115.044 76 114.493 75.832 114.11 75.496C113.728 75.16 113.536 74.614 113.536 73.858V69.588H112.626V68.286H113.536V66.368H115.146V68.286H117.022V69.588H115.146Z" fill="#595959"/>
<path d="M103.464 52L99.624 45.328H97.536V52H94.8V35.32H100.56C101.84 35.32 102.92 35.544 103.8 35.992C104.696 36.44 105.36 37.04 105.792 37.792C106.24 38.544 106.464 39.384 106.464 40.312C106.464 41.4 106.144 42.392 105.504 43.288C104.88 44.168 103.912 44.768 102.6 45.088L106.728 52H103.464ZM97.536 43.144H100.56C101.584 43.144 102.352 42.888 102.864 42.376C103.392 41.864 103.656 41.176 103.656 40.312C103.656 39.448 103.4 38.776 102.888 38.296C102.376 37.8 101.6 37.552 100.56 37.552H97.536V43.144ZM114.764 52.216C113.724 52.216 112.788 52.032 111.956 51.664C111.14 51.28 110.492 50.768 110.012 50.128C109.532 49.472 109.276 48.744 109.244 47.944H112.076C112.124 48.504 112.388 48.976 112.868 49.36C113.364 49.728 113.98 49.912 114.716 49.912C115.484 49.912 116.076 49.768 116.492 49.48C116.924 49.176 117.14 48.792 117.14 48.328C117.14 47.832 116.9 47.464 116.42 47.224C115.956 46.984 115.212 46.72 114.188 46.432C113.196 46.16 112.388 45.896 111.764 45.64C111.14 45.384 110.596 44.992 110.132 44.464C109.684 43.936 109.46 43.24 109.46 42.376C109.46 41.672 109.668 41.032 110.084 40.456C110.5 39.864 111.092 39.4 111.86 39.064C112.644 38.728 113.54 38.56 114.548 38.56C116.052 38.56 117.26 38.944 118.172 39.712C119.1 40.464 119.596 41.496 119.66 42.808H116.924C116.876 42.216 116.636 41.744 116.204 41.392C115.772 41.04 115.188 40.864 114.452 40.864C113.732 40.864 113.18 41 112.796 41.272C112.412 41.544 112.22 41.904 112.22 42.352C112.22 42.704 112.348 43 112.604 43.24C112.86 43.48 113.172 43.672 113.54 43.816C113.908 43.944 114.452 44.112 115.172 44.32C116.132 44.576 116.916 44.84 117.524 45.112C118.148 45.368 118.684 45.752 119.132 46.264C119.58 46.776 119.812 47.456 119.828 48.304C119.828 49.056 119.62 49.728 119.204 50.32C118.788 50.912 118.196 51.376 117.428 51.712C116.676 52.048 115.788 52.216 114.764 52.216ZM122.376 38.824C122.472 37.336 123.04 36.176 124.08 35.344C125.136 34.512 126.48 34.096 128.112 34.096C129.232 34.096 130.2 34.296 131.016 34.696C131.832 35.096 132.448 35.64 132.864 36.328C133.28 37.016 133.488 37.792 133.488 38.656C133.488 39.648 133.224 40.496 132.696 41.2C132.168 41.904 131.536 42.376 130.8 42.616V42.712C131.744 43 132.48 43.528 133.008 44.296C133.536 45.048 133.8 46.016 133.8 47.2C133.8 48.144 133.584 48.984 133.152 49.72C132.72 50.456 132.08 51.04 131.232 51.472C130.384 51.888 129.368 52.096 128.184 52.096C126.456 52.096 125.032 51.656 123.912 50.776C122.808 49.88 122.216 48.6 122.136 46.936H124.776C124.84 47.784 125.168 48.48 125.76 49.024C126.352 49.552 127.152 49.816 128.16 49.816C129.136 49.816 129.888 49.552 130.416 49.024C130.944 48.48 131.208 47.784 131.208 46.936C131.208 45.816 130.848 45.024 130.128 44.56C129.424 44.08 128.336 43.84 126.864 43.84H126.24V41.584H126.888C128.184 41.568 129.168 41.352 129.84 40.936C130.528 40.52 130.872 39.864 130.872 38.968C130.872 38.2 130.624 37.592 130.128 37.144C129.632 36.68 128.928 36.448 128.016 36.448C127.12 36.448 126.424 36.68 125.928 37.144C125.432 37.592 125.136 38.152 125.04 38.824H122.376ZM147.762 36.616L141.09 52H138.33L145.074 36.904H136.194V34.576H147.762V36.616ZM153.464 48.712L150.56 55.336H148.784L150.488 48.712H153.464ZM166.775 36.856H158.735V41.632C159.071 41.184 159.567 40.808 160.223 40.504C160.895 40.2 161.607 40.048 162.359 40.048C163.703 40.048 164.791 40.336 165.623 40.912C166.471 41.488 167.071 42.216 167.423 43.096C167.791 43.976 167.975 44.904 167.975 45.88C167.975 47.064 167.743 48.12 167.279 49.048C166.831 49.96 166.151 50.68 165.239 51.208C164.343 51.736 163.239 52 161.927 52C160.183 52 158.783 51.568 157.727 50.704C156.671 49.84 156.039 48.696 155.831 47.272H158.495C158.671 48.024 159.063 48.624 159.671 49.072C160.279 49.504 161.039 49.72 161.951 49.72C163.087 49.72 163.935 49.376 164.495 48.688C165.071 48 165.359 47.088 165.359 45.952C165.359 44.8 165.071 43.92 164.495 43.312C163.919 42.688 163.071 42.376 161.951 42.376C161.167 42.376 160.503 42.576 159.959 42.976C159.431 43.36 159.047 43.888 158.807 44.56H156.215V34.456H166.775V36.856ZM182.103 36.856H174.063V41.632C174.399 41.184 174.895 40.808 175.551 40.504C176.223 40.2 176.935 40.048 177.687 40.048C179.031 40.048 180.119 40.336 180.951 40.912C181.799 41.488 182.399 42.216 182.751 43.096C183.119 43.976 183.303 44.904 183.303 45.88C183.303 47.064 183.071 48.12 182.607 49.048C182.159 49.96 181.479 50.68 180.567 51.208C179.671 51.736 178.567 52 177.255 52C175.511 52 174.111 51.568 173.055 50.704C171.999 49.84 171.367 48.696 171.159 47.272H173.823C173.999 48.024 174.391 48.624 174.999 49.072C175.607 49.504 176.367 49.72 177.279 49.72C178.415 49.72 179.263 49.376 179.823 48.688C180.399 48 180.687 47.088 180.687 45.952C180.687 44.8 180.399 43.92 179.823 43.312C179.247 42.688 178.399 42.376 177.279 42.376C176.495 42.376 175.831 42.576 175.287 42.976C174.759 43.36 174.375 43.888 174.135 44.56H171.543V34.456H182.103V36.856ZM186.151 43.024C186.151 40.256 186.615 38.096 187.543 36.544C188.487 34.976 190.103 34.192 192.391 34.192C194.679 34.192 196.287 34.976 197.215 36.544C198.159 38.096 198.631 40.256 198.631 43.024C198.631 45.824 198.159 48.016 197.215 49.6C196.287 51.168 194.679 51.952 192.391 51.952C190.103 51.952 188.487 51.168 187.543 49.6C186.615 48.016 186.151 45.824 186.151 43.024ZM195.943 43.024C195.943 41.728 195.855 40.632 195.679 39.736C195.519 38.84 195.183 38.112 194.671 37.552C194.159 36.976 193.399 36.688 192.391 36.688C191.383 36.688 190.623 36.976 190.111 37.552C189.599 38.112 189.255 38.84 189.079 39.736C188.919 40.632 188.839 41.728 188.839 43.024C188.839 44.368 188.919 45.496 189.079 46.408C189.239 47.32 189.575 48.056 190.087 48.616C190.615 49.176 191.383 49.456 192.391 49.456C193.399 49.456 194.159 49.176 194.671 48.616C195.199 48.056 195.543 47.32 195.703 46.408C195.863 45.496 195.943 44.368 195.943 43.024Z" fill="#233A6C"/>
<circle cx="61.5" cy="40.5" r="23.5" fill="#FFF1DB"/>
<g clip-path="url(#clip0)">
<path d="M77.9991 28.7655C75.9384 27.9393 73.8761 27.625 71.8148 27.625C65.2714 27.6245 58.7286 30.7907 52.1852 30.7907C50.5441 30.7907 48.9042 30.5916 47.2631 30.094C47.0788 30.0381 46.8939 30.0117 46.7133 30.0117C45.799 30.0117 45 30.6881 45 31.6271V47.7379C45 48.3793 45.3841 48.9871 46.0009 49.2339C48.0616 50.0607 50.1239 50.375 52.1852 50.375C58.7286 50.375 65.272 47.2088 71.8154 47.2088C73.4564 47.2088 75.0964 47.4079 76.7374 47.9055C76.9217 47.9614 77.1066 47.9878 77.2873 47.9878C78.2015 47.9878 79.0005 47.3114 79.0005 46.3724V30.2621C79 29.6202 78.6159 29.0129 77.9991 28.7655ZM47.55 32.7143C48.6189 32.9702 49.7345 33.0987 50.882 33.1678C50.5696 34.6602 49.1969 35.785 47.55 35.785V32.7143ZM47.55 47.187V44.7606C49.3759 44.7606 50.8533 46.1454 50.9346 47.8786C49.7377 47.7867 48.6189 47.5582 47.55 47.187ZM62 43.875C59.6524 43.875 57.75 41.6919 57.75 39C57.75 36.3076 59.6529 34.125 62 34.125C64.3471 34.125 66.25 36.3076 66.25 39C66.25 41.6929 64.3465 43.875 62 43.875ZM76.45 45.2857C75.5192 45.0628 74.5529 44.9379 73.5642 44.8571C73.8761 43.5327 75.0252 42.5273 76.45 42.3546V45.2857ZM76.45 33.2957C74.809 33.0972 73.5356 31.7875 73.4851 30.1702C74.5232 30.2804 75.5086 30.4865 76.45 30.813V33.2957Z" fill="#845939"/>
</g>
<circle cx="215" cy="214" r="102" fill="#233A6C"/>
<path d="M315.554 231.116C318.742 212.382 316.634 193.13 309.467 175.53C302.3 157.93 290.359 142.683 274.99 131.506C259.621 120.33 241.435 113.669 222.483 112.275C203.531 110.881 184.567 114.809 167.728 123.616L215 214L315.554 231.116Z" fill="#FFF1DB"/>
<defs>
<filter id="filter0_bi" x="-4" y="-4" width="438" height="340" filterUnits="userSpaceOnUse" color-interpolation-filters="sRGB">
<feFlood flood-opacity="0" result="BackgroundImageFix"/>
<feGaussianBlur in="BackgroundImage" stdDeviation="2"/>
<feComposite in2="SourceAlpha" operator="in" result="effect1_backgroundBlur"/>
<feBlend mode="normal" in="SourceGraphic" in2="effect1_backgroundBlur" result="shape"/>
<feColorMatrix in="SourceAlpha" type="matrix" values="0 0 0 0 0 0 0 0 0 0 0 0 0 0 0 0 0 0 127 0" result="hardAlpha"/>
<feOffset dy="4"/>
<feGaussianBlur stdDeviation="2"/>
<feComposite in2="hardAlpha" operator="arithmetic" k2="-1" k3="1"/>
<feColorMatrix type="matrix" values="0 0 0 0 0 0 0 0 0 0 0 0 0 0 0 0 0 0 0.25 0"/>
<feBlend mode="normal" in2="shape" result="effect2_innerShadow"/>
</filter>
<clipPath id="clip0">
<rect width="34" height="26" fill="white" transform="translate(45 26)"/>
</clipPath>
</defs>
</svg>
