<svg width="887" height="320" viewBox="0 0 887 320" fill="none" xmlns="http://www.w3.org/2000/svg">
<g opacity="0.7" filter="url(#filter0_di)">
<path d="M4 0H883V312H4V0Z" fill="#FAFAFA"/>
</g>
<path d="M800.565 71.812C800.565 70.996 800.753 70.264 801.129 69.616C801.513 68.968 802.029 68.464 802.677 68.104C803.333 67.736 804.049 67.552 804.825 67.552C805.713 67.552 806.501 67.772 807.189 68.212C807.885 68.644 808.389 69.26 808.701 70.06H807.057C806.841 69.62 806.541 69.292 806.157 69.076C805.773 68.86 805.329 68.752 804.825 68.752C804.273 68.752 803.781 68.876 803.349 69.124C802.917 69.372 802.577 69.728 802.329 70.192C802.089 70.656 801.969 71.196 801.969 71.812C801.969 72.428 802.089 72.968 802.329 73.432C802.577 73.896 802.917 74.256 803.349 74.512C803.781 74.76 804.273 74.884 804.825 74.884C805.329 74.884 805.773 74.776 806.157 74.56C806.541 74.344 806.841 74.016 807.057 73.576H808.701C808.389 74.376 807.885 74.992 807.189 75.424C806.501 75.856 805.713 76.072 804.825 76.072C804.041 76.072 803.325 75.892 802.677 75.532C802.029 75.164 801.513 74.656 801.129 74.008C800.753 73.36 800.565 72.628 800.565 71.812ZM813.17 76.108C812.546 76.108 811.982 75.968 811.478 75.688C810.974 75.4 810.578 75 810.29 74.488C810.002 73.968 809.858 73.368 809.858 72.688C809.858 72.016 810.006 71.42 810.302 70.9C810.598 70.38 811.002 69.98 811.514 69.7C812.026 69.42 812.598 69.28 813.23 69.28C813.862 69.28 814.434 69.42 814.946 69.7C815.458 69.98 815.862 70.38 816.158 70.9C816.454 71.42 816.602 72.016 816.602 72.688C816.602 73.36 816.45 73.956 816.146 74.476C815.842 74.996 815.426 75.4 814.898 75.688C814.378 75.968 813.802 76.108 813.17 76.108ZM813.17 74.92C813.522 74.92 813.85 74.836 814.154 74.668C814.466 74.5 814.718 74.248 814.91 73.912C815.102 73.576 815.198 73.168 815.198 72.688C815.198 72.208 815.106 71.804 814.922 71.476C814.738 71.14 814.494 70.888 814.19 70.72C813.886 70.552 813.558 70.468 813.206 70.468C812.854 70.468 812.526 70.552 812.222 70.72C811.926 70.888 811.69 71.14 811.514 71.476C811.338 71.804 811.25 72.208 811.25 72.688C811.25 73.4 811.43 73.952 811.79 74.344C812.158 74.728 812.618 74.92 813.17 74.92ZM820.511 74.776L822.383 69.388H823.835L821.315 76H819.683L817.175 69.388H818.639L820.511 74.776ZM830.929 72.532C830.929 72.78 830.913 73.004 830.881 73.204H825.829C825.869 73.732 826.065 74.156 826.417 74.476C826.769 74.796 827.201 74.956 827.713 74.956C828.449 74.956 828.969 74.648 829.273 74.032H830.749C830.549 74.64 830.185 75.14 829.657 75.532C829.137 75.916 828.489 76.108 827.713 76.108C827.081 76.108 826.513 75.968 826.009 75.688C825.513 75.4 825.121 75 824.833 74.488C824.553 73.968 824.413 73.368 824.413 72.688C824.413 72.008 824.549 71.412 824.821 70.9C825.101 70.38 825.489 69.98 825.985 69.7C826.489 69.42 827.065 69.28 827.713 69.28C828.337 69.28 828.893 69.416 829.381 69.688C829.869 69.96 830.249 70.344 830.521 70.84C830.793 71.328 830.929 71.892 830.929 72.532ZM829.501 72.1C829.493 71.596 829.313 71.192 828.961 70.888C828.609 70.584 828.173 70.432 827.653 70.432C827.181 70.432 826.777 70.584 826.441 70.888C826.105 71.184 825.905 71.588 825.841 72.1H829.501ZM833.643 70.348C833.843 70.012 834.107 69.752 834.435 69.568C834.771 69.376 835.167 69.28 835.623 69.28V70.696H835.275C834.739 70.696 834.331 70.832 834.051 71.104C833.779 71.376 833.643 71.848 833.643 72.52V76H832.275V69.388H833.643V70.348ZM839.28 76.108C838.76 76.108 838.292 76.016 837.876 75.832C837.468 75.64 837.144 75.384 836.904 75.064C836.664 74.736 836.536 74.372 836.52 73.972H837.936C837.96 74.252 838.092 74.488 838.332 74.68C838.58 74.864 838.888 74.956 839.256 74.956C839.64 74.956 839.936 74.884 840.144 74.74C840.36 74.588 840.468 74.396 840.468 74.164C840.468 73.916 840.348 73.732 840.108 73.612C839.876 73.492 839.504 73.36 838.992 73.216C838.496 73.08 838.092 72.948 837.78 72.82C837.468 72.692 837.196 72.496 836.964 72.232C836.74 71.968 836.628 71.62 836.628 71.188C836.628 70.836 836.732 70.516 836.94 70.228C837.148 69.932 837.444 69.7 837.828 69.532C838.22 69.364 838.668 69.28 839.172 69.28C839.924 69.28 840.528 69.472 840.984 69.856C841.448 70.232 841.696 70.748 841.728 71.404H840.36C840.336 71.108 840.216 70.872 840 70.696C839.784 70.52 839.492 70.432 839.124 70.432C838.764 70.432 838.488 70.5 838.296 70.636C838.104 70.772 838.008 70.952 838.008 71.176C838.008 71.352 838.072 71.5 838.2 71.62C838.328 71.74 838.484 71.836 838.668 71.908C838.852 71.972 839.124 72.056 839.484 72.16C839.964 72.288 840.356 72.42 840.66 72.556C840.972 72.684 841.24 72.876 841.464 73.132C841.688 73.388 841.804 73.728 841.812 74.152C841.812 74.528 841.708 74.864 841.5 75.16C841.292 75.456 840.996 75.688 840.612 75.856C840.236 76.024 839.792 76.108 839.28 76.108ZM843.987 68.512C843.739 68.512 843.531 68.428 843.363 68.26C843.195 68.092 843.111 67.884 843.111 67.636C843.111 67.388 843.195 67.18 843.363 67.012C843.531 66.844 843.739 66.76 843.987 66.76C844.227 66.76 844.431 66.844 844.599 67.012C844.767 67.18 844.851 67.388 844.851 67.636C844.851 67.884 844.767 68.092 844.599 68.26C844.431 68.428 844.227 68.512 843.987 68.512ZM844.659 69.388V76H843.291V69.388H844.659ZM849.323 76.108C848.699 76.108 848.135 75.968 847.631 75.688C847.127 75.4 846.731 75 846.443 74.488C846.155 73.968 846.011 73.368 846.011 72.688C846.011 72.016 846.159 71.42 846.455 70.9C846.751 70.38 847.155 69.98 847.667 69.7C848.179 69.42 848.751 69.28 849.383 69.28C850.015 69.28 850.587 69.42 851.099 69.7C851.611 69.98 852.015 70.38 852.311 70.9C852.607 71.42 852.755 72.016 852.755 72.688C852.755 73.36 852.603 73.956 852.299 74.476C851.995 74.996 851.579 75.4 851.051 75.688C850.531 75.968 849.955 76.108 849.323 76.108ZM849.323 74.92C849.675 74.92 850.003 74.836 850.307 74.668C850.619 74.5 850.871 74.248 851.063 73.912C851.255 73.576 851.351 73.168 851.351 72.688C851.351 72.208 851.259 71.804 851.075 71.476C850.891 71.14 850.647 70.888 850.343 70.72C850.039 70.552 849.711 70.468 849.359 70.468C849.007 70.468 848.679 70.552 848.375 70.72C848.079 70.888 847.843 71.14 847.667 71.476C847.491 71.804 847.403 72.208 847.403 72.688C847.403 73.4 847.583 73.952 847.943 74.344C848.311 74.728 848.771 74.92 849.323 74.92ZM857.443 69.28C857.963 69.28 858.427 69.388 858.835 69.604C859.251 69.82 859.575 70.14 859.807 70.564C860.039 70.988 860.155 71.5 860.155 72.1V76H858.799V72.304C858.799 71.712 858.651 71.26 858.355 70.948C858.059 70.628 857.655 70.468 857.143 70.468C856.631 70.468 856.223 70.628 855.919 70.948C855.623 71.26 855.475 71.712 855.475 72.304V76H854.107V69.388H855.475V70.144C855.699 69.872 855.983 69.66 856.327 69.508C856.679 69.356 857.051 69.28 857.443 69.28Z" fill="#394D7A"/>
<path d="M813.537 92.296H810.045L809.445 94H808.017L811.005 85.648H812.589L815.577 94H814.137L813.537 92.296ZM813.153 91.18L811.797 87.304L810.429 91.18H813.153ZM816.421 90.664C816.421 90 816.557 89.412 816.829 88.9C817.109 88.388 817.485 87.992 817.957 87.712C818.437 87.424 818.969 87.28 819.553 87.28C819.985 87.28 820.409 87.376 820.825 87.568C821.249 87.752 821.585 88 821.833 88.312V85.12H823.213V94H821.833V93.004C821.609 93.324 821.297 93.588 820.897 93.796C820.505 94.004 820.053 94.108 819.541 94.108C818.965 94.108 818.437 93.964 817.957 93.676C817.485 93.38 817.109 92.972 816.829 92.452C816.557 91.924 816.421 91.328 816.421 90.664ZM821.833 90.688C821.833 90.232 821.737 89.836 821.545 89.5C821.361 89.164 821.117 88.908 820.813 88.732C820.509 88.556 820.181 88.468 819.829 88.468C819.477 88.468 819.149 88.556 818.845 88.732C818.541 88.9 818.293 89.152 818.101 89.488C817.917 89.816 817.825 90.208 817.825 90.664C817.825 91.12 817.917 91.52 818.101 91.864C818.293 92.208 818.541 92.472 818.845 92.656C819.157 92.832 819.485 92.92 819.829 92.92C820.181 92.92 820.509 92.832 820.813 92.656C821.117 92.48 821.361 92.224 821.545 91.888C821.737 91.544 821.833 91.144 821.833 90.688ZM827.671 90.688C827.671 90.008 827.807 89.412 828.079 88.9C828.359 88.38 828.743 87.98 829.231 87.7C829.719 87.42 830.279 87.28 830.911 87.28C831.711 87.28 832.371 87.472 832.891 87.856C833.419 88.232 833.775 88.772 833.959 89.476H832.483C832.363 89.148 832.171 88.892 831.907 88.708C831.643 88.524 831.311 88.432 830.911 88.432C830.351 88.432 829.903 88.632 829.567 89.032C829.239 89.424 829.075 89.976 829.075 90.688C829.075 91.4 829.239 91.956 829.567 92.356C829.903 92.756 830.351 92.956 830.911 92.956C831.703 92.956 832.227 92.608 832.483 91.912H833.959C833.767 92.584 833.407 93.12 832.879 93.52C832.351 93.912 831.695 94.108 830.911 94.108C830.279 94.108 829.719 93.968 829.231 93.688C828.743 93.4 828.359 93 828.079 92.488C827.807 91.968 827.671 91.368 827.671 90.688ZM836.69 85.12V94H835.322V85.12H836.69ZM839.182 86.512C838.934 86.512 838.726 86.428 838.558 86.26C838.39 86.092 838.306 85.884 838.306 85.636C838.306 85.388 838.39 85.18 838.558 85.012C838.726 84.844 838.934 84.76 839.182 84.76C839.422 84.76 839.626 84.844 839.794 85.012C839.962 85.18 840.046 85.388 840.046 85.636C840.046 85.884 839.962 86.092 839.794 86.26C839.626 86.428 839.422 86.512 839.182 86.512ZM839.854 87.388V94H838.486V87.388H839.854ZM841.194 90.688C841.194 90.008 841.33 89.412 841.602 88.9C841.882 88.38 842.266 87.98 842.754 87.7C843.242 87.42 843.802 87.28 844.434 87.28C845.234 87.28 845.894 87.472 846.414 87.856C846.942 88.232 847.298 88.772 847.482 89.476H846.006C845.886 89.148 845.694 88.892 845.43 88.708C845.166 88.524 844.834 88.432 844.434 88.432C843.874 88.432 843.426 88.632 843.09 89.032C842.762 89.424 842.598 89.976 842.598 90.688C842.598 91.4 842.762 91.956 843.09 92.356C843.426 92.756 843.874 92.956 844.434 92.956C845.226 92.956 845.75 92.608 846.006 91.912H847.482C847.29 92.584 846.93 93.12 846.402 93.52C845.874 93.912 845.218 94.108 844.434 94.108C843.802 94.108 843.242 93.968 842.754 93.688C842.266 93.4 841.882 93 841.602 92.488C841.33 91.968 841.194 91.368 841.194 90.688ZM851.461 90.7L854.509 94H852.661L850.213 91.156V94H848.845V85.12H850.213V90.28L852.613 87.388H854.509L851.461 90.7ZM857.89 94.108C857.37 94.108 856.902 94.016 856.486 93.832C856.078 93.64 855.754 93.384 855.514 93.064C855.274 92.736 855.146 92.372 855.13 91.972H856.546C856.57 92.252 856.702 92.488 856.942 92.68C857.19 92.864 857.498 92.956 857.866 92.956C858.25 92.956 858.546 92.884 858.754 92.74C858.97 92.588 859.078 92.396 859.078 92.164C859.078 91.916 858.958 91.732 858.718 91.612C858.486 91.492 858.114 91.36 857.602 91.216C857.106 91.08 856.702 90.948 856.39 90.82C856.078 90.692 855.806 90.496 855.574 90.232C855.35 89.968 855.238 89.62 855.238 89.188C855.238 88.836 855.342 88.516 855.55 88.228C855.758 87.932 856.054 87.7 856.438 87.532C856.83 87.364 857.278 87.28 857.782 87.28C858.534 87.28 859.138 87.472 859.594 87.856C860.058 88.232 860.306 88.748 860.338 89.404H858.97C858.946 89.108 858.826 88.872 858.61 88.696C858.394 88.52 858.102 88.432 857.734 88.432C857.374 88.432 857.098 88.5 856.906 88.636C856.714 88.772 856.618 88.952 856.618 89.176C856.618 89.352 856.682 89.5 856.81 89.62C856.938 89.74 857.094 89.836 857.278 89.908C857.462 89.972 857.734 90.056 858.094 90.16C858.574 90.288 858.966 90.42 859.27 90.556C859.582 90.684 859.85 90.876 860.074 91.132C860.298 91.388 860.414 91.728 860.422 92.152C860.422 92.528 860.318 92.864 860.11 93.16C859.902 93.456 859.606 93.688 859.222 93.856C858.846 94.024 858.402 94.108 857.89 94.108Z" fill="#B53B5A"/>
<path d="M773.694 110.296H770.202L769.602 112H768.174L771.162 103.648H772.746L775.734 112H774.294L773.694 110.296ZM773.31 109.18L771.954 105.304L770.586 109.18H773.31ZM776.577 108.664C776.577 108 776.713 107.412 776.985 106.9C777.265 106.388 777.641 105.992 778.113 105.712C778.593 105.424 779.125 105.28 779.709 105.28C780.141 105.28 780.565 105.376 780.981 105.568C781.405 105.752 781.741 106 781.989 106.312V103.12H783.369V112H781.989V111.004C781.765 111.324 781.453 111.588 781.053 111.796C780.661 112.004 780.209 112.108 779.697 112.108C779.121 112.108 778.593 111.964 778.113 111.676C777.641 111.38 777.265 110.972 776.985 110.452C776.713 109.924 776.577 109.328 776.577 108.664ZM781.989 108.688C781.989 108.232 781.893 107.836 781.701 107.5C781.517 107.164 781.273 106.908 780.969 106.732C780.665 106.556 780.337 106.468 779.985 106.468C779.633 106.468 779.305 106.556 779.001 106.732C778.697 106.9 778.449 107.152 778.257 107.488C778.073 107.816 777.981 108.208 777.981 108.664C777.981 109.12 778.073 109.52 778.257 109.864C778.449 110.208 778.697 110.472 779.001 110.656C779.313 110.832 779.641 110.92 779.985 110.92C780.337 110.92 780.665 110.832 780.969 110.656C781.273 110.48 781.517 110.224 781.701 109.888C781.893 109.544 781.989 109.144 781.989 108.688ZM788.979 104.512C788.731 104.512 788.523 104.428 788.355 104.26C788.187 104.092 788.103 103.884 788.103 103.636C788.103 103.388 788.187 103.18 788.355 103.012C788.523 102.844 788.731 102.76 788.979 102.76C789.219 102.76 789.423 102.844 789.591 103.012C789.759 103.18 789.843 103.388 789.843 103.636C789.843 103.884 789.759 104.092 789.591 104.26C789.423 104.428 789.219 104.512 788.979 104.512ZM789.651 105.388V112H788.283V105.388H789.651ZM799.451 105.28C799.971 105.28 800.435 105.388 800.843 105.604C801.259 105.82 801.583 106.14 801.815 106.564C802.055 106.988 802.175 107.5 802.175 108.1V112H800.819V108.304C800.819 107.712 800.671 107.26 800.375 106.948C800.079 106.628 799.675 106.468 799.163 106.468C798.651 106.468 798.243 106.628 797.939 106.948C797.643 107.26 797.495 107.712 797.495 108.304V112H796.139V108.304C796.139 107.712 795.991 107.26 795.695 106.948C795.399 106.628 794.995 106.468 794.483 106.468C793.971 106.468 793.563 106.628 793.259 106.948C792.963 107.26 792.815 107.712 792.815 108.304V112H791.447V105.388H792.815V106.144C793.039 105.872 793.323 105.66 793.667 105.508C794.011 105.356 794.379 105.28 794.771 105.28C795.299 105.28 795.771 105.392 796.187 105.616C796.603 105.84 796.923 106.164 797.147 106.588C797.347 106.188 797.659 105.872 798.083 105.64C798.507 105.4 798.963 105.28 799.451 105.28ZM805.284 106.36C805.516 106.056 805.832 105.8 806.232 105.592C806.632 105.384 807.084 105.28 807.588 105.28C808.164 105.28 808.688 105.424 809.16 105.712C809.64 105.992 810.016 106.388 810.288 106.9C810.56 107.412 810.696 108 810.696 108.664C810.696 109.328 810.56 109.924 810.288 110.452C810.016 110.972 809.64 111.38 809.16 111.676C808.688 111.964 808.164 112.108 807.588 112.108C807.084 112.108 806.636 112.008 806.244 111.808C805.852 111.6 805.532 111.344 805.284 111.04V115.144H803.916V105.388H805.284V106.36ZM809.304 108.664C809.304 108.208 809.208 107.816 809.016 107.488C808.832 107.152 808.584 106.9 808.272 106.732C807.968 106.556 807.64 106.468 807.288 106.468C806.944 106.468 806.616 106.556 806.304 106.732C806 106.908 805.752 107.164 805.56 107.5C805.376 107.836 805.284 108.232 805.284 108.688C805.284 109.144 805.376 109.544 805.56 109.888C805.752 110.224 806 110.48 806.304 110.656C806.616 110.832 806.944 110.92 807.288 110.92C807.64 110.92 807.968 110.832 808.272 110.656C808.584 110.472 808.832 110.208 809.016 109.864C809.208 109.52 809.304 109.12 809.304 108.664ZM813.416 106.348C813.616 106.012 813.88 105.752 814.208 105.568C814.544 105.376 814.94 105.28 815.396 105.28V106.696H815.048C814.512 106.696 814.104 106.832 813.824 107.104C813.552 107.376 813.416 107.848 813.416 108.52V112H812.048V105.388H813.416V106.348ZM822.714 108.532C822.714 108.78 822.698 109.004 822.666 109.204H817.614C817.654 109.732 817.85 110.156 818.202 110.476C818.554 110.796 818.986 110.956 819.498 110.956C820.234 110.956 820.754 110.648 821.058 110.032H822.534C822.334 110.64 821.97 111.14 821.442 111.532C820.922 111.916 820.274 112.108 819.498 112.108C818.866 112.108 818.298 111.968 817.794 111.688C817.298 111.4 816.906 111 816.618 110.488C816.338 109.968 816.198 109.368 816.198 108.688C816.198 108.008 816.334 107.412 816.606 106.9C816.886 106.38 817.274 105.98 817.77 105.7C818.274 105.42 818.85 105.28 819.498 105.28C820.122 105.28 820.678 105.416 821.166 105.688C821.654 105.96 822.034 106.344 822.306 106.84C822.578 107.328 822.714 107.892 822.714 108.532ZM821.286 108.1C821.278 107.596 821.098 107.192 820.746 106.888C820.394 106.584 819.958 106.432 819.438 106.432C818.966 106.432 818.562 106.584 818.226 106.888C817.89 107.184 817.69 107.588 817.626 108.1H821.286ZM826.46 112.108C825.94 112.108 825.472 112.016 825.056 111.832C824.648 111.64 824.324 111.384 824.084 111.064C823.844 110.736 823.716 110.372 823.7 109.972H825.116C825.14 110.252 825.272 110.488 825.512 110.68C825.76 110.864 826.068 110.956 826.436 110.956C826.82 110.956 827.116 110.884 827.324 110.74C827.54 110.588 827.648 110.396 827.648 110.164C827.648 109.916 827.528 109.732 827.288 109.612C827.056 109.492 826.684 109.36 826.172 109.216C825.676 109.08 825.272 108.948 824.96 108.82C824.648 108.692 824.376 108.496 824.144 108.232C823.92 107.968 823.808 107.62 823.808 107.188C823.808 106.836 823.912 106.516 824.12 106.228C824.328 105.932 824.624 105.7 825.008 105.532C825.4 105.364 825.848 105.28 826.352 105.28C827.104 105.28 827.708 105.472 828.164 105.856C828.628 106.232 828.876 106.748 828.908 107.404H827.54C827.516 107.108 827.396 106.872 827.18 106.696C826.964 106.52 826.672 106.432 826.304 106.432C825.944 106.432 825.668 106.5 825.476 106.636C825.284 106.772 825.188 106.952 825.188 107.176C825.188 107.352 825.252 107.5 825.38 107.62C825.508 107.74 825.664 107.836 825.848 107.908C826.032 107.972 826.304 108.056 826.664 108.16C827.144 108.288 827.536 108.42 827.84 108.556C828.152 108.684 828.42 108.876 828.644 109.132C828.868 109.388 828.984 109.728 828.992 110.152C828.992 110.528 828.888 110.864 828.68 111.16C828.472 111.456 828.176 111.688 827.792 111.856C827.416 112.024 826.972 112.108 826.46 112.108ZM832.87 112.108C832.35 112.108 831.882 112.016 831.466 111.832C831.058 111.64 830.734 111.384 830.494 111.064C830.254 110.736 830.126 110.372 830.11 109.972H831.526C831.55 110.252 831.682 110.488 831.922 110.68C832.17 110.864 832.478 110.956 832.846 110.956C833.23 110.956 833.526 110.884 833.734 110.74C833.95 110.588 834.058 110.396 834.058 110.164C834.058 109.916 833.938 109.732 833.698 109.612C833.466 109.492 833.094 109.36 832.582 109.216C832.086 109.08 831.682 108.948 831.37 108.82C831.058 108.692 830.786 108.496 830.554 108.232C830.33 107.968 830.218 107.62 830.218 107.188C830.218 106.836 830.322 106.516 830.53 106.228C830.738 105.932 831.034 105.7 831.418 105.532C831.81 105.364 832.258 105.28 832.762 105.28C833.514 105.28 834.118 105.472 834.574 105.856C835.038 106.232 835.286 106.748 835.318 107.404H833.95C833.926 107.108 833.806 106.872 833.59 106.696C833.374 106.52 833.082 106.432 832.714 106.432C832.354 106.432 832.078 106.5 831.886 106.636C831.694 106.772 831.598 106.952 831.598 107.176C831.598 107.352 831.662 107.5 831.79 107.62C831.918 107.74 832.074 107.836 832.258 107.908C832.442 107.972 832.714 108.056 833.074 108.16C833.554 108.288 833.946 108.42 834.25 108.556C834.562 108.684 834.83 108.876 835.054 109.132C835.278 109.388 835.394 109.728 835.402 110.152C835.402 110.528 835.298 110.864 835.09 111.16C834.882 111.456 834.586 111.688 834.202 111.856C833.826 112.024 833.382 112.108 832.87 112.108ZM837.576 104.512C837.328 104.512 837.12 104.428 836.952 104.26C836.784 104.092 836.7 103.884 836.7 103.636C836.7 103.388 836.784 103.18 836.952 103.012C837.12 102.844 837.328 102.76 837.576 102.76C837.816 102.76 838.02 102.844 838.188 103.012C838.356 103.18 838.44 103.388 838.44 103.636C838.44 103.884 838.356 104.092 838.188 104.26C838.02 104.428 837.816 104.512 837.576 104.512ZM838.248 105.388V112H836.88V105.388H838.248ZM842.913 112.108C842.289 112.108 841.725 111.968 841.221 111.688C840.717 111.4 840.321 111 840.033 110.488C839.745 109.968 839.601 109.368 839.601 108.688C839.601 108.016 839.749 107.42 840.045 106.9C840.341 106.38 840.745 105.98 841.257 105.7C841.769 105.42 842.341 105.28 842.973 105.28C843.605 105.28 844.177 105.42 844.689 105.7C845.201 105.98 845.605 106.38 845.901 106.9C846.197 107.42 846.345 108.016 846.345 108.688C846.345 109.36 846.193 109.956 845.889 110.476C845.585 110.996 845.169 111.4 844.641 111.688C844.121 111.968 843.545 112.108 842.913 112.108ZM842.913 110.92C843.265 110.92 843.593 110.836 843.897 110.668C844.209 110.5 844.461 110.248 844.653 109.912C844.845 109.576 844.941 109.168 844.941 108.688C844.941 108.208 844.849 107.804 844.665 107.476C844.481 107.14 844.237 106.888 843.933 106.72C843.629 106.552 843.301 106.468 842.949 106.468C842.597 106.468 842.269 106.552 841.965 106.72C841.669 106.888 841.433 107.14 841.257 107.476C841.081 107.804 840.993 108.208 840.993 108.688C840.993 109.4 841.173 109.952 841.533 110.344C841.901 110.728 842.361 110.92 842.913 110.92ZM851.033 105.28C851.553 105.28 852.017 105.388 852.425 105.604C852.841 105.82 853.165 106.14 853.397 106.564C853.629 106.988 853.745 107.5 853.745 108.1V112H852.389V108.304C852.389 107.712 852.241 107.26 851.945 106.948C851.649 106.628 851.245 106.468 850.733 106.468C850.221 106.468 849.813 106.628 849.509 106.948C849.213 107.26 849.065 107.712 849.065 108.304V112H847.697V105.388H849.065V106.144C849.289 105.872 849.573 105.66 849.917 105.508C850.269 105.356 850.641 105.28 851.033 105.28ZM857.89 112.108C857.37 112.108 856.902 112.016 856.486 111.832C856.078 111.64 855.754 111.384 855.514 111.064C855.274 110.736 855.146 110.372 855.13 109.972H856.546C856.57 110.252 856.702 110.488 856.942 110.68C857.19 110.864 857.498 110.956 857.866 110.956C858.25 110.956 858.546 110.884 858.754 110.74C858.97 110.588 859.078 110.396 859.078 110.164C859.078 109.916 858.958 109.732 858.718 109.612C858.486 109.492 858.114 109.36 857.602 109.216C857.106 109.08 856.702 108.948 856.39 108.82C856.078 108.692 855.806 108.496 855.574 108.232C855.35 107.968 855.238 107.62 855.238 107.188C855.238 106.836 855.342 106.516 855.55 106.228C855.758 105.932 856.054 105.7 856.438 105.532C856.83 105.364 857.278 105.28 857.782 105.28C858.534 105.28 859.138 105.472 859.594 105.856C860.058 106.232 860.306 106.748 860.338 107.404H858.97C858.946 107.108 858.826 106.872 858.61 106.696C858.394 106.52 858.102 106.432 857.734 106.432C857.374 106.432 857.098 106.5 856.906 106.636C856.714 106.772 856.618 106.952 856.618 107.176C856.618 107.352 856.682 107.5 856.81 107.62C856.938 107.74 857.094 107.836 857.278 107.908C857.462 107.972 857.734 108.056 858.094 108.16C858.574 108.288 858.966 108.42 859.27 108.556C859.582 108.684 859.85 108.876 860.074 109.132C860.298 109.388 860.414 109.728 860.422 110.152C860.422 110.528 860.318 110.864 860.11 111.16C859.902 111.456 859.606 111.688 859.222 111.856C858.846 112.024 858.402 112.108 857.89 112.108Z" fill="#2B9348"/>
<path d="M821.225 128.296H817.733L817.133 130H815.705L818.693 121.648H820.277L823.265 130H821.825L821.225 128.296ZM820.841 127.18L819.485 123.304L818.117 127.18H820.841ZM826.964 130.108C826.444 130.108 825.976 130.016 825.56 129.832C825.152 129.64 824.828 129.384 824.588 129.064C824.348 128.736 824.22 128.372 824.204 127.972H825.62C825.644 128.252 825.776 128.488 826.016 128.68C826.264 128.864 826.572 128.956 826.94 128.956C827.324 128.956 827.62 128.884 827.828 128.74C828.044 128.588 828.152 128.396 828.152 128.164C828.152 127.916 828.032 127.732 827.792 127.612C827.56 127.492 827.188 127.36 826.676 127.216C826.18 127.08 825.776 126.948 825.464 126.82C825.152 126.692 824.88 126.496 824.648 126.232C824.424 125.968 824.312 125.62 824.312 125.188C824.312 124.836 824.416 124.516 824.624 124.228C824.832 123.932 825.128 123.7 825.512 123.532C825.904 123.364 826.352 123.28 826.856 123.28C827.608 123.28 828.212 123.472 828.668 123.856C829.132 124.232 829.38 124.748 829.412 125.404H828.044C828.02 125.108 827.9 124.872 827.684 124.696C827.468 124.52 827.176 124.432 826.808 124.432C826.448 124.432 826.172 124.5 825.98 124.636C825.788 124.772 825.692 124.952 825.692 125.176C825.692 125.352 825.756 125.5 825.884 125.62C826.012 125.74 826.168 125.836 826.352 125.908C826.536 125.972 826.808 126.056 827.168 126.16C827.648 126.288 828.04 126.42 828.344 126.556C828.656 126.684 828.924 126.876 829.148 127.132C829.372 127.388 829.488 127.728 829.496 128.152C829.496 128.528 829.392 128.864 829.184 129.16C828.976 129.456 828.68 129.688 828.296 129.856C827.92 130.024 827.476 130.108 826.964 130.108Z" fill="#C4C646"/>
<path d="M833.635 125.812C833.635 124.996 833.823 124.264 834.199 123.616C834.583 122.968 835.099 122.464 835.747 122.104C836.403 121.736 837.119 121.552 837.895 121.552C838.783 121.552 839.571 121.772 840.259 122.212C840.955 122.644 841.459 123.26 841.771 124.06H840.127C839.911 123.62 839.611 123.292 839.227 123.076C838.843 122.86 838.399 122.752 837.895 122.752C837.343 122.752 836.851 122.876 836.419 123.124C835.987 123.372 835.647 123.728 835.399 124.192C835.159 124.656 835.039 125.196 835.039 125.812C835.039 126.428 835.159 126.968 835.399 127.432C835.647 127.896 835.987 128.256 836.419 128.512C836.851 128.76 837.343 128.884 837.895 128.884C838.399 128.884 838.843 128.776 839.227 128.56C839.611 128.344 839.911 128.016 840.127 127.576H841.771C841.459 128.376 840.955 128.992 840.259 129.424C839.571 129.856 838.783 130.072 837.895 130.072C837.111 130.072 836.395 129.892 835.747 129.532C835.099 129.164 834.583 128.656 834.199 128.008C833.823 127.36 833.635 126.628 833.635 125.812ZM846.241 130.108C845.617 130.108 845.053 129.968 844.549 129.688C844.045 129.4 843.649 129 843.361 128.488C843.073 127.968 842.929 127.368 842.929 126.688C842.929 126.016 843.077 125.42 843.373 124.9C843.669 124.38 844.073 123.98 844.585 123.7C845.097 123.42 845.669 123.28 846.301 123.28C846.933 123.28 847.505 123.42 848.017 123.7C848.529 123.98 848.933 124.38 849.229 124.9C849.525 125.42 849.673 126.016 849.673 126.688C849.673 127.36 849.521 127.956 849.217 128.476C848.913 128.996 848.497 129.4 847.969 129.688C847.449 129.968 846.873 130.108 846.241 130.108ZM846.241 128.92C846.593 128.92 846.921 128.836 847.225 128.668C847.537 128.5 847.789 128.248 847.981 127.912C848.173 127.576 848.269 127.168 848.269 126.688C848.269 126.208 848.177 125.804 847.993 125.476C847.809 125.14 847.565 124.888 847.261 124.72C846.957 124.552 846.629 124.468 846.277 124.468C845.925 124.468 845.597 124.552 845.293 124.72C844.997 124.888 844.761 125.14 844.585 125.476C844.409 125.804 844.321 126.208 844.321 126.688C844.321 127.4 844.501 127.952 844.861 128.344C845.229 128.728 845.689 128.92 846.241 128.92ZM853.425 130.108C852.905 130.108 852.437 130.016 852.021 129.832C851.613 129.64 851.289 129.384 851.049 129.064C850.809 128.736 850.681 128.372 850.665 127.972H852.081C852.105 128.252 852.237 128.488 852.477 128.68C852.725 128.864 853.033 128.956 853.401 128.956C853.785 128.956 854.081 128.884 854.289 128.74C854.505 128.588 854.613 128.396 854.613 128.164C854.613 127.916 854.493 127.732 854.253 127.612C854.021 127.492 853.649 127.36 853.137 127.216C852.641 127.08 852.237 126.948 851.925 126.82C851.613 126.692 851.341 126.496 851.109 126.232C850.885 125.968 850.773 125.62 850.773 125.188C850.773 124.836 850.877 124.516 851.085 124.228C851.293 123.932 851.589 123.7 851.973 123.532C852.365 123.364 852.813 123.28 853.317 123.28C854.069 123.28 854.673 123.472 855.129 123.856C855.593 124.232 855.841 124.748 855.873 125.404H854.505C854.481 125.108 854.361 124.872 854.145 124.696C853.929 124.52 853.637 124.432 853.269 124.432C852.909 124.432 852.633 124.5 852.441 124.636C852.249 124.772 852.153 124.952 852.153 125.176C852.153 125.352 852.217 125.5 852.345 125.62C852.473 125.74 852.629 125.836 852.813 125.908C852.997 125.972 853.269 126.056 853.629 126.16C854.109 126.288 854.501 126.42 854.805 126.556C855.117 126.684 855.385 126.876 855.609 127.132C855.833 127.388 855.949 127.728 855.957 128.152C855.957 128.528 855.853 128.864 855.645 129.16C855.437 129.456 855.141 129.688 854.757 129.856C854.381 130.024 853.937 130.108 853.425 130.108ZM859.031 124.504V128.164C859.031 128.412 859.087 128.592 859.199 128.704C859.319 128.808 859.519 128.86 859.799 128.86H860.639V130H859.559C858.943 130 858.471 129.856 858.143 129.568C857.815 129.28 857.651 128.812 857.651 128.164V124.504H856.871V123.388H857.651V121.744H859.031V123.388H860.639V124.504H859.031Z" fill="#C0C23A"/>
<path d="M688.088 38.896H690.908V40H686.72V31.66H688.088V38.896ZM691.596 36.664C691.596 36 691.732 35.412 692.004 34.9C692.284 34.388 692.66 33.992 693.132 33.712C693.612 33.424 694.14 33.28 694.716 33.28C695.236 33.28 695.688 33.384 696.072 33.592C696.464 33.792 696.776 34.044 697.008 34.348V33.388H698.388V40H697.008V39.016C696.776 39.328 696.46 39.588 696.06 39.796C695.66 40.004 695.204 40.108 694.692 40.108C694.124 40.108 693.604 39.964 693.132 39.676C692.66 39.38 692.284 38.972 692.004 38.452C691.732 37.924 691.596 37.328 691.596 36.664ZM697.008 36.688C697.008 36.232 696.912 35.836 696.72 35.5C696.536 35.164 696.292 34.908 695.988 34.732C695.684 34.556 695.356 34.468 695.004 34.468C694.652 34.468 694.324 34.556 694.02 34.732C693.716 34.9 693.468 35.152 693.276 35.488C693.092 35.816 693 36.208 693 36.664C693 37.12 693.092 37.52 693.276 37.864C693.468 38.208 693.716 38.472 694.02 38.656C694.332 38.832 694.66 38.92 695.004 38.92C695.356 38.92 695.684 38.832 695.988 38.656C696.292 38.48 696.536 38.224 696.72 37.888C696.912 37.544 697.008 37.144 697.008 36.688ZM702.585 40.108C702.065 40.108 701.597 40.016 701.181 39.832C700.773 39.64 700.449 39.384 700.209 39.064C699.969 38.736 699.841 38.372 699.825 37.972H701.241C701.265 38.252 701.397 38.488 701.637 38.68C701.885 38.864 702.193 38.956 702.561 38.956C702.945 38.956 703.241 38.884 703.449 38.74C703.665 38.588 703.773 38.396 703.773 38.164C703.773 37.916 703.653 37.732 703.413 37.612C703.181 37.492 702.809 37.36 702.297 37.216C701.801 37.08 701.397 36.948 701.085 36.82C700.773 36.692 700.501 36.496 700.269 36.232C700.045 35.968 699.933 35.62 699.933 35.188C699.933 34.836 700.037 34.516 700.245 34.228C700.453 33.932 700.749 33.7 701.133 33.532C701.525 33.364 701.973 33.28 702.477 33.28C703.229 33.28 703.833 33.472 704.289 33.856C704.753 34.232 705.001 34.748 705.033 35.404H703.665C703.641 35.108 703.521 34.872 703.305 34.696C703.089 34.52 702.797 34.432 702.429 34.432C702.069 34.432 701.793 34.5 701.601 34.636C701.409 34.772 701.313 34.952 701.313 35.176C701.313 35.352 701.377 35.5 701.505 35.62C701.633 35.74 701.789 35.836 701.973 35.908C702.157 35.972 702.429 36.056 702.789 36.16C703.269 36.288 703.661 36.42 703.965 36.556C704.277 36.684 704.545 36.876 704.769 37.132C704.993 37.388 705.109 37.728 705.117 38.152C705.117 38.528 705.013 38.864 704.805 39.16C704.597 39.456 704.301 39.688 703.917 39.856C703.541 40.024 703.097 40.108 702.585 40.108ZM708.191 34.504V38.164C708.191 38.412 708.247 38.592 708.359 38.704C708.479 38.808 708.679 38.86 708.959 38.86H709.799V40H708.719C708.103 40 707.631 39.856 707.303 39.568C706.975 39.28 706.811 38.812 706.811 38.164V34.504H706.031V33.388H706.811V31.744H708.191V33.388H709.799V34.504H708.191ZM715.701 37.624C715.781 38.024 715.953 38.328 716.217 38.536C716.481 38.744 716.837 38.848 717.285 38.848C717.853 38.848 718.269 38.624 718.533 38.176C718.797 37.728 718.929 36.964 718.929 35.884C718.737 36.156 718.465 36.368 718.113 36.52C717.769 36.664 717.393 36.736 716.985 36.736C716.465 36.736 715.993 36.632 715.569 36.424C715.145 36.208 714.809 35.892 714.561 35.476C714.321 35.052 714.201 34.54 714.201 33.94C714.201 33.06 714.457 32.36 714.969 31.84C715.489 31.312 716.201 31.048 717.105 31.048C718.193 31.048 718.965 31.412 719.421 32.14C719.885 32.86 720.117 33.968 720.117 35.464C720.117 36.496 720.029 37.34 719.853 37.996C719.685 38.652 719.389 39.148 718.965 39.484C718.541 39.82 717.953 39.988 717.201 39.988C716.345 39.988 715.685 39.764 715.221 39.316C714.757 38.868 714.497 38.304 714.441 37.624H715.701ZM717.225 35.584C717.705 35.584 718.081 35.436 718.353 35.14C718.633 34.836 718.773 34.436 718.773 33.94C718.773 33.388 718.625 32.96 718.329 32.656C718.041 32.344 717.645 32.188 717.141 32.188C716.637 32.188 716.237 32.348 715.941 32.668C715.653 32.98 715.509 33.392 715.509 33.904C715.509 34.392 715.649 34.796 715.929 35.116C716.217 35.428 716.649 35.584 717.225 35.584ZM732.916 33.28C733.436 33.28 733.9 33.388 734.308 33.604C734.724 33.82 735.048 34.14 735.28 34.564C735.52 34.988 735.64 35.5 735.64 36.1V40H734.284V36.304C734.284 35.712 734.136 35.26 733.84 34.948C733.544 34.628 733.14 34.468 732.628 34.468C732.116 34.468 731.708 34.628 731.404 34.948C731.108 35.26 730.96 35.712 730.96 36.304V40H729.604V36.304C729.604 35.712 729.456 35.26 729.16 34.948C728.864 34.628 728.46 34.468 727.948 34.468C727.436 34.468 727.028 34.628 726.724 34.948C726.428 35.26 726.28 35.712 726.28 36.304V40H724.912V33.388H726.28V34.144C726.504 33.872 726.788 33.66 727.132 33.508C727.476 33.356 727.844 33.28 728.236 33.28C728.764 33.28 729.236 33.392 729.652 33.616C730.068 33.84 730.388 34.164 730.612 34.588C730.812 34.188 731.124 33.872 731.548 33.64C731.972 33.4 732.428 33.28 732.916 33.28ZM740.248 40.108C739.624 40.108 739.06 39.968 738.556 39.688C738.052 39.4 737.656 39 737.368 38.488C737.08 37.968 736.936 37.368 736.936 36.688C736.936 36.016 737.084 35.42 737.38 34.9C737.676 34.38 738.08 33.98 738.592 33.7C739.104 33.42 739.676 33.28 740.308 33.28C740.94 33.28 741.512 33.42 742.024 33.7C742.536 33.98 742.94 34.38 743.236 34.9C743.532 35.42 743.68 36.016 743.68 36.688C743.68 37.36 743.528 37.956 743.224 38.476C742.92 38.996 742.504 39.4 741.976 39.688C741.456 39.968 740.88 40.108 740.248 40.108ZM740.248 38.92C740.6 38.92 740.928 38.836 741.232 38.668C741.544 38.5 741.796 38.248 741.988 37.912C742.18 37.576 742.276 37.168 742.276 36.688C742.276 36.208 742.184 35.804 742 35.476C741.816 35.14 741.572 34.888 741.268 34.72C740.964 34.552 740.636 34.468 740.284 34.468C739.932 34.468 739.604 34.552 739.3 34.72C739.004 34.888 738.768 35.14 738.592 35.476C738.416 35.804 738.328 36.208 738.328 36.688C738.328 37.4 738.508 37.952 738.868 38.344C739.236 38.728 739.696 38.92 740.248 38.92ZM748.369 33.28C748.889 33.28 749.353 33.388 749.761 33.604C750.177 33.82 750.501 34.14 750.733 34.564C750.965 34.988 751.081 35.5 751.081 36.1V40H749.725V36.304C749.725 35.712 749.577 35.26 749.281 34.948C748.985 34.628 748.581 34.468 748.069 34.468C747.557 34.468 747.149 34.628 746.845 34.948C746.549 35.26 746.401 35.712 746.401 36.304V40H745.033V33.388H746.401V34.144C746.625 33.872 746.909 33.66 747.253 33.508C747.605 33.356 747.977 33.28 748.369 33.28ZM754.422 34.504V38.164C754.422 38.412 754.478 38.592 754.59 38.704C754.71 38.808 754.91 38.86 755.19 38.86H756.03V40H754.95C754.334 40 753.862 39.856 753.534 39.568C753.206 39.28 753.042 38.812 753.042 38.164V34.504H752.262V33.388H753.042V31.744H754.422V33.388H756.03V34.504H754.422ZM760.711 33.28C761.215 33.28 761.663 33.388 762.055 33.604C762.455 33.82 762.767 34.14 762.991 34.564C763.223 34.988 763.339 35.5 763.339 36.1V40H761.983V36.304C761.983 35.712 761.835 35.26 761.539 34.948C761.243 34.628 760.839 34.468 760.327 34.468C759.815 34.468 759.407 34.628 759.103 34.948C758.807 35.26 758.659 35.712 758.659 36.304V40H757.291V31.12H758.659V34.156C758.891 33.876 759.183 33.66 759.535 33.508C759.895 33.356 760.287 33.28 760.711 33.28ZM767.484 40.108C766.964 40.108 766.496 40.016 766.08 39.832C765.672 39.64 765.348 39.384 765.108 39.064C764.868 38.736 764.74 38.372 764.724 37.972H766.14C766.164 38.252 766.296 38.488 766.536 38.68C766.784 38.864 767.092 38.956 767.46 38.956C767.844 38.956 768.14 38.884 768.348 38.74C768.564 38.588 768.672 38.396 768.672 38.164C768.672 37.916 768.552 37.732 768.312 37.612C768.08 37.492 767.708 37.36 767.196 37.216C766.7 37.08 766.296 36.948 765.984 36.82C765.672 36.692 765.4 36.496 765.168 36.232C764.944 35.968 764.832 35.62 764.832 35.188C764.832 34.836 764.936 34.516 765.144 34.228C765.352 33.932 765.648 33.7 766.032 33.532C766.424 33.364 766.872 33.28 767.376 33.28C768.128 33.28 768.732 33.472 769.188 33.856C769.652 34.232 769.9 34.748 769.932 35.404H768.564C768.54 35.108 768.42 34.872 768.204 34.696C767.988 34.52 767.696 34.432 767.328 34.432C766.968 34.432 766.692 34.5 766.5 34.636C766.308 34.772 766.212 34.952 766.212 35.176C766.212 35.352 766.276 35.5 766.404 35.62C766.532 35.74 766.688 35.836 766.872 35.908C767.056 35.972 767.328 36.056 767.688 36.16C768.168 36.288 768.56 36.42 768.864 36.556C769.176 36.684 769.444 36.876 769.668 37.132C769.892 37.388 770.008 37.728 770.016 38.152C770.016 38.528 769.912 38.864 769.704 39.16C769.496 39.456 769.2 39.688 768.816 39.856C768.44 40.024 767.996 40.108 767.484 40.108ZM774.518 42.232C773.734 41.48 773.13 40.524 772.706 39.364C772.29 38.204 772.082 36.96 772.082 35.632C772.082 34.272 772.306 32.988 772.754 31.78C773.21 30.572 773.878 29.576 774.758 28.792H776.174V28.924C775.254 29.772 774.562 30.788 774.098 31.972C773.634 33.156 773.402 34.376 773.402 35.632C773.402 36.84 773.618 38.008 774.05 39.136C774.482 40.264 775.11 41.252 775.934 42.1V42.232H774.518ZM777.196 33.412C777.244 32.668 777.528 32.088 778.048 31.672C778.576 31.256 779.248 31.048 780.064 31.048C780.624 31.048 781.108 31.148 781.516 31.348C781.924 31.548 782.232 31.82 782.44 32.164C782.648 32.508 782.752 32.896 782.752 33.328C782.752 33.824 782.62 34.248 782.356 34.6C782.092 34.952 781.776 35.188 781.408 35.308V35.356C781.88 35.5 782.248 35.764 782.512 36.148C782.776 36.524 782.908 37.008 782.908 37.6C782.908 38.072 782.8 38.492 782.584 38.86C782.368 39.228 782.048 39.52 781.624 39.736C781.2 39.944 780.692 40.048 780.1 40.048C779.236 40.048 778.524 39.828 777.964 39.388C777.412 38.94 777.116 38.3 777.076 37.468H778.396C778.428 37.892 778.592 38.24 778.888 38.512C779.184 38.776 779.584 38.908 780.088 38.908C780.576 38.908 780.952 38.776 781.216 38.512C781.48 38.24 781.612 37.892 781.612 37.468C781.612 36.908 781.432 36.512 781.072 36.28C780.72 36.04 780.176 35.92 779.44 35.92H779.128V34.792H779.452C780.1 34.784 780.592 34.676 780.928 34.468C781.272 34.26 781.444 33.932 781.444 33.484C781.444 33.1 781.32 32.796 781.072 32.572C780.824 32.34 780.472 32.224 780.016 32.224C779.568 32.224 779.22 32.34 778.972 32.572C778.724 32.796 778.576 33.076 778.528 33.412H777.196ZM789.049 33.28C788.961 32.912 788.801 32.636 788.569 32.452C788.337 32.268 788.013 32.176 787.597 32.176C786.965 32.176 786.493 32.42 786.181 32.908C785.869 33.388 785.705 34.188 785.689 35.308C785.897 34.956 786.201 34.684 786.601 34.492C787.001 34.3 787.433 34.204 787.897 34.204C788.425 34.204 788.889 34.32 789.289 34.552C789.697 34.776 790.013 35.104 790.237 35.536C790.469 35.968 790.585 36.484 790.585 37.084C790.585 37.644 790.473 38.144 790.249 38.584C790.033 39.024 789.709 39.372 789.277 39.628C788.845 39.876 788.325 40 787.717 40C786.893 40 786.245 39.82 785.773 39.46C785.309 39.092 784.981 38.576 784.789 37.912C784.605 37.248 784.513 36.42 784.513 35.428C784.513 32.5 785.545 31.036 787.609 31.036C788.409 31.036 789.037 31.252 789.493 31.684C789.957 32.116 790.229 32.648 790.309 33.28H789.049ZM787.597 35.356C787.109 35.356 786.693 35.504 786.349 35.8C786.013 36.088 785.845 36.508 785.845 37.06C785.845 37.612 786.001 38.052 786.313 38.38C786.633 38.7 787.077 38.86 787.645 38.86C788.149 38.86 788.545 38.704 788.833 38.392C789.129 38.08 789.277 37.664 789.277 37.144C789.277 36.6 789.133 36.168 788.845 35.848C788.565 35.52 788.149 35.356 787.597 35.356ZM801.104 33.388L799.052 40H797.612L796.28 35.116L794.948 40H793.508L791.444 33.388H792.836L794.216 38.704L795.62 33.388H797.048L798.392 38.68L799.76 33.388H801.104ZM808.187 36.532C808.187 36.78 808.171 37.004 808.139 37.204H803.087C803.127 37.732 803.323 38.156 803.675 38.476C804.027 38.796 804.459 38.956 804.971 38.956C805.707 38.956 806.227 38.648 806.531 38.032H808.007C807.807 38.64 807.443 39.14 806.915 39.532C806.395 39.916 805.747 40.108 804.971 40.108C804.339 40.108 803.771 39.968 803.267 39.688C802.771 39.4 802.379 39 802.091 38.488C801.811 37.968 801.671 37.368 801.671 36.688C801.671 36.008 801.807 35.412 802.079 34.9C802.359 34.38 802.747 33.98 803.243 33.7C803.747 33.42 804.323 33.28 804.971 33.28C805.595 33.28 806.151 33.416 806.639 33.688C807.127 33.96 807.507 34.344 807.779 34.84C808.051 35.328 808.187 35.892 808.187 36.532ZM806.759 36.1C806.751 35.596 806.571 35.192 806.219 34.888C805.867 34.584 805.431 34.432 804.911 34.432C804.439 34.432 804.035 34.584 803.699 34.888C803.363 35.184 803.163 35.588 803.099 36.1H806.759ZM815.593 36.532C815.593 36.78 815.577 37.004 815.545 37.204H810.493C810.533 37.732 810.729 38.156 811.081 38.476C811.433 38.796 811.865 38.956 812.377 38.956C813.113 38.956 813.633 38.648 813.937 38.032H815.413C815.213 38.64 814.849 39.14 814.321 39.532C813.801 39.916 813.153 40.108 812.377 40.108C811.745 40.108 811.177 39.968 810.673 39.688C810.177 39.4 809.785 39 809.497 38.488C809.217 37.968 809.077 37.368 809.077 36.688C809.077 36.008 809.213 35.412 809.485 34.9C809.765 34.38 810.153 33.98 810.649 33.7C811.153 33.42 811.729 33.28 812.377 33.28C813.001 33.28 813.557 33.416 814.045 33.688C814.533 33.96 814.913 34.344 815.185 34.84C815.457 35.328 815.593 35.892 815.593 36.532ZM814.165 36.1C814.157 35.596 813.977 35.192 813.625 34.888C813.273 34.584 812.837 34.432 812.317 34.432C811.845 34.432 811.441 34.584 811.105 34.888C810.769 35.184 810.569 35.588 810.505 36.1H814.165ZM819.555 36.7L822.603 40H820.755L818.307 37.156V40H816.939V31.12H818.307V36.28L820.707 33.388H822.603L819.555 36.7ZM825.984 40.108C825.464 40.108 824.996 40.016 824.58 39.832C824.172 39.64 823.848 39.384 823.608 39.064C823.368 38.736 823.24 38.372 823.224 37.972H824.64C824.664 38.252 824.796 38.488 825.036 38.68C825.284 38.864 825.592 38.956 825.96 38.956C826.344 38.956 826.64 38.884 826.848 38.74C827.064 38.588 827.172 38.396 827.172 38.164C827.172 37.916 827.052 37.732 826.812 37.612C826.58 37.492 826.208 37.36 825.696 37.216C825.2 37.08 824.796 36.948 824.484 36.82C824.172 36.692 823.9 36.496 823.668 36.232C823.444 35.968 823.332 35.62 823.332 35.188C823.332 34.836 823.436 34.516 823.644 34.228C823.852 33.932 824.148 33.7 824.532 33.532C824.924 33.364 825.372 33.28 825.876 33.28C826.628 33.28 827.232 33.472 827.688 33.856C828.152 34.232 828.4 34.748 828.432 35.404H827.064C827.04 35.108 826.92 34.872 826.704 34.696C826.488 34.52 826.196 34.432 825.828 34.432C825.468 34.432 825.192 34.5 825 34.636C824.808 34.772 824.712 34.952 824.712 35.176C824.712 35.352 824.776 35.5 824.904 35.62C825.032 35.74 825.188 35.836 825.372 35.908C825.556 35.972 825.828 36.056 826.188 36.16C826.668 36.288 827.06 36.42 827.364 36.556C827.676 36.684 827.944 36.876 828.168 37.132C828.392 37.388 828.508 37.728 828.516 38.152C828.516 38.528 828.412 38.864 828.204 39.16C827.996 39.456 827.7 39.688 827.316 39.856C826.94 40.024 826.496 40.108 825.984 40.108ZM829.658 42.232V42.1C830.482 41.252 831.11 40.264 831.542 39.136C831.974 38.008 832.19 36.84 832.19 35.632C832.19 34.376 831.958 33.156 831.494 31.972C831.03 30.788 830.338 29.772 829.418 28.924V28.792H830.834C831.714 29.576 832.378 30.572 832.826 31.78C833.282 32.988 833.51 34.272 833.51 35.632C833.51 36.96 833.298 38.204 832.874 39.364C832.458 40.524 831.858 41.48 831.074 42.232H829.658Z" fill="#595959"/>
<rect x="676.5" y="22.5" width="184" height="28" stroke="#595959"/>
<path d="M842 34L848 40L854 34" stroke="#595959" stroke-width="1.5" stroke-linecap="round" stroke-linejoin="round"/>
<line x1="89" y1="250.625" x2="686.11" y2="250.625" stroke="#595959" stroke-opacity="0.5" stroke-width="0.75063"/>
<line x1="90.9449" y1="215.625" x2="688.055" y2="215.625" stroke="#595959" stroke-opacity="0.5" stroke-width="0.75063"/>
<line x1="92.89" y1="180.625" x2="688.055" y2="180.625" stroke="#595959" stroke-opacity="0.5" stroke-width="0.75063"/>
<line x1="92.89" y1="145.625" x2="690" y2="145.625" stroke="#595959" stroke-opacity="0.5" stroke-width="0.75063"/>
<line x1="92.89" y1="110.625" x2="690" y2="110.625" stroke="#595959" stroke-opacity="0.5" stroke-width="0.75063"/>
<line x1="89" y1="75.6247" x2="686.11" y2="75.6247" stroke="#595959" stroke-opacity="0.5" stroke-width="0.75063"/>
<path d="M55.3899 218H54.0901V211.721L52.1727 212.376V211.275L55.2234 210.153H55.3899V218ZM63.2049 214.708C63.2049 215.832 62.9936 216.681 62.5711 217.253C62.1522 217.823 61.513 218.107 60.6536 218.107C59.8086 218.107 59.1712 217.83 58.7415 217.275C58.3154 216.716 58.097 215.891 58.0862 214.799V213.445C58.0862 212.321 58.2957 211.478 58.7147 210.916C59.1372 210.353 59.7799 210.072 60.6429 210.072C61.4987 210.072 62.136 210.346 62.555 210.894C62.9775 211.442 63.1941 212.262 63.2049 213.354V214.708ZM61.8997 213.247C61.8997 212.513 61.7994 211.975 61.5989 211.635C61.3984 211.292 61.0797 211.12 60.6429 211.12C60.2168 211.12 59.9035 211.283 59.7029 211.608C59.5024 211.931 59.3968 212.436 59.386 213.123V214.896C59.386 215.626 59.4881 216.17 59.6922 216.528C59.8963 216.886 60.2168 217.065 60.6536 217.065C61.0726 217.065 61.3823 216.901 61.5828 216.571C61.7833 216.238 61.889 215.719 61.8997 215.014V213.247ZM69.4568 214.708C69.4568 215.832 69.2456 216.681 68.823 217.253C68.4041 217.823 67.7649 218.107 66.9056 218.107C66.0605 218.107 65.4231 217.83 64.9935 217.275C64.5674 216.716 64.3489 215.891 64.3382 214.799V213.445C64.3382 212.321 64.5477 211.478 64.9666 210.916C65.3891 210.353 66.0319 210.072 66.8948 210.072C67.7506 210.072 68.388 210.346 68.8069 210.894C69.2295 211.442 69.4461 212.262 69.4568 213.354V214.708ZM68.1517 213.247C68.1517 212.513 68.0514 211.975 67.8509 211.635C67.6504 211.292 67.3317 211.12 66.8948 211.12C66.4687 211.12 66.1554 211.283 65.9549 211.608C65.7544 211.931 65.6487 212.436 65.638 213.123V214.896C65.638 215.626 65.74 216.17 65.9441 216.528C66.1482 216.886 66.4687 217.065 66.9056 217.065C67.3245 217.065 67.6342 216.901 67.8348 216.571C68.0353 216.238 68.1409 215.719 68.1517 215.014V213.247ZM75.7088 214.708C75.7088 215.832 75.4975 216.681 75.075 217.253C74.6561 217.823 74.0169 218.107 73.1575 218.107C72.3125 218.107 71.6751 217.83 71.2454 217.275C70.8193 216.716 70.6009 215.891 70.5901 214.799V213.445C70.5901 212.321 70.7996 211.478 71.2186 210.916C71.6411 210.353 72.2838 210.072 73.1468 210.072C74.0026 210.072 74.6399 210.346 75.0589 210.894C75.4814 211.442 75.698 212.262 75.7088 213.354V214.708ZM74.4036 213.247C74.4036 212.513 74.3034 211.975 74.1028 211.635C73.9023 211.292 73.5836 211.12 73.1468 211.12C72.7207 211.12 72.4074 211.283 72.2068 211.608C72.0063 211.931 71.9007 212.436 71.8899 213.123V214.896C71.8899 215.626 71.992 216.17 72.1961 216.528C72.4002 216.886 72.7207 217.065 73.1575 217.065C73.5765 217.065 73.8862 216.901 74.0867 216.571C74.2872 216.238 74.3929 215.719 74.4036 215.014V213.247Z" fill="#6C6C6C"/>
<path d="M64.8147 249.708C64.8147 250.832 64.6035 251.681 64.181 252.253C63.762 252.823 63.1229 253.107 62.2635 253.107C61.4184 253.107 60.7811 252.83 60.3514 252.275C59.9253 251.716 59.7068 250.891 59.6961 249.799V248.445C59.6961 247.321 59.9056 246.478 60.3245 245.916C60.747 245.353 61.3898 245.072 62.2527 245.072C63.1085 245.072 63.7459 245.346 64.1648 245.894C64.5874 246.442 64.804 247.262 64.8147 248.354V249.708ZM63.5096 248.247C63.5096 247.513 63.4093 246.975 63.2088 246.635C63.0083 246.292 62.6896 246.12 62.2527 246.12C61.8266 246.12 61.5133 246.283 61.3128 246.608C61.1123 246.931 61.0066 247.436 60.9959 248.123V249.896C60.9959 250.626 61.098 251.17 61.3021 251.528C61.5062 251.886 61.8266 252.065 62.2635 252.065C62.6824 252.065 62.9922 251.901 63.1927 251.571C63.3932 251.238 63.4988 250.719 63.5096 250.014V248.247Z" fill="#6C6C6C"/>
<path d="M55.598 183H50.3397V182.103L52.9446 179.262C53.3206 178.843 53.5874 178.494 53.7449 178.214C53.9061 177.931 53.9866 177.649 53.9866 177.366C53.9866 176.993 53.881 176.693 53.6697 176.463C53.4621 176.234 53.181 176.12 52.8265 176.12C52.404 176.12 52.0763 176.249 51.8436 176.506C51.6108 176.764 51.4945 177.117 51.4945 177.564H50.1893C50.1893 177.088 50.2967 176.66 50.5115 176.281C50.73 175.898 51.0397 175.6 51.4407 175.389C51.8454 175.178 52.3109 175.072 52.8372 175.072C53.5963 175.072 54.1943 175.264 54.6312 175.647C55.0716 176.027 55.2918 176.553 55.2918 177.226C55.2918 177.616 55.1808 178.026 54.9588 178.456C54.7404 178.882 54.3805 179.367 53.8792 179.912L51.9671 181.958H55.598V183ZM61.6888 179.708C61.6888 180.832 61.4775 181.681 61.055 182.253C60.6361 182.823 59.9969 183.107 59.1375 183.107C58.2925 183.107 57.6551 182.83 57.2254 182.275C56.7993 181.716 56.5809 180.891 56.5701 179.799V178.445C56.5701 177.321 56.7796 176.478 57.1986 175.916C57.6211 175.353 58.2638 175.072 59.1268 175.072C59.9826 175.072 60.6199 175.346 61.0389 175.894C61.4614 176.442 61.678 177.262 61.6888 178.354V179.708ZM60.3836 178.247C60.3836 177.513 60.2834 176.975 60.0828 176.635C59.8823 176.292 59.5636 176.12 59.1268 176.12C58.7007 176.12 58.3874 176.283 58.1868 176.608C57.9863 176.931 57.8807 177.436 57.8699 178.123V179.896C57.8699 180.626 57.972 181.17 58.1761 181.528C58.3802 181.886 58.7007 182.065 59.1375 182.065C59.5565 182.065 59.8662 181.901 60.0667 181.571C60.2672 181.238 60.3729 180.719 60.3836 180.014V178.247ZM67.9407 179.708C67.9407 180.832 67.7295 181.681 67.307 182.253C66.888 182.823 66.2488 183.107 65.3895 183.107C64.5444 183.107 63.907 182.83 63.4774 182.275C63.0513 181.716 62.8328 180.891 62.8221 179.799V178.445C62.8221 177.321 63.0316 176.478 63.4505 175.916C63.873 175.353 64.5158 175.072 65.3787 175.072C66.2345 175.072 66.8719 175.346 67.2908 175.894C67.7134 176.442 67.93 177.262 67.9407 178.354V179.708ZM66.6356 178.247C66.6356 177.513 66.5353 176.975 66.3348 176.635C66.1343 176.292 65.8156 176.12 65.3787 176.12C64.9526 176.12 64.6393 176.283 64.4388 176.608C64.2383 176.931 64.1326 177.436 64.1219 178.123V179.896C64.1219 180.626 64.2239 181.17 64.428 181.528C64.6321 181.886 64.9526 182.065 65.3895 182.065C65.8084 182.065 66.1181 181.901 66.3187 181.571C66.5192 181.238 66.6248 180.719 66.6356 180.014V178.247ZM74.1927 179.708C74.1927 180.832 73.9814 181.681 73.5589 182.253C73.14 182.823 72.5008 183.107 71.6414 183.107C70.7964 183.107 70.159 182.83 69.7293 182.275C69.3032 181.716 69.0848 180.891 69.074 179.799V178.445C69.074 177.321 69.2835 176.478 69.7025 175.916C70.125 175.353 70.7677 175.072 71.6307 175.072C72.4865 175.072 73.1238 175.346 73.5428 175.894C73.9653 176.442 74.182 177.262 74.1927 178.354V179.708ZM72.8875 178.247C72.8875 177.513 72.7873 176.975 72.5867 176.635C72.3862 176.292 72.0675 176.12 71.6307 176.12C71.2046 176.12 70.8913 176.283 70.6907 176.608C70.4902 176.931 70.3846 177.436 70.3738 178.123V179.896C70.3738 180.626 70.4759 181.17 70.68 181.528C70.8841 181.886 71.2046 182.065 71.6414 182.065C72.0604 182.065 72.3701 181.901 72.5706 181.571C72.7711 181.238 72.8768 180.719 72.8875 180.014V178.247Z" fill="#6C6C6C"/>
<path d="M51.0908 143.494H51.8857C52.2868 143.49 52.6037 143.386 52.8364 143.182C53.0728 142.978 53.1909 142.683 53.1909 142.296C53.1909 141.924 53.0924 141.635 52.8955 141.431C52.7021 141.223 52.4049 141.12 52.0039 141.12C51.653 141.12 51.3647 141.222 51.1392 141.426C50.9136 141.626 50.8008 141.889 50.8008 142.215H49.4956C49.4956 141.814 49.6012 141.449 49.8125 141.12C50.0273 140.79 50.3245 140.534 50.7041 140.352C51.0872 140.165 51.5151 140.072 51.9878 140.072C52.7684 140.072 53.3807 140.269 53.8247 140.663C54.2723 141.053 54.4961 141.598 54.4961 142.296C54.4961 142.647 54.3833 142.978 54.1577 143.29C53.9357 143.597 53.6475 143.83 53.293 143.988C53.7227 144.135 54.0485 144.366 54.2705 144.681C54.4961 144.996 54.6089 145.372 54.6089 145.809C54.6089 146.51 54.3672 147.069 53.8838 147.484C53.404 147.9 52.772 148.107 51.9878 148.107C51.2358 148.107 50.62 147.907 50.1401 147.506C49.6603 147.105 49.4204 146.571 49.4204 145.905H50.7256C50.7256 146.249 50.8402 146.528 51.0693 146.743C51.3021 146.958 51.6136 147.065 52.0039 147.065C52.4085 147.065 52.7272 146.958 52.96 146.743C53.1927 146.528 53.3091 146.217 53.3091 145.809C53.3091 145.397 53.1873 145.08 52.9438 144.858C52.7004 144.636 52.3387 144.525 51.8589 144.525H51.0908V143.494ZM60.9307 144.708C60.9307 145.832 60.7194 146.681 60.2969 147.253C59.8779 147.823 59.2388 148.107 58.3794 148.107C57.5343 148.107 56.897 147.83 56.4673 147.275C56.0412 146.716 55.8228 145.891 55.812 144.799V143.445C55.812 142.321 56.0215 141.478 56.4404 140.916C56.863 140.353 57.5057 140.072 58.3687 140.072C59.2244 140.072 59.8618 140.346 60.2808 140.894C60.7033 141.442 60.9199 142.262 60.9307 143.354V144.708ZM59.6255 143.247C59.6255 142.513 59.5252 141.975 59.3247 141.635C59.1242 141.292 58.8055 141.12 58.3687 141.12C57.9425 141.12 57.6292 141.283 57.4287 141.608C57.2282 141.931 57.1226 142.436 57.1118 143.123V144.896C57.1118 145.626 57.2139 146.17 57.418 146.528C57.6221 146.886 57.9425 147.065 58.3794 147.065C58.7983 147.065 59.1081 146.901 59.3086 146.571C59.5091 146.238 59.6147 145.719 59.6255 145.014V143.247ZM67.1826 144.708C67.1826 145.832 66.9714 146.681 66.5488 147.253C66.1299 147.823 65.4907 148.107 64.6313 148.107C63.7863 148.107 63.1489 147.83 62.7192 147.275C62.2931 146.716 62.0747 145.891 62.064 144.799V143.445C62.064 142.321 62.2734 141.478 62.6924 140.916C63.1149 140.353 63.7576 140.072 64.6206 140.072C65.4764 140.072 66.1138 140.346 66.5327 140.894C66.9552 141.442 67.1719 142.262 67.1826 143.354V144.708ZM65.8774 143.247C65.8774 142.513 65.7772 141.975 65.5767 141.635C65.3761 141.292 65.0575 141.12 64.6206 141.12C64.1945 141.12 63.8812 141.283 63.6807 141.608C63.4801 141.931 63.3745 142.436 63.3638 143.123V144.896C63.3638 145.626 63.4658 146.17 63.6699 146.528C63.874 146.886 64.1945 147.065 64.6313 147.065C65.0503 147.065 65.36 146.901 65.5605 146.571C65.7611 146.238 65.8667 145.719 65.8774 145.014V143.247ZM73.4346 144.708C73.4346 145.832 73.2233 146.681 72.8008 147.253C72.3818 147.823 71.7427 148.107 70.8833 148.107C70.0382 148.107 69.4009 147.83 68.9712 147.275C68.5451 146.716 68.3267 145.891 68.3159 144.799V143.445C68.3159 142.321 68.5254 141.478 68.9443 140.916C69.3669 140.353 70.0096 140.072 70.8726 140.072C71.7284 140.072 72.3657 140.346 72.7847 140.894C73.2072 141.442 73.4238 142.262 73.4346 143.354V144.708ZM72.1294 143.247C72.1294 142.513 72.0291 141.975 71.8286 141.635C71.6281 141.292 71.3094 141.12 70.8726 141.12C70.4465 141.12 70.1331 141.283 69.9326 141.608C69.7321 141.931 69.6265 142.436 69.6157 143.123V144.896C69.6157 145.626 69.7178 146.17 69.9219 146.528C70.126 146.886 70.4465 147.065 70.8833 147.065C71.3022 147.065 71.612 146.901 71.8125 146.571C72.013 146.238 72.1187 145.719 72.1294 145.014V143.247Z" fill="#6C6C6C"/>
<path d="M53.9966 110.212H54.9688V111.26H53.9966V113H52.6914V111.26H49.313L49.2754 110.465L52.6484 105.18H53.9966V110.212ZM50.645 110.212H52.6914V106.947L52.5947 107.119L50.645 110.212ZM60.9307 109.708C60.9307 110.832 60.7194 111.681 60.2969 112.253C59.8779 112.823 59.2388 113.107 58.3794 113.107C57.5343 113.107 56.897 112.83 56.4673 112.275C56.0412 111.716 55.8228 110.891 55.812 109.799V108.445C55.812 107.321 56.0215 106.478 56.4404 105.916C56.863 105.353 57.5057 105.072 58.3687 105.072C59.2244 105.072 59.8618 105.346 60.2808 105.894C60.7033 106.442 60.9199 107.262 60.9307 108.354V109.708ZM59.6255 108.247C59.6255 107.513 59.5252 106.975 59.3247 106.635C59.1242 106.292 58.8055 106.12 58.3687 106.12C57.9425 106.12 57.6292 106.283 57.4287 106.608C57.2282 106.931 57.1226 107.436 57.1118 108.123V109.896C57.1118 110.626 57.2139 111.17 57.418 111.528C57.6221 111.886 57.9425 112.065 58.3794 112.065C58.7983 112.065 59.1081 111.901 59.3086 111.571C59.5091 111.238 59.6147 110.719 59.6255 110.014V108.247ZM67.1826 109.708C67.1826 110.832 66.9714 111.681 66.5488 112.253C66.1299 112.823 65.4907 113.107 64.6313 113.107C63.7863 113.107 63.1489 112.83 62.7192 112.275C62.2931 111.716 62.0747 110.891 62.064 109.799V108.445C62.064 107.321 62.2734 106.478 62.6924 105.916C63.1149 105.353 63.7576 105.072 64.6206 105.072C65.4764 105.072 66.1138 105.346 66.5327 105.894C66.9552 106.442 67.1719 107.262 67.1826 108.354V109.708ZM65.8774 108.247C65.8774 107.513 65.7772 106.975 65.5767 106.635C65.3761 106.292 65.0575 106.12 64.6206 106.12C64.1945 106.12 63.8812 106.283 63.6807 106.608C63.4801 106.931 63.3745 107.436 63.3638 108.123V109.896C63.3638 110.626 63.4658 111.17 63.6699 111.528C63.874 111.886 64.1945 112.065 64.6313 112.065C65.0503 112.065 65.36 111.901 65.5605 111.571C65.7611 111.238 65.8667 110.719 65.8774 110.014V108.247ZM73.4346 109.708C73.4346 110.832 73.2233 111.681 72.8008 112.253C72.3818 112.823 71.7427 113.107 70.8833 113.107C70.0382 113.107 69.4009 112.83 68.9712 112.275C68.5451 111.716 68.3267 110.891 68.3159 109.799V108.445C68.3159 107.321 68.5254 106.478 68.9443 105.916C69.3669 105.353 70.0096 105.072 70.8726 105.072C71.7284 105.072 72.3657 105.346 72.7847 105.894C73.2072 106.442 73.4238 107.262 73.4346 108.354V109.708ZM72.1294 108.247C72.1294 107.513 72.0291 106.975 71.8286 106.635C71.6281 106.292 71.3094 106.12 70.8726 106.12C70.4465 106.12 70.1331 106.283 69.9326 106.608C69.7321 106.931 69.6265 107.436 69.6157 108.123V109.896C69.6157 110.626 69.7178 111.17 69.9219 111.528C70.126 111.886 70.4465 112.065 70.8833 112.065C71.3022 112.065 71.612 111.901 71.8125 111.571C72.013 111.238 72.1187 110.719 72.1294 110.014V108.247Z" fill="#6C6C6C"/>
<path d="M50.9341 74.1221L51.3584 70.1797H55.5586V71.3076H52.4434L52.2286 73.1768C52.5902 72.9691 52.9984 72.8652 53.4532 72.8652C54.198 72.8652 54.7763 73.1034 55.188 73.5796C55.6034 74.0558 55.8111 74.6968 55.8111 75.5024C55.8111 76.2974 55.5819 76.9312 55.1236 77.4038C54.6652 77.8729 54.0368 78.1074 53.2383 78.1074C52.5222 78.1074 51.9278 77.9051 51.4551 77.5005C50.9861 77.0923 50.7318 76.5552 50.6924 75.8892H51.9546C52.0048 76.2687 52.1408 76.5605 52.3628 76.7646C52.5848 76.9652 52.8749 77.0654 53.233 77.0654C53.634 77.0654 53.9455 76.9222 54.1675 76.6357C54.3931 76.3493 54.5059 75.959 54.5059 75.4648C54.5059 74.9886 54.3824 74.6126 54.1353 74.3369C53.8882 74.0576 53.5481 73.918 53.1148 73.918C52.8785 73.918 52.6779 73.9502 52.5132 74.0146C52.3485 74.0755 52.1695 74.1973 51.9761 74.3799L50.9341 74.1221ZM57.1861 74.1221L57.6104 70.1797H61.8106V71.3076H58.6954L58.4805 73.1768C58.8422 72.9691 59.2504 72.8652 59.7051 72.8652C60.4499 72.8652 61.0282 73.1034 61.44 73.5796C61.8554 74.0558 62.063 74.6968 62.063 75.5024C62.063 76.2974 61.8339 76.9312 61.3755 77.4038C60.9172 77.8729 60.2888 78.1074 59.4903 78.1074C58.7741 78.1074 58.1797 77.9051 57.7071 77.5005C57.238 77.0923 56.9838 76.5552 56.9444 75.8892H58.2066C58.2567 76.2687 58.3928 76.5605 58.6148 76.7646C58.8368 76.9652 59.1268 77.0654 59.4849 77.0654C59.886 77.0654 60.1975 76.9222 60.4195 76.6357C60.6451 76.3493 60.7579 75.959 60.7579 75.4648C60.7579 74.9886 60.6343 74.6126 60.3873 74.3369C60.1402 74.0576 59.8 73.918 59.3667 73.918C59.1304 73.918 58.9299 73.9502 58.7652 74.0146C58.6005 74.0755 58.4214 74.1973 58.2281 74.3799L57.1861 74.1221ZM68.1861 74.7075C68.1861 75.8319 67.9748 76.6805 67.5523 77.2534C67.1333 77.8228 66.4942 78.1074 65.6348 78.1074C64.7898 78.1074 64.1524 77.8299 63.7227 77.2749C63.2966 76.7163 63.0782 75.891 63.0674 74.7988V73.4453C63.0674 72.321 63.2769 71.4777 63.6958 70.9155C64.1184 70.3534 64.7611 70.0723 65.6241 70.0723C66.4799 70.0723 67.1172 70.3462 67.5362 70.894C67.9587 71.4419 68.1753 72.2619 68.1861 73.354V74.7075ZM66.8809 73.2466C66.8809 72.5125 66.7806 71.9754 66.5801 71.6353C66.3796 71.2915 66.0609 71.1196 65.6241 71.1196C65.198 71.1196 64.8847 71.2826 64.6841 71.6084C64.4836 71.9307 64.378 72.4355 64.3672 73.123V74.8955C64.3672 75.626 64.4693 76.1702 64.6734 76.5283C64.8775 76.8864 65.198 77.0654 65.6348 77.0654C66.0538 77.0654 66.3635 76.9007 66.564 76.5713C66.7645 76.2383 66.8702 75.7191 66.8809 75.0137V73.2466ZM74.438 74.7075C74.438 75.8319 74.2268 76.6805 73.8042 77.2534C73.3853 77.8228 72.7461 78.1074 71.8868 78.1074C71.0417 78.1074 70.4043 77.8299 69.9747 77.2749C69.5486 76.7163 69.3301 75.891 69.3194 74.7988V73.4453C69.3194 72.321 69.5289 71.4777 69.9478 70.9155C70.3703 70.3534 71.0131 70.0723 71.876 70.0723C72.7318 70.0723 73.3692 70.3462 73.7881 70.894C74.2107 71.4419 74.4273 72.2619 74.438 73.354V74.7075ZM73.1329 73.2466C73.1329 72.5125 73.0326 71.9754 72.8321 71.6353C72.6316 71.2915 72.3129 71.1196 71.876 71.1196C71.4499 71.1196 71.1366 71.2826 70.9361 71.6084C70.7356 71.9307 70.6299 72.4355 70.6192 73.123V74.8955C70.6192 75.626 70.7212 76.1702 70.9253 76.5283C71.1294 76.8864 71.4499 77.0654 71.8868 77.0654C72.3057 77.0654 72.6154 76.9007 72.816 76.5713C73.0165 76.2383 73.1221 75.7191 73.1329 75.0137V73.2466Z" fill="#6C6C6C"/>
<rect x="103" y="138" width="12.5" height="113" fill="#233A6C" fill-opacity="0.9"/>
<rect x="115.5" y="221" width="12.5" height="30" fill="#CC3174"/>
<rect x="128" y="193" width="12.5" height="58" fill="#2B9348"/>
<rect x="140.5" y="173" width="12.5" height="78" fill="#C4C646"/>
<rect x="208.5" y="197" width="12.5" height="54" fill="#C4C646"/>
<rect x="171" y="68" width="12" height="183" fill="#233A6C" fill-opacity="0.9"/>
<rect x="183" y="221" width="13" height="30" fill="#CC3174"/>
<rect x="196" y="235" width="12" height="16" fill="#2B9348"/>
<rect x="276.5" y="208" width="12.5" height="43" fill="#C4C646"/>
<rect x="239" y="94" width="12.5" height="157" fill="#233A6C" fill-opacity="0.9"/>
<rect x="251" y="171" width="13" height="80" fill="#CC3174"/>
<rect x="264" y="193" width="12.5" height="58" fill="#2B9348"/>
<rect x="345.5" y="173" width="12.5" height="78" fill="#C4C646"/>
<rect x="308" y="163" width="12.5" height="88" fill="#233A6C" fill-opacity="0.9"/>
<rect x="320.5" y="216" width="12.5" height="35" fill="#CC3174"/>
<rect x="333" y="235" width="12.5" height="16" fill="#2B9348"/>
<rect x="413.5" y="193" width="12.5" height="58" fill="#C4C646"/>
<rect x="376" y="152" width="12.5" height="99" fill="#233A6C" fill-opacity="0.9"/>
<rect x="388.5" y="183" width="12.5" height="68" fill="#CC3174"/>
<rect x="401" y="197" width="12.5" height="54" fill="#2B9348"/>
<rect x="482.5" y="193" width="12.5" height="58" fill="#C4C646"/>
<rect x="445" y="113" width="12.5" height="138" fill="#233A6C" fill-opacity="0.9"/>
<rect x="457.5" y="171" width="12.5" height="80" fill="#CC3174"/>
<rect x="470" y="208" width="12.5" height="43" fill="#2B9348"/>
<rect x="550.5" y="208" width="12.5" height="43" fill="#C4C646"/>
<rect x="513" y="193" width="12.5" height="58" fill="#233A6C" fill-opacity="0.9"/>
<rect x="525.5" y="236" width="12.5" height="15" fill="#CC3174"/>
<rect x="538" y="222" width="12.5" height="29" fill="#2B9348"/>
<rect x="619.5" y="208" width="12.5" height="43" fill="#C4C646"/>
<rect x="582" y="193" width="12.5" height="58" fill="#233A6C" fill-opacity="0.9"/>
<rect x="594.5" y="236" width="12.5" height="15" fill="#CC3174"/>
<rect x="607" y="222" width="12.5" height="29" fill="#2B9348"/>
<rect x="688.5" y="161.293" width="12.5" height="89.7069" fill="#C4C646"/>
<rect x="651" y="130" width="12.5" height="121" fill="#233A6C" fill-opacity="0.9"/>
<rect x="663.5" y="219.707" width="12.5" height="31.2931" fill="#CC3174"/>
<rect x="676" y="190.5" width="12.5" height="60.5" fill="#2B9348"/>
<path d="M122.243 259.128H123.596V264.612C123.596 265.36 123.362 265.955 122.893 266.395C122.427 266.835 121.811 267.056 121.045 267.056C120.229 267.056 119.598 266.85 119.154 266.438C118.71 266.026 118.488 265.453 118.488 264.719H119.842C119.842 265.135 119.944 265.448 120.148 265.659C120.356 265.867 120.655 265.971 121.045 265.971C121.41 265.971 121.7 265.851 121.915 265.611C122.133 265.367 122.243 265.033 122.243 264.606V259.128ZM128.5 266.948C128.443 266.837 128.393 266.656 128.35 266.406C127.934 266.839 127.426 267.056 126.824 267.056C126.241 267.056 125.764 266.889 125.396 266.556C125.027 266.223 124.842 265.811 124.842 265.321C124.842 264.701 125.071 264.227 125.53 263.897C125.992 263.564 126.651 263.398 127.506 263.398H128.307V263.017C128.307 262.716 128.222 262.476 128.054 262.297C127.886 262.114 127.63 262.023 127.286 262.023C126.989 262.023 126.745 262.098 126.556 262.249C126.366 262.395 126.271 262.583 126.271 262.812H124.966C124.966 262.494 125.071 262.197 125.283 261.921C125.494 261.642 125.78 261.423 126.142 261.266C126.507 261.108 126.914 261.029 127.361 261.029C128.042 261.029 128.584 261.201 128.989 261.545C129.393 261.885 129.601 262.365 129.612 262.984V265.605C129.612 266.128 129.685 266.545 129.832 266.857V266.948H128.5ZM127.066 266.008C127.324 266.008 127.565 265.946 127.791 265.82C128.02 265.695 128.192 265.527 128.307 265.315V264.22H127.603C127.12 264.22 126.756 264.304 126.513 264.472C126.269 264.64 126.147 264.879 126.147 265.187C126.147 265.437 126.23 265.638 126.395 265.788C126.563 265.935 126.787 266.008 127.066 266.008ZM132.19 261.137L132.228 261.808C132.657 261.289 133.221 261.029 133.919 261.029C135.13 261.029 135.746 261.722 135.767 263.108V266.948H134.462V263.183C134.462 262.814 134.381 262.542 134.22 262.367C134.063 262.188 133.803 262.098 133.441 262.098C132.915 262.098 132.523 262.336 132.265 262.812V266.948H130.96V261.137H132.19Z" fill="#595959"/>
<path d="M192.301 263.634H189.154V266.948H187.795V259.128H192.763V260.224H189.154V262.549H192.301V263.634ZM196.158 267.056C195.331 267.056 194.659 266.796 194.144 266.277C193.632 265.754 193.375 265.059 193.375 264.193V264.032C193.375 263.452 193.486 262.934 193.708 262.479C193.934 262.021 194.249 261.665 194.654 261.411C195.058 261.156 195.51 261.029 196.007 261.029C196.799 261.029 197.409 261.282 197.839 261.787C198.272 262.292 198.489 263.006 198.489 263.93V264.456H194.691C194.731 264.936 194.89 265.315 195.169 265.595C195.452 265.874 195.807 266.014 196.233 266.014C196.831 266.014 197.318 265.772 197.694 265.289L198.397 265.96C198.165 266.307 197.853 266.578 197.463 266.771C197.076 266.961 196.641 267.056 196.158 267.056ZM196.002 262.077C195.644 262.077 195.354 262.202 195.132 262.453C194.913 262.703 194.774 263.052 194.713 263.5H197.2V263.403C197.171 262.966 197.055 262.637 196.851 262.415C196.646 262.189 196.364 262.077 196.002 262.077ZM204.606 264.102C204.606 265.004 204.404 265.722 204 266.255C203.598 266.789 203.045 267.056 202.34 267.056C201.66 267.056 201.13 266.81 200.75 266.32L200.686 266.948H199.504V258.698H200.809V261.695C201.185 261.251 201.692 261.029 202.329 261.029C203.038 261.029 203.595 261.292 204 261.819C204.404 262.345 204.606 263.081 204.606 264.026V264.102ZM203.301 263.989C203.301 263.359 203.19 262.886 202.968 262.571C202.746 262.256 202.424 262.098 202.001 262.098C201.436 262.098 201.038 262.345 200.809 262.839V265.235C201.042 265.74 201.443 265.992 202.012 265.992C202.42 265.992 202.736 265.84 202.958 265.536C203.18 265.231 203.294 264.771 203.301 264.155V263.989Z" fill="#595959"/>
<path d="M257.557 259.128L259.812 265.122L262.063 259.128H263.819V266.948H262.466V264.37L262.6 260.922L260.291 266.948H259.318L257.014 260.927L257.148 264.37V266.948H255.795V259.128H257.557ZM268.777 266.948C268.72 266.837 268.669 266.656 268.626 266.406C268.211 266.839 267.703 267.056 267.101 267.056C266.517 267.056 266.041 266.889 265.672 266.556C265.304 266.223 265.119 265.811 265.119 265.321C265.119 264.701 265.348 264.227 265.807 263.897C266.269 263.564 266.927 263.398 267.783 263.398H268.583V263.017C268.583 262.716 268.499 262.476 268.331 262.297C268.163 262.114 267.907 262.023 267.563 262.023C267.266 262.023 267.022 262.098 266.833 262.249C266.643 262.395 266.548 262.583 266.548 262.812H265.243C265.243 262.494 265.348 262.197 265.56 261.921C265.771 261.642 266.057 261.423 266.419 261.266C266.784 261.108 267.191 261.029 267.638 261.029C268.319 261.029 268.861 261.201 269.266 261.545C269.67 261.885 269.878 262.365 269.889 262.984V265.605C269.889 266.128 269.962 266.545 270.109 266.857V266.948H268.777ZM267.343 266.008C267.601 266.008 267.842 265.946 268.068 265.82C268.297 265.695 268.469 265.527 268.583 265.315V264.22H267.88C267.396 264.22 267.033 264.304 266.79 264.472C266.546 264.64 266.424 264.879 266.424 265.187C266.424 265.437 266.507 265.638 266.671 265.788C266.84 265.935 267.063 266.008 267.343 266.008ZM274.298 262.329C274.126 262.3 273.949 262.286 273.767 262.286C273.169 262.286 272.766 262.515 272.558 262.974V266.948H271.253V261.137H272.499L272.531 261.787C272.846 261.282 273.283 261.029 273.842 261.029C274.028 261.029 274.182 261.054 274.304 261.104L274.298 262.329Z" fill="#595959"/>
<path d="M329.172 265.127H326.143L325.509 266.948H324.097L327.051 259.128H328.27L331.229 266.948H329.812L329.172 265.127ZM326.524 264.032H328.791L327.658 260.788L326.524 264.032ZM336.826 264.102C336.826 265 336.622 265.718 336.214 266.255C335.806 266.789 335.258 267.056 334.57 267.056C333.933 267.056 333.423 266.846 333.04 266.427V269.183H331.734V261.137H332.938L332.991 261.728C333.374 261.262 333.895 261.029 334.554 261.029C335.263 261.029 335.818 261.294 336.219 261.824C336.624 262.351 336.826 263.083 336.826 264.021V264.102ZM335.526 263.989C335.526 263.409 335.41 262.949 335.177 262.608C334.948 262.268 334.619 262.098 334.189 262.098C333.655 262.098 333.272 262.318 333.04 262.759V265.337C333.276 265.788 333.663 266.014 334.2 266.014C334.615 266.014 334.939 265.847 335.172 265.514C335.408 265.178 335.526 264.669 335.526 263.989ZM340.978 262.329C340.806 262.3 340.629 262.286 340.446 262.286C339.848 262.286 339.445 262.515 339.238 262.974V266.948H337.933V261.137H339.179L339.211 261.787C339.526 261.282 339.963 261.029 340.521 261.029C340.708 261.029 340.862 261.054 340.983 261.104L340.978 262.329Z" fill="#595959"/>
<path d="M394.557 259.128L396.812 265.122L399.063 259.128H400.819V266.948H399.466V264.37L399.6 260.922L397.291 266.948H396.318L394.014 260.927L394.148 264.37V266.948H392.795V259.128H394.557ZM405.777 266.948C405.72 266.837 405.669 266.656 405.626 266.406C405.211 266.839 404.703 267.056 404.101 267.056C403.517 267.056 403.041 266.889 402.672 266.556C402.304 266.223 402.119 265.811 402.119 265.321C402.119 264.701 402.348 264.227 402.807 263.897C403.269 263.564 403.927 263.398 404.783 263.398H405.583V263.017C405.583 262.716 405.499 262.476 405.331 262.297C405.163 262.114 404.907 262.023 404.563 262.023C404.266 262.023 404.022 262.098 403.833 262.249C403.643 262.395 403.548 262.583 403.548 262.812H402.243C402.243 262.494 402.348 262.197 402.56 261.921C402.771 261.642 403.057 261.423 403.419 261.266C403.784 261.108 404.191 261.029 404.638 261.029C405.319 261.029 405.861 261.201 406.266 261.545C406.67 261.885 406.878 262.365 406.889 262.984V265.605C406.889 266.128 406.962 266.545 407.109 266.857V266.948H405.777ZM404.343 266.008C404.601 266.008 404.842 265.946 405.068 265.82C405.297 265.695 405.469 265.527 405.583 265.315V264.22H404.88C404.396 264.22 404.033 264.304 403.79 264.472C403.546 264.64 403.424 264.879 403.424 265.187C403.424 265.437 403.507 265.638 403.671 265.788C403.84 265.935 404.063 266.008 404.343 266.008ZM410.203 265.079L411.384 261.137H412.775L410.466 267.829C410.111 268.807 409.51 269.295 408.661 269.295C408.471 269.295 408.262 269.263 408.033 269.199V268.189L408.28 268.205C408.609 268.205 408.856 268.144 409.021 268.022C409.189 267.904 409.322 267.704 409.418 267.421L409.606 266.921L407.565 261.137H408.973L410.203 265.079Z" fill="#595959"/>
<path d="M464.996 259.128H466.35V264.612C466.35 265.36 466.115 265.955 465.646 266.395C465.181 266.835 464.565 267.056 463.798 267.056C462.982 267.056 462.352 266.85 461.908 266.438C461.464 266.026 461.242 265.453 461.242 264.719H462.595C462.595 265.135 462.697 265.448 462.901 265.659C463.109 265.867 463.408 265.971 463.798 265.971C464.164 265.971 464.454 265.851 464.668 265.611C464.887 265.367 464.996 265.033 464.996 264.606V259.128ZM471.302 266.379C470.919 266.83 470.374 267.056 469.669 267.056C469.039 267.056 468.561 266.871 468.235 266.502C467.913 266.134 467.751 265.6 467.751 264.902V261.137H469.057V264.886C469.057 265.623 469.363 265.992 469.975 265.992C470.609 265.992 471.037 265.765 471.259 265.31V261.137H472.564V266.948H471.334L471.302 266.379ZM475.104 261.137L475.142 261.808C475.572 261.289 476.136 261.029 476.834 261.029C478.044 261.029 478.66 261.722 478.682 263.108V266.948H477.376V263.183C477.376 262.814 477.296 262.542 477.135 262.367C476.977 262.188 476.718 262.098 476.356 262.098C475.83 262.098 475.438 262.336 475.18 262.812V266.948H473.875V261.137H475.104Z" fill="#595959"/>
<path d="M532.996 259.128H534.35V264.612C534.35 265.36 534.115 265.955 533.646 266.395C533.181 266.835 532.565 267.056 531.798 267.056C530.982 267.056 530.352 266.85 529.908 266.438C529.464 266.026 529.242 265.453 529.242 264.719H530.595C530.595 265.135 530.697 265.448 530.901 265.659C531.109 265.867 531.408 265.971 531.798 265.971C532.164 265.971 532.454 265.851 532.668 265.611C532.887 265.367 532.996 265.033 532.996 264.606V259.128ZM539.302 266.379C538.919 266.83 538.374 267.056 537.669 267.056C537.039 267.056 536.561 266.871 536.235 266.502C535.913 266.134 535.751 265.6 535.751 264.902V261.137H537.057V264.886C537.057 265.623 537.363 265.992 537.975 265.992C538.609 265.992 539.037 265.765 539.259 265.31V261.137H540.564V266.948H539.334L539.302 266.379ZM543.282 266.948H541.977V258.698H543.282V266.948Z" fill="#595959"/>
<path d="M603.172 265.127H600.143L599.509 266.948H598.097L601.051 259.128H602.27L605.229 266.948H603.812L603.172 265.127ZM600.524 264.032H602.791L601.658 260.788L600.524 264.032ZM609.451 266.379C609.068 266.83 608.524 267.056 607.818 267.056C607.188 267.056 606.71 266.871 606.384 266.502C606.062 266.134 605.901 265.6 605.901 264.902V261.137H607.206V264.886C607.206 265.623 607.512 265.992 608.125 265.992C608.758 265.992 609.186 265.765 609.408 265.31V261.137H610.713V266.948H609.483L609.451 266.379ZM611.814 264C611.814 263.097 612.026 262.377 612.448 261.84C612.874 261.3 613.438 261.029 614.14 261.029C614.803 261.029 615.324 261.26 615.703 261.722L615.762 261.137H616.938V266.771C616.938 267.534 616.7 268.135 616.224 268.576C615.751 269.016 615.112 269.236 614.307 269.236C613.881 269.236 613.463 269.147 613.055 268.968C612.651 268.792 612.343 268.561 612.131 268.275L612.749 267.491C613.15 267.967 613.644 268.205 614.231 268.205C614.665 268.205 615.007 268.087 615.257 267.851C615.508 267.618 615.633 267.274 615.633 266.819V266.427C615.257 266.846 614.756 267.056 614.129 267.056C613.449 267.056 612.892 266.785 612.459 266.245C612.029 265.704 611.814 264.956 611.814 264ZM613.114 264.112C613.114 264.696 613.232 265.156 613.469 265.493C613.709 265.826 614.04 265.992 614.462 265.992C614.989 265.992 615.379 265.767 615.633 265.315V262.759C615.386 262.318 615 262.098 614.473 262.098C614.043 262.098 613.709 262.268 613.469 262.608C613.232 262.949 613.114 263.45 613.114 264.112Z" fill="#595959"/>
<path d="M671.882 264.934C671.882 264.59 671.761 264.325 671.517 264.139C671.277 263.953 670.842 263.765 670.212 263.575C669.582 263.385 669.08 263.174 668.708 262.941C667.995 262.494 667.639 261.91 667.639 261.19C667.639 260.56 667.895 260.041 668.407 259.633C668.923 259.225 669.591 259.021 670.411 259.021C670.955 259.021 671.44 259.121 671.866 259.321C672.292 259.522 672.627 259.808 672.871 260.181C673.114 260.549 673.236 260.959 673.236 261.411H671.882C671.882 261.002 671.753 260.684 671.496 260.455C671.241 260.222 670.876 260.105 670.4 260.105C669.956 260.105 669.61 260.2 669.363 260.39C669.12 260.58 668.998 260.845 668.998 261.185C668.998 261.472 669.131 261.711 669.396 261.905C669.66 262.095 670.097 262.281 670.706 262.463C671.315 262.642 671.804 262.848 672.172 263.081C672.541 263.31 672.812 263.575 672.983 263.876C673.155 264.173 673.241 264.522 673.241 264.923C673.241 265.575 672.991 266.094 672.489 266.481C671.992 266.864 671.315 267.056 670.459 267.056C669.893 267.056 669.372 266.952 668.896 266.744C668.423 266.533 668.055 266.243 667.79 265.874C667.528 265.505 667.397 265.076 667.397 264.585H668.756C668.756 265.029 668.903 265.373 669.197 265.616C669.49 265.86 669.911 265.981 670.459 265.981C670.932 265.981 671.286 265.887 671.522 265.697C671.762 265.503 671.882 265.249 671.882 264.934ZM676.867 267.056C676.04 267.056 675.368 266.796 674.853 266.277C674.34 265.754 674.084 265.059 674.084 264.193V264.032C674.084 263.452 674.195 262.934 674.417 262.479C674.643 262.021 674.958 261.665 675.363 261.411C675.767 261.156 676.219 261.029 676.716 261.029C677.508 261.029 678.118 261.282 678.548 261.787C678.981 262.292 679.198 263.006 679.198 263.93V264.456H675.4C675.44 264.936 675.599 265.315 675.878 265.595C676.161 265.874 676.516 266.014 676.942 266.014C677.54 266.014 678.027 265.772 678.403 265.289L679.106 265.96C678.874 266.307 678.562 266.578 678.172 266.771C677.785 266.961 677.35 267.056 676.867 267.056ZM676.711 262.077C676.353 262.077 676.063 262.202 675.841 262.453C675.622 262.703 675.483 263.052 675.422 263.5H677.909V263.403C677.88 262.966 677.764 262.637 677.56 262.415C677.355 262.189 677.073 262.077 676.711 262.077ZM685.305 264.102C685.305 265 685.101 265.718 684.692 266.255C684.284 266.789 683.736 267.056 683.049 267.056C682.411 267.056 681.901 266.846 681.518 266.427V269.183H680.213V261.137H681.416L681.47 261.728C681.853 261.262 682.374 261.029 683.033 261.029C683.742 261.029 684.297 261.294 684.698 261.824C685.102 262.351 685.305 263.083 685.305 264.021V264.102ZM684.005 263.989C684.005 263.409 683.889 262.949 683.656 262.608C683.427 262.268 683.097 262.098 682.667 262.098C682.134 262.098 681.751 262.318 681.518 262.759V265.337C681.754 265.788 682.141 266.014 682.678 266.014C683.094 266.014 683.418 265.847 683.65 265.514C683.887 265.178 684.005 264.669 684.005 263.989Z" fill="#595959"/>
<defs>
<filter id="filter0_di" x="0" y="0" width="887" height="320" filterUnits="userSpaceOnUse" color-interpolation-filters="sRGB">
<feFlood flood-opacity="0" result="BackgroundImageFix"/>
<feColorMatrix in="SourceAlpha" type="matrix" values="0 0 0 0 0 0 0 0 0 0 0 0 0 0 0 0 0 0 127 0"/>
<feOffset dy="4"/>
<feGaussianBlur stdDeviation="2"/>
<feColorMatrix type="matrix" values="0 0 0 0 0 0 0 0 0 0 0 0 0 0 0 0 0 0 0.25 0"/>
<feBlend mode="normal" in2="BackgroundImageFix" result="effect1_dropShadow"/>
<feBlend mode="normal" in="SourceGraphic" in2="effect1_dropShadow" result="shape"/>
<feColorMatrix in="SourceAlpha" type="matrix" values="0 0 0 0 0 0 0 0 0 0 0 0 0 0 0 0 0 0 127 0" result="hardAlpha"/>
<feOffset dy="4"/>
<feGaussianBlur stdDeviation="2"/>
<feComposite in2="hardAlpha" operator="arithmetic" k2="-1" k3="1"/>
<feColorMatrix type="matrix" values="0 0 0 0 0 0 0 0 0 0 0 0 0 0 0 0 0 0 0.25 0"/>
<feBlend mode="normal" in2="shape" result="effect2_innerShadow"/>
</filter>
</defs>
</svg>
