<svg width="38" height="37" viewBox="0 0 38 37" fill="none" xmlns="http://www.w3.org/2000/svg">
<path d="M5.15238 26.6556C5.75303 27.2568 6.72331 27.2568 7.32396 26.6556L14.3932 19.5793C14.5356 19.4364 14.7049 19.323 14.8912 19.2457C15.0775 19.1683 15.2772 19.1285 15.4789 19.1285C15.6807 19.1285 15.8804 19.1683 16.0667 19.2457C16.253 19.323 16.4223 19.4364 16.5647 19.5793L18.3667 21.3831C19.233 22.2492 20.4074 22.7357 21.6318 22.7357C22.8562 22.7357 24.0305 22.2492 24.8968 21.3831L31.3346 14.9543L33.5524 17.1743C33.66 17.28 33.7962 17.3517 33.9442 17.3805C34.0921 17.4094 34.2453 17.3942 34.3847 17.3367C34.5241 17.2793 34.6435 17.1821 34.7283 17.0573C34.8131 16.9326 34.8594 16.7856 34.8615 16.6348V10.021C34.8657 9.91995 34.8492 9.81911 34.813 9.72469C34.7768 9.63027 34.7216 9.54429 34.6509 9.47205C34.5801 9.39982 34.4954 9.34286 34.4018 9.3047C34.3082 9.26653 34.2078 9.24798 34.1068 9.25017H27.4997C26.8066 9.25017 26.4678 10.0827 26.9606 10.5606L29.1784 12.7806L22.7561 19.2093C22.6136 19.3523 22.4443 19.4656 22.258 19.543C22.0717 19.6204 21.872 19.6602 21.6703 19.6602C21.4686 19.6602 21.2688 19.6204 21.0825 19.543C20.8962 19.4656 20.727 19.3523 20.5845 19.2093L18.7825 17.4056C17.9162 16.5395 16.7419 16.053 15.5175 16.053C14.293 16.053 13.1187 16.5395 12.2524 17.4056L5.15238 24.4818C4.56713 25.0831 4.56713 26.0698 5.15238 26.6556Z" fill="#76CC86"/>
</svg>
