<svg width="25" height="24" viewBox="0 0 25 24" fill="none" xmlns="http://www.w3.org/2000/svg">
<path d="M2.18933 4C2.18933 3.73478 2.29458 3.48043 2.48193 3.29289C2.66928 3.10536 2.92338 3 3.18833 3H21.1704C21.4353 3 21.6894 3.10536 21.8768 3.29289C22.0641 3.48043 22.1694 3.73478 22.1694 4V9.5C21.507 9.5 20.8718 9.76339 20.4034 10.2322C19.935 10.7011 19.6719 11.337 19.6719 12C19.6719 12.663 19.935 13.2989 20.4034 13.7678C20.8718 14.2366 21.507 14.5 22.1694 14.5V20C22.1694 20.2652 22.0641 20.5196 21.8768 20.7071C21.6894 20.8946 21.4353 21 21.1704 21H3.18833C2.92338 21 2.66928 20.8946 2.48193 20.7071C2.29458 20.5196 2.18933 20.2652 2.18933 20V4ZM8.26826 19C8.37123 18.707 8.56252 18.4532 8.81573 18.2737C9.06893 18.0942 9.37157 17.9978 9.68185 17.9978C9.99214 17.9978 10.2948 18.0942 10.548 18.2737C10.8012 18.4532 10.9925 18.707 11.0954 19H20.1714V16.032C19.4209 15.6597 18.7893 15.085 18.3477 14.3725C17.9061 13.6601 17.6721 12.8384 17.6721 12C17.6721 11.1616 17.9061 10.3399 18.3477 9.62746C18.7893 8.91505 19.4209 8.3403 20.1714 7.968V5H11.0954C10.9925 5.29299 10.8012 5.54677 10.548 5.72629C10.2948 5.90581 9.99214 6.00223 9.68185 6.00223C9.37157 6.00223 9.06893 5.90581 8.81573 5.72629C8.56252 5.54677 8.37123 5.29299 8.26826 5H4.18734V19H8.26826ZM9.68185 11C9.28443 11 8.90328 10.842 8.62225 10.5607C8.34123 10.2794 8.18335 9.89782 8.18335 9.5C8.18335 9.10218 8.34123 8.72064 8.62225 8.43934C8.90328 8.15804 9.28443 8 9.68185 8C10.0793 8 10.4604 8.15804 10.7415 8.43934C11.0225 8.72064 11.1804 9.10218 11.1804 9.5C11.1804 9.89782 11.0225 10.2794 10.7415 10.5607C10.4604 10.842 10.0793 11 9.68185 11ZM9.68185 16C9.28443 16 8.90328 15.842 8.62225 15.5607C8.34123 15.2794 8.18335 14.8978 8.18335 14.5C8.18335 14.1022 8.34123 13.7206 8.62225 13.4393C8.90328 13.158 9.28443 13 9.68185 13C10.0793 13 10.4604 13.158 10.7415 13.4393C11.0225 13.7206 11.1804 14.1022 11.1804 14.5C11.1804 14.8978 11.0225 15.2794 10.7415 15.5607C10.4604 15.842 10.0793 16 9.68185 16Z" fill="#E9A22D"/>
</svg>
