<svg width="50" height="32" viewBox="0 0 50 32" fill="none" xmlns="http://www.w3.org/2000/svg">
<rect x="0.933594" y="0.943604" width="48.1231" height="30.1949" fill="#FFB400"/>
<path d="M34.6333 22.7933L30.7744 18.9351C30.6003 18.7609 30.3642 18.6642 30.1165 18.6642H29.4856C30.5538 17.2982 31.1886 15.58 31.1886 13.7108C31.1886 9.26442 27.5852 5.66162 23.138 5.66162C18.6908 5.66162 15.0874 9.26442 15.0874 13.7108C15.0874 18.1573 18.6908 21.76 23.138 21.76C25.0074 21.76 26.7259 21.1254 28.0922 20.0573V20.6881C28.0922 20.9358 28.189 21.1718 28.3631 21.346L32.222 25.2042C32.5858 25.5679 33.1741 25.5679 33.5341 25.2042L34.6294 24.109C34.9933 23.7453 34.9933 23.1571 34.6333 22.7933ZM23.138 18.6642C20.4016 18.6642 18.1838 16.4507 18.1838 13.7108C18.1838 10.9749 20.3977 8.75747 23.138 8.75747C25.8744 8.75747 28.0922 10.971 28.0922 13.7108C28.0922 16.4468 25.8783 18.6642 23.138 18.6642Z" fill="#233A6C"/>
</svg>
