<svg width="29" height="30" viewBox="0 0 29 30" fill="none" xmlns="http://www.w3.org/2000/svg">
<path d="M14.356 18.2897C16.3686 18.2897 18.0002 16.6305 18.0002 14.5838C18.0002 12.5371 16.3686 10.8779 14.356 10.8779C12.3434 10.8779 10.7119 12.5371 10.7119 14.5838C10.7119 16.6305 12.3434 18.2897 14.356 18.2897Z" stroke="#595959" stroke-width="1.94118" stroke-linecap="round" stroke-linejoin="round"/>
<path d="M23.3506 18.2941C23.1889 18.6667 23.1407 19.08 23.2121 19.4807C23.2836 19.8815 23.4714 20.2512 23.7514 20.5424L23.8243 20.6165C24.0502 20.8459 24.2294 21.1184 24.3516 21.4183C24.4739 21.7182 24.5368 22.0397 24.5368 22.3644C24.5368 22.6891 24.4739 23.0106 24.3516 23.3105C24.2294 23.6104 24.0502 23.8829 23.8243 24.1124C23.5987 24.3421 23.3308 24.5243 23.0358 24.6486C22.7409 24.7729 22.4248 24.8369 22.1055 24.8369C21.7863 24.8369 21.4701 24.7729 21.1752 24.6486C20.8803 24.5243 20.6123 24.3421 20.3867 24.1124L20.3138 24.0382C20.0275 23.7535 19.6639 23.5624 19.2699 23.4898C18.8758 23.4171 18.4694 23.4662 18.1031 23.6306C17.7438 23.7872 17.4374 24.0472 17.2216 24.3786C17.0057 24.71 16.8899 25.0984 16.8884 25.4959V25.7059C16.8884 26.3611 16.6324 26.9895 16.1768 27.4529C15.7212 27.9162 15.1033 28.1765 14.4589 28.1765C13.8146 28.1765 13.1967 27.9162 12.7411 27.4529C12.2855 26.9895 12.0295 26.3611 12.0295 25.7059V25.5947C12.0201 25.1858 11.89 24.7893 11.656 24.4566C11.4221 24.124 11.0951 23.8706 10.7176 23.7294C10.3513 23.565 9.94486 23.5159 9.55081 23.5886C9.15677 23.6612 8.79316 23.8523 8.50688 24.1371L8.434 24.2112C8.20837 24.4409 7.94044 24.6231 7.64551 24.7474C7.35058 24.8718 7.03445 24.9358 6.71519 24.9358C6.39593 24.9358 6.0798 24.8718 5.78487 24.7474C5.48995 24.6231 5.22201 24.4409 4.99638 24.2112C4.7705 23.9817 4.59131 23.7092 4.46905 23.4093C4.3468 23.1094 4.28387 22.7879 4.28387 22.4632C4.28387 22.1386 4.3468 21.8171 4.46905 21.5171C4.59131 21.2172 4.7705 20.9447 4.99638 20.7153L5.06926 20.6412C5.3493 20.35 5.53715 19.9803 5.6086 19.5796C5.68005 19.1788 5.63181 18.7655 5.47012 18.3929C5.31614 18.0276 5.06046 17.716 4.73457 17.4965C4.40868 17.277 4.02679 17.1592 3.63591 17.1576H3.42941C2.78509 17.1576 2.16716 16.8974 1.71156 16.434C1.25596 15.9707 1 15.3423 1 14.6871C1 14.0318 1.25596 13.4034 1.71156 12.9401C2.16716 12.4768 2.78509 12.2165 3.42941 12.2165H3.53874C3.9408 12.2069 4.33073 12.0746 4.65784 11.8366C4.98496 11.5987 5.23412 11.2662 5.37294 10.8824C5.53464 10.5098 5.58287 10.0965 5.51142 9.69574C5.43998 9.29502 5.25212 8.92525 4.97209 8.63412L4.89921 8.56C4.67333 8.33055 4.49414 8.05807 4.37188 7.75815C4.24962 7.45822 4.18669 7.13673 4.18669 6.81206C4.18669 6.48739 4.24962 6.1659 4.37188 5.86597C4.49414 5.56605 4.67333 5.29357 4.89921 5.06412C5.12483 4.83441 5.39277 4.65218 5.68769 4.52785C5.98262 4.40352 6.29875 4.33953 6.61801 4.33953C6.93728 4.33953 7.25341 4.40352 7.54833 4.52785C7.84326 4.65218 8.1112 4.83441 8.33682 5.06412L8.40971 5.13824C8.69599 5.42302 9.05959 5.61405 9.45364 5.68671C9.84768 5.75937 10.2541 5.71032 10.6205 5.54588H10.7176C11.0769 5.38929 11.3833 5.12929 11.5991 4.79787C11.815 4.46645 11.9308 4.07809 11.9324 3.68059V3.47059C11.9324 2.81535 12.1883 2.18694 12.6439 1.72362C13.0995 1.26029 13.7174 1 14.3618 1C15.0061 1 15.624 1.26029 16.0796 1.72362C16.5352 2.18694 16.7912 2.81535 16.7912 3.47059V3.58176C16.7927 3.97927 16.9086 4.36763 17.1244 4.69905C17.3402 5.03046 17.6466 5.29047 18.0059 5.44706C18.3723 5.6115 18.7787 5.66055 19.1727 5.58789C19.5668 5.51523 19.9304 5.32419 20.2166 5.03941L20.2895 4.96529C20.5152 4.73559 20.7831 4.55336 21.078 4.42903C21.3729 4.3047 21.6891 4.2407 22.0083 4.2407C22.3276 4.2407 22.6437 4.3047 22.9387 4.42903C23.2336 4.55336 23.5015 4.73559 23.7271 4.96529C23.953 5.19475 24.1322 5.46722 24.2545 5.76715C24.3767 6.06707 24.4397 6.38856 24.4397 6.71324C24.4397 7.03791 24.3767 7.3594 24.2545 7.65932C24.1322 7.95925 23.953 8.23173 23.7271 8.46118L23.6543 8.53529C23.3742 8.82643 23.1864 9.1962 23.1149 9.59692C23.0435 9.99764 23.0917 10.4109 23.2534 10.7835V10.8824C23.4074 11.2477 23.6631 11.5593 23.989 11.7788C24.3149 11.9983 24.6967 12.1161 25.0876 12.1176H25.2941C25.9384 12.1176 26.5564 12.3779 27.012 12.8413C27.4676 13.3046 27.7235 13.933 27.7235 14.5882C27.7235 15.2435 27.4676 15.8719 27.012 16.3352C26.5564 16.7985 25.9384 17.0588 25.2941 17.0588H25.1848C24.7939 17.0604 24.412 17.1782 24.0861 17.3977C23.7602 17.6172 23.5046 17.9288 23.3506 18.2941V18.2941Z" stroke="#595959" stroke-width="1.94118" stroke-linecap="round" stroke-linejoin="round"/>
</svg>
