<svg width="30" height="29" viewBox="0 0 30 29" fill="none" xmlns="http://www.w3.org/2000/svg">
<path d="M6.375 5.8335C7.27246 5.8335 8 5.10596 8 4.2085C8 3.31103 7.27246 2.5835 6.375 2.5835C5.47754 2.5835 4.75 3.31103 4.75 4.2085C4.75 5.10596 5.47754 5.8335 6.375 5.8335Z" stroke="#595959" stroke-width="2" stroke-miterlimit="10"/>
<path d="M3.125 11.2498C3.125 11.2498 3.66667 8.91471 4.75 8.37305C5.83333 7.83138 6.91667 7.83138 8 8.37305C9.08333 8.91471 9.625 11.2498 9.625 11.2498" stroke="#595959" stroke-width="2" stroke-miterlimit="10" stroke-linecap="round" stroke-linejoin="round"/>
<path d="M25.329 10.8838C26.2264 10.8838 26.954 10.1563 26.954 9.25879C26.954 8.36133 26.2264 7.63379 25.329 7.63379C24.4315 7.63379 23.704 8.36133 23.704 9.25879C23.704 10.1563 24.4315 10.8838 25.329 10.8838Z" stroke="#595959" stroke-width="2" stroke-miterlimit="10"/>
<path d="M22.079 16.3006C22.079 16.3006 22.6206 13.9655 23.704 13.4238C24.7873 12.8822 25.8706 12.8822 26.954 13.4238C28.0373 13.9655 28.579 16.3001 28.579 16.3001" stroke="#595959" stroke-width="2" stroke-miterlimit="10" stroke-linecap="round" stroke-linejoin="round"/>
<path d="M11.2462 22.0874C12.1437 22.0874 12.8712 21.3599 12.8712 20.4624C12.8712 19.5649 12.1437 18.8374 11.2462 18.8374C10.3488 18.8374 9.62122 19.5649 9.62122 20.4624C9.62122 21.3599 10.3488 22.0874 11.2462 22.0874Z" stroke="#595959" stroke-width="2" stroke-miterlimit="10"/>
<path d="M7.99622 27.5042C7.99622 27.5042 8.53788 25.1691 9.62122 24.6274C10.7045 24.0858 11.7879 24.0858 12.8712 24.6274C13.9545 25.1691 14.4962 27.5037 14.4962 27.5037" stroke="#595959" stroke-width="2" stroke-miterlimit="10" stroke-linecap="round" stroke-linejoin="round"/>
<path d="M23.4656 5.907C21.1804 3.21112 17.7689 1.5 13.9583 1.5C12.4579 1.5 11.0203 1.76542 9.68835 2.25129" stroke="#595959" stroke-width="2" stroke-miterlimit="10" stroke-linecap="round" stroke-linejoin="round"/>
<path d="M16.3595 26.1855C20.8082 25.3167 24.4097 22.0813 25.7991 17.8428" stroke="#595959" stroke-width="2" stroke-miterlimit="10" stroke-linecap="round" stroke-linejoin="round"/>
<path d="M1.54712 12.8687C1.5157 13.2311 1.49998 13.5947 1.5 13.9585C1.5 18.2777 3.69808 22.0835 7.03692 24.3189" stroke="#595959" stroke-width="2" stroke-miterlimit="10" stroke-linecap="round" stroke-linejoin="round"/>
</svg>
