<svg width="24" height="28" viewBox="0 0 24 28" fill="none" xmlns="http://www.w3.org/2000/svg">
<path d="M12 13.7143C15.7875 13.7143 18.8571 10.6446 18.8571 6.85714C18.8571 3.06964 15.7875 0 12 0C8.2125 0 5.14286 3.06964 5.14286 6.85714C5.14286 10.6446 8.2125 13.7143 12 13.7143ZM16.8 15.4286H15.9054C14.7161 15.975 13.3929 16.2857 12 16.2857C10.6071 16.2857 9.28929 15.975 8.09464 15.4286H7.2C3.225 15.4286 0 18.6536 0 22.6286V24.8571C0 26.2768 1.15179 27.4286 2.57143 27.4286H21.4286C22.8482 27.4286 24 26.2768 24 24.8571V22.6286C24 18.6536 20.775 15.4286 16.8 15.4286Z" fill="#595959"/>
</svg>
